<?xml version="1.0" encoding="UTF-8" standalone="no"?>
<!-- Generator: Adobe Illustrator 24.2.0, SVG Export Plug-In . SVG Version: 6.00 Build 0) -->

<svg
   version="1.1"
   id="Layer_1"
   x="0px"
   y="0px"
   viewBox="0 0 365.87682 570.38391"
   xml:space="preserve"
   sodipodi:docname="icon.svg"
   inkscape:version="1.1.1 (eb90963e84, 2021-10-02)"
   width="365.87683"
   height="570.38391"
   xmlns:inkscape="http://www.inkscape.org/namespaces/inkscape"
   xmlns:sodipodi="http://sodipodi.sourceforge.net/DTD/sodipodi-0.dtd"
   xmlns="http://www.w3.org/2000/svg"
   xmlns:svg="http://www.w3.org/2000/svg"><defs
   id="defs465" /><sodipodi:namedview
   id="namedview463"
   pagecolor="#505050"
   bordercolor="#ffffff"
   borderopacity="1"
   inkscape:pageshadow="0"
   inkscape:pageopacity="0"
   inkscape:pagecheckerboard="1"
   showgrid="false"
   inkscape:zoom="0.97437398"
   inkscape:cx="405.90164"
   inkscape:cy="340.21844"
   inkscape:window-width="1600"
   inkscape:window-height="838"
   inkscape:window-x="0"
   inkscape:window-y="34"
   inkscape:window-maximized="1"
   inkscape:current-layer="Layer_1" /> <style
   type="text/css"
   id="style262"> .st0{fill:#36FF7D;} </style> <g
   id="g268"
   style="fill:#1a1a1a"
   transform="translate(-23.471661,-12.176501)"> <g
   id="g266"
   style="fill:#1a1a1a"> <path
   class="st0"
   d="m 32.9,207.5 c 2.1,2.4 1.8,5.5 2.2,8.2 1.7,11.8 2.7,23.8 4.4,35.7 0.9,5.9 0.7,11.9 2.1,17.7 0.3,1.4 -0.6,2.4 -1.1,3.5 -1.1,-4.5 -1.1,-9.2 -1.7,-13.8 -1.6,-12.2 -3.1,-24.5 -4.4,-36.8 -0.5,-4.8 -1.6,-9.6 -1.5,-14.5 z"
   id="path264"
   style="fill:#1a1a1a" /> </g> </g> <g
   id="g274"
   style="fill:#1a1a1a"
   transform="translate(-23.471661,-12.176501)"> <g
   id="g272"
   style="fill:#1a1a1a"> <path
   class="st0"
   d="m 40.5,272.6 c 2.9,1.9 0.7,4.3 0.6,6.5 -0.9,-2.2 -0.5,-4.4 -0.6,-6.5 z"
   id="path270"
   style="fill:#1a1a1a" /> </g> </g> <g
   id="g280"
   style="fill:#1a1a1a"
   transform="translate(-23.471661,-12.176501)"> <g
   id="g278"
   style="fill:#1a1a1a"> <path
   class="st0"
   d="m 41.2,279.6 c 2.7,1.8 0.6,3.9 0.5,5.9 -0.8,-1.9 -0.5,-3.9 -0.5,-5.9 z"
   id="path276"
   style="fill:#1a1a1a" /> </g> </g> <g
   id="g286"
   style="fill:#1a1a1a"
   transform="translate(-23.471661,-12.176501)"> <g
   id="g284"
   style="fill:#1a1a1a"> <path
   class="st0"
   d="m 43.6,320.6 c 0.9,3.1 0.3,6.3 0.4,9.5 -0.8,-3.1 -0.4,-6.3 -0.4,-9.5 z"
   id="path282"
   style="fill:#1a1a1a" /> </g> </g> <g
   id="g292"
   style="fill:#1a1a1a"
   transform="translate(-23.471661,-12.176501)"> <g
   id="g290"
   style="fill:#1a1a1a"> <path
   class="st0"
   d="m 42.4,296 c 1.4,0.9 1,2 0.7,3.3 -0.3,1 -0.2,2.1 -0.2,3.2 -0.8,-2.1 -0.6,-4.3 -0.5,-6.5 z"
   id="path288"
   style="fill:#1a1a1a" /> </g> </g> <g
   id="g298"
   style="fill:#1a1a1a"
   transform="translate(-23.471661,-12.176501)"> <g
   id="g296"
   style="fill:#1a1a1a"> <path
   class="st0"
   d="m 41.8,287.2 c 2.4,1.8 0.1,4 0.5,5.9 -0.8,-1.9 -0.6,-3.9 -0.5,-5.9 z"
   id="path294"
   style="fill:#1a1a1a" /> </g> </g> <g
   id="g304"
   style="fill:#1a1a1a"
   transform="translate(-23.471661,-12.176501)"> <g
   id="g302"
   style="fill:#1a1a1a"> <path
   class="st0"
   d="m 43,306.6 c 1.3,2.3 0.1,4.7 0.4,7.1 -0.8,-2.4 -0.5,-4.8 -0.4,-7.1 z"
   id="path300"
   style="fill:#1a1a1a" /> </g> </g> <g
   id="g310"
   style="fill:#1a1a1a"
   transform="translate(-23.471661,-12.176501)"> <g
   id="g308"
   style="fill:#1a1a1a"> <path
   class="st0"
   d="m 44,366.3 c -0.1,2.6 0.6,5.2 -0.4,7.7 0,-2.6 -0.4,-5.2 0.4,-7.7 z"
   id="path306"
   style="fill:#1a1a1a" /> </g> </g> <g
   id="g316"
   style="fill:#1a1a1a"
   transform="translate(-23.471661,-12.176501)"> <g
   id="g314"
   style="fill:#1a1a1a"> <path
   class="st0"
   d="m 41.1,438.4 c -0.1,2.4 0.5,4.8 -0.4,7.1 0,-2.4 -0.4,-4.8 0.4,-7.1 z"
   id="path312"
   style="fill:#1a1a1a" /> </g> </g> <g
   id="g322"
   style="fill:#1a1a1a"
   transform="translate(-23.471661,-12.176501)"> <g
   id="g320"
   style="fill:#1a1a1a"> <path
   class="st0"
   d="m 32.4,203.9 c 2,0.9 1,2.3 0.5,3.6 -0.8,-1.1 -0.5,-2.4 -0.5,-3.6 z"
   id="path318"
   style="fill:#1a1a1a" /> </g> </g> <g
   id="g328"
   style="fill:#1a1a1a"
   transform="translate(-23.471661,-12.176501)"> <g
   id="g326"
   style="fill:#1a1a1a"> <path
   class="st0"
   d="m 43.4,382.7 c -0.1,2.2 0.6,4.4 -0.4,6.5 0,-2.2 -0.3,-4.4 0.4,-6.5 z"
   id="path324"
   style="fill:#1a1a1a" /> </g> </g> <g
   id="g334"
   style="fill:#1a1a1a"
   transform="translate(-23.471661,-12.176501)"> <g
   id="g332"
   style="fill:#1a1a1a"> <path
   class="st0"
   d="m 42.8,396.8 c -0.1,2.2 0.6,4.4 -0.4,6.5 0,-2.2 -0.3,-4.4 0.4,-6.5 z"
   id="path330"
   style="fill:#1a1a1a" /> </g> </g> <g
   id="g340"
   style="fill:#1a1a1a"
   transform="translate(-23.471661,-12.176501)"> <g
   id="g338"
   style="fill:#1a1a1a"> <path
   class="st0"
   d="m 42.2,410.8 c -0.1,2.2 0.6,4.4 -0.4,6.5 0.1,-2.1 -0.3,-4.3 0.4,-6.5 z"
   id="path336"
   style="fill:#1a1a1a" /> </g> </g> <g
   id="g346"
   style="fill:#1a1a1a"
   transform="translate(-23.471661,-12.176501)"> <g
   id="g344"
   style="fill:#1a1a1a"> <path
   class="st0"
   d="m 41.7,424.3 c -0.1,2.2 0.5,4.4 -0.4,6.5 0.1,-2.1 -0.4,-4.3 0.4,-6.5 z"
   id="path342"
   style="fill:#1a1a1a" /> </g> </g> <g
   id="g352"
   style="fill:#1a1a1a"
   transform="translate(-23.471661,-12.176501)"> <g
   id="g350"
   style="fill:#1a1a1a"> <path
   class="st0"
   d="m 40.5,453.1 c -0.1,2.2 0.5,4.4 -0.4,6.5 0,-2.2 -0.4,-4.4 0.4,-6.5 z"
   id="path348"
   style="fill:#1a1a1a" /> </g> </g> <g
   id="g358"
   style="fill:#1a1a1a"
   transform="translate(-23.471661,-12.176501)"> <g
   id="g356"
   style="fill:#1a1a1a"> <path
   class="st0"
   d="m 39.9,467.7 c -0.1,2 0.5,4 -0.4,5.9 0,-1.9 -0.4,-3.9 0.4,-5.9 z"
   id="path354"
   style="fill:#1a1a1a" /> </g> </g> <g
   id="g364"
   style="fill:#1a1a1a"
   transform="translate(-23.471661,-12.176501)"> <g
   id="g362"
   style="fill:#1a1a1a"> <path
   class="st0"
   d="m 295,547.5 c 0,-0.6 -0.1,-1.1 -0.1,-1.7 9.2,-4.1 18.5,-8.1 27.7,-12.3 11.9,-5.4 23.7,-10.9 35.5,-16.4 2.4,-1.1 4.6,-2.5 6.5,-4.4 0,2.4 -2.1,3 -3.6,3.7 -8.8,4.4 -17.7,8.6 -26.6,12.7 -9.5,4.4 -19.2,8.5 -28.8,12.7 -2.2,1 -4.5,1.9 -6.7,2.8 -1.5,0.8 -3.1,1.4 -3.9,2.9 z"
   id="path360"
   style="fill:#1a1a1a" /> </g> </g> <g
   id="g370"
   style="fill:#1a1a1a"
   transform="translate(-23.471661,-12.176501)"> <g
   id="g368"
   style="fill:#1a1a1a"> <path
   class="st0"
   d="m 48.8,513.9 c 20,10.6 40.8,19.3 61.5,28.4 -0.8,1 -1.6,0.3 -2.3,-0.1 -16.8,-7.3 -33.6,-14.8 -50.2,-22.7 -2.3,-1.1 -4.6,-2.1 -6.7,-3.4 -1.1,-0.6 -2.1,-1 -2.3,-2.2 z"
   id="path366"
   style="fill:#1a1a1a" /> </g> </g> <g
   id="g376"
   style="fill:#1a1a1a"
   transform="translate(-23.471661,-12.176501)"> <g
   id="g374"
   style="fill:#1a1a1a"> <path
   class="st0"
   d="m 207,512.7 c -5.2,0 -10.7,-1.3 -16.7,-4 -7.5,-3.3 -15.2,-6.6 -22.6,-9.8 -4.4,-1.9 -8.8,-3.8 -13.3,-5.7 -2.1,-0.9 -4.3,-1.9 -6.4,-2.8 -6.8,-2.9 -13.8,-5.9 -20.6,-9.1 -9,-4.2 -14.6,-12.2 -16.1,-22.9 -0.9,-6.2 -0.3,-12.3 0.4,-19 v -0.1 c 0,-0.3 0.1,-0.6 0.1,-0.8 -0.2,-4.9 0,-9.8 0.2,-14.6 0.2,-3.7 0.4,-7.5 0.3,-11.2 -0.1,-9.5 0.2,-19.1 0.6,-28.5 0.1,-2.3 0.2,-4.7 0.2,-7 0.4,-12 0.5,-24.3 0.3,-36.4 -0.1,-10.8 -0.9,-21.7 -1.5,-32.3 l -0.2,-2.8 c -0.5,-8.1 -1.3,-16.7 -2.3,-27.2 -0.5,-5.1 -1.1,-10.2 -1.7,-15.2 -0.6,-4.8 -1.2,-9.9 -1.7,-14.8 -0.4,-3.8 -0.7,-7.7 -1,-11.4 -0.3,-3.6 -0.5,-7.3 -0.9,-10.9 -1,-9.6 -1.9,-20.9 -1.7,-32.6 0.4,-21.4 4,-38 11.3,-52.3 11.1,-21.9 26,-37.3 45.3,-47 10,-5 21.1,-8.1 33.9,-9.6 2.6,-0.3 5.2,-0.3 7.8,-0.4 1.6,0 3.3,0 4.9,-0.1 v 0 c 11.1,-0.4 22.3,1.1 33.2,4.4 11.3,3.4 21.5,8.9 30.4,16.2 9.8,8.1 18.5,18.4 26.4,31.5 7.3,12.1 11.7,25.6 13.6,41.3 1,8.3 1.9,17.1 1.2,26 -0.3,3.8 -0.5,7.6 -0.7,11.4 -0.4,5.9 -0.7,12 -1.3,18 l -0.5,4.6 c -0.7,7.1 -1.5,14.5 -2.1,21.7 -0.4,5 -1,10 -1.6,14.9 -0.4,3.3 -0.8,6.7 -1.2,10 -0.5,4.7 -0.9,9.7 -1.3,15.9 l -0.3,4.1 c -0.6,10.4 -1.3,21.1 -1.7,31.6 -0.5,11.6 -0.5,24.3 -0.2,40 0,2.2 0.1,4.5 0.1,6.7 0,4.4 0.1,8.9 0.3,13.4 0.3,5.2 0.3,10.4 0.4,15.5 0,4.8 0.1,9.8 0.3,14.6 0.2,3 0.2,6.1 0.2,9 0,3.5 0,7.2 0.3,10.8 0,0.7 0.1,1.4 0.2,2.1 0.2,2.8 0.4,5.7 0.4,8.6 -0.3,11.5 -5.6,20 -15.3,24.6 -8.3,4 -17,7.7 -25.3,11.3 -2.6,1.1 -5.3,2.2 -7.9,3.4 -6.9,3 -13.9,6 -20.7,8.9 -4.4,1.9 -8.7,3.7 -13.1,5.6 -4.1,1.5 -8.1,2.4 -12.4,2.4 z M 205.7,88.1 c -1.7,0.1 -3.4,0.1 -5,0.1 -2.5,0 -4.9,0.1 -7.4,0.3 -12.3,1.4 -23,4.4 -32.5,9.2 -18.5,9.3 -32.7,24.1 -43.5,45.2 -7,13.7 -10.4,29.8 -10.8,50.6 -0.2,11.4 0.7,22.6 1.7,32.1 0.4,3.7 0.7,7.4 0.9,11 0.3,3.7 0.6,7.6 1,11.3 0.5,4.9 1.1,9.9 1.7,14.7 0.6,5 1.2,10.2 1.7,15.3 1.1,10.5 1.8,19.2 2.3,27.3 l 0.2,2.8 c 0.7,10.6 1.4,21.7 1.5,32.5 0.2,12.2 0.1,24.5 -0.3,36.6 -0.1,2.3 -0.2,4.7 -0.2,7 -0.3,9.3 -0.6,18.9 -0.6,28.3 0,3.8 -0.2,7.7 -0.3,11.4 -0.2,4.7 -0.5,9.5 -0.2,14.2 0,0.5 0,1 -0.1,1.4 v 0.1 c -0.7,6.5 -1.2,12.3 -0.4,18 1.3,9.4 6,16.1 13.8,19.8 6.7,3.2 13.7,6.2 20.5,9.1 2.2,0.9 4.3,1.9 6.5,2.8 4.4,1.9 8.8,3.8 13.2,5.7 7.4,3.2 15.2,6.5 22.7,9.9 9.7,4.3 17.9,4.8 25.7,1.4 4.4,-1.9 8.7,-3.7 13.1,-5.6 6.8,-2.9 13.8,-5.9 20.7,-8.9 2.6,-1.1 5.3,-2.3 7.9,-3.4 8.3,-3.6 16.9,-7.2 25.2,-11.2 8.3,-4 12.6,-11 12.9,-21 0.1,-2.7 -0.1,-5.4 -0.4,-8.2 -0.1,-0.7 -0.1,-1.4 -0.2,-2.1 -0.3,-3.7 -0.3,-7.4 -0.3,-11 0,-2.9 0,-5.9 -0.2,-8.9 -0.2,-4.9 -0.3,-9.9 -0.3,-14.8 -0.1,-5 -0.1,-10.2 -0.4,-15.3 -0.2,-4.5 -0.3,-9.1 -0.3,-13.6 0,-2.2 0,-4.4 -0.1,-6.7 -0.3,-15.7 -0.3,-28.5 0.2,-40.2 0.4,-10.6 1.1,-21.3 1.7,-31.7 l 0.3,-4.1 c 0.4,-6.2 0.8,-11.3 1.3,-16.1 0.3,-3.4 0.8,-6.8 1.2,-10.1 0.6,-4.8 1.2,-9.8 1.6,-14.7 0.6,-7.3 1.4,-14.7 2.1,-21.8 l 0.5,-4.6 c 0.6,-5.9 1,-12 1.3,-17.8 0.2,-3.7 0.5,-7.6 0.8,-11.4 0.7,-8.5 -0.2,-17.1 -1.2,-25.2 -1.8,-15.1 -6.1,-28.1 -13.1,-39.6 -7.6,-12.7 -16,-22.6 -25.5,-30.5 -8.5,-7 -18.2,-12.2 -29,-15.5 -10.6,-3 -21.3,-4.4 -31.9,-4.1 z"
   id="path372"
   style="fill:#1a1a1a" /> </g> </g> <g
   id="g380"
   style="fill:#1a1a1a"
   transform="translate(-23.471661,-12.176501)"> <path
   class="st0"
   d="m 381.5,260.1 c 1.7,-13.8 3.1,-27.7 5,-41.5 2.2,-16.3 3.8,-32.5 2.2,-49 -1.1,-11.3 -3.2,-22.3 -6.6,-33.1 0.1,-0.5 -0.1,-0.9 -0.5,-1.2 0,-1.5 -0.7,-2.8 -1.2,-4.1 v 0 0 c -2.2,-7.2 -5.2,-14 -8.7,-20.7 C 354.8,77.5 329.8,52.6 297.3,35 288.1,30 278.7,25.6 268.6,22.7 v 0 c -0.2,-0.2 -0.5,-0.4 -0.7,-0.5 -17.8,-6 -36,-9.3 -54.7,-9.9 -16.3,-0.6 -32.5,1 -48.5,4.5 -33.3,7.5 -62.6,22.6 -87.5,45.9 -13.9,13 -25.4,28 -34.4,44.9 -11.6,22 -18,45.4 -19.2,70.2 -0.6,13.6 1,27.1 2.8,40.5 1.6,12.4 2.8,24.8 4.4,37.1 1.8,13.4 2.9,26.9 3.8,40.4 0.6,9.5 1,19.1 1.4,28.7 0.6,15 0.6,30.1 0.2,45.1 -0.6,20.5 -1.8,40.9 -2.6,61.4 -0.5,12.8 -0.9,25.6 -1.4,38.3 -0.2,5.5 -0.3,10.9 -0.9,16.4 -1.9,17.2 5.8,31.3 21.3,38.7 40.1,19 80.9,36.3 122.4,52.1 9.9,3.8 20,6.4 30.7,6 v 0 0 c 9.4,0.4 18.5,-1.2 27.2,-4.4 30.6,-11.2 60.7,-23.6 90.4,-36.9 12.9,-5.8 25.8,-11.5 38.5,-17.8 12.5,-6.2 19,-16.6 19.6,-30.6 v 0 c 0.2,-3.7 -0.2,-7.4 -0.3,-11.1 -0.9,-19.2 -1.6,-38.4 -2.4,-57.6 -0.7,-17.7 -1.2,-35.5 -2,-53.2 -0.9,-18.6 -0.4,-37.3 0.3,-55.9 0.9,-18.2 2.3,-36.6 4.5,-54.9 z M 185.5,21.6 c 3.8,-0.1 7.5,-0.7 11.3,-1 2.4,-0.7 4.8,-0.4 7.1,-0.4 1.2,0 2.4,0 3.6,0 2.7,0.1 5.4,-0.4 8.1,0.3 13.5,1 26.9,3.1 40,6.5 9.1,1.9 17.5,5.5 26,9.1 l 4.7,2.2 c 6.9,3.3 13.4,7.1 19.8,11.2 1.7,1 3.2,2.2 4.8,3.3 12.4,8.9 23.7,19 33.2,31 5.3,6.7 10.1,13.8 14.7,21 0.6,1 1.2,2 1.8,3 1.3,3 2.7,5.9 4,8.9 2.9,6.2 5.2,12.6 7.3,19 2.8,8.7 4.5,17.6 6,26.7 1.9,12.1 1.9,24.2 0.8,36.4 -0.3,8.4 -1.9,16.7 -2.9,25.1 -1.3,10.6 -2.2,21.2 -3.6,31.8 -1.4,10.9 -2.3,21.8 -3.4,32.7 -0.9,9.6 -1.4,19.2 -1.8,28.8 -0.3,8.3 -0.1,16.5 -0.5,24.8 -0.3,5.6 -0.1,11.3 0.4,16.9 0.7,7.5 0.1,15 0.6,22.5 0.5,9.4 0.8,18.9 1.2,28.3 0.4,9.9 0.9,19.8 1.2,29.7 0.2,7.4 0.7,14.8 0.8,22.2 0.1,5.2 0.2,10.5 0.5,15.7 0.7,10 1.9,20 -2.6,29.6 -0.1,0.2 -0.2,0.5 -0.2,0.8 -0.2,0.2 -0.3,0.5 -0.5,0.7 -1.3,1.5 -2.9,2.7 -3.9,4.5 -1.1,2.2 -3.3,3 -5.3,4 -19.6,9.7 -39.6,18.5 -59.7,27.1 -1.7,0.7 -3.4,1.5 -4.5,3.1 -0.3,0.5 -1.1,0.9 -0.7,1.7 v 0 c -1.3,-0.9 -2.5,0 -3.6,0.4 -7.4,3.2 -15,6 -22.4,9.3 -1.7,0.8 -3.3,1.1 -4.9,-0.2 -1.1,-0.1 -2.1,0.4 -3.1,0.8 -10.7,4 -21.1,8.6 -32,12 -9.8,3 -19.8,4.9 -30.2,2.9 -4.3,-0.6 -8.5,-1.5 -12.5,-2.8 -10.6,-3.4 -20.8,-7.8 -31.2,-11.7 -1.5,-0.6 -3,-1.5 -4.7,-1.3 -1.5,0.9 -2.9,0.8 -4.4,0.2 -8.1,-3.3 -16.2,-6.8 -24.3,-10 -1.5,-0.6 -2.2,-1.5 -2.4,-3 -2.3,-1.9 -5,-2.8 -7.7,-3.5 -4,-0.6 -7.5,-2.7 -11.1,-4.2 -14.7,-6.4 -29.1,-13.1 -43.6,-19.8 -2.2,-1 -4.4,-2.1 -6.1,-3.9 -1.2,-1.3 -2.1,-2.8 -3.7,-3.7 -0.1,-0.1 -0.1,-0.3 -0.2,-0.4 -0.3,-1.1 -1.1,-1.9 -1.7,-2.7 -2.1,-3.1 -3.5,-6.5 -3.9,-10.3 -0.3,-1.7 -0.3,-3.5 -0.4,-5.2 -0.3,-5.9 1,-11.8 0.6,-17.8 -0.1,-2.1 -0.3,-4.2 0.3,-6.2 0.4,-2.6 0.2,-5.3 0.2,-7.9 0,-2.2 -0.3,-4.5 0.4,-6.7 0.4,-2.5 0.2,-4.9 0.2,-7.4 0,-2.4 -0.4,-4.9 0.4,-7.2 0.4,-2.5 0.2,-4.9 0.2,-7.4 0,-2.2 -0.3,-4.5 0.3,-6.7 0.4,-2.3 0.2,-4.5 0.2,-6.8 0,-2.2 -0.3,-4.5 0.4,-6.7 0.4,-2.4 0.2,-4.9 0.2,-7.4 0,-2.2 -0.3,-4.5 0.4,-6.7 0.4,-2.5 0.2,-4.9 0.2,-7.4 0,-2.3 -0.3,-4.5 0.4,-6.7 0.4,-2.8 0.2,-5.7 0.2,-8.6 0,-2.7 -0.4,-5.4 0.4,-8 0.4,-11.9 0.4,-23.8 0,-35.7 -0.8,-3.2 -0.4,-6.4 -0.4,-9.6 0,-2.3 0.1,-4.6 -0.2,-6.9 -0.7,-2.4 -0.4,-4.8 -0.4,-7.1 0,-1.4 0,-2.7 -0.3,-4.1 -0.6,-2.1 -0.3,-4.3 -0.4,-6.4 0,-1 -0.1,-2 -0.3,-3 -0.6,-1.9 -0.3,-3.8 -0.4,-5.8 0,-0.6 -0.1,-1.3 -0.2,-1.9 -0.6,-1.8 -0.2,-3.8 -0.4,-5.6 0,-0.3 -0.1,-0.6 -0.2,-0.9 -0.6,-2 -0.1,-4.1 -0.5,-6.1 -0.1,-0.3 -0.1,-0.6 -0.3,-0.9 0,-2.3 -0.5,-4.6 -0.6,-7 -0.8,-9.4 -2.2,-18.7 -3.3,-28.1 -1.1,-9.5 -2.4,-18.9 -3.3,-28.4 0,-0.3 -0.1,-0.6 -0.2,-1 -0.4,-1.2 -0.3,-2.4 -0.5,-3.7 -0.1,-2.8 -0.9,-5.6 -0.9,-8.4 -0.1,-10.5 -0.5,-21.1 1,-31.6 5,-34.8 20,-64.7 44.2,-90 9.8,-10.3 21,-19 33,-26.5 21,-13.2 43.8,-21.3 68.3,-24.9 z"
   id="path378"
   style="fill:#1a1a1a" /> </g> <g
   id="g384"
   style="fill:#1a1a1a"
   transform="translate(-23.471661,-12.176501)"> <path
   class="st0"
   d="m 185.5,193.5 c -4.7,0 -9.3,0 -14,0 -5.2,0 -7.9,-2.6 -8,-7.7 -0.1,-13.3 -0.1,-26.4 0,-36.4 0,-3.8 2.7,-6.5 6.6,-6.5 23.2,0 47.5,0 72.1,0 3.4,0 5.7,2 6.5,5.4 0,0.1 0.1,0.2 0.1,0.4 0.1,0.4 0.2,0.8 0.2,1.3 0,2.7 0,5.4 0,8.2 0,9.6 0.1,19.6 0,29.4 0,3.6 -2.8,5.9 -7.1,5.9 -7.9,0 -15.7,0 -23.6,0 -4,0 -7.9,0 -11.9,0 h -6.9 c -4.7,0 -9.3,0 -14,0 z M 204,145.3 c -11.5,0 -22.8,0 -33.8,0 -2.6,0 -4.3,1.6 -4.3,4.1 0,9.9 -0.1,23 0,36.3 0,3.8 1.6,5.3 5.6,5.3 9.3,0 18.6,0 28,0 h 6.9 c 4,0 7.9,0 11.9,0 7.9,0 15.7,0 23.6,0 1.1,0 4.7,-0.3 4.8,-3.5 0.1,-9.8 0.1,-19.7 0,-29.3 0,-2.7 0,-5.4 0,-8.2 0,-0.2 -0.1,-0.5 -0.1,-0.7 0,-0.2 -0.1,-0.3 -0.1,-0.5 -0.3,-1.6 -1.4,-3.6 -4.2,-3.6 -13,0.1 -25.7,0.1 -38.3,0.1 z"
   id="path382"
   style="fill:#1a1a1a" /> </g> <g
   id="g388"
   style="fill:#1a1a1a"
   transform="translate(-23.471661,-12.176501)"> <path
   class="st0"
   d="m 219.2,234.5 v 0 c -6.4,0 -11.7,-5.2 -11.7,-11.5 0,-3.3 1.2,-6.3 3.5,-8.6 2.2,-2.2 5.2,-3.4 8.3,-3.4 6.5,0.1 11.5,5.3 11.5,11.9 0,3.1 -1.2,6 -3.3,8.2 -2,2.2 -5,3.4 -8.3,3.4 z m 0.1,-21.1 c -2.5,0 -4.8,1 -6.5,2.7 -1.8,1.8 -2.9,4.3 -2.8,6.9 0,5 4.2,9.1 9.3,9.2 0,0 0,0 0.1,0 2.7,0 5.1,-0.9 6.8,-2.7 1.7,-1.7 2.6,-4 2.6,-6.5 v 0 c 0,-5.3 -4.1,-9.5 -9.2,-9.6 -0.2,0 -0.3,0 -0.3,0 z"
   id="path386"
   style="fill:#1a1a1a" /> </g> <g
   id="g392"
   style="fill:#1a1a1a"
   transform="translate(-23.471661,-12.176501)"> <path
   class="st0"
   d="m 192.9,234.5 v 0 c -6.6,0 -11.7,-5.2 -11.7,-11.7 0,-3 1.3,-6 3.5,-8.3 2.2,-2.2 5.3,-3.5 8.3,-3.5 6.5,0.1 11.6,5.3 11.6,11.8 0,6.8 -4.9,11.7 -11.7,11.7 z m 0.1,-21.1 c -2.4,0 -4.8,1 -6.6,2.8 -1.8,1.8 -2.8,4.2 -2.8,6.6 0,5.3 4.1,9.4 9.4,9.4 v 0 c 5.4,0 9.3,-3.9 9.3,-9.3 v 0 c 0,-5.3 -4.1,-9.5 -9.3,-9.5 z"
   id="path390"
   style="fill:#1a1a1a" /> </g> <g
   id="g396"
   style="fill:#1a1a1a"
   transform="translate(-23.471661,-12.176501)"> <path
   class="st0"
   d="m 166.7,234.5 v 0 c -6.6,0 -11.8,-5.1 -11.8,-11.7 0,-2.9 1.2,-5.9 3.5,-8.1 2.3,-2.3 5.4,-3.7 8.4,-3.7 v 0 c 3,0 5.9,1.2 8,3.3 2.3,2.3 3.5,5.3 3.5,8.7 0,6.6 -5,11.5 -11.6,11.5 z m 0.1,-21.1 v 0 c -2.4,0 -4.9,1.1 -6.8,3 -1.8,1.8 -2.8,4.2 -2.8,6.4 0.1,5.3 4.1,9.3 9.5,9.3 v 0 0 c 5.2,0 9.2,-3.9 9.2,-9.1 0,-2.7 -1,-5.2 -2.8,-7 -1.7,-1.7 -3.9,-2.6 -6.3,-2.6 z"
   id="path394"
   style="fill:#1a1a1a" /> </g> <g
   id="g400"
   style="fill:#1a1a1a"
   transform="translate(-23.471661,-12.176501)"> <path
   class="st0"
   d="m 245.4,234.5 h -0.1 c -6.4,-0.1 -11.4,-5.2 -11.4,-11.6 0,-6.5 5.3,-11.8 11.7,-11.8 v 0 c 3.1,0 6.1,1.2 8.3,3.5 2.3,2.3 3.5,5.4 3.5,8.6 -0.1,6.3 -5.3,11.3 -12,11.3 z m 0.2,-21.1 v 0 c -5.1,0 -9.3,4.3 -9.4,9.5 0,5.2 3.9,9.2 9.1,9.3 v 0 h 0.1 c 5.3,0 9.5,-4 9.6,-9 0,-2.6 -1,-5.1 -2.8,-7 -1.7,-1.8 -4.1,-2.8 -6.6,-2.8 z"
   id="path398"
   style="fill:#1a1a1a" /> </g> <g
   id="g404"
   style="fill:#1a1a1a"
   transform="translate(-23.471661,-12.176501)"> <path
   class="st0"
   d="m 219.1,223.2 c 1.4,-1.1 1.6,-2.7 2.5,-3.8 0.6,-0.7 1.4,-1.1 2.3,-0.6 0.9,0.5 0.9,1.4 0.5,2.1 -1.2,2.6 -2.4,5.1 -3.8,7.5 -0.7,1.2 -2.2,1.1 -2.9,-0.1 -1.3,-2.3 -2.5,-4.6 -3.6,-7 -0.5,-0.9 -0.4,-2 0.7,-2.5 1,-0.4 1.7,0.2 2.2,1 0.8,1 1.4,2.2 2.1,3.4 z"
   id="path402"
   style="fill:#1a1a1a" /> </g> <g
   id="g408"
   style="fill:#1a1a1a"
   transform="translate(-23.471661,-12.176501)"> <path
   class="st0"
   d="m 192.9,223 c -0.9,1.7 -1.5,2.8 -2.2,4 -0.5,0.9 -1.3,1.2 -2.2,0.8 -1,-0.4 -1.2,-1.4 -0.8,-2.2 1.2,-2.5 2.6,-5 4,-7.4 0.7,-1.1 1.9,-1.2 2.6,0 1.5,2.5 2.8,5.1 4.1,7.7 0.4,0.8 0,1.5 -0.8,1.9 -0.9,0.4 -1.8,0.2 -2.3,-0.7 -0.7,-1.1 -1.4,-2.4 -2.4,-4.1 z"
   id="path406"
   style="fill:#1a1a1a" /> </g> <g
   id="g412"
   style="fill:#1a1a1a"
   transform="translate(-23.471661,-12.176501)"> <path
   class="st0"
   d="m 166.6,228 c -1.2,-0.1 -2.5,0 -3.7,-0.2 -0.7,-0.1 -1.6,-0.4 -1.4,-1.5 0.1,-0.8 0.7,-1.1 1.5,-1.1 2.5,0 5,-0.1 7.5,0 0.8,0 1.6,0.5 1.6,1.4 0,0.9 -0.8,1.3 -1.7,1.3 -1.3,0 -2.6,0 -3.8,0.1 0,-0.1 0,0 0,0 z"
   id="path410"
   style="fill:#1a1a1a" /> </g> <g
   id="g416"
   style="fill:#1a1a1a"
   transform="translate(-23.471661,-12.176501)"> <path
   class="st0"
   d="m 166.7,220.4 c -1.3,0 -2.5,0 -3.8,0 -0.7,0 -1.4,-0.3 -1.5,-1.1 0,-0.9 0.6,-1.2 1.4,-1.2 2.5,0 5.1,0 7.6,0 0.7,0 1.3,0.5 1.3,1.3 -0.1,0.9 -0.8,1 -1.5,1 -1.1,0 -2.3,0 -3.5,0 z"
   id="path414"
   style="fill:#1a1a1a" /> </g> <g
   id="g420"
   style="fill:#1a1a1a"
   transform="translate(-23.471661,-12.176501)"> <path
   class="st0"
   d="m 166.6,223.9 c -1.3,0 -2.5,0 -3.8,0 -0.7,0 -1.4,-0.3 -1.3,-1.2 0,-0.7 0.6,-1 1.2,-1.1 2.6,0 5.3,-0.1 7.9,0 0.7,0 1.3,0.6 1.2,1.4 -0.1,0.7 -0.7,0.9 -1.3,0.9 -1.4,0 -2.6,0 -3.9,0 z"
   id="path418"
   style="fill:#1a1a1a" /> </g> <g
   id="g424"
   style="fill:#1a1a1a"
   transform="translate(-23.471661,-12.176501)"> <path
   class="st0"
   d="m 252.1,222.7 c -0.1,1.4 -0.9,2.2 -2.2,2.2 -2,-0.1 -2.6,0.7 -2.5,2.6 0.1,1 -0.6,1.6 -1.6,1.7 -1.2,0.1 -1.9,-0.6 -1.9,-1.7 0.1,-1.9 -0.6,-2.6 -2.5,-2.6 -1.3,0 -2.2,-0.8 -2.1,-2.3 0.1,-1.4 1.1,-1.8 2.3,-1.7 1.8,0.2 2.5,-0.5 2.3,-2.3 -0.1,-1.2 0.3,-2.2 1.7,-2.3 1.6,-0.1 2,1 1.9,2.3 -0.2,1.8 0.6,2.5 2.4,2.3 1.1,0 2,0.4 2.2,1.8 z"
   id="path422"
   style="fill:#1a1a1a" /> </g> <g
   id="g428"
   style="fill:#1a1a1a"
   transform="translate(-23.471661,-12.176501)"> <path
   class="st0"
   d="m 223.7,433.1 -0.5,-2.3 c 0.1,0 0.1,0 0.1,0 0,-0.1 0,-0.6 0,-0.9 0,-0.1 0,-0.3 0,-0.4 0,-0.9 0,-1.9 0,-2.8 0,-2.2 0,-4.5 -0.1,-6.8 -0.1,-2.4 0.8,-3.8 2.9,-4.7 5.6,-2.3 10.8,-6 15.7,-11.1 10.7,-11.2 13.7,-29.4 7.1,-43.3 -4.5,-9.5 -11.9,-16.7 -22.1,-21.4 -2.3,-1.1 -3.2,-2.5 -3.1,-4.9 0.1,-1.4 0.1,-2.9 0,-4.4 0,-1.3 0,-2.7 0,-4.1 0,-1.1 -0.3,-1.8 -1.1,-2.3 h -33.2 c -0.7,0.4 -0.9,0.9 -0.9,1.8 0,1.3 0,2.6 0,3.9 0,1.6 -0.1,3.3 0,4.9 0.1,2.8 -1.2,4 -3.2,5 -16.6,8.3 -25.1,20.9 -25.4,37.5 -0.2,15.8 7.1,28 21.1,35.5 6.8,3.6 9.2,8 8.1,15.2 l -0.8,4.7 -2.3,-0.4 0.8,-4.7 c 1,-6.2 -0.8,-9.6 -6.8,-12.8 -14.6,-7.8 -22.5,-21.1 -22.3,-37.6 0.2,-17.6 9.2,-30.9 26.7,-39.6 1.6,-0.8 2,-1.3 1.9,-2.8 -0.1,-1.7 -0.1,-3.4 0,-5 0,-1.2 0,-2.5 0,-3.8 0,-2 0.8,-3.4 2.5,-4.1 l 0.2,-0.1 h 34.3 l 0.3,0.1 c 1.8,1 2.6,2.5 2.5,4.6 -0.1,1.3 0,2.7 0,4 0,1.5 0,3 -0.1,4.6 -0.1,1.4 0.3,2 1.7,2.6 10.6,4.9 18.4,12.4 23.2,22.5 7,14.7 3.8,34.1 -7.6,46 -5.2,5.4 -10.6,9.2 -16.5,11.7 -1.2,0.5 -1.5,1.1 -1.5,2.5 0.1,2.3 0.1,4.6 0.1,6.9 0,0.9 0,1.9 0,2.8 0,0.1 0,0.2 0,0.3 0.3,0.8 0.3,2.7 -1.7,3.2 z"
   id="path426"
   style="fill:#1a1a1a" /> </g> <g
   id="g432"
   style="fill:#1a1a1a"
   transform="translate(-23.471661,-12.176501)"> <path
   class="st0"
   d="m 206.5,436.3 c -34.6,0 -62.8,-28.2 -62.8,-62.8 0,-34.6 28.2,-62.8 62.8,-62.8 34.6,0 62.8,28.2 62.8,62.8 0,34.6 -28.2,62.8 -62.8,62.8 z m 0,-123.2 c -33.3,0 -60.5,27.1 -60.5,60.5 0,33.4 27.1,60.5 60.5,60.5 33.3,0 60.5,-27.1 60.5,-60.5 0,-33.4 -27.2,-60.5 -60.5,-60.5 z"
   id="path430"
   style="fill:#1a1a1a" /> </g> <g
   id="g444"
   style="fill:#1a1a1a"
   transform="translate(-23.471661,-12.176501)"> <path
   class="st0"
   d="m 342.2,447.4 h 4 v 16.9 c 0,1.7 -0.9,3.1 -2.4,3.8 -1.5,0.7 -3.2,0.5 -4.5,-0.6 L 321,452 c 0,0 -0.1,-0.1 -0.2,0 -0.1,0.1 -0.1,0.1 -0.1,0.2 v 14.9 h -4 v -14.9 c 0,-1.7 0.9,-3.1 2.4,-3.8 1.5,-0.7 3.2,-0.5 4.5,0.6 l 18.2,15.5 c 0,0 0.1,0.1 0.2,0 0.1,-0.1 0.1,-0.1 0.1,-0.2 v -16.9 z"
   id="path434"
   style="fill:#1a1a1a" /> <path
   class="st0"
   d="m 331.1,412 v 0 h 0.2 14.8 v 4 h -4.7 v 0 h -10 -0.1 c -5.9,0 -10.7,4.8 -10.7,10.7 0,5.9 4.8,10.7 10.7,10.7 5.9,0 10.7,-4.8 10.7,-10.7 0,-2.9 -1.1,-5.4 -2.9,-7.4 h 5 c 1.3,2.2 2,4.7 2,7.4 0,8.1 -6.6,14.7 -14.7,14.7 -8.1,0 -14.7,-6.6 -14.7,-14.7 -0.1,-8.1 6.4,-14.6 14.4,-14.7 z"
   id="path436"
   style="fill:#1a1a1a" /> <path
   class="st0"
   d="m 331.4,376.5 c 8.1,0 14.7,6.6 14.7,14.7 0,2.7 -0.7,5.2 -2,7.4 h -5 c 1.8,-1.9 3,-4.5 3,-7.4 0,-5.9 -4.8,-10.7 -10.7,-10.7 -5.9,0 -10.7,4.8 -10.7,10.7 0,5.9 4.7,10.6 10.6,10.7 v 0 h 31.3 v 4 h -31.2 c -8.1,0 -14.7,-6.6 -14.7,-14.7 0,-8 6.6,-14.7 14.7,-14.7 z"
   id="path438"
   style="fill:#1a1a1a" /> <path
   class="st0"
   d="m 331.4,341.1 c 8.1,0 14.7,6.6 14.7,14.7 0,2.7 -0.7,5.2 -2,7.4 h -5 c 1.8,-1.9 3,-4.5 3,-7.4 0,-5.9 -4.8,-10.7 -10.7,-10.7 -5.9,0 -10.7,4.8 -10.7,10.7 0,5.9 4.7,10.6 10.6,10.7 v 0 h 31.3 v 4 h -31.2 c -8.1,0 -14.7,-6.6 -14.7,-14.7 0,-8 6.6,-14.7 14.7,-14.7 z"
   id="path440"
   style="fill:#1a1a1a" /> <path
   class="st0"
   d="m 313.8,335.2 h -4 v -4 h 4 z m 32.4,0 h -29.6 v -4 h 29.6 z"
   id="path442"
   style="fill:#1a1a1a" /> </g> <g
   id="Group_200"
   transform="translate(-137.29466,-13.366501)"
   style="fill:#1a1a1a"> <g
   id="Path_338"
   style="fill:#1a1a1a"> <g
   id="g448"
   style="fill:#1a1a1a"> <path
   class="st0"
   d="m 311.3,272.9 c -0.9,0 -1.7,-0.3 -2.5,-0.8 -1.7,-1.4 -2,-3.9 -0.7,-5.7 l 10.5,-13 c 1.4,-1.7 3.9,-2 5.7,-0.7 v 0 c 1.7,1.4 2,3.8 0.7,5.7 l -10.5,13 c -0.8,1 -2,1.5 -3.2,1.5 z M 321.8,253 c -0.9,0 -1.7,0.4 -2.3,1.1 l -10.5,13 c -0.9,1.3 -0.7,3.1 0.5,4.1 1.3,0.9 3.1,0.7 4.1,-0.5 l 10.5,-12.9 c 0.9,-1.3 0.7,-3.1 -0.5,-4.1 -0.5,-0.5 -1.1,-0.7 -1.8,-0.7 z"
   id="path446"
   style="fill:#1a1a1a" /> </g> </g> <g
   id="Path_339"
   style="fill:#1a1a1a"> <g
   id="g453"
   style="fill:#1a1a1a"> <path
   class="st0"
   d="M 327.9,273.3 311.4,273 c -2.2,0 -3.9,-1.8 -3.9,-4 0,-2.2 1.8,-4 4,-4 l 16.5,0.3 c 2.2,0 4,1.9 4,4.1 0,2.1 -1.8,3.9 -4.1,3.9 z M 311.5,266 c -1.6,0 -2.9,1.3 -2.9,2.9 0,1.6 1.2,2.9 2.8,2.9 l 16.5,0.3 c 1.7,0 3,-1.3 3,-2.8 0,-1.7 -1.3,-3 -2.9,-3 z"
   id="path451"
   style="fill:#1a1a1a" /> </g> </g> <g
   id="Path_340"
   style="fill:#1a1a1a"> <g
   id="g458"
   style="fill:#1a1a1a"> <path
   class="st0"
   d="m 317.7,286.3 c -0.9,0 -1.7,-0.3 -2.5,-0.8 -1.8,-1.5 -2.1,-4 -0.7,-5.6 L 324.9,267 c 0.6,-0.9 1.5,-1.4 2.5,-1.6 1.1,-0.2 2.3,0.1 3.2,0.9 v 0 c 1.7,1.4 2,3.8 0.7,5.7 l -10.4,13 c -0.9,0.8 -2,1.3 -3.2,1.3 z M 328,266.4 c -0.1,0 -0.3,0 -0.4,0 -0.7,0.1 -1.4,0.5 -1.8,1.2 l -10.4,13 c -1,1.2 -0.8,3 0.5,4 1.3,0.9 3.1,0.7 4.1,-0.5 l 10.4,-12.9 c 0.9,-1.3 0.7,-3.1 -0.5,-4.1 -0.5,-0.5 -1.2,-0.7 -1.9,-0.7 z"
   id="path456"
   style="fill:#1a1a1a" /> </g> </g> </g> <path
   style="fill:#1a1a1a;stroke:none;stroke-width:0.752538"
   d=""
   id="path584" /></svg>
