<?xml version="1.0" encoding="UTF-8" standalone="no"?>
<!-- Created with Inkscape (http://www.inkscape.org/) -->

<svg width="210mm" height="297mm" viewBox="0 0 210 297" version="1.1" id="svg4411" inkscape:version="1.1.1 (eb90963e84, 2021-10-02)" sodipodi:docname="eddi-black.svg"
   xmlns:inkscape="http://www.inkscape.org/namespaces/inkscape"
   xmlns:sodipodi="http://sodipodi.sourceforge.net/DTD/sodipodi-0.dtd"
   xmlns="http://www.w3.org/2000/svg"
   xmlns:svg="http://www.w3.org/2000/svg">
   <sodipodi:namedview id="namedview4413" pagecolor="#505050" bordercolor="#ffffff" borderopacity="1" inkscape:pageshadow="0" inkscape:pageopacity="0" inkscape:pagecheckerboard="1" inkscape:document-units="mm" showgrid="false" inkscape:zoom="0.73406285" inkscape:cx="397.10496" inkscape:cy="561.25984" inkscape:window-width="1920" inkscape:window-height="1010" inkscape:window-x="0" inkscape:window-y="34" inkscape:window-maximized="1" inkscape:current-layer="layer1" />
   <defs id="defs4408" />
   <g inkscape:label="Layer 1" inkscape:groupmode="layer" id="layer1">
      <path style="fill:#1a1a1a;stroke:none;stroke-width:0.352777" d="M 100.95993,69.66031 H 31.462704 c -7.0104,0 -19.809529,-2.675466 -23.8657694,4.586465 -2.07821,3.720041 -1.18145,8.929512 -1.18145,13.052424 v 27.869451 103.01111 22.57777 c 0,3.63432 -0.51224,7.70608 0.11606,11.28889 0.69321,3.95394 4.3539804,7.19844 8.3506004,7.39423 15.089367,0.73942 30.398865,0.0141 45.508338,0.0141 h 91.016667 33.86667 c 4.58435,0 10.37413,1.06609 14.10582,-2.19181 3.66324,-3.19863 3.18029,-7.5184 3.18029,-11.9193 v -25.4 -107.59723 -28.222219 c 0,-4.480983 0.56092,-9.213143 -3.23638,-12.458699 -2.52766,-2.160765 -5.6441,-2.00519 -8.75807,-2.00519 h -15.875 -65.96944 c 0,-2.961568 -1.51942,-5.022495 -1.74343,-7.76111 -0.71155,-8.692798 -0.0204,-17.733576 -0.0204,-26.458335 0,-2.189022 1.2573,-10.126028 -2.11667,-10.126028 -3.37396,0 -2.11666,7.937006 -2.11666,10.126028 0,8.832497 0.7306,18.013893 -0.0208,26.811112 -0.22472,2.633488 -1.74308,4.533548 -1.74308,7.408333 M 61.801593,73.893635 V 255.22142 H 25.112704 c -3.712985,0 -10.609789,1.37301 -13.257739,-1.80093 -2.0863304,-2.50049 -1.20615,-7.15927 -1.20615,-10.19351 V 217.12142 114.81587 86.240866 c 0,-3.280479 -0.9980104,-8.325556 1.48661,-10.889192 2.72732,-2.813401 9.709498,-1.458031 13.330056,-1.458031 h 36.336112 m 82.197227,0 V 255.22142 H 64.976593 V 73.893643 h 79.022227 m 3.175,181.327777 V 73.893643 h 36.33611 c 3.62056,0 10.60274,-1.35537 13.33006,1.458031 2.48461,2.563636 1.48661,7.608713 1.48661,10.889192 v 28.575004 102.30555 26.10556 c 0,3.03424 0.88018,7.69302 -1.20615,10.19351 -2.64795,3.17394 -9.54476,1.80093 -13.25774,1.80093 H 147.17382 M 79.088058,123.1319 c -3.039181,0.8763 -3.175352,3.88196 -3.175352,6.50064 v 18.34444 c 0,2.71251 -0.324908,5.74887 2.132187,7.57978 2.89419,2.15689 9.566982,0.88689 13.037256,0.88689 h 25.752781 c 3.92783,0 8.94327,0.81915 12.69965,-0.47414 2.99085,-1.02976 2.82257,-3.9624 2.82257,-6.58142 v -18.34444 c 0,-2.4063 0.34855,-5.51886 -1.80234,-7.17797 -2.86526,-2.21051 -9.5504,-0.93592 -13.01433,-0.93592 H 91.434929 c -3.77049,0 -8.715378,-0.84526 -12.346871,0.20214 m 23.988542,1.30951 c 6.42196,-0.75741 13.28808,-0.10054 19.75555,-0.10054 2.13078,0 5.62575,-0.60537 7.22701,1.16522 1.43439,1.58609 0.88688,4.63233 0.88688,6.59589 v 16.58055 c 0,2.30717 0.43497,5.27156 -2.47085,5.87587 -3.7204,0.77364 -8.19574,0.12136 -11.99304,0.12136 H 91.787706 c -3.2512,0 -10.26513,1.3148 -12.972346,-0.65546 -1.704269,-1.24037 -1.138767,-4.21782 -1.138767,-6.04732 v -16.58056 c 0,-1.77376 -0.656166,-5.18936 1.138767,-6.28685 1.709563,-1.04528 5.036963,-0.41592 6.975123,-0.41592 5.712531,0 11.613091,0.41733 17.286117,-0.25224 m -23.636117,37.64668 v 4.93889 c 1.564923,-0.87101 2.285293,-0.72426 3.880556,0 l -1.058333,-2.46945 v -0.35277 l 1.41111,-1.76389 -0.352777,-0.35278 -1.763889,1.41111 -2.116667,-1.41111 m 17.286113,0 -2.116667,2.46944 0.352777,0.35278 1.41111,-1.05833 v 2.82222 h 1.058333 v -2.82222 l 1.411113,1.05833 0.352777,-0.35278 -2.469443,-2.46944 m 15.169444,0 v 2.82222 l -1.76389,-1.05833 c 0.7366,2.61514 3.92889,3.22333 3.88056,0 l -1.41111,1.05833 v -2.82222 h -0.70556 m 17.28611,0.35278 c -1.4605,1.42628 -2.22779,2.04399 -4.23333,1.41111 1.06539,3.74756 5.43524,0.82091 4.23333,-1.41111 m -48.683334,7.22206 c -8.282868,1.49367 -5.706885,14.17391 2.469444,12.39591 7.784748,-1.69298 5.344938,-13.8049 -2.469444,-12.39591 m 15.522223,-10e-4 c -8.170688,1.54094 -5.716058,13.88322 2.469444,12.41849 7.925857,-1.41852 5.434537,-13.90932 -2.469444,-12.41849 m 14.816671,0.0215 c -8.21161,1.85807 -5.35023,14.29561 2.82222,12.32499 7.63552,-1.8415 4.88315,-14.06842 -2.82222,-12.32499 m 15.52222,0 c -8.06662,1.82597 -5.25145,14.18977 2.82222,12.3264 7.83802,-1.80904 4.93677,-14.08253 -2.82222,-12.3264 m -45.155557,1.36313 c 6.287558,-0.51223 6.9596,9.25794 0.705553,9.69645 -6.229701,0.43638 -7.009341,-9.18281 -0.705553,-9.69645 m 15.522223,-0.009 c 6.066714,-0.7687 7.162094,8.86389 1.058333,9.66717 -6.348238,0.83502 -7.373408,-8.86707 -1.058333,-9.66717 m 14.816664,2.6e-4 c 6.09706,-0.80186 7.24818,9.01241 1.05834,9.67564 -6.23712,0.66851 -7.20973,-8.86672 -1.05834,-9.67564 m 15.52223,0 c 6.22829,-0.8195 7.3406,9.0484 1.05833,9.6767 -6.11188,0.61136 -7.14552,-8.87589 -1.05833,-9.6767 m -87.195386,23.88341 c -0.677685,0.55704 0.180975,1.66547 0.913696,1.24389 0.874887,-0.50341 -0.13829,-1.88136 -0.913696,-1.24389 m 2.88149,-0.37782 0.817739,1.90429 10.118371,0.21237 3.415596,-0.21237 0.817737,-1.90429 H 42.751594 m -4.93889,4.58611 v 2.11666 c 4.121856,0 10.697633,-1.24566 14.46389,0.55492 4.087989,1.95369 4.429476,6.92785 0.704143,9.42764 -5.657143,3.79624 -8.965845,-3.78637 -6.701367,-8.21867 -3.761316,0.0445 -4.112683,3.7024 -2.838095,6.70278 1.268587,2.98626 4.526137,4.92019 7.776985,4.47851 6.52286,-0.88582 9.173282,-9.72079 3.513667,-13.61228 -4.248857,-2.92135 -11.991269,-1.44956 -16.919223,-1.44956 m 0,17.63889 v 2.11666 c 4.121856,0 10.697633,-1.24566 14.46389,0.55492 4.087989,1.95368 4.429476,6.92785 0.704143,9.42764 -5.637742,3.78318 -8.94221,-3.78531 -6.701367,-8.21867 -3.602918,0.0427 -4.085518,3.35774 -2.977795,6.35 1.1811,3.18947 4.509558,5.31919 7.916685,4.83235 6.79944,-0.9712 8.96761,-9.8933 3.174648,-13.75657 -4.134556,-2.75731 -11.828639,-1.30633 -16.580204,-1.30633 m 16.227779,19.05 c -1.116189,2.74637 2.408767,4.69794 1.316567,7.76111 -2.920648,8.1915 -14.537621,0.67804 -8.649406,-5.21617 0.790575,-0.79129 1.700741,-1.17581 2.746726,-1.48661 v 9.17222 h 1.76389 v -11.28889 c -9.108016,0.006 -11.817702,13.08488 -2.116666,14.70166 7.779101,1.29681 12.478808,-10.11696 4.938889,-13.64332 z" id="path4374" />
   </g>
</svg>
