<?xml version="1.0" encoding="UTF-8"?>
<svg xmlns="http://www.w3.org/2000/svg" width="734.366" height="170.756" viewBox="0 0 734.366 170.756">
    <g id="logo-02" transform="translate(-238.322 -31.641)">
        <path id="Path_61" data-name="Path 61" d="M536.516,151.583a46.266,46.266,0,1,1,46.266-46.266v6.521H513.641V98.8H569.1a33.218,33.218,0,1,0-4.243,23.876l11.114,6.824A45.993,45.993,0,0,1,536.516,151.583Z" fill="#fff"></path>
        <path id="Path_62" data-name="Path 62" d="M735.231,151.583A46.266,46.266,0,1,1,781.5,105.317v6.521H712.356V98.8h55.456a33.218,33.218,0,1,0-4.243,23.876l11.114,6.824A46,46,0,0,1,735.231,151.583Z" fill="#fff"></path>
        <path id="Path_63" data-name="Path 63" d="M674.087,151.372H661.045V99c0-14.837-11.336-26.908-25.269-26.908a24.357,24.357,0,0,0-17.758,7.758A27.609,27.609,0,0,0,610.508,99v52.371H597.466V99a40.594,40.594,0,0,1,11.1-28.137,37.284,37.284,0,0,1,27.209-11.813c21.124,0,38.31,17.921,38.31,39.95v52.371Z" fill="#fff"></path>
        <path id="Path_64" data-name="Path 64" d="M460.215,59.223V111.1a28.152,28.152,0,0,1-7.532,19.416,24.218,24.218,0,0,1-17.736,7.834c-13.933,0-25.268-12.225-25.269-27.25V59.223H396.636V111.1c0,19.878,13.762,36.429,31.789,39.7v51.6h13.042V150.806a37.4,37.4,0,0,0,20.711-11.349A41.139,41.139,0,0,0,473.256,111.1V59.223Z" fill="#fff"></path>
        <path id="Path_65" data-name="Path 65" d="M809.416,151.372H796.374V99a40.6,40.6,0,0,1,11.1-28.137,37.284,37.284,0,0,1,27.209-11.813V72.093a24.357,24.357,0,0,0-17.758,7.758A27.609,27.609,0,0,0,809.416,99Z" fill="#fff"></path>
        <rect id="Rectangle_113" data-name="Rectangle 113" width="13.042" height="92.462" transform="translate(959.646 58.91)" fill="#fff"></rect>
        <circle id="Ellipse_1" data-name="Ellipse 1" cx="6.521" cy="6.521" r="6.521" transform="translate(959.646 31.641)" fill="#fff"></circle>
        <path id="Path_67" data-name="Path 67" d="M339.7,59.367a37.723,37.723,0,0,0-31.631,17.592,37.725,37.725,0,0,0-31.632-17.592,37.1,37.1,0,0,0-27.074,11.754,40.394,40.394,0,0,0-11.045,28v52.047H251.3V99.118a27.474,27.474,0,0,1,7.472-19.055,24.236,24.236,0,0,1,17.67-7.719c13.864,0,25.143,12.011,25.143,26.775h0v52.046h12.977V99.118h0c0-14.763,11.279-26.774,25.143-26.774s25.143,12.011,25.143,26.774v52.047h12.977V99.118C377.824,77.2,360.723,59.367,339.7,59.367Z" fill="#fff"></path>
        <path id="Path_68" data-name="Path 68" d="M937.775,104.3a46.3,46.3,0,1,0-23.881,41.5V129.869a33.208,33.208,0,1,1,10.865-24.552c0,.237-.013.472-.018.709v31.458l.018-.018v17.621a34.244,34.244,0,0,1-68.488,0H843.229a47.286,47.286,0,0,0,94.572,0V104.3h-.026Z" fill="#fff"></path>
    </g>
</svg> 