<?xml version="1.0" encoding="UTF-8"?>
<!-- Generator: Adobe Illustrator 24.2.0, SVG Export Plug-In . SVG Version: 6.00 Build 0) -->
<svg xmlns="http://www.w3.org/2000/svg" xmlns:xlink="http://www.w3.org/1999/xlink" version="1.1" id="Layer_1" x="0px" y="0px" viewBox="0 0 395.7 593" style="enable-background:new 0 0 395.7 593;" xml:space="preserve"> <style type="text/css"> .st0{fill:#36FF7D;} </style> <g> <g> <path class="st0" d="M32.9,207.5c2.1,2.4,1.8,5.5,2.2,8.2c1.7,11.8,2.7,23.8,4.4,35.7c0.9,5.9,0.7,11.9,2.1,17.7 c0.3,1.4-0.6,2.4-1.1,3.5c-1.1-4.5-1.1-9.2-1.7-13.8c-1.6-12.2-3.1-24.5-4.4-36.8C33.9,217.2,32.8,212.4,32.9,207.5z"/> </g> </g> <g> <g> <path class="st0" d="M40.5,272.6c2.9,1.9,0.7,4.3,0.6,6.5C40.2,276.9,40.6,274.7,40.5,272.6z"/> </g> </g> <g> <g> <path class="st0" d="M41.2,279.6c2.7,1.8,0.6,3.9,0.5,5.9C40.9,283.6,41.2,281.6,41.2,279.6z"/> </g> </g> <g> <g> <path class="st0" d="M43.6,320.6c0.9,3.1,0.3,6.3,0.4,9.5C43.2,327,43.6,323.8,43.6,320.6z"/> </g> </g> <g> <g> <path class="st0" d="M42.4,296c1.4,0.9,1,2,0.7,3.3c-0.3,1-0.2,2.1-0.2,3.2C42.1,300.4,42.3,298.2,42.4,296z"/> </g> </g> <g> <g> <path class="st0" d="M41.8,287.2c2.4,1.8,0.1,4,0.5,5.9C41.5,291.2,41.7,289.2,41.8,287.2z"/> </g> </g> <g> <g> <path class="st0" d="M43,306.6c1.3,2.3,0.1,4.7,0.4,7.1C42.6,311.3,42.9,308.9,43,306.6z"/> </g> </g> <g> <g> <path class="st0" d="M44,366.3c-0.1,2.6,0.6,5.2-0.4,7.7C43.6,371.4,43.2,368.8,44,366.3z"/> </g> </g> <g> <g> <path class="st0" d="M41.1,438.4c-0.1,2.4,0.5,4.8-0.4,7.1C40.7,443.1,40.3,440.7,41.1,438.4z"/> </g> </g> <g> <g> <path class="st0" d="M32.4,203.9c2,0.9,1,2.3,0.5,3.6C32.1,206.4,32.4,205.1,32.4,203.9z"/> </g> </g> <g> <g> <path class="st0" d="M43.4,382.7c-0.1,2.2,0.6,4.4-0.4,6.5C43,387,42.7,384.8,43.4,382.7z"/> </g> </g> <g> <g> <path class="st0" d="M42.8,396.8c-0.1,2.2,0.6,4.4-0.4,6.5C42.4,401.1,42.1,398.9,42.8,396.8z"/> </g> </g> <g> <g> <path class="st0" d="M42.2,410.8c-0.1,2.2,0.6,4.4-0.4,6.5C41.9,415.2,41.5,413,42.2,410.8z"/> </g> </g> <g> <g> <path class="st0" d="M41.7,424.3c-0.1,2.2,0.5,4.4-0.4,6.5C41.4,428.7,40.9,426.5,41.7,424.3z"/> </g> </g> <g> <g> <path class="st0" d="M40.5,453.1c-0.1,2.2,0.5,4.4-0.4,6.5C40.1,457.4,39.7,455.2,40.5,453.1z"/> </g> </g> <g> <g> <path class="st0" d="M39.9,467.7c-0.1,2,0.5,4-0.4,5.9C39.5,471.7,39.1,469.7,39.9,467.7z"/> </g> </g> <g> <g> <path class="st0" d="M295,547.5c0-0.6-0.1-1.1-0.1-1.7c9.2-4.1,18.5-8.1,27.7-12.3c11.9-5.4,23.7-10.9,35.5-16.4 c2.4-1.1,4.6-2.5,6.5-4.4c0,2.4-2.1,3-3.6,3.7c-8.8,4.4-17.7,8.6-26.6,12.7c-9.5,4.4-19.2,8.5-28.8,12.7c-2.2,1-4.5,1.9-6.7,2.8 C297.4,545.4,295.8,546,295,547.5z"/> </g> </g> <g> <g> <path class="st0" d="M48.8,513.9c20,10.6,40.8,19.3,61.5,28.4c-0.8,1-1.6,0.3-2.3-0.1c-16.8-7.3-33.6-14.8-50.2-22.7 c-2.3-1.1-4.6-2.1-6.7-3.4C50,515.5,49,515.1,48.8,513.9z"/> </g> </g> <g> <g> <path class="st0" d="M207,512.7c-5.2,0-10.7-1.3-16.7-4c-7.5-3.3-15.2-6.6-22.6-9.8c-4.4-1.9-8.8-3.8-13.3-5.7 c-2.1-0.9-4.3-1.9-6.4-2.8c-6.8-2.9-13.8-5.9-20.6-9.1c-9-4.2-14.6-12.2-16.1-22.9c-0.9-6.2-0.3-12.3,0.4-19v-0.1 c0-0.3,0.1-0.6,0.1-0.8c-0.2-4.9,0-9.8,0.2-14.6c0.2-3.7,0.4-7.5,0.3-11.2c-0.1-9.5,0.2-19.1,0.6-28.5c0.1-2.3,0.2-4.7,0.2-7 c0.4-12,0.5-24.3,0.3-36.4c-0.1-10.8-0.9-21.7-1.5-32.3l-0.2-2.8c-0.5-8.1-1.3-16.7-2.3-27.2c-0.5-5.1-1.1-10.2-1.7-15.2 c-0.6-4.8-1.2-9.9-1.7-14.8c-0.4-3.8-0.7-7.7-1-11.4c-0.3-3.6-0.5-7.3-0.9-10.9c-1-9.6-1.9-20.9-1.7-32.6c0.4-21.4,4-38,11.3-52.3 c11.1-21.9,26-37.3,45.3-47c10-5,21.1-8.1,33.9-9.6c2.6-0.3,5.2-0.3,7.8-0.4c1.6,0,3.3,0,4.9-0.1l0,0c11.1-0.4,22.3,1.1,33.2,4.4 c11.3,3.4,21.5,8.9,30.4,16.2c9.8,8.1,18.5,18.4,26.4,31.5c7.3,12.1,11.7,25.6,13.6,41.3c1,8.3,1.9,17.1,1.2,26 c-0.3,3.8-0.5,7.6-0.7,11.4c-0.4,5.9-0.7,12-1.3,18l-0.5,4.6c-0.7,7.1-1.5,14.5-2.1,21.7c-0.4,5-1,10-1.6,14.9 c-0.4,3.3-0.8,6.7-1.2,10c-0.5,4.7-0.9,9.7-1.3,15.9l-0.3,4.1c-0.6,10.4-1.3,21.1-1.7,31.6c-0.5,11.6-0.5,24.3-0.2,40 c0,2.2,0.1,4.5,0.1,6.7c0,4.4,0.1,8.9,0.3,13.4c0.3,5.2,0.3,10.4,0.4,15.5c0,4.8,0.1,9.8,0.3,14.6c0.2,3,0.2,6.1,0.2,9 c0,3.5,0,7.2,0.3,10.8c0,0.7,0.1,1.4,0.2,2.1c0.2,2.8,0.4,5.7,0.4,8.6c-0.3,11.5-5.6,20-15.3,24.6c-8.3,4-17,7.7-25.3,11.3 c-2.6,1.1-5.3,2.2-7.9,3.4c-6.9,3-13.9,6-20.7,8.9c-4.4,1.9-8.7,3.7-13.1,5.6C215.3,511.8,211.3,512.7,207,512.7z M205.7,88.1 c-1.7,0.1-3.4,0.1-5,0.1c-2.5,0-4.9,0.1-7.4,0.3c-12.3,1.4-23,4.4-32.5,9.2c-18.5,9.3-32.7,24.1-43.5,45.2 c-7,13.7-10.4,29.8-10.8,50.6c-0.2,11.4,0.7,22.6,1.7,32.1c0.4,3.7,0.7,7.4,0.9,11c0.3,3.7,0.6,7.6,1,11.3 c0.5,4.9,1.1,9.9,1.7,14.7c0.6,5,1.2,10.2,1.7,15.3c1.1,10.5,1.8,19.2,2.3,27.3l0.2,2.8c0.7,10.6,1.4,21.7,1.5,32.5 c0.2,12.2,0.1,24.5-0.3,36.6c-0.1,2.3-0.2,4.7-0.2,7c-0.3,9.3-0.6,18.9-0.6,28.3c0,3.8-0.2,7.7-0.3,11.4 c-0.2,4.7-0.5,9.5-0.2,14.2c0,0.5,0,1-0.1,1.4v0.1c-0.7,6.5-1.2,12.3-0.4,18c1.3,9.4,6,16.1,13.8,19.8c6.7,3.2,13.7,6.2,20.5,9.1 c2.2,0.9,4.3,1.9,6.5,2.8c4.4,1.9,8.8,3.8,13.2,5.7c7.4,3.2,15.2,6.5,22.7,9.9c9.7,4.3,17.9,4.8,25.7,1.4 c4.4-1.9,8.7-3.7,13.1-5.6c6.8-2.9,13.8-5.9,20.7-8.9c2.6-1.1,5.3-2.3,7.9-3.4c8.3-3.6,16.9-7.2,25.2-11.2c8.3-4,12.6-11,12.9-21 c0.1-2.7-0.1-5.4-0.4-8.2c-0.1-0.7-0.1-1.4-0.2-2.1c-0.3-3.7-0.3-7.4-0.3-11c0-2.9,0-5.9-0.2-8.9c-0.2-4.9-0.3-9.9-0.3-14.8 c-0.1-5-0.1-10.2-0.4-15.3c-0.2-4.5-0.3-9.1-0.3-13.6c0-2.2,0-4.4-0.1-6.7c-0.3-15.7-0.3-28.5,0.2-40.2 c0.4-10.6,1.1-21.3,1.7-31.7l0.3-4.1c0.4-6.2,0.8-11.3,1.3-16.1c0.3-3.4,0.8-6.8,1.2-10.1c0.6-4.8,1.2-9.8,1.6-14.7 c0.6-7.3,1.4-14.7,2.1-21.8l0.5-4.6c0.6-5.9,1-12,1.3-17.8c0.2-3.7,0.5-7.6,0.8-11.4c0.7-8.5-0.2-17.1-1.2-25.2 c-1.8-15.1-6.1-28.1-13.1-39.6c-7.6-12.7-16-22.6-25.5-30.5c-8.5-7-18.2-12.2-29-15.5C227,89.2,216.3,87.8,205.7,88.1z"/> </g> </g> <g> <path class="st0" d="M381.5,260.1c1.7-13.8,3.1-27.7,5-41.5c2.2-16.3,3.8-32.5,2.2-49c-1.1-11.3-3.2-22.3-6.6-33.1 c0.1-0.5-0.1-0.9-0.5-1.2c0-1.5-0.7-2.8-1.2-4.1l0,0l0,0c-2.2-7.2-5.2-14-8.7-20.7c-16.9-33-41.9-57.9-74.4-75.5 c-9.2-5-18.6-9.4-28.7-12.3l0,0c-0.2-0.2-0.5-0.4-0.7-0.5c-17.8-6-36-9.3-54.7-9.9c-16.3-0.6-32.5,1-48.5,4.5 c-33.3,7.5-62.6,22.6-87.5,45.9c-13.9,13-25.4,28-34.4,44.9c-11.6,22-18,45.4-19.2,70.2c-0.6,13.6,1,27.1,2.8,40.5 c1.6,12.4,2.8,24.8,4.4,37.1c1.8,13.4,2.9,26.9,3.8,40.4c0.6,9.5,1,19.1,1.4,28.7c0.6,15,0.6,30.1,0.2,45.1 c-0.6,20.5-1.8,40.9-2.6,61.4c-0.5,12.8-0.9,25.6-1.4,38.3c-0.2,5.5-0.3,10.9-0.9,16.4c-1.9,17.2,5.8,31.3,21.3,38.7 c40.1,19,80.9,36.3,122.4,52.1c9.9,3.8,20,6.4,30.7,6l0,0l0,0c9.4,0.4,18.5-1.2,27.2-4.4c30.6-11.2,60.7-23.6,90.4-36.9 c12.9-5.8,25.8-11.5,38.5-17.8c12.5-6.2,19-16.6,19.6-30.6l0,0c0.2-3.7-0.2-7.4-0.3-11.1c-0.9-19.2-1.6-38.4-2.4-57.6 c-0.7-17.7-1.2-35.5-2-53.2c-0.9-18.6-0.4-37.3,0.3-55.9C377.9,296.8,379.3,278.4,381.5,260.1z M185.5,21.6c3.8-0.1,7.5-0.7,11.3-1 c2.4-0.7,4.8-0.4,7.1-0.4c1.2,0,2.4,0,3.6,0c2.7,0.1,5.4-0.4,8.1,0.3c13.5,1,26.9,3.1,40,6.5c9.1,1.9,17.5,5.5,26,9.1l4.7,2.2 c6.9,3.3,13.4,7.1,19.8,11.2c1.7,1,3.2,2.2,4.8,3.3c12.4,8.9,23.7,19,33.2,31c5.3,6.7,10.1,13.8,14.7,21c0.6,1,1.2,2,1.8,3 c1.3,3,2.7,5.9,4,8.9c2.9,6.2,5.2,12.6,7.3,19c2.8,8.7,4.5,17.6,6,26.7c1.9,12.1,1.9,24.2,0.8,36.4c-0.3,8.4-1.9,16.7-2.9,25.1 c-1.3,10.6-2.2,21.2-3.6,31.8c-1.4,10.9-2.3,21.8-3.4,32.7c-0.9,9.6-1.4,19.2-1.8,28.8c-0.3,8.3-0.1,16.5-0.5,24.8 c-0.3,5.6-0.1,11.3,0.4,16.9c0.7,7.5,0.1,15,0.6,22.5c0.5,9.4,0.8,18.9,1.2,28.3c0.4,9.9,0.9,19.8,1.2,29.7 c0.2,7.4,0.7,14.8,0.8,22.2c0.1,5.2,0.2,10.5,0.5,15.7c0.7,10,1.9,20-2.6,29.6c-0.1,0.2-0.2,0.5-0.2,0.8c-0.2,0.2-0.3,0.5-0.5,0.7 c-1.3,1.5-2.9,2.7-3.9,4.5c-1.1,2.2-3.3,3-5.3,4c-19.6,9.7-39.6,18.5-59.7,27.1c-1.7,0.7-3.4,1.5-4.5,3.1c-0.3,0.5-1.1,0.9-0.7,1.7 l0,0c-1.3-0.9-2.5,0-3.6,0.4c-7.4,3.2-15,6-22.4,9.3c-1.7,0.8-3.3,1.1-4.9-0.2c-1.1-0.1-2.1,0.4-3.1,0.8c-10.7,4-21.1,8.6-32,12 c-9.8,3-19.8,4.9-30.2,2.9c-4.3-0.6-8.5-1.5-12.5-2.8c-10.6-3.4-20.8-7.8-31.2-11.7c-1.5-0.6-3-1.5-4.7-1.3 c-1.5,0.9-2.9,0.8-4.4,0.2c-8.1-3.3-16.2-6.8-24.3-10c-1.5-0.6-2.2-1.5-2.4-3c-2.3-1.9-5-2.8-7.7-3.5c-4-0.6-7.5-2.7-11.1-4.2 c-14.7-6.4-29.1-13.1-43.6-19.8c-2.2-1-4.4-2.1-6.1-3.9c-1.2-1.3-2.1-2.8-3.7-3.7c-0.1-0.1-0.1-0.3-0.2-0.4 c-0.3-1.1-1.1-1.9-1.7-2.7c-2.1-3.1-3.5-6.5-3.9-10.3c-0.3-1.7-0.3-3.5-0.4-5.2c-0.3-5.9,1-11.8,0.6-17.8c-0.1-2.1-0.3-4.2,0.3-6.2 c0.4-2.6,0.2-5.3,0.2-7.9c0-2.2-0.3-4.5,0.4-6.7c0.4-2.5,0.2-4.9,0.2-7.4c0-2.4-0.4-4.9,0.4-7.2c0.4-2.5,0.2-4.9,0.2-7.4 c0-2.2-0.3-4.5,0.3-6.7c0.4-2.3,0.2-4.5,0.2-6.8c0-2.2-0.3-4.5,0.4-6.7c0.4-2.4,0.2-4.9,0.2-7.4c0-2.2-0.3-4.5,0.4-6.7 c0.4-2.5,0.2-4.9,0.2-7.4c0-2.3-0.3-4.5,0.4-6.7c0.4-2.8,0.2-5.7,0.2-8.6c0-2.7-0.4-5.4,0.4-8c0.4-11.9,0.4-23.8,0-35.7 c-0.8-3.2-0.4-6.4-0.4-9.6c0-2.3,0.1-4.6-0.2-6.9c-0.7-2.4-0.4-4.8-0.4-7.1c0-1.4,0-2.7-0.3-4.1c-0.6-2.1-0.3-4.3-0.4-6.4 c0-1-0.1-2-0.3-3c-0.6-1.9-0.3-3.8-0.4-5.8c0-0.6-0.1-1.3-0.2-1.9c-0.6-1.8-0.2-3.8-0.4-5.6c0-0.3-0.1-0.6-0.2-0.9 c-0.6-2-0.1-4.1-0.5-6.1c-0.1-0.3-0.1-0.6-0.3-0.9c0-2.3-0.5-4.6-0.6-7c-0.8-9.4-2.2-18.7-3.3-28.1c-1.1-9.5-2.4-18.9-3.3-28.4 c0-0.3-0.1-0.6-0.2-1c-0.4-1.2-0.3-2.4-0.5-3.7c-0.1-2.8-0.9-5.6-0.9-8.4c-0.1-10.5-0.5-21.1,1-31.6c5-34.8,20-64.7,44.2-90 c9.8-10.3,21-19,33-26.5c21-13.2,43.8-21.3,68.3-24.9L185.5,21.6z"/> </g> <g> <path class="st0" d="M185.5,193.5c-4.7,0-9.3,0-14,0c-5.2,0-7.9-2.6-8-7.7c-0.1-13.3-0.1-26.4,0-36.4c0-3.8,2.7-6.5,6.6-6.5 c23.2,0,47.5,0,72.1,0c3.4,0,5.7,2,6.5,5.4c0,0.1,0.1,0.2,0.1,0.4c0.1,0.4,0.2,0.8,0.2,1.3c0,2.7,0,5.4,0,8.2 c0,9.6,0.1,19.6,0,29.4c0,3.6-2.8,5.9-7.1,5.9c-7.9,0-15.7,0-23.6,0c-4,0-7.9,0-11.9,0h-6.9C194.8,193.5,190.2,193.5,185.5,193.5z M204,145.3c-11.5,0-22.8,0-33.8,0c-2.6,0-4.3,1.6-4.3,4.1c0,9.9-0.1,23,0,36.3c0,3.8,1.6,5.3,5.6,5.3c9.3,0,18.6,0,28,0h6.9 c4,0,7.9,0,11.9,0c7.9,0,15.7,0,23.6,0c1.1,0,4.7-0.3,4.8-3.5c0.1-9.8,0.1-19.7,0-29.3c0-2.7,0-5.4,0-8.2c0-0.2-0.1-0.5-0.1-0.7 s-0.1-0.3-0.1-0.5c-0.3-1.6-1.4-3.6-4.2-3.6C229.3,145.3,216.6,145.3,204,145.3z"/> </g> <g> <path class="st0" d="M219.2,234.5L219.2,234.5c-6.4,0-11.7-5.2-11.7-11.5c0-3.3,1.2-6.3,3.5-8.6c2.2-2.2,5.2-3.4,8.3-3.4 c6.5,0.1,11.5,5.3,11.5,11.9c0,3.1-1.2,6-3.3,8.2C225.5,233.3,222.5,234.5,219.2,234.5z M219.3,213.4c-2.5,0-4.8,1-6.5,2.7 c-1.8,1.8-2.9,4.3-2.8,6.9c0,5,4.2,9.1,9.3,9.2c0,0,0,0,0.1,0c2.7,0,5.1-0.9,6.8-2.7c1.7-1.7,2.6-4,2.6-6.5l0,0 c0-5.3-4.1-9.5-9.2-9.6C219.4,213.4,219.3,213.4,219.3,213.4z"/> </g> <g> <path class="st0" d="M192.9,234.5L192.9,234.5c-6.6,0-11.7-5.2-11.7-11.7c0-3,1.3-6,3.5-8.3c2.2-2.2,5.3-3.5,8.3-3.5 c6.5,0.1,11.6,5.3,11.6,11.8C204.6,229.6,199.7,234.5,192.9,234.5z M193,213.4c-2.4,0-4.8,1-6.6,2.8s-2.8,4.2-2.8,6.6 c0,5.3,4.1,9.4,9.4,9.4l0,0c5.4,0,9.3-3.9,9.3-9.3l0,0C202.3,217.6,198.2,213.4,193,213.4L193,213.4z"/> </g> <g> <path class="st0" d="M166.7,234.5L166.7,234.5c-6.6,0-11.8-5.1-11.8-11.7c0-2.9,1.2-5.9,3.5-8.1c2.3-2.3,5.4-3.7,8.4-3.7l0,0 c3,0,5.9,1.2,8,3.3c2.3,2.3,3.5,5.3,3.5,8.7C178.3,229.6,173.3,234.5,166.7,234.5z M166.8,213.4L166.8,213.4c-2.4,0-4.9,1.1-6.8,3 c-1.8,1.8-2.8,4.2-2.8,6.4c0.1,5.3,4.1,9.3,9.5,9.3l0,0l0,0c5.2,0,9.2-3.9,9.2-9.1c0-2.7-1-5.2-2.8-7 C171.4,214.3,169.2,213.4,166.8,213.4z"/> </g> <g> <path class="st0" d="M245.4,234.5h-0.1c-6.4-0.1-11.4-5.2-11.4-11.6c0-6.5,5.3-11.8,11.7-11.8l0,0c3.1,0,6.1,1.2,8.3,3.5 c2.3,2.3,3.5,5.4,3.5,8.6C257.3,229.5,252.1,234.5,245.4,234.5z M245.6,213.4L245.6,213.4c-5.1,0-9.3,4.3-9.4,9.5 c0,5.2,3.9,9.2,9.1,9.3l0,0h0.1c5.3,0,9.5-4,9.6-9c0-2.6-1-5.1-2.8-7C250.5,214.4,248.1,213.4,245.6,213.4z"/> </g> <g> <path class="st0" d="M219.1,223.2c1.4-1.1,1.6-2.7,2.5-3.8c0.6-0.7,1.4-1.1,2.3-0.6c0.9,0.5,0.9,1.4,0.5,2.1 c-1.2,2.6-2.4,5.1-3.8,7.5c-0.7,1.2-2.2,1.1-2.9-0.1c-1.3-2.3-2.5-4.6-3.6-7c-0.5-0.9-0.4-2,0.7-2.5c1-0.4,1.7,0.2,2.2,1 C217.8,220.8,218.4,222,219.1,223.2z"/> </g> <g> <path class="st0" d="M192.9,223c-0.9,1.7-1.5,2.8-2.2,4c-0.5,0.9-1.3,1.2-2.2,0.8c-1-0.4-1.2-1.4-0.8-2.2c1.2-2.5,2.6-5,4-7.4 c0.7-1.1,1.9-1.2,2.6,0c1.5,2.5,2.8,5.1,4.1,7.7c0.4,0.8,0,1.5-0.8,1.9c-0.9,0.4-1.8,0.2-2.3-0.7C194.6,226,193.9,224.7,192.9,223z "/> </g> <g> <path class="st0" d="M166.6,228c-1.2-0.1-2.5,0-3.7-0.2c-0.7-0.1-1.6-0.4-1.4-1.5c0.1-0.8,0.7-1.1,1.5-1.1c2.5,0,5-0.1,7.5,0 c0.8,0,1.6,0.5,1.6,1.4s-0.8,1.3-1.7,1.3C169.1,227.9,167.8,227.9,166.6,228C166.6,227.9,166.6,228,166.6,228z"/> </g> <g> <path class="st0" d="M166.7,220.4c-1.3,0-2.5,0-3.8,0c-0.7,0-1.4-0.3-1.5-1.1c0-0.9,0.6-1.2,1.4-1.2c2.5,0,5.1,0,7.6,0 c0.7,0,1.3,0.5,1.3,1.3c-0.1,0.9-0.8,1-1.5,1C169.1,220.4,167.9,220.4,166.7,220.4L166.7,220.4z"/> </g> <g> <path class="st0" d="M166.6,223.9c-1.3,0-2.5,0-3.8,0c-0.7,0-1.4-0.3-1.3-1.2c0-0.7,0.6-1,1.2-1.1c2.6,0,5.3-0.1,7.9,0 c0.7,0,1.3,0.6,1.2,1.4c-0.1,0.7-0.7,0.9-1.3,0.9C169.1,223.9,167.9,223.9,166.6,223.9L166.6,223.9z"/> </g> <g> <path class="st0" d="M252.1,222.7c-0.1,1.4-0.9,2.2-2.2,2.2c-2-0.1-2.6,0.7-2.5,2.6c0.1,1-0.6,1.6-1.6,1.7 c-1.2,0.1-1.9-0.6-1.9-1.7c0.1-1.9-0.6-2.6-2.5-2.6c-1.3,0-2.2-0.8-2.1-2.3c0.1-1.4,1.1-1.8,2.3-1.7c1.8,0.2,2.5-0.5,2.3-2.3 c-0.1-1.2,0.3-2.2,1.7-2.3c1.6-0.1,2,1,1.9,2.3c-0.2,1.8,0.6,2.5,2.4,2.3C251,220.9,251.9,221.3,252.1,222.7z"/> </g> <g> <path class="st0" d="M223.7,433.1l-0.5-2.3c0.1,0,0.1,0,0.1,0c0-0.1,0-0.6,0-0.9c0-0.1,0-0.3,0-0.4c0-0.9,0-1.9,0-2.8 c0-2.2,0-4.5-0.1-6.8c-0.1-2.4,0.8-3.8,2.9-4.7c5.6-2.3,10.8-6,15.7-11.1c10.7-11.2,13.7-29.4,7.1-43.3 c-4.5-9.5-11.9-16.7-22.1-21.4c-2.3-1.1-3.2-2.5-3.1-4.9c0.1-1.4,0.1-2.9,0-4.4c0-1.3,0-2.7,0-4.1c0-1.1-0.3-1.8-1.1-2.3h-33.2 c-0.7,0.4-0.9,0.9-0.9,1.8c0,1.3,0,2.6,0,3.9c0,1.6-0.1,3.3,0,4.9c0.1,2.8-1.2,4-3.2,5c-16.6,8.3-25.1,20.9-25.4,37.5 c-0.2,15.8,7.1,28,21.1,35.5c6.8,3.6,9.2,8,8.1,15.2l-0.8,4.7l-2.3-0.4l0.8-4.7c1-6.2-0.8-9.6-6.8-12.8 c-14.6-7.8-22.5-21.1-22.3-37.6c0.2-17.6,9.2-30.9,26.7-39.6c1.6-0.8,2-1.3,1.9-2.8c-0.1-1.7-0.1-3.4,0-5c0-1.2,0-2.5,0-3.8 c0-2,0.8-3.4,2.5-4.1l0.2-0.1h34.3l0.3,0.1c1.8,1,2.6,2.5,2.5,4.6c-0.1,1.3,0,2.7,0,4c0,1.5,0,3-0.1,4.6c-0.1,1.4,0.3,2,1.7,2.6 c10.6,4.9,18.4,12.4,23.2,22.5c7,14.7,3.8,34.1-7.6,46c-5.2,5.4-10.6,9.2-16.5,11.7c-1.2,0.5-1.5,1.1-1.5,2.5 c0.1,2.3,0.1,4.6,0.1,6.9c0,0.9,0,1.9,0,2.8c0,0.1,0,0.2,0,0.3C225.7,430.7,225.7,432.6,223.7,433.1z"/> </g> <g> <path class="st0" d="M206.5,436.3c-34.6,0-62.8-28.2-62.8-62.8s28.2-62.8,62.8-62.8s62.8,28.2,62.8,62.8S241.1,436.3,206.5,436.3z M206.5,313.1c-33.3,0-60.5,27.1-60.5,60.5s27.1,60.5,60.5,60.5c33.3,0,60.5-27.1,60.5-60.5S239.8,313.1,206.5,313.1z"/> </g> <g> <path class="st0" d="M342.2,447.4h4v16.9c0,1.7-0.9,3.1-2.4,3.8c-1.5,0.7-3.2,0.5-4.5-0.6L321,452c0,0-0.1-0.1-0.2,0 s-0.1,0.1-0.1,0.2v14.9h-4v-14.9c0-1.7,0.9-3.1,2.4-3.8c1.5-0.7,3.2-0.5,4.5,0.6l18.2,15.5c0,0,0.1,0.1,0.2,0s0.1-0.1,0.1-0.2 v-16.9H342.2z"/> <path class="st0" d="M331.1,412L331.1,412h0.2h14.8v4h-4.7l0,0h-10h-0.1c-5.9,0-10.7,4.8-10.7,10.7c0,5.9,4.8,10.7,10.7,10.7 c5.9,0,10.7-4.8,10.7-10.7c0-2.9-1.1-5.4-2.9-7.4h5c1.3,2.2,2,4.7,2,7.4c0,8.1-6.6,14.7-14.7,14.7s-14.7-6.6-14.7-14.7 C316.6,418.6,323.1,412.1,331.1,412L331.1,412z"/> <path class="st0" d="M331.4,376.5c8.1,0,14.7,6.6,14.7,14.7c0,2.7-0.7,5.2-2,7.4h-5c1.8-1.9,3-4.5,3-7.4c0-5.9-4.8-10.7-10.7-10.7 c-5.9,0-10.7,4.8-10.7,10.7c0,5.9,4.7,10.6,10.6,10.7l0,0h31.3v4h-31.2c-8.1,0-14.7-6.6-14.7-14.7 C316.7,383.2,323.3,376.5,331.4,376.5z"/> <path class="st0" d="M331.4,341.1c8.1,0,14.7,6.6,14.7,14.7c0,2.7-0.7,5.2-2,7.4h-5c1.8-1.9,3-4.5,3-7.4c0-5.9-4.8-10.7-10.7-10.7 c-5.9,0-10.7,4.8-10.7,10.7c0,5.9,4.7,10.6,10.6,10.7l0,0h31.3v4h-31.2c-8.1,0-14.7-6.6-14.7-14.7 C316.7,347.8,323.3,341.1,331.4,341.1z"/> <path class="st0" d="M313.8,335.2h-4v-4h4V335.2z M346.2,335.2h-29.6v-4h29.6V335.2z"/> </g> <g id="Group_200" transform="translate(-113.823 -1.19)"> <g id="Path_338"> <g> <path class="st0" d="M311.3,272.9c-0.9,0-1.7-0.3-2.5-0.8c-1.7-1.4-2-3.9-0.7-5.7l10.5-13c1.4-1.7,3.9-2,5.7-0.7l0,0 c1.7,1.4,2,3.8,0.7,5.7l-10.5,13C313.7,272.4,312.5,272.9,311.3,272.9z M321.8,253c-0.9,0-1.7,0.4-2.3,1.1l-10.5,13 c-0.9,1.3-0.7,3.1,0.5,4.1c1.3,0.9,3.1,0.7,4.1-0.5l10.5-12.9c0.9-1.3,0.7-3.1-0.5-4.1C323.1,253.2,322.5,253,321.8,253z"/> </g> </g> <g id="Path_339"> <g> <path class="st0" d="M327.9,273.3l-16.5-0.3c-2.2,0-3.9-1.8-3.9-4s1.8-4,4-4l16.5,0.3c2.2,0,4,1.9,4,4.1 C332,271.5,330.2,273.3,327.9,273.3z M311.5,266c-1.6,0-2.9,1.3-2.9,2.9s1.2,2.9,2.8,2.9l16.5,0.3c1.7,0,3-1.3,3-2.8 c0-1.7-1.3-3-2.9-3L311.5,266z"/> </g> </g> <g id="Path_340"> <g> <path class="st0" d="M317.7,286.3c-0.9,0-1.7-0.3-2.5-0.8c-1.8-1.5-2.1-4-0.7-5.6l10.4-12.9c0.6-0.9,1.5-1.4,2.5-1.6 c1.1-0.2,2.3,0.1,3.2,0.9l0,0c1.7,1.4,2,3.8,0.7,5.7l-10.4,13C320,285.8,318.9,286.3,317.7,286.3z M328,266.4c-0.1,0-0.3,0-0.4,0 c-0.7,0.1-1.4,0.5-1.8,1.2l-10.4,13c-1,1.2-0.8,3,0.5,4c1.3,0.9,3.1,0.7,4.1-0.5l10.4-12.9c0.9-1.3,0.7-3.1-0.5-4.1 C329.4,266.6,328.7,266.4,328,266.4z"/> </g> </g> </g> </svg>