<?xml version="1.0" encoding="UTF-8" standalone="no"?>
<!-- Created with Inkscape (http://www.inkscape.org/) -->

<svg
   width="109.20978mm"
   height="108.42236mm"
   viewBox="0 0 109.20978 108.42236"
   version="1.1"
   id="svg1881"
   inkscape:version="1.1.1 (eb90963e84, 2021-10-02)"
   sodipodi:docname="icon.svg"
   xmlns:inkscape="http://www.inkscape.org/namespaces/inkscape"
   xmlns:sodipodi="http://sodipodi.sourceforge.net/DTD/sodipodi-0.dtd"
   xmlns="http://www.w3.org/2000/svg"
   xmlns:svg="http://www.w3.org/2000/svg">
  <sodipodi:namedview
     id="namedview1883"
     pagecolor="#505050"
     bordercolor="#eeeeee"
     borderopacity="1"
     inkscape:pageshadow="0"
     inkscape:pageopacity="0"
     inkscape:pagecheckerboard="0"
     inkscape:document-units="mm"
     showgrid="false"
     inkscape:zoom="0.59776235"
     inkscape:cx="89.500452"
     inkscape:cy="208.27675"
     inkscape:window-width="1600"
     inkscape:window-height="838"
     inkscape:window-x="0"
     inkscape:window-y="34"
     inkscape:window-maximized="1"
     inkscape:current-layer="layer1" />
  <defs
     id="defs1878" />
  <g
     inkscape:label="Layer 1"
     inkscape:groupmode="layer"
     id="layer1"
     transform="translate(-81.511612,-93.188451)">
    <path
       style="fill:#212121;stroke-width:1.26254"
       d="m 90.348759,198.7701 c -8.639711,-5.89736 -8.837147,-7.04927 -8.837147,-51.55776 0,-39.31873 0.0427,-39.98139 2.840716,-44.09254 1.562394,-2.29563 4.443656,-5.362404 6.402802,-6.815046 3.399728,-2.520787 5.29875,-2.658641 41.66384,-3.024468 20.95597,-0.210808 39.9315,-0.04618 42.16785,0.365874 4.89538,0.901962 11.01295,5.812964 13.97045,11.21504 1.91225,3.49281 2.16412,8.50815 2.16412,43.09163 0,37.20767 -0.12793,39.35659 -2.59334,43.55336 -1.42636,2.42804 -4.49312,5.69487 -6.81505,7.25962 -4.1662,2.8076 -4.76468,2.845 -45.51213,2.845 -40.744926,0 -41.345415,-0.0376 -45.452111,-2.84071 z m 87.135641,-2.0366 c 2.41956,-1.29373 5.53549,-4.27648 6.92428,-6.62833 2.37663,-4.02475 2.52509,-6.54318 2.52509,-42.83995 0,-42.78735 0.009,-42.73155 -8.59075,-47.975758 -3.76428,-2.295219 -6.59838,-2.460404 -42.28923,-2.464807 -42.287654,-0.0051 -43.55918,0.204085 -48.280588,7.947455 -2.303212,3.7774 -2.464839,6.58725 -2.469249,42.92778 -0.0054,43.51028 0.142127,44.35237 8.540329,48.78655 4.372243,2.3085 7.395868,2.49172 41.976268,2.5435 33.99994,0.0509 37.65006,-0.15035 41.66385,-2.29644 z M 96.102422,186.17941 c -1.664061,-2.37579 -1.965403,-8.17053 -1.965403,-37.79403 0,-19.67786 0.53879,-36.40517 1.231291,-38.22658 l 1.231291,-3.23854 h 39.125579 c 37.39018,0 39.18357,0.10832 40.43257,2.44209 0.81273,1.51862 1.30695,15.97382 1.30695,38.22655 0,30.34439 -0.29878,36.21108 -1.9654,38.59051 -1.95644,2.7932 -2.13743,2.80599 -39.69843,2.80599 -37.561021,0 -37.742008,-0.0117 -39.698448,-2.80599 z m 77.277538,-38.5422 0.33414,-38.19186 H 135.81938 97.92464 v 37.66579 c 0,20.71619 0.387181,38.05298 0.860401,38.52619 0.47322,0.47323 17.375479,0.70995 37.560589,0.52606 l 36.70019,-0.33433 z m -41.04833,29.35407 c -0.014,-4.1664 0.23434,-6.58099 0.55191,-5.3658 0.31757,1.21518 1.5584,2.20943 2.75739,2.20943 1.19899,0 2.86177,0.68178 3.69504,1.51505 1.82976,1.82976 2.02845,8.58528 0.25252,8.58528 -0.69441,0 -1.26254,-1.6709 -1.26254,-3.7131 0,-6.64835 -4.11457,-5.74119 -5.38853,1.18802 -0.31918,1.73598 -0.59178,-0.2525 -0.60579,-4.41888 z m 11.60989,5.15813 c -3.1351,-2.29244 -1.9041,-7.58337 1.88894,-8.11877 3.46422,-0.48897 6.38396,2.56402 6.38253,6.67393 -0.001,3.03655 -4.91966,3.89573 -8.27147,1.44484 z m 5.7473,-3.30395 c 0,-2.97782 -3.33886,-4.70178 -5.30269,-2.73797 -1.96381,1.96381 -0.23985,5.30267 2.73797,5.30267 1.73622,0 2.56472,-0.82848 2.56472,-2.5647 z m 4.2451,0.76848 c 0.11112,-3.16908 0.85577,-5.17532 2.06758,-5.57111 1.49772,-0.48918 1.58711,-0.24553 0.42736,1.16495 -0.80656,0.98091 -1.73696,3.48792 -2.06758,5.57112 -0.45409,2.86109 -0.55863,2.57614 -0.42736,-1.16496 z m 16.29941,-0.72886 c 0,-3.12478 0.24622,-4.4031 0.54714,-2.84071 0.30093,1.56238 0.30093,4.11903 0,5.68142 -0.30092,1.56241 -0.54714,0.28409 -0.54714,-2.84071 z m -9.25436,0.44003 c -0.70001,-1.84118 -1.04009,-3.97172 -0.75569,-4.73453 0.28439,-0.76281 0.93279,0.17556 1.44087,2.08504 0.50809,1.90961 1.36877,3.472 1.9126,3.472 0.54385,0 1.40452,-1.56239 1.91261,-3.472 0.50809,-1.90958 1.15649,-2.84785 1.44088,-2.08504 0.74285,1.99255 -1.78387,8.08212 -3.35349,8.08212 -0.72875,0 -1.89777,-1.50641 -2.59778,-3.34759 z m -59.58234,-25.79196 c -3.198894,-1.8632 -2.896431,-8.28016 0.47534,-10.08469 4.21522,-2.25591 8.67808,0.34841 8.67808,5.06415 0,5.25969 -4.50268,7.72933 -9.15342,5.02054 z m 7.25961,-4.94906 c 0,-2.50636 -0.71647,-3.23875 -3.47917,-3.55652 -3.73139,-0.42921 -5.593718,2.00282 -4.23833,5.5349 0.49507,1.29014 1.96946,1.83915 4.23833,1.57817 2.7627,-0.31777 3.47917,-1.05016 3.47917,-3.55655 z m 10.10032,0 c 0.42916,-0.69438 1.03084,-1.26251 1.33705,-1.26251 0.30622,0 0.55676,0.56813 0.55676,1.26251 0,0.69441 -0.60167,1.26257 -1.33705,1.26257 -0.73538,0 -0.98592,-0.56816 -0.55676,-1.26257 z M 99.912141,116.1782 c -0.444255,-1.15772 -0.358256,-2.55441 0.191109,-3.10377 1.59281,-1.59283 4.58021,0.96251 3.72641,3.18746 -1.00659,2.62313 -2.89429,2.58282 -3.917526,-0.0836 z"
       id="path1764" />
  </g>
</svg>
