<?xml version="1.0" encoding="UTF-8" standalone="no"?>
<!-- Created with Inkscape (http://www.inkscape.org/) -->

<svg
   width="117.79665mm"
   height="117.88428mm"
   viewBox="0 0 117.79665 117.88428"
   version="1.1"
   id="svg3215"
   inkscape:version="1.1.1 (eb90963e84, 2021-10-02)"
   sodipodi:docname="icon.svg"
   xmlns:inkscape="http://www.inkscape.org/namespaces/inkscape"
   xmlns:sodipodi="http://sodipodi.sourceforge.net/DTD/sodipodi-0.dtd"
   xmlns="http://www.w3.org/2000/svg"
   xmlns:svg="http://www.w3.org/2000/svg">
  <sodipodi:namedview
     id="namedview3217"
     pagecolor="#505050"
     bordercolor="#eeeeee"
     borderopacity="1"
     inkscape:pageshadow="0"
     inkscape:pageopacity="0"
     inkscape:pagecheckerboard="0"
     inkscape:document-units="mm"
     showgrid="false"
     inkscape:zoom="0.41287311"
     inkscape:cx="1234.0353"
     inkscape:cy="249.47132"
     inkscape:window-width="1920"
     inkscape:window-height="1010"
     inkscape:window-x="0"
     inkscape:window-y="34"
     inkscape:window-maximized="1"
     inkscape:current-layer="layer1" />
  <defs
     id="defs3212" />
  <g
     inkscape:label="Layer 1"
     inkscape:groupmode="layer"
     id="layer1"
     transform="translate(-52.386529,-67.791473)">
    <path
       style="fill:#000000;stroke-width:0.264583"
       d="m 57.019647,177.07914 c -1.995185,-2.7046 -3.212577,-5.41326 -4.100021,-9.12245 -0.509984,-2.13155 -0.759742,-79.397385 -0.26514,-82.026795 0.915366,-4.86636 3.079589,-8.683513 6.918426,-12.202405 3.166522,-2.90261 6.130079,-4.403623 10.530892,-5.333789 2.273686,-0.480574 79.401046,-0.851991 81.650046,-0.393197 9.24936,1.886845 15.93137,8.404522 17.83275,17.39418 0.54926,2.596848 0.84939,79.426446 0.32084,82.124656 -0.9736,4.96996 -2.33339,7.44412 -6.25368,11.37868 -2.75052,2.75991 -3.01315,2.96472 -5.26996,4.10033 -2.52386,1.26992 -4.9948,1.99932 -7.8813,2.32649 -0.97346,0.11037 -18.89428,0.25529 -39.82403,0.32209 -25.260869,0.0806 -38.717591,-0.008 -40.027788,-0.26416 -5.407308,-1.0564 -10.63309,-4.2398 -13.631001,-8.30363 z m 5.980325,4.61827 c 1.910379,1.27903 4.072993,2.2327 6.465963,2.85134 1.264596,0.32695 11.582722,0.41568 40.495165,0.3483 21.33899,-0.0501 39.88969,-0.21292 41.22378,-0.36267 4.87132,-0.54674 8.80943,-2.49818 12.45235,-6.17047 2.96457,-2.98846 4.97593,-6.84908 5.80582,-11.14366 0.35973,-1.86159 0.17238,-76.732085 -0.20033,-80.066841 -0.32934,-2.946553 -1.28728,-5.82984 -2.78254,-8.374974 -1.57507,-2.680982 -4.88407,-5.97295 -7.50285,-7.464204 -2.65682,-1.512906 -5.90866,-2.534508 -9.0923,-2.85644 -3.56768,-0.360761 -76.419294,0.01549 -78.810464,0.407032 -7.45787,1.221191 -13.303569,5.658263 -16.39014,12.440605 -1.835529,4.033363 -1.716221,-1.311068 -1.57003,70.327762 0.01774,8.68003 0.182832,15.10971 0.414599,16.14465 1.40104,6.25593 4.220343,10.39075 9.491014,13.91956 z m -5.032838,-7.21845 c -0.517169,-0.79669 -1.356409,-2.65566 -1.864989,-4.131 -0.508575,-1.47535 -0.990255,-2.72123 -1.070405,-2.76864 -0.187752,-0.11103 -0.426277,-2.98609 -0.247804,-2.98681 0.0741,-3e-4 0.10105,-6.66193 0.05993,-14.80364 -0.04113,-8.14169 -0.04413,-14.77266 -0.0066,-14.73548 0.03748,0.0371 0.06022,-1.0723 0.05053,-2.4655 -0.0097,-1.3932 -0.10467,-2.57752 -0.211074,-2.63182 -0.106426,-0.0543 -0.101181,-0.14954 0.01161,-0.21159 0.327928,-0.18038 0.274273,-7.97295 -0.05542,-8.04938 -0.164047,-0.038 -0.159434,-0.10252 0.0104,-0.14337 0.169797,-0.0408 0.291642,-0.39112 0.270782,-0.77845 -0.02088,-0.38733 -0.10315,-0.63854 -0.18283,-0.55821 -0.07967,0.0803 -0.167135,-0.0832 -0.194281,-0.36355 -0.02718,-0.28028 0.05041,-0.53357 0.172444,-0.56289 0.259374,-0.0623 0.252109,-2.09078 -0.0082,-2.29543 -0.09714,-0.0763 -0.115008,-0.20354 -0.03973,-0.28257 0.264983,-0.27848 0.303902,-0.91969 0.05909,-0.97645 -0.271543,-0.063 -0.272797,-0.78592 -0.0019,-1.10979 0.09368,-0.11203 0.09288,-0.28054 -0.0018,-0.37448 -0.239029,-0.23712 -0.217364,-0.7514 0.04271,-1.01357 0.11957,-0.12054 0.111731,-0.32397 -0.0174,-0.45207 -0.129138,-0.12811 -0.155826,-0.29604 -0.0593,-0.37318 0.258638,-0.20676 0.249653,-2.23516 -0.01025,-2.29541 -0.122281,-0.0284 -0.201912,-0.28101 -0.176974,-0.5615 0.02495,-0.28047 0.108294,-0.44748 0.185252,-0.37114 0.07695,0.0764 0.160284,-0.0907 0.185258,-0.37117 0.02493,-0.28047 -0.07896,-0.53877 -0.23085,-0.57397 -0.151916,-0.0352 -0.183834,-0.11067 -0.07094,-0.1677 0.11288,-0.057 0.145489,-0.21255 0.07256,-0.3456 -0.232839,-0.4247 -0.188229,-2.60568 0.05448,-2.66402 0.253271,-0.0609 0.171631,-0.71321 -0.127547,-1.01923 -0.101901,-0.10391 -0.08716,-0.28782 0.03241,-0.40835 0.278563,-0.28081 0.276553,-0.78159 -0.0043,-1.06016 -0.120533,-0.11957 -0.09721,-0.348 0.05182,-0.50762 0.148757,-0.1599 0.168424,-0.36008 0.04311,-0.44547 -0.125361,-0.0854 -0.221388,-3.277515 -0.213466,-7.093655 0.0079,-3.816142 0.06581,-6.557772 0.12864,-6.092496 0.06282,0.465268 0.09203,0.266771 0.06488,-0.441103 -0.02714,-0.707866 0.0063,-1.345512 0.07434,-1.416983 0.0681,-0.07149 0.522105,-1.327947 1.009049,-2.792174 1.09114,-3.281 2.35183,-5.361011 4.655201,-7.680606 1.976581,-1.991095 4.055283,-3.394184 6.36613,-4.298524 0.849915,-0.332615 1.574292,-0.729817 1.609727,-0.882666 0.03543,-0.152865 0.153546,-0.143426 0.26199,0.02047 0.109275,0.165026 0.330893,0.140963 0.495894,-0.05385 0.164121,-0.193701 0.323938,-0.245756 0.355185,-0.115653 0.06334,0.263584 0.84823,0.02619 1.29703,-0.392286 0.159406,-0.149332 0.394412,-0.167777 0.52142,-0.04178 0.127015,0.126 0.552813,0.171052 0.946213,0.100109 0.393408,-0.07093 0.647246,-0.196468 0.564098,-0.278951 -0.08316,-0.08249 17.100435,-0.219546 38.185753,-0.304571 21.0853,-0.08502 38.33721,-0.08321 38.33757,0.004 0.001,0.269375 1.33593,0.404467 1.57866,0.159766 0.12601,-0.127013 0.356,-0.105271 0.5111,0.04832 0.15509,0.153588 1.1395,0.513732 2.18754,0.80032 3.7493,1.025226 7.41147,3.40168 9.62705,6.247167 0.62736,0.805736 1.2636,1.493484 1.41387,1.52832 0.15024,0.03483 0.23664,0.220815 0.19208,0.413201 -0.0446,0.192422 0.16832,0.63478 0.47318,0.982999 0.30486,0.348232 0.48262,0.705743 0.39498,0.794485 -0.0877,0.08872 0.0217,0.241137 0.24316,0.338664 0.2308,0.101682 0.27497,0.207967 0.10353,0.249162 -0.16443,0.03953 -0.16716,0.20259 -0.006,0.362344 0.43587,0.432389 0.50786,0.589878 0.50997,1.115635 10e-4,0.263207 0.17261,0.553747 0.38125,0.645667 0.20924,0.09217 0.30023,0.346629 0.20293,0.567469 -0.097,0.220197 -0.10124,0.753908 -0.009,1.186019 0.0918,0.4321 0.20498,0.621552 0.25148,0.420988 0.0645,-0.278722 0.12745,-0.22503 0.26651,0.227709 0.10009,0.325799 0.14079,0.760262 0.0905,0.965468 -0.0676,0.275446 -0.11549,0.25174 -0.18333,-0.09069 -0.0505,-0.255085 -0.0596,0.01642 -0.0204,0.603393 0.0393,0.586948 0.14966,1.066875 0.2451,1.066488 0.25188,-10e-4 0.51921,75.746805 0.26753,75.807285 -0.11632,0.028 -0.21925,0.75699 -0.22873,1.62009 -0.009,0.8631 -0.0579,1.39996 -0.10762,1.19304 -0.0504,-0.20942 -0.1616,-0.0274 -0.25104,0.41072 -0.0883,0.43283 -0.082,0.96179 0.0143,1.17547 0.0962,0.21371 0.0472,0.41918 -0.1089,0.4567 -0.34479,0.0829 -1.04068,1.97734 -0.81028,2.2059 0.0902,0.0896 0.0382,0.19307 -0.11565,0.23003 -0.15387,0.0369 -0.396,0.34183 -0.538,0.67752 -0.54661,1.29152 -0.75492,1.65564 -1.40441,2.45476 -0.36891,0.45394 -0.7504,0.9979 -0.8477,1.20883 -0.27204,0.58974 -2.28418,2.69548 -2.7423,2.8699 -0.22402,0.0852 -1.05337,0.6042 -1.84307,1.15315 -2.22637,1.54767 -7.6059,3.30161 -9.58645,3.12554 -0.30028,-0.0267 -0.568,0.0465 -0.59492,0.16262 -0.0269,0.11614 -16.96086,0.27872 -37.63097,0.36131 -20.670113,0.0826 -37.522643,0.0904 -37.450077,0.0172 0.07257,-0.0732 -0.824206,-0.2614 -1.992823,-0.41832 -5.641528,-0.75756 -10.796215,-4.00192 -13.861902,-8.72474 z m 7.672764,6.22478 c 4.304602,2.16249 2.639723,2.09292 45.930552,1.91913 43.21446,-0.17348 41.43946,-0.0857 45.8521,-2.26617 1.78354,-0.88129 2.27517,-1.26223 4.42959,-3.43221 2.12959,-2.14535 2.54332,-2.68311 3.41321,-4.44045 2.09362,-4.22942 2.02252,-2.48005 1.86589,-45.90163 -0.11636,-32.262098 -0.24203,-40.423937 -0.64485,-41.888093 -2.00597,-7.291234 -7.39623,-12.287937 -14.81694,-13.735107 -1.79694,-0.350432 -77.609703,-0.132873 -80.250052,0.230302 -2.282585,0.313957 -5.788,1.537454 -7.642476,2.667453 -0.704025,0.428982 -2.155998,1.671946 -3.226618,2.762129 -2.794891,2.845962 -4.388473,6.015062 -5.063885,10.070327 -0.323533,1.942528 -0.147694,76.505399 0.187129,79.348959 0.590319,5.01354 2.19037,8.20948 5.812571,11.61008 1.735353,1.62921 2.640904,2.29527 4.153781,3.05528 z m 2.050027,-12.05819 c -0.299958,-0.48643 -0.656307,-1.47969 -0.79189,-2.20724 -0.135574,-0.72756 -0.282509,-18.72531 -0.326509,-39.99503 -0.08808,-42.570722 -0.174341,-40.798733 2.079922,-42.723329 0.574165,-0.490193 1.514789,-1.039484 2.09031,-1.220645 1.393788,-0.438723 79.337362,-0.767115 80.703342,-0.340019 1.51992,0.475235 3.9167,2.883318 4.52304,4.544386 0.61942,1.696861 0.80604,79.016577 0.19388,80.304427 l -0.4168,0.87679 0.0901,-1.02866 0.0901,-1.02866 -0.46117,1.2196 c -0.56781,1.50159 -2.59252,3.65177 -3.87428,4.11435 -1.33859,0.48308 -79.412063,0.69786 -80.572855,0.22141 -1.284648,-0.52702 -2.663731,-1.66174 -3.327171,-2.73763 z m 2.658025,1.49996 c 1.035249,0.62897 3.121173,0.65672 40.64991,0.54081 22.41502,-0.069 40.01539,-0.26836 40.61254,-0.45948 1.39717,-0.44717 2.88046,-1.96633 3.47319,-3.55727 0.35346,-0.94866 0.42482,-9.96817 0.31681,-40.04018 -0.14608,-40.680798 -0.14543,-40.665231 -1.74591,-42.24789 -1.85839,-1.837743 0.25301,-1.757139 -42.13067,-1.608332 -26.819463,0.09416 -39.921517,0.266241 -40.686808,0.534368 -1.438556,0.504012 -2.647528,1.73524 -3.231882,3.291444 -0.357555,0.952134 -0.421185,9.909807 -0.28823,40.5749 0.148604,34.27438 0.242872,39.49835 0.730468,40.47924 0.697029,1.40221 0.940635,1.66613 2.300582,2.49239 z m 1.961323,-3.52501 c 0.0098,-0.56514 0.157086,-1.16786 0.327221,-1.33938 0.373259,-0.37626 1.437263,-0.10738 1.557667,0.39364 0.340032,1.41498 -0.07985,2.38239 -1.03566,2.38622 -0.681716,0.003 -0.86882,-0.31463 -0.849228,-1.44048 z m 0.536632,0.70366 c 0.03535,-0.0357 0.03384,-0.4145 -0.0034,-0.84189 l -0.06767,-0.77709 -0.06143,0.77761 c -0.05773,0.73075 -0.01665,0.99169 0.132468,0.84137 z m 1.12973,-0.34084 c -0.0028,-0.36816 -0.04584,-0.36799 -0.209461,0.001 -0.113202,0.25525 -0.111615,0.46366 0.0036,0.46319 0.115257,-4.6e-4 0.207851,-0.20928 0.205873,-0.46404 z m -1.797392,-4.06594 c 0.177773,-0.87095 0.896118,-1.38066 1.543734,-1.09533 0.607226,0.26751 0.549289,0.9153 -0.08737,0.97704 -0.557193,0.054 -0.795709,0.55061 -0.432945,0.90133 0.135843,0.13195 0.184876,0.0374 0.122139,-0.236 -0.07999,-0.34844 -0.0015,-0.4555 0.334992,-0.45682 0.738471,-0.003 0.888362,0.78787 0.246647,1.30139 -0.47513,0.38028 -0.685125,0.36701 -1.229464,-0.0777 -0.513534,-0.41942 -0.62186,-0.70549 -0.49768,-1.314 z m 1.783872,0.69837 c -0.0028,-0.36816 -0.04583,-0.36799 -0.209459,0.001 -0.113202,0.25526 -0.111617,0.46367 0.0036,0.46321 0.115259,-4.7e-4 0.207851,-0.20929 0.205873,-0.46405 z m -1.678369,-3.35622 c 0.02256,-1.29684 0.459898,-1.74551 1.372707,-1.40834 0.649468,0.23992 0.70528,0.35587 0.608182,1.26352 -0.05879,0.54962 -0.169378,1.06314 -0.245737,1.14114 -0.132635,0.13512 -1.571487,0.21133 -1.694293,0.0894 -0.03231,-0.032 -0.05073,-0.5207 -0.04089,-1.08585 z m 0.818203,0.64572 c 0.202422,-0.0554 0.234878,-0.1067 0.0721,-0.114 -0.162742,-0.008 -0.324621,-0.33611 -0.360328,-0.73013 -0.06438,-0.71635 -0.06448,-0.7163 -0.125848,0.0606 -0.07167,0.90733 -0.06748,0.91527 0.414056,0.78343 z m 6.251522,5.72888 c -0.003,-0.75123 0.331539,-1.11215 0.977689,-1.05472 0.271346,0.0242 0.566726,-0.12267 0.65639,-0.32619 0.108747,-0.24679 0.292077,-0.24204 0.550467,0.0142 0.214303,0.2126 1.122301,0.36452 2.03186,0.34002 0.904427,-0.0244 1.768987,0.0837 1.921248,0.24014 0.217647,0.22294 0.165288,0.25552 -0.241782,0.14988 -0.28525,-0.074 -0.604315,-0.0484 -0.709033,0.0573 -0.10471,0.10555 0.08218,0.19082 0.415348,0.18949 0.5582,-0.002 0.608459,0.048 0.640375,0.64088 0.03226,0.59848 0.05451,0.61527 0.319189,0.24114 0.156467,-0.2212 0.165993,-0.47625 0.02113,-0.5668 -0.144841,-0.0906 -0.183569,-0.34582 -0.08602,-0.56726 0.111872,-0.25392 0.678088,-0.40461 1.533198,-0.40804 0.745719,-0.003 1.509566,-0.16041 1.697455,-0.34982 0.476772,-0.48061 0.64993,-0.20919 0.629125,0.98611 -0.01842,1.05836 -0.312415,1.62628 -0.662251,1.27924 -0.109409,-0.10854 -0.08262,-0.22528 0.05954,-0.25944 0.142183,-0.0341 0.23203,-0.49005 0.19973,-1.0131 -0.0323,-0.52303 -0.08987,-0.71486 -0.12791,-0.42628 -0.03803,0.2886 -0.193988,0.52521 -0.346545,0.52583 -0.152563,4.6e-4 -0.132977,0.0885 0.04347,0.19518 0.515677,0.3119 -0.451664,1.433 -1.018467,1.18033 -0.578116,-0.25769 -1.332755,-0.26688 -1.578423,-0.0192 -0.31382,0.31634 -1.193617,-0.29502 -1.279093,-0.88884 -0.06806,-0.47291 -0.08441,-0.48242 -0.106805,-0.0622 -0.04051,0.76158 -0.410017,0.98524 -1.683863,1.01924 -1.057303,0.0282 -1.185489,-0.0319 -1.33521,-0.62639 -0.135966,-0.53988 -0.167533,-0.57161 -0.176063,-0.17747 -0.0059,0.26424 -0.08148,0.55175 -0.167954,0.63892 -0.243618,0.24558 -0.710099,-0.54325 -0.663185,-1.12143 0.03594,-0.44275 0.0098,-0.4707 -0.180582,-0.19364 -0.380749,0.55381 -0.338029,1.14826 0.07724,1.07483 0.222688,-0.0394 0.196254,0.0585 -0.06837,0.25293 -0.549595,0.40383 -1.338485,-0.16359 -1.341703,-0.96508 z m 3.334402,0.42623 c 0.132365,-0.12492 0.387547,-0.31201 0.567396,-0.41544 0.179891,-0.10338 0.273743,-0.30335 0.208631,-0.44429 -0.06513,-0.14095 -0.378777,-0.0119 -0.696974,0.2869 -0.318195,0.29875 -0.520199,0.60107 -0.448963,0.67174 0.07126,0.0706 0.23773,0.0263 0.36991,-0.0989 z m 1.673216,0.30215 c 0.09152,-0.0922 0.08047,-0.35863 -0.02455,-0.59193 -0.15967,-0.35466 -0.198552,-0.33871 -0.237327,0.0974 -0.05281,0.5943 0.02227,0.73608 0.261885,0.49454 z m 3.401862,-0.51771 c 0.20917,0.0474 0.424674,0.25283 0.478892,0.45647 0.05423,0.20362 0.119689,0.0269 0.145476,-0.39272 0.059,-0.96041 -0.02809,-1.03797 -0.830866,-0.73999 -0.67702,0.25133 -0.603338,0.49263 0.206484,0.67625 z M 70.584188,156.33746 c 0.0098,-0.56514 0.118105,-1.12856 0.240603,-1.25205 0.313074,-0.3156 0.749172,0.18832 0.694588,0.80257 -0.02512,0.28256 0.02851,0.5873 0.119166,0.67724 0.264495,0.26238 0.598879,-0.22284 0.630621,-0.91511 0.03497,-0.76268 0.689146,-1.12492 1.344788,-0.74463 0.259549,0.15056 0.584984,0.15979 0.723153,0.0205 0.448271,-0.45188 1.445894,0.0221 1.685003,0.80048 0.42692,1.3899 -0.233626,1.81669 -2.845986,1.83883 -1.313112,0.0116 -2.437514,-0.0294 -2.498646,-0.0901 -0.06113,-0.0606 -0.103119,-0.57268 -0.09328,-1.13782 z m 3.349699,-0.18476 c -0.0014,-0.34092 -0.113517,-0.43816 -0.487497,-0.42275 -0.327552,0.0136 -0.373271,0.0512 -0.140394,0.11553 0.189958,0.0525 0.311138,0.24315 0.269293,0.42361 -0.04182,0.18046 0.02214,0.32771 0.142165,0.32722 0.120065,-4.7e-4 0.217403,-0.20013 0.216433,-0.44364 z m 0.954808,1.03225 c 0.171443,-0.0412 0.127282,-0.14748 -0.103518,-0.24917 -0.449288,-0.19794 -0.642387,-0.12236 -0.372198,0.14566 0.09721,0.0964 0.311286,0.14301 0.475716,0.10351 z m 0.280716,-0.84385 c 0.102484,-0.10332 0.09682,-0.27665 -0.01259,-0.38518 -0.109409,-0.10854 -0.230544,-0.061 -0.269176,0.10568 -0.03867,0.16661 -0.03297,0.33997 0.01259,0.38516 0.04558,0.0453 0.166685,-0.002 0.269169,-0.10566 z m 4.237157,7.21248 c 0.0409,-0.89186 0.712224,-1.3388 1.325475,-0.88245 0.265891,0.19785 0.51419,0.22697 0.551814,0.0646 0.09694,-0.41811 4.394692,-0.44182 4.813308,-0.0265 0.196987,0.19542 0.378922,0.20483 0.421356,0.0218 0.04107,-0.17716 0.385275,-0.33882 0.764877,-0.3593 0.670473,-0.0361 0.671022,-0.0562 0.01931,-0.70272 -0.369346,-0.3664 -0.8111,-0.59524 -0.982844,-0.50913 -0.238157,0.11938 -0.330816,0.006 -0.391737,-0.48171 -0.07345,-0.58771 -0.08508,-0.59272 -0.14722,-0.0632 -0.05744,0.48966 -0.161953,0.57528 -0.704822,0.57746 -0.540861,0.002 -0.661919,-0.0947 -0.799493,-0.64021 -0.134023,-0.53134 -0.163984,-0.55949 -0.17251,-0.16267 -0.0175,0.78419 -0.381661,0.92364 -0.901455,0.34518 -0.267905,-0.29816 -0.390323,-0.6068 -0.272015,-0.68588 0.118308,-0.0791 0.09673,-0.26122 -0.04795,-0.40474 -0.144678,-0.14354 -0.289382,-0.14736 -0.321594,-0.008 -0.03223,0.13884 -0.196027,0.11611 -0.364041,-0.0506 -0.212819,-0.21111 -0.377312,-0.16309 -0.542201,0.15829 -0.130165,0.25375 -0.565518,0.61849 -0.967449,0.81053 -0.679397,0.32466 -0.685462,0.3433 -0.0862,0.26516 0.354502,-0.0463 0.843108,-0.28416 1.085776,-0.52879 0.265471,-0.26762 0.472143,-0.31611 0.518857,-0.12175 0.04267,0.17771 -0.113876,0.4096 -0.347938,0.51538 -0.271137,0.12254 -0.121597,0.18066 0.412176,0.1602 0.460755,-0.0177 0.838181,0.0771 0.838717,0.21063 5.32e-4,0.1335 -0.512482,0.21592 -1.140035,0.18315 -0.627559,-0.0328 -1.407891,0.10164 -1.734075,0.29875 -0.755641,0.45656 -0.861882,0.33415 -0.839244,-0.96704 0.02198,-1.26377 0.620068,-1.79814 1.362329,-1.21723 0.413156,0.32338 0.423425,0.39074 0.04903,0.32244 -0.260337,-0.0475 -0.383053,0.006 -0.272711,0.11836 0.342239,0.34935 0.691141,0.22425 0.734482,-0.26328 0.0313,-0.35228 0.189282,-0.47685 0.647186,-0.51032 0.333171,-0.0243 0.680743,-0.20498 0.772387,-0.40138 0.121442,-0.26029 0.248629,-0.21826 0.46924,0.15514 0.249211,0.42182 0.417902,0.43471 0.955808,0.073 0.603855,-0.40606 1.418912,-0.178 0.972403,0.27211 -0.108533,0.1094 -0.222993,0.092 -0.254433,-0.0387 -0.03138,-0.13072 -0.212515,-0.0809 -0.402413,0.11049 -0.189919,0.19144 -0.232176,0.37433 -0.09396,0.40634 0.138242,0.0321 0.271755,0.26884 0.29673,0.52616 0.04852,0.50032 0.333783,0.50641 0.753494,0.016 0.142296,-0.1663 0.127185,-0.38654 -0.03365,-0.4895 -0.171803,-0.11 -0.129696,-0.29875 0.102129,-0.45773 0.217023,-0.14876 0.612078,-0.10864 0.877955,0.0892 0.265891,0.19785 0.514148,0.22716 0.55171,0.0651 0.09835,-0.42424 1.003963,-0.45182 1.415954,-0.0431 0.194509,0.19296 0.250423,0.82784 0.125446,1.42423 -0.124027,0.59184 -0.136705,1.16625 -0.02815,1.27646 0.108405,0.11035 0.188947,0.68322 0.178672,1.27336 l -0.01866,1.07297 -0.982314,0.16926 c -0.54027,0.0931 -1.2322,0.021 -1.537629,-0.1602 -0.352544,-0.20915 -0.614073,-0.1961 -0.716225,0.0358 -0.09498,0.21558 -0.278176,0.24889 -0.447107,0.0813 -0.157407,-0.15614 -0.429279,-0.21621 -0.604148,-0.13346 -0.249039,0.11786 -0.358663,-0.002 -0.505803,-0.55458 -0.183323,-0.68798 -0.18879,-0.68819 -0.226304,-0.008 -0.04633,0.83939 -0.201509,1.03477 -0.548449,0.69062 -0.142918,-0.14178 -0.456754,-0.14145 -0.697414,9e-4 -0.240639,0.14219 -0.80538,0.1181 -1.254936,-0.0535 -0.479267,-0.18294 -0.878967,-0.17221 -0.966278,0.0259 -0.227618,0.51667 -0.698418,-0.11509 -0.662912,-0.88954 z m 0.541168,0.36839 c 0.03866,-0.039 0.03751,-0.33367 -0.0026,-0.6548 -0.06614,-0.52919 -0.07938,-0.52915 -0.141278,5e-4 -0.06502,0.55632 -0.0094,0.80884 0.1439,0.65425 z m 2.632706,0.2022 c 0.411114,-0.0741 0.617509,-0.2267 0.570615,-0.42181 -0.119663,-0.49794 -0.601473,-0.46932 -0.904888,0.0538 -0.231413,0.39897 -0.355827,0.39945 -0.689855,0.003 -0.224177,-0.2662 -0.590834,-0.63738 -0.814927,-0.82475 -0.366611,-0.30662 -0.384825,-0.26948 -0.182146,0.37148 0.251423,0.79489 0.83715,1.03211 2.021215,0.8186 z m 1.671052,-0.0324 c 0.03866,-0.039 0.03751,-0.33367 -0.0026,-0.65481 -0.06614,-0.52919 -0.07938,-0.52914 -0.141278,5.1e-4 -0.065,0.55629 -0.0094,0.80882 0.143907,0.65423 z m 0.93468,-0.19085 c 0.03866,-0.039 0.03751,-0.33367 -0.0026,-0.65481 -0.06614,-0.52918 -0.07937,-0.52912 -0.141279,5.1e-4 -0.065,0.55632 -0.0094,0.80882 0.1439,0.65423 z m 1.727846,-0.23902 c 0.28293,-0.2852 0.496325,-0.34275 0.543472,-0.14655 0.04267,0.1777 -0.108859,0.41456 -0.336799,0.52643 -0.311139,0.15271 -0.255801,0.18261 0.221991,0.11994 0.443225,-0.0581 0.64778,-0.21122 0.673834,-0.50432 0.05143,-0.57865 -0.750169,-0.99187 -1.297195,-0.66869 -0.297837,0.17599 -0.332569,0.29436 -0.10299,0.35086 0.228085,0.0562 0.169159,0.10469 -0.172545,0.14212 -0.285449,0.0313 -0.518578,0.16306 -0.518057,0.29287 0.0017,0.42484 0.512876,0.36656 0.988268,-0.11267 z m 0.151572,-3.34614 c 0.055,-0.23721 -0.04224,-0.3553 -0.291691,-0.3543 -0.205798,0.001 -0.411295,0.16161 -0.456684,0.35729 -0.05499,0.2372 0.04224,0.35529 0.291692,0.35429 0.205797,-10e-4 0.411293,-0.16161 0.456683,-0.35728 z m 0.730441,0.75037 c 0.154827,-0.0372 0.243225,-0.22701 0.196439,-0.42174 -0.05072,-0.21105 -0.115414,-0.22323 -0.160176,-0.0302 -0.04134,0.17814 -0.223791,0.26139 -0.405445,0.18499 -0.236432,-0.0994 -0.270934,-0.0717 -0.121364,0.0977 0.114941,0.13021 0.335723,0.20626 0.490523,0.16908 z m -2.982828,-1.24552 c 0.03033,-0.34125 0.10314,-0.39461 0.288064,-0.21116 0.136109,0.13502 0.135669,0.3582 -9.5e-4,0.49594 -0.136648,0.13774 -0.266269,0.23278 -0.288065,0.21115 -0.0218,-0.0215 -0.02135,-0.24478 9.51e-4,-0.49593 z m -2.812953,-3.62918 c 0.06062,-0.68195 0.903496,-0.93592 1.416626,-0.42689 0.421172,0.4178 0.01314,1.13489 -0.684268,1.20253 -0.635934,0.0616 -0.792092,-0.1037 -0.732351,-0.77565 z m 1.935591,-0.28751 c 0.105046,-0.23852 0.44606,-0.42836 0.771673,-0.42966 0.794796,-0.003 1.097099,0.75049 0.486554,1.21304 -0.591602,0.44821 -1.540521,-0.14261 -1.258227,-0.78338 z m 0.962083,0.39811 c 0.102485,-0.10331 0.149062,-0.22481 0.103506,-0.27001 -0.04558,-0.0453 -0.218923,-0.0495 -0.38526,-0.009 -0.166308,0.0401 -0.212885,0.16149 -0.103504,0.27 0.109408,0.10854 0.282774,0.11282 0.385258,0.009 z M 69.915966,137.0919 c -0.0026,-0.63558 0.92144,-1.08153 2.093043,-1.01015 1.342095,0.0819 1.61015,0.29872 1.412819,1.14347 -0.101352,0.4339 -0.391593,0.51899 -1.650126,0.48382 -1.528921,-0.0427 -1.85387,-0.1508 -1.855736,-0.61714 z m 1.960071,-0.1364 1.15729,-0.0633 -1.15776,-0.0538 c -1.079198,-0.0502 -1.360707,-0.022 -1.215595,0.12196 0.03231,0.032 0.579557,0.0299 1.216067,-0.004 z m 2.468407,0.30572 c -0.0034,-0.85416 0.283384,-1.23593 0.930474,-1.23853 0.573359,-0.002 0.88229,0.29175 0.422545,0.40227 -0.222985,0.0536 -0.215625,0.11483 0.02039,0.16957 0.277609,0.0644 0.377313,-0.0834 0.400732,-0.59406 0.03947,-0.86096 0.197474,-0.85291 1.306941,0.0664 0.496248,0.4113 0.979035,0.8072 1.072807,0.87982 0.0938,0.0727 0.207483,-0.0275 0.252656,-0.22246 0.05736,-0.2474 0.149769,-0.20536 0.305839,0.13914 0.184666,0.40758 0.22305,0.40796 0.220177,0.001 -0.0029,-0.40526 -0.113261,-0.47439 -0.629726,-0.39446 -0.344433,0.0533 -0.626701,-0.016 -0.627247,-0.15409 -5.16e-4,-0.13802 0.321633,-0.26842 0.716012,-0.28967 0.394363,-0.0212 0.717357,0.0456 0.717785,0.14852 4.13e-4,0.10296 0.282364,0.0917 0.626571,-0.0251 0.344199,-0.11672 0.821995,-0.0761 1.061752,0.0903 0.43077,0.29887 0.427762,0.3018 -0.248349,0.24042 -0.668103,-0.0604 -0.671139,-0.0576 -0.130589,0.12169 0.31044,0.10306 0.746874,-0.006 0.993382,-0.25 0.272353,-0.26888 0.670385,-0.34488 1.046231,-0.19999 0.333616,0.12861 0.711756,0.12781 0.840312,-0.002 0.128557,-0.1296 0.489103,-0.17769 0.801225,-0.10685 0.341316,0.0775 0.668295,-0.045 0.82043,-0.30735 0.402328,-0.69363 0.78815,-0.0402 0.77249,1.30825 -0.01519,1.30972 -0.14042,1.61321 -0.513075,1.24352 -0.130473,-0.12942 -0.510223,-0.1288 -0.843902,10e-4 -0.33368,0.13021 -0.736477,0.0869 -0.895109,-0.0963 -0.178027,-0.20549 -0.34861,-0.19639 -0.445612,0.0238 -0.180871,0.41053 -0.776816,-0.0558 -0.668475,-0.52312 0.03867,-0.16662 -0.02239,-0.3949 -0.135617,-0.5072 -0.113229,-0.11233 -0.219292,0.0891 -0.235757,0.44766 -0.03735,0.81462 -0.197414,0.98603 -0.572886,0.61356 -0.161065,-0.15977 -0.324455,-0.15413 -0.363089,0.0125 -0.116494,0.50249 -0.529148,-0.10609 -0.578931,-0.85381 -0.04603,-0.69144 -0.04827,-0.68999 -0.226599,0.14848 l -0.18009,0.84684 -1.496098,0.006 c -1.704764,0.007 -1.769096,-0.0279 -1.856856,-1.00406 -0.06342,-0.70537 -0.06524,-0.70538 -0.123035,5e-4 -0.07314,0.89382 -0.471792,1.33715 -0.715544,0.79571 -0.107699,-0.23925 -0.209779,-0.27487 -0.253063,-0.0883 -0.09104,0.3927 -0.982735,0.49528 -1.327972,0.15281 -0.142322,-0.14119 -0.260111,-0.59346 -0.261763,-1.00505 z m 1.216441,0.0887 c 0.166308,-0.0401 0.212886,-0.1615 0.103504,-0.27 -0.109408,-0.10853 -0.282773,-0.11281 -0.385258,-0.009 -0.102485,0.10331 -0.149069,0.22482 -0.103513,0.27001 0.04558,0.0453 0.21893,0.0495 0.385267,0.009 z m 2.570314,0.37577 c 0.138581,-0.0333 0.132635,-0.179 -0.0132,-0.32368 -0.14587,-0.1447 -0.291556,-0.14949 -0.323767,-0.0101 -0.03223,0.13884 -0.02625,0.28453 0.0132,0.32368 0.03948,0.0391 0.18515,0.0439 0.323775,0.0101 z m 4.879147,-1.11296 c -4.62e-4,-0.11525 -0.209277,-0.20784 -0.464041,-0.20586 -0.36816,0.003 -0.367988,0.0458 8.65e-4,0.20946 0.255185,0.11327 0.463664,0.11161 0.4632,-0.003 z m 2.472753,0.94477 c 0.08886,0.91616 0.204469,0.25369 0.150172,-0.86069 -0.03081,-0.63258 -0.08981,-0.89218 -0.131116,-0.57687 -0.06387,0.48745 -0.140961,0.54425 -0.515043,0.37947 -0.346879,-0.15283 -0.419585,-0.10902 -0.343667,0.207 0.05299,0.22047 0.253699,0.40023 0.446009,0.39947 0.216798,-0.001 0.366383,0.17077 0.393638,0.45162 z m -12.737336,-8.06026 c -1.021498,-2.55666 -0.520112,-5.11733 1.37792,-7.03732 2.603934,-2.63344 6.088904,-2.63674 8.761899,-0.008 1.114602,1.09583 1.378964,1.52071 1.695669,2.72085 1.656249,6.2763 -5.948216,10.8046 -10.480814,6.24111 -0.541476,-0.54559 -1.151295,-1.40807 -1.354673,-1.91711 z m 3.976065,2.76187 c 2.200471,0.70993 3.849925,0.3528 5.564155,-1.20471 1.204374,-1.09425 1.348231,-1.33326 1.707665,-2.83715 0.893985,-3.74029 -1.872762,-7.0921 -5.757565,-6.97504 -2.397173,0.0722 -4.314612,1.55092 -5.102128,3.93468 -1.02386,3.09913 0.487199,6.08187 3.587873,7.08222 z m -3.002051,-2.77018 c -0.29192,-0.50798 -0.544841,-1.62329 -0.565317,-2.49283 -0.11463,-4.86872 5.580132,-7.34258 9.041939,-3.92792 2.909608,2.87001 1.985622,7.43684 -1.795346,8.87352 -2.546063,0.96744 -5.295947,-0.0421 -6.681276,-2.45277 z m 3.292512,1.97043 c 0.53444,0.18803 1.532933,0.24986 2.218876,0.13741 3.041473,-0.49864 4.853107,-3.48144 3.799221,-6.2553 -0.813838,-2.14204 -2.582148,-3.29007 -4.828983,-3.13506 -2.362954,0.16301 -4.09151,1.7574 -4.481328,4.13348 -0.312712,1.90614 1.303804,4.41985 3.292214,5.11947 z m 35.828991,34.85333 c -0.003,-0.75573 0.52437,-1.31345 1.21112,-1.28079 1.0636,0.0506 1.46555,0.0507 2.00718,0.002 0.3053,-0.0282 0.63262,0.1208 0.72737,0.33129 0.10639,0.23638 0.22922,0.26091 0.32111,0.0642 0.23976,-0.51313 1.10824,-0.67113 1.50819,-0.27437 0.24385,0.24189 0.49552,0.23863 0.74174,-0.01 0.20704,-0.2087 0.49789,-0.25145 0.65442,-0.0962 0.15497,0.15373 0.39177,0.1686 0.52622,0.0331 0.13447,-0.13553 0.69517,-0.18072 1.24604,-0.10039 0.95695,0.13949 1.00322,0.17664 1.03864,0.83374 0.0203,0.37826 0.12429,0.6874 0.2309,0.68696 0.10663,-4.3e-4 0.17108,-0.2355 0.14325,-0.52239 -0.0626,-0.64498 0.37451,-1.12669 0.71543,-0.7885 0.33566,0.33296 0.26939,1.47728 -0.10755,1.85725 -0.16523,0.16657 -0.26771,0.43894 -0.22775,0.60527 0.04,0.16631 -0.093,0.46946 -0.29555,0.67363 -0.30632,0.30878 -0.39686,0.27793 -0.53867,-0.18368 -0.2395,-0.77974 -0.28192,-0.78673 -0.73045,-0.12045 -0.27762,0.41233 -0.58143,0.5661 -0.99513,0.50357 -1.22744,-0.18553 -1.29296,-1.07006 -0.0701,-0.94575 0.52994,0.0539 0.52331,0.0367 -0.0627,-0.16298 -0.36037,-0.12278 -0.77026,-0.41796 -0.91089,-0.656 -0.21209,-0.35898 -0.27603,-0.34325 -0.37479,0.0921 -0.0938,0.41303 -0.31766,0.53952 -1.05108,0.59367 -0.51261,0.0378 -1.04356,-0.0418 -1.17989,-0.17706 -0.13634,-0.13525 -0.37365,-0.11912 -0.52739,0.0358 -0.36194,0.36486 -0.52325,0.1878 -0.5669,-0.62224 -0.0459,-0.85109 -0.51592,-0.84921 -0.55496,0.002 -0.0359,0.78194 -0.19604,0.98967 -0.51737,0.67093 -0.13046,-0.12943 -0.50931,-0.12791 -0.84188,0.003 -0.74712,0.29493 -1.51531,-0.23488 -1.51857,-1.04735 z m 1.58151,0.61304 c 0.30012,-0.30255 -0.31202,-1.05461 -0.78678,-0.9666 -0.47447,0.0879 -0.45198,0.39867 0.0607,0.83737 0.25414,0.21746 0.58088,0.27564 0.72612,0.12923 z m -0.3911,-0.35713 c 0.0387,-0.16663 0.15978,-0.21417 0.26916,-0.10566 0.10941,0.10853 0.11508,0.28186 0.0126,0.38517 -0.1025,0.10331 -0.22361,0.15086 -0.26917,0.10566 -0.0455,-0.0453 -0.0512,-0.21851 -0.0126,-0.38517 z m 3.6014,0.46201 c 0.26737,0.12163 0.48571,0.11431 0.48519,-0.0162 -5.2e-4,-0.13054 0.23258,-0.263 0.51806,-0.29423 0.41398,-0.0453 0.44317,-0.0754 0.14448,-0.14848 -0.20611,-0.0505 -0.28594,-0.18139 -0.17741,-0.29079 0.10855,-0.10941 0.28685,-0.11012 0.39626,-0.002 0.10942,0.10853 0.23688,0.0337 0.28331,-0.16646 0.0618,-0.26624 0.008,-0.32524 -0.20057,-0.21996 -0.1567,0.0791 -0.36167,0.0208 -0.45544,-0.12957 -0.0938,-0.15036 -0.14229,-0.17508 -0.10777,-0.0549 0.0344,0.12016 -0.0191,0.301 -0.11908,0.40179 -0.1,0.1008 -0.20905,0.0699 -0.24237,-0.0687 -0.0333,-0.13858 -0.17892,-0.1327 -0.32368,0.0133 -0.14471,0.14587 -0.15889,0.2894 -0.0315,0.31892 0.12734,0.0296 0.19947,0.19223 0.16018,0.36163 -0.0392,0.16935 -0.2111,0.16934 -0.38182,4e-5 -0.17073,-0.16937 -0.17248,-0.54845 -0.004,-0.84238 0.30527,-0.53212 0.30405,-0.53291 -0.28088,-0.18553 -0.59474,0.35321 -0.92366,1.25538 -0.42156,1.1562 0.14997,-0.0297 0.49144,0.0457 0.75882,0.1673 z m 3.95488,0.046 c 0.52919,-0.0661 0.52915,-0.0793 -5e-4,-0.14127 -0.32145,-0.0375 -0.6161,-0.0363 -0.65481,0.003 -0.15336,0.15461 0.0996,0.20812 0.65537,0.13865 z m -0.16671,-0.63123 c 0.10248,-0.10331 0.1068,-0.26676 0.009,-0.36319 -0.0972,-0.0964 -0.31284,-0.14262 -0.47918,-0.10266 -0.1663,0.0401 -0.17065,0.20341 -0.009,0.36318 0.16107,0.15978 0.37669,0.20598 0.47918,0.10267 z m 1.42115,0.6644 c 0.14651,0.14535 0.40646,0.10972 0.57764,-0.0792 0.18593,-0.20518 0.17936,-0.28673 -0.0164,-0.20262 -0.4163,0.17891 -0.97202,-0.36175 -0.97435,-0.94796 -0.002,-0.34923 -0.0515,-0.39892 -0.22541,-0.22361 -0.12298,0.12398 -0.37989,0.087 -0.57089,-0.082 -0.23137,-0.20473 -0.24018,-0.10178 -0.0266,0.30853 0.1764,0.33875 0.46672,0.69388 0.64515,0.7892 0.17845,0.0953 0.44432,0.29221 0.59084,0.43755 z m -9.97048,-9.80159 c -0.0114,-3.44706 0.0698,-6.35903 0.18095,-6.47103 0.11112,-0.11203 0.51875,-0.18916 0.90584,-0.17141 0.64133,0.0294 0.71749,0.0966 0.85784,0.75702 0.0847,0.39862 0.11984,1.25219 0.0781,1.89684 l -0.0759,1.17207 1.12273,-0.37398 c 2.07053,-0.68969 4.23084,0.29535 5.18408,2.36379 0.36343,0.78863 0.51469,7.11332 0.17822,7.45249 -0.11434,0.11528 -0.53095,0.19478 -0.92578,0.17668 -0.70472,-0.0323 -0.71879,-0.092 -0.76924,-3.26321 -0.0282,-1.77666 -0.18672,-3.48644 -0.35213,-3.79952 -0.71124,-1.34623 -2.56329,-1.61544 -3.64081,-0.52923 -0.55326,0.55772 -0.64406,1.08646 -0.66298,3.86168 -0.0122,1.76851 -0.14646,3.34098 -0.29864,3.4944 -0.36064,0.36355 -1.09728,0.35936 -1.46795,-0.008 -0.16127,-0.15998 -0.30269,-3.11121 -0.3143,-6.55826 z m 1.20059,6.02589 c 0.0807,-0.0813 0.1304,-0.9964 0.11041,-2.03341 -0.0592,-3.06759 0.21337,-4.30401 1.1586,-5.25687 1.09605,-1.10488 2.67608,-1.17394 3.69662,-0.16155 0.95097,0.94337 1.08551,1.50899 1.12709,4.7388 0.0245,1.9045 0.15576,2.79986 0.40172,2.74076 0.56682,-0.1362 0.46812,-5.80375 -0.11991,-6.88702 -0.97952,-1.80439 -3.45127,-2.57662 -4.97261,-1.55355 -0.96706,0.65033 -1.2864,0.18852 -1.31057,-1.89522 -0.0117,-0.97245 -0.14264,-1.76762 -0.29196,-1.76702 -0.27174,0.001 -0.35899,11.81347 -0.0893,12.08108 0.0787,0.0781 0.20913,0.0753 0.28983,-0.006 z M 70.214183,116.62936 c 0.507393,-0.51149 1.502146,-0.22421 1.50479,0.43457 0.0027,0.68316 -0.793631,0.96044 -1.396539,0.48623 -0.490213,-0.38557 -0.506003,-0.51983 -0.108251,-0.9208 z m 4.144493,1.15543 c 0.01632,-1.40658 0.391162,-1.9142 1.228927,-1.66421 0.666177,0.1988 0.937767,1.09251 0.373224,1.22817 -0.182344,0.0438 -0.168341,0.10964 0.03328,0.15641 0.612242,0.14193 1.400366,-0.20053 1.114374,-0.48423 -0.153034,-0.1518 -0.326657,-0.0899 -0.437564,0.15603 -0.159014,0.35264 -0.192118,0.33041 -0.245038,-0.16448 -0.08298,-0.77585 0.38315,-1.18516 0.965172,-0.84757 0.367783,0.21332 0.48748,0.17189 0.51873,-0.17957 0.0521,-0.58613 0.659019,-0.73888 0.890713,-0.2242 0.09774,0.21711 0.420484,0.35557 0.718115,0.30816 0.642205,-0.10234 0.852458,0.46485 0.357333,0.96397 -0.192876,0.19442 -0.317974,0.48959 -0.278005,0.65593 0.105337,0.43831 -0.466438,0.9324 -0.652523,0.56392 -0.08647,-0.17114 -0.04635,-0.42288 0.08906,-0.55939 0.326729,-0.32936 -0.187855,-0.98919 -0.730395,-0.93657 -0.311064,0.0302 -0.414379,0.25078 -0.375995,0.80287 0.02911,0.4187 0.09377,0.60375 0.143696,0.41122 0.110857,-0.42745 0.693518,-0.34091 0.594031,0.0883 -0.09002,0.38827 -1.537302,0.633 -2.104486,0.35586 -0.242641,-0.11858 -0.763555,0.0194 -1.193568,0.31607 -0.419654,0.28957 -0.821566,0.4684 -0.893106,0.39743 -0.07155,-0.071 -0.123743,-0.67579 -0.115989,-1.34403 z m 50.333134,48.06717 c 0.0144,-1.24234 0.32854,-1.90249 0.66862,-1.40519 0.37014,0.54124 1.25371,0.7879 1.9195,0.53586 0.37102,-0.14045 0.82542,-0.10575 1.00975,0.0771 0.18433,0.18286 0.60727,0.22506 0.93982,0.0938 0.40477,-0.15978 0.76263,-0.0789 1.0824,0.24464 0.39733,0.4026 0.53509,0.39813 0.82,-0.0251 0.18825,-0.27964 0.43108,-0.42035 0.53936,-0.31294 0.10838,0.10752 0.41277,0.0827 0.6764,-0.0553 0.26362,-0.13796 0.66913,-0.15344 0.90112,-0.0345 0.40073,0.2056 1.16302,0.0667 2.17027,-0.39563 0.30436,-0.13968 0.53697,-0.0562 0.69733,0.25027 0.18098,0.34588 0.28499,0.35921 0.41948,0.0539 0.11746,-0.26659 0.28452,-0.30114 0.48661,-0.10072 0.16927,0.16791 0.48218,0.22675 0.69537,0.13078 0.21322,-0.096 0.54764,-0.0158 0.74321,0.17824 0.19557,0.194 0.47537,0.23198 0.62178,0.0844 0.33689,-0.33962 1.36216,-0.35242 1.69609,-0.0211 0.13967,0.13854 0.29691,0.72872 0.34945,1.31149 0.11088,1.22984 -0.64826,2.2379 -1.49498,1.98523 -0.63635,-0.18988 -0.8532,-0.90976 -0.32554,-1.0807 0.21212,-0.0688 0.11766,-0.0973 -0.20986,-0.0635 -0.73215,0.0755 -0.99184,-0.15861 -0.93126,-0.83971 0.0655,-0.7367 -0.24386,-0.64911 -0.41801,0.11838 -0.17323,0.7634 -0.84461,1.00291 -1.88705,0.67316 -0.37473,-0.11853 -0.60606,-0.13839 -0.51409,-0.0441 0.0921,0.0942 -0.15342,0.18872 -0.54541,0.20982 -0.93258,0.0502 -1.20312,-0.24364 -0.5691,-0.61822 0.28731,-0.16977 0.36289,-0.29552 0.17535,-0.29192 -0.18121,0.003 -0.6002,0.22401 -0.93109,0.49003 -0.77842,0.62576 -1.61355,0.46353 -1.80518,-0.35069 -0.0908,-0.38575 -0.24644,-0.56864 -0.44359,-0.52129 -0.16703,0.0402 -0.17047,0.15908 -0.008,0.26372 0.16255,0.1049 0.13586,0.40971 -0.0592,0.67735 -0.27402,0.37589 -0.44603,0.39607 -0.75586,0.0888 -0.53648,-0.53218 -0.81771,-1.50666 -0.45965,-1.59271 0.15797,-0.0379 0.2068,-0.14883 0.1084,-0.24645 -0.0984,-0.0975 -0.35187,-0.0995 -0.56335,-0.004 -0.2115,0.0952 -0.28096,0.23593 -0.15434,0.31275 0.12658,0.0769 0.14255,0.51956 0.0355,0.98392 l -0.19476,0.84427 -1.56829,-0.0558 c -1.49954,-0.0533 -1.56989,-0.0855 -1.60478,-0.73266 -0.0468,-0.86777 -0.51654,-0.88531 -0.55619,-0.0208 -0.0725,1.58039 -0.77483,0.842 -0.75586,-0.79461 z m 0.69805,-0.25256 c 0.13865,-0.0333 0.13264,-0.17901 -0.0132,-0.32368 -0.14587,-0.1447 -0.29156,-0.1495 -0.32376,-0.0101 -0.0322,0.13885 -0.0263,0.28454 0.0132,0.32368 0.0395,0.0391 0.18515,0.044 0.32377,0.0101 z m 2.54492,1.418 c 0.51896,-0.0169 0.52138,-0.0266 0.0238,-0.0956 -0.3046,-0.0422 -0.69101,-0.2444 -0.85869,-0.4493 -0.47649,-0.58227 -0.64589,-0.65594 -0.72481,-0.31545 -0.0917,0.39565 0.79566,0.88508 1.55968,0.86028 z m -0.0483,-0.70262 c 0.15978,-0.16106 0.15416,-0.32445 -0.0125,-0.36309 -0.16662,-0.0386 -0.3819,0.009 -0.47834,0.10652 -0.0964,0.0973 -0.0908,0.26059 0.0125,0.36307 0.10331,0.1025 0.31856,0.0545 0.47833,-0.1065 z m 0.9826,0.51225 c 0.3039,-0.30635 0.1314,-0.97008 -0.32018,-1.23202 -0.44284,-0.25685 -0.45625,-0.23708 -0.2701,0.39779 0.23827,0.81239 0.3938,1.03221 0.59025,0.8342 z m 4.3871,0.0254 c 0.29528,-0.20109 0.26843,-0.35479 -0.11155,-0.63893 -0.90561,-0.67724 -1.5813,-0.21267 -0.73921,0.50824 0.2611,0.22352 0.63105,0.28034 0.85076,0.13069 z m -0.51568,-0.35864 c 0.0386,-0.16662 0.15979,-0.21418 0.26918,-0.10566 0.1094,0.10853 0.11506,0.28186 0.0126,0.38517 -0.10248,0.10332 -0.2236,0.15087 -0.26918,0.10567 -0.0455,-0.0453 -0.0512,-0.21852 -0.0125,-0.38518 z m 1.65037,-0.56264 c -4e-4,-0.0984 -0.29773,-0.17139 -0.66077,-0.1621 -0.63067,0.0161 -0.63064,0.0241 3.6e-4,0.17899 0.36344,0.0892 0.66047,0.0815 0.66007,-0.0169 z m 1.34723,0.92747 c 0.14128,0.14016 0.39257,0.22223 0.5584,0.18238 0.2004,-0.0481 0.074,-0.17348 -0.37682,-0.3738 -0.84936,-0.37733 -1.13516,-0.65172 -0.77021,-0.7394 0.15483,-0.0372 0.25119,-0.194 0.2141,-0.34843 -0.10351,-0.43068 -0.48134,0.2105 -0.5051,0.85714 -0.0172,0.46973 0.0372,0.53668 0.30081,0.37037 0.177,-0.11171 0.43751,-0.0884 0.57881,0.0518 z m 1.54331,-0.46543 c 0.1033,-0.23434 0.0569,-0.55593 -0.10303,-0.71459 -0.24577,-0.24381 -0.29581,-0.1778 -0.32356,0.42669 -0.0368,0.80362 0.14527,0.92652 0.42658,0.28794 z m 1.59233,0.11679 c 0.13137,-0.13244 0.0239,-0.48902 -0.23884,-0.7924 l -0.47767,-0.5516 0.21014,0.72739 c 0.11557,0.40005 0.22304,0.75663 0.23883,0.79238 0.0158,0.0358 0.13614,-0.0434 0.26752,-0.17583 z m 1.87924,0.64382 c 0.039,0.0136 0.0418,-0.3245 0.007,-0.75133 -0.0523,-0.62821 -0.0781,-0.66532 -0.13606,-0.19484 -0.0603,0.48946 -0.16372,0.59276 -0.65573,0.65391 -0.54009,0.0675 -0.5352,0.0803 0.0651,0.17012 0.35696,0.0534 0.68094,0.10822 0.71996,0.12184 z m -0.6229,-0.78322 c 0.10248,-0.10331 0.1018,-0.27169 -0.002,-0.37418 -0.10331,-0.10248 -0.27169,-0.1018 -0.37418,0.002 -0.10249,0.10331 -0.10181,0.27169 0.002,0.37417 0.10331,0.10249 0.27169,0.10181 0.37418,-0.002 z M 78.099066,117.13387 c 0.03867,-0.16662 0.102779,-0.28357 0.142521,-0.25982 0.77036,0.46038 0.850586,0.58996 0.392732,0.63437 -0.577719,0.0561 -0.6271,0.0215 -0.535282,-0.37458 z m 44.760574,43.07665 c -0.78888,-3.09639 1.58142,-6.32679 4.71207,-6.42192 1.39298,-0.0423 2.63134,0.49791 3.80098,1.65819 1.18902,1.1795 1.57904,2.66829 1.55104,5.92044 -0.0195,2.25953 -0.31958,2.85876 -1.32,2.63567 -0.42227,-0.0942 -0.52623,-0.62597 -0.59047,-3.02181 -0.10374,-3.86841 -0.98323,-5.19202 -3.40882,-5.13031 -0.91228,0.0232 -1.26498,0.18922 -2.02101,0.95136 -0.77532,0.78156 -0.91514,1.10085 -0.9112,2.08071 0.009,2.33947 2.16999,3.73113 4.37693,2.81919 1.16269,-0.48044 1.47687,-0.34372 1.43253,0.62341 -0.0409,0.89105 -0.58815,1.37307 -1.84246,1.62265 -2.47325,0.49215 -5.1416,-1.23346 -5.77959,-3.73758 z m 3.15958,2.83873 c 0.94422,0.38327 3.2947,0.32375 3.70905,-0.0939 0.54993,-0.55435 0.089,-0.79662 -0.90712,-0.47675 -3.62784,1.16496 -6.37813,-3.45315 -3.67596,-6.17246 1.55016,-1.55983 3.66016,-1.54269 5.25854,0.043 0.95798,0.95032 1.11517,1.57443 1.17061,4.64747 0.0285,1.5779 0.16265,2.30172 0.42651,2.30067 0.50885,-0.002 0.41809,-4.75968 -0.11536,-6.04404 -0.87771,-2.11341 -3.092,-3.20645 -5.30589,-2.61909 -4.0393,1.07159 -4.42391,6.84695 -0.56042,8.41525 z m 8.01225,-2.63567 c 1.2e-4,-1.79325 0.14766,-3.58663 0.32749,-3.98525 0.45185,-1.00156 1.45208,-1.95791 2.50509,-2.39522 1.20163,-0.49905 1.61439,-0.3518 1.61811,0.57729 0.003,0.71001 -0.0796,0.81835 -0.96625,1.26945 -0.55731,0.28354 -1.0991,0.74364 -1.27453,1.08236 -0.16785,0.32404 -0.31661,2.04293 -0.3306,3.81977 -0.0251,3.17152 -0.0386,3.23131 -0.74303,3.26928 -0.39466,0.0212 -0.81188,-0.0549 -0.92717,-0.16925 -0.11528,-0.11437 -0.20936,-1.67515 -0.2091,-3.46841 z m 1.07554,2.90228 c 0.13726,-0.033 0.23643,-1.23438 0.22032,-2.66974 -0.0403,-3.58473 0.43058,-4.83545 2.00173,-5.31806 0.39337,-0.12083 0.58517,-0.30368 0.58414,-0.55691 -0.002,-0.47255 -1.53843,-0.0187 -2.20229,0.65052 -0.85441,0.86129 -1.08609,1.85307 -1.11407,4.7689 -0.0276,2.87985 0.0312,3.24036 0.51015,3.12527 z M 99.93412,126.86848 c -0.0034,-0.84881 0.16077,-1.07703 0.94903,-1.31916 0.68105,-0.20917 1.45339,0.50066 1.38266,1.27074 -0.0475,0.51673 -0.0708,0.50816 -0.2571,-0.0945 -0.35471,-1.14755 -1.7189,-0.92434 -1.60378,0.26241 0.0413,0.42606 0.17661,0.5693 0.63615,0.67361 0.70731,0.16049 0.63167,0.2958 -0.16714,0.299 -0.77024,0.003 -0.936219,-0.18978 -0.939841,-1.09205 z m 0.65442,-0.0962 c 0.0387,-0.16663 0.20203,-0.17228 0.3631,-0.0125 0.16105,0.15978 0.20898,0.37504 0.1065,0.47835 -0.10249,0.10331 -0.26587,0.10893 -0.36309,0.0125 -0.0972,-0.0964 -0.14514,-0.31169 -0.10651,-0.47834 z m 41.33166,40.04742 c 0.17213,-0.17352 0.32469,-0.15059 0.3744,0.0563 0.0493,0.20529 0.11458,0.21678 0.15839,0.0279 0.0409,-0.17677 -0.11913,-0.43368 -0.35578,-0.57096 -0.63779,-0.36993 -0.48789,-1.235 0.25345,-1.46271 0.72337,-0.2222 1.19985,0.18698 0.87794,0.75385 -0.1303,0.22945 0.008,0.15302 0.30917,-0.16982 0.69001,-0.74172 1.18577,-0.86281 1.64943,-0.40286 0.2448,0.24284 0.49276,0.23246 0.7547,-0.0315 0.22497,-0.22679 0.57821,-0.28417 0.8344,-0.13556 0.24439,0.14172 0.73985,0.14582 1.10106,0.009 0.81639,-0.30907 1.49313,0.23128 0.80147,0.63992 -0.25891,0.15292 -0.44431,0.38782 -0.41211,0.52191 0.0323,0.1341 0.30905,-0.0523 0.61515,-0.41429 0.71405,-0.84432 1.446,-1.0802 1.91344,-0.61648 0.24385,0.2419 0.49552,0.23864 0.74174,-0.01 0.20705,-0.2087 0.4979,-0.25145 0.65444,-0.0962 0.15496,0.15373 0.12432,0.43822 -0.0681,0.63219 -0.19242,0.19396 -0.32745,0.58367 -0.30007,0.86601 0.0274,0.28234 -0.0232,0.58688 -0.11232,0.67677 -0.27151,0.2737 -1.89942,0.30906 -2.1636,0.047 -0.13633,-0.13524 -0.35904,-0.13384 -0.49492,0.003 -0.13585,0.13695 -0.66218,0.23772 -1.16962,0.22391 -0.80088,-0.0218 -0.94197,-0.1074 -1.06946,-0.64908 -0.18464,-0.78445 -0.45985,-0.79959 -0.63339,-0.035 -0.11185,0.49289 -0.28371,0.59881 -1.06535,0.65653 -0.51259,0.0379 -1.04353,-0.0419 -1.17987,-0.17708 -0.13634,-0.13525 -0.36068,-0.13221 -0.49852,0.006 -0.25163,0.25366 -1.4446,0.30178 -1.68049,0.0678 -0.0694,-0.0688 0.005,-0.25686 0.16442,-0.41793 z m 3.00085,-0.21051 c 0.24552,-0.24605 0.57145,-0.42808 0.72403,-0.40485 0.15252,0.0232 0.24118,-0.10839 0.19699,-0.29245 -0.0443,-0.18406 -0.16663,-0.24783 -0.27191,-0.14169 -0.10532,0.10616 -0.2716,0.0624 -0.3695,-0.0971 -0.0978,-0.15964 -0.14979,-0.19183 -0.11526,-0.0717 0.0344,0.12017 -0.0191,0.30102 -0.11908,0.40182 -0.1,0.10079 -0.21956,0.0261 -0.26575,-0.16586 -0.0501,-0.20839 -0.11465,-0.21656 -0.16014,-0.0203 -0.0419,0.18087 -0.20451,0.29916 -0.36127,0.2628 -0.15677,-0.0364 -0.17891,-0.25635 -0.0492,-0.48893 0.1297,-0.23254 0.0126,-0.14116 -0.26031,0.20306 -0.27288,0.34424 -0.50742,0.65123 -0.52124,0.68216 -0.0138,0.0309 0.23387,0.1741 0.55048,0.31818 0.37508,0.1707 0.73116,0.10619 1.02221,-0.18518 z m -0.74428,-0.35002 c 0.82279,-0.0443 0.82606,-0.0423 0.48899,0.29743 -0.14625,0.14742 -0.47086,0.14915 -0.72137,0.004 -0.4355,-0.25259 -0.42532,-0.26582 0.23237,-0.30127 z m 3.85002,0.73945 c 0.34098,-0.0331 0.39377,-0.1063 0.20884,-0.28975 -0.13611,-0.13502 -0.35927,-0.13279 -0.49592,0.005 -0.13665,0.13775 -0.23064,0.26813 -0.20884,0.28975 0.0219,0.0215 0.24495,0.0193 0.49592,-0.005 z m -0.43226,-1.01505 c 0.093,-0.0936 -0.0441,-0.29375 -0.30424,-0.44468 -0.26021,-0.15094 -0.50528,-0.24203 -0.54456,-0.20242 -0.0393,0.0396 0.0976,0.23971 0.30424,0.44467 0.20662,0.20498 0.45167,0.29607 0.54456,0.20243 z m 2.50357,1.01176 c 0.14234,-0.0342 0.0108,-0.22936 -0.29315,-0.4337 -0.30353,-0.20434 -0.58403,-0.33911 -0.62332,-0.2995 -0.14419,0.14535 0.66589,0.7934 0.91647,0.7332 z m 0.1346,-0.66568 c 0.10248,-0.10331 0.1018,-0.27169 -0.002,-0.37418 -0.1033,-0.10248 -0.27168,-0.10181 -0.37416,0.002 -0.10249,0.10331 -0.10182,0.27169 0.002,0.37417 0.10331,0.10249 0.27168,0.10182 0.37417,-0.002 z m 1.2224,-0.0607 c 0.0232,-0.19902 0.12107,-0.53521 0.21742,-0.74709 0.1044,-0.22962 -0.0252,-0.19513 -0.321,0.0853 -0.31749,0.30103 -0.39579,0.57016 -0.21743,0.74708 0.17317,0.17178 0.29478,0.13946 0.32101,-0.0853 z M 71.711647,92.902185 c -0.07121,-0.266756 0.03024,-0.754186 0.225428,-1.083176 0.334821,-0.56434 0.31539,-0.604956 -0.343642,-0.718334 -1.724092,-0.29662 -1.657054,-1.433686 0.218153,-3.700149 1.044654,-1.262612 1.374394,-1.535969 1.806474,-1.497562 0.918747,0.08166 1.3166,0.942153 0.856066,1.85156 -0.364468,0.719734 -0.349493,0.816287 0.11955,0.770789 0.641623,-0.06223 1.588098,0.803601 1.529458,1.399189 -0.02298,0.233426 -0.586342,1.142014 -1.251919,2.019073 -0.975759,1.285785 -1.342872,1.625429 -1.895341,1.753492 -0.738401,0.171171 -1.060448,-0.0313 -1.264248,-0.79486 z m 1.46875,-0.306667 c 0.520739,-0.533456 0.950266,-1.391784 0.722568,-1.444575 -0.299295,-0.0694 -1.414545,1.410328 -1.213377,1.609888 0.09201,0.09127 0.312873,0.01688 0.490809,-0.165313 z m 0.689697,-0.05409 c 0.133662,-0.230015 -0.01164,-0.167715 -0.322919,0.13842 -0.311003,0.30641 -0.420649,0.494327 -0.243046,0.418194 0.177624,-0.0761 0.432304,-0.326599 0.566108,-0.556472 z M 72.005609,90.59156 c 0.39196,-0.02113 0.670388,-0.08034 0.618733,-0.131589 -0.05168,-0.05127 -0.414617,-0.07587 -0.806577,-0.05475 -0.391959,0.02113 -0.670387,0.08033 -0.618732,0.131575 0.05168,0.05127 0.414617,0.07589 0.806576,0.05477 z m -0.685026,-1.4948 c 0.08865,-0.20935 2.2e-5,-0.208966 -0.226061,9.08e-4 -0.204597,0.189917 -0.27021,0.344946 -0.14591,0.344412 0.12431,-4.99e-4 0.291709,-0.155901 0.371985,-0.345306 z m 0.40177,0.841117 c 0.102485,-0.10331 0.149062,-0.224809 0.103499,-0.270009 -0.04558,-0.04521 -0.218924,-0.04946 -0.385261,-0.0095 -0.166307,0.03999 -0.212892,0.161504 -0.103504,0.270016 0.109409,0.108534 0.282782,0.112802 0.385266,0.0095 z m 2.034967,0.714302 c 0.21322,-0.09595 0.305769,-0.255696 0.205681,-0.354984 -0.10007,-0.09927 -0.307717,-0.0537 -0.461444,0.101266 -0.153726,0.154966 -0.246282,0.31472 -0.205688,0.35499 0.04061,0.04028 0.248261,-0.0054 0.461451,-0.101272 z m -1.498821,-2.884405 c 0.076,-0.180831 -0.07143,-0.117483 -0.327662,0.140815 -0.256217,0.258283 -0.318358,0.406263 -0.138179,0.328783 0.180215,-0.07745 0.389838,-0.28876 0.465841,-0.469598 z m 0.953035,0.293218 c 0.295354,-0.297734 0.504309,-0.67743 0.46434,-0.843765 -0.04396,-0.182917 -0.375901,0.0033 -0.84001,0.471098 -0.46411,0.46785 -0.647611,0.801282 -0.464347,0.843772 0.166623,0.03867 0.544657,-0.173362 0.840017,-0.471105 z m 0.723764,-0.09726 c 0.08865,-0.209357 2.4e-5,-0.208981 -0.226068,9.07e-4 -0.204589,0.18991 -0.270209,0.344947 -0.145907,0.344412 0.124307,-4.99e-4 0.291715,-0.155909 0.371982,-0.345305 z m 1.588545,1.309325 c -3.95e-4,-0.09843 -0.297732,-0.171396 -0.660783,-0.162103 -0.630658,0.01613 -0.630626,0.02411 6.73e-4,0.17898 0.363439,0.08916 0.660459,0.08157 0.660064,-0.01688 z m 65.748617,69.277033 c -0.87273,-2.47795 -1.5113,-4.58146 -1.41904,-4.67446 0.2218,-0.2236 1.41834,-0.16208 1.66817,0.0857 0.2378,0.23592 1.05054,2.29767 2.11635,5.36878 l 0.78947,2.27487 0.75649,-2.09595 c 2.18937,-6.0658 2.03759,-5.75554 2.83666,-5.7986 0.39743,-0.0214 0.82166,0.0593 0.9427,0.17937 0.28805,0.28576 -2.87454,9.10346 -3.48623,9.72008 -0.528,0.53226 -1.68218,0.44935 -2.25177,-0.16174 -0.20129,-0.21601 -1.08007,-2.42013 -1.9528,-4.89809 z m 3.11566,4.7191 c 0.35854,0.0164 0.72299,-0.0418 0.80989,-0.12938 0.1595,-0.16079 3.16811,-8.39988 3.17442,-8.69318 0.003,-0.087 -0.15222,-0.15663 -0.34315,-0.15408 -0.2118,0.003 -0.91234,1.58773 -1.80139,4.0763 -0.80015,2.23974 -1.49261,4.11035 -1.53882,4.15693 -0.27334,0.27555 -0.89897,-1.00953 -2.13698,-4.38948 -0.94001,-2.56637 -1.52246,-3.81829 -1.77596,-3.81727 -0.34339,0.002 0.14869,1.56899 2.40477,7.66079 0.49472,1.3358 0.41735,1.25315 1.20721,1.28939 z m 5.90796,-4.42889 c -0.007,-2.52095 0.11583,-4.71335 0.27324,-4.87198 0.34374,-0.34651 1.09541,-0.38008 1.41486,-0.0633 0.30701,0.30455 0.35212,9.55262 0.0481,9.8591 -0.32629,0.32893 -1.07431,0.30341 -1.42932,-0.0488 -0.16168,-0.16038 -0.29978,-2.3542 -0.30687,-4.87516 z m 1.30937,-0.0933 c -0.008,-2.98095 -0.13685,-4.4709 -0.38629,-4.4699 -0.24946,0.001 -0.37014,1.49197 -0.36206,4.47291 0.008,2.98092 0.13684,4.4709 0.38629,4.46989 0.24945,-0.001 0.37013,-1.49196 0.36206,-4.4729 z M 77.644705,89.448652 c 0.09808,-1.19523 0.715942,-1.978476 1.506432,-1.909665 0.51826,0.04512 0.883591,0.04194 2.016259,-0.01756 0.343775,-0.01807 0.730109,0.204423 1.015499,0.584793 0.316422,0.421788 0.460174,0.493118 0.459082,0.228011 -0.0022,-0.548101 0.436653,-0.920207 0.735587,-0.623664 0.138956,0.137847 0.237932,0.571453 0.219954,0.963569 -0.0374,0.815692 0.353011,1.334751 0.723228,0.961549 0.137845,-0.138956 0.233337,-0.573343 0.212211,-0.965303 -0.02113,-0.39196 0.111481,-0.863761 0.29468,-1.048438 0.232794,-0.23467 0.424611,-0.201769 0.637002,0.109244 0.219677,0.321731 0.404202,0.343923 0.665885,0.08013 0.483857,-0.487756 1.759981,-0.468787 2.266508,0.03369 0.224313,0.222519 0.436817,0.726813 0.472227,1.120646 0.06341,0.705386 0.06524,0.705372 0.123035,-4.95e-4 0.11156,-1.363526 1.525061,-1.998291 2.436482,-1.094158 0.589044,0.584333 0.543655,2.995896 -0.05643,2.998298 -0.344981,0.0014 -0.451748,-0.231144 -0.472017,-1.027979 -0.04716,-1.854129 -0.821257,-1.864358 -0.973187,-0.01291 -0.0616,0.750479 -0.200504,1.047459 -0.490514,1.048623 -0.289996,0.0012 -0.441414,-0.154832 -0.534645,-0.550795 -0.114504,-0.486479 -0.173976,-0.487174 -0.498029,-0.0058 -0.470746,0.699287 -1.613259,0.775971 -2.243671,0.150599 -0.261435,-0.259344 -0.503435,-0.87675 -0.537773,-1.372022 l -0.06246,-0.900469 -0.05521,0.900956 c -0.03037,0.495524 -0.267403,1.114853 -0.526747,1.376288 -0.259344,0.261436 -0.454249,0.796039 -0.433124,1.187998 0.02113,0.39196 -0.03244,0.78407 -0.119045,0.871373 -0.264752,0.266887 -0.865673,-0.508737 -0.817137,-1.05471 0.02511,-0.28255 -0.147394,-0.705233 -0.383349,-0.939303 -0.336533,-0.333841 -0.48816,-0.323594 -0.703435,0.04756 -0.181975,0.31379 -0.366995,0.381313 -0.548989,0.200775 -0.151003,-0.149797 -0.259841,-0.593171 -0.241856,-0.985295 0.03328,-0.726085 -0.520182,-1.541913 -0.83248,-1.227098 -0.09463,0.09539 -0.211967,0.65993 -0.260761,1.254553 -0.0661,0.805398 -0.196846,1.081555 -0.512679,1.082823 -0.315848,0.0013 -0.430654,-0.260928 -0.450167,-1.028068 -0.04683,-1.841181 -0.820981,-1.867631 -0.971522,-0.0332 -0.04634,0.564659 -0.208818,1.056592 -0.361069,1.093181 -0.52208,0.12546 -0.784695,-0.438236 -0.697759,-1.497699 z m 4.626375,0.75042 c 0.03866,-0.03898 0.03751,-0.333668 -0.0026,-0.654805 -0.06613,-0.529183 -0.07937,-0.529131 -0.141279,6.05e-4 -0.06501,0.55632 -0.0094,0.808841 0.143901,0.654244 z m 4.439098,-0.843227 c 0.14922,-0.15042 0.155456,-0.300347 0.01387,-0.333176 -0.141583,-0.03283 -0.286867,0.06724 -0.322852,0.222368 -0.09191,0.396444 -0.0052,0.427527 0.308972,0.110794 z m 0.697359,-1.281201 c 0.529186,-0.06614 0.529133,-0.07937 -6.05e-4,-0.141279 -0.556313,-0.06501 -0.808834,-0.0094 -0.654229,0.1439 0.03898,0.03866 0.333667,0.03751 0.654803,-0.0026 z m 0.848501,1.14698 c 0.154822,-0.03721 0.253768,-0.183255 0.219762,-0.324619 -0.03398,-0.141314 -0.183822,-0.133896 -0.333054,0.01654 -0.314194,0.316724 -0.282436,0.403134 0.113277,0.308065 z m 62.134902,63.262746 c -0.003,-0.73832 0.16663,-0.9094 0.90433,-0.91237 0.44327,-0.001 0.62895,0.13342 0.75735,0.55146 0.20517,0.66797 -0.54474,1.51177 -1.1188,1.25887 -0.54906,-0.24188 -0.54016,-0.22718 -0.54286,-0.89794 z m 1.09655,0.18269 c 0.10249,-0.10331 0.10181,-0.27171 -0.002,-0.37419 -0.10331,-0.10248 -0.27168,-0.10181 -0.37417,0.002 -0.10248,0.10331 -0.10181,0.27168 0.002,0.37417 0.10331,0.10249 0.27169,0.10182 0.37417,-0.002 z M 92.016093,89.081831 c 0.02912,-1.070735 0.608685,-1.653035 1.614008,-1.62134 1.121565,0.03518 1.661999,0.688976 1.481077,1.791753 -0.18852,1.149157 -0.675889,1.669136 -1.527855,1.630053 -0.920476,-0.0422 -1.593868,-0.815819 -1.567089,-1.800326 z m 2.211964,-1.006405 c -3.95e-4,-0.09843 -0.297732,-0.171395 -0.660783,-0.162104 -0.630665,0.01612 -0.630632,0.0241 6.73e-4,0.178982 0.363424,0.08915 0.660458,0.08157 0.660063,-0.01688 z m 1.07866,1.2123 c 0.166214,-1.273576 0.866587,-2.032956 1.488413,-1.613863 0.299963,0.202202 0.264418,0.390904 -0.152921,0.811607 -0.30715,0.309627 -0.52708,0.858309 -0.50539,1.260831 0.02114,0.391967 -0.07437,0.826347 -0.212203,0.965296 -0.460968,0.464684 -0.771135,-0.250037 -0.61792,-1.423892 z m 1.928612,2.231541 c -0.0019,-0.475135 0.321724,-0.570503 0.965489,-0.284507 0.35569,0.158012 0.789169,0.143677 0.963298,-0.03185 0.272395,-0.274591 0.199335,-0.322346 -0.523292,-0.341995 -1.047695,-0.0285 -1.660056,-0.612044 -1.663943,-1.585702 -0.0061,-1.506047 1.732725,-2.380648 2.742146,-1.3793 0.464643,0.460927 0.482043,0.452972 0.633703,-0.289964 0.19311,-0.946092 0.28065,-1.039097 0.64133,-0.681295 0.36836,0.365399 0.50993,3.422307 0.17419,3.760756 -0.37842,0.381472 -0.69604,-0.06825 -0.77127,-1.092093 -0.0366,-0.497455 -0.0676,-0.264082 -0.069,0.518604 -0.003,1.607413 -0.516171,2.332453 -1.65454,2.33703 -0.740242,0.003 -1.436151,-0.446907 -1.438082,-0.92968 z m 0.851087,-1.390177 c -0.07745,-0.180214 -0.288766,-0.389845 -0.469597,-0.465841 -0.180831,-0.076 -0.117482,0.07143 0.140815,0.327662 0.258276,0.256211 0.406262,0.318359 0.328782,0.138179 z m 0.654663,-0.39183 c 0.623663,-0.06049 0.75987,-0.566922 0.280399,-1.04256 -0.228316,-0.22649 -0.49228,-0.232955 -0.706206,-0.01731 -0.610166,0.615085 -0.39932,1.139891 0.425807,1.059864 z m 57.288841,58.35075 c 0.0386,-0.039 0.0375,-0.33367 -0.003,-0.6548 -0.0661,-0.52919 -0.0793,-0.52914 -0.14129,5e-4 -0.0651,0.55632 -0.01,0.80883 0.14391,0.65424 z m -0.0301,-4.47794 c 0.032,-0.0323 0.0298,-0.57956 -0.004,-1.21607 l -0.0632,-1.1573 -0.0538,1.15777 c -0.0503,1.0792 -0.022,1.36071 0.12197,1.2156 z m -0.0262,-4.10617 c 0.0268,-0.027 0.0153,-2.93151 -0.0256,-6.45452 l -0.0745,-6.40548 -0.0232,6.40587 c -0.0215,5.95142 -0.009,6.58807 0.12357,6.45413 z m -0.0367,-13.11188 c 0.0353,-0.0357 0.0339,-0.41451 -0.003,-0.84189 l -0.0677,-0.7771 -0.0614,0.77761 c -0.0578,0.73075 -0.0167,0.99168 0.13245,0.84138 z m -0.0131,-1.86484 c 0.032,-0.0323 0.0298,-0.57957 -0.004,-1.21608 l -0.0632,-1.15729 -0.0539,1.15776 c -0.0503,1.0792 -0.022,1.36072 0.12195,1.2156 z m -0.0121,-2.9934 c 0.032,-0.0323 0.0298,-0.57957 -0.004,-1.21608 l -0.0632,-1.15728 -0.0539,1.15775 c -0.0503,1.07919 -0.022,1.36073 0.12198,1.21561 z m -0.012,-4.49613 c 0.0353,-0.0357 0.0339,-0.41449 -0.003,-0.84188 l -0.0677,-0.77709 -0.0615,0.7776 c -0.0576,0.73076 -0.0167,0.99169 0.13249,0.84137 z m 0.0149,-3.39667 c 0.006,-0.91752 -0.0333,-1.71015 -0.085,-1.76138 -0.0517,-0.0513 -0.0979,0.65752 -0.10282,1.57503 -0.006,0.91752 0.0333,1.71015 0.0849,1.76139 0.0517,0.0513 0.0979,-0.65753 0.10284,-1.57504 z m -0.0469,-4.46099 c 0.0353,-0.0357 0.0339,-0.41449 -0.003,-0.84188 l -0.0677,-0.77709 -0.0614,0.7776 c -0.0577,0.73076 -0.0167,0.9917 0.13247,0.84137 z m -0.007,-1.87088 c 0.0353,-0.0357 0.0339,-0.41449 -0.003,-0.84188 l -0.0677,-0.77708 -0.0615,0.7776 c -0.0577,0.73076 -0.0167,0.99168 0.13247,0.84136 z m -0.0152,-1.86311 c 0.0311,-0.0314 0.0286,-0.66281 -0.006,-1.40316 l -0.0623,-1.34608 -0.0514,1.34654 c -0.0479,1.25333 -0.0229,1.54615 0.11932,1.4027 z M 55.065277,166.4637 c 0.03338,-0.0337 0.03152,-0.49668 -0.0041,-1.02897 l -0.06482,-0.9678 -0.05704,0.96828 c -0.05331,0.90502 -0.02015,1.17582 0.126001,1.02849 z m 56.414803,16.95322 c 20.57921,-0.083 37.37446,-0.19288 37.32281,-0.24408 -0.0517,-0.0513 -16.93144,-0.0253 -37.51065,0.0577 -20.579196,0.0829 -37.374459,0.19288 -37.322804,0.24409 0.05168,0.0513 16.931443,0.0253 37.510644,-0.0577 z M 54.825556,107.34657 c 0.03204,-0.0323 0.02987,-0.57956 -0.0048,-1.21608 l -0.06319,-1.15728 -0.05389,1.15775 c -0.05024,1.0792 -0.02199,1.36073 0.121964,1.21561 z m -0.03358,-5.97717 c 0.02684,-0.027 0.0158,-2.763196 -0.02446,-6.080339 l -0.07318,-6.03117 -0.02476,6.031563 c -0.02296,5.603466 -0.01071,6.214066 0.122342,6.079946 z M 111.21278,70.22843 c 20.99081,-0.08464 38.12283,-0.195825 38.07118,-0.247065 -0.0517,-0.05127 -17.26822,-0.02392 -38.25902,0.06073 -20.990794,0.08464 -38.122828,0.195825 -38.071165,0.247077 0.05168,0.05127 17.268206,0.02391 38.259005,-0.06074 z m 56.83186,93.92464 c 0.0259,-0.026 -0.0425,-17.07433 -0.15206,-37.88516 l -0.19904,-37.837836 0.10504,37.838226 c 0.0576,20.81103 0.12609,37.85933 0.15206,37.88514 0.026,0.0258 0.0684,0.0256 0.0942,-3.7e-4 z"
       id="path3178" />
  </g>
</svg>
