<?xml version="1.0" encoding="UTF-8" standalone="no"?>
<!-- Created with Inkscape (http://www.inkscape.org/) -->

<svg
   width="210mm"
   height="297mm"
   viewBox="0 0 210 297"
   version="1.1"
   id="svg2011"
   inkscape:version="1.1.1 (eb90963e84, 2021-10-02)"
   sodipodi:docname="eddi-black.svg"
   xmlns:inkscape="http://www.inkscape.org/namespaces/inkscape"
   xmlns:sodipodi="http://sodipodi.sourceforge.net/DTD/sodipodi-0.dtd"
   xmlns="http://www.w3.org/2000/svg"
   xmlns:svg="http://www.w3.org/2000/svg">
  <sodipodi:namedview
     id="namedview2013"
     pagecolor="#505050"
     bordercolor="#eeeeee"
     borderopacity="1"
     inkscape:pageshadow="0"
     inkscape:pageopacity="0"
     inkscape:pagecheckerboard="0"
     inkscape:document-units="mm"
     showgrid="false"
     inkscape:zoom="0.59776235"
     inkscape:cx="397.31509"
     inkscape:cy="561.25984"
     inkscape:window-width="1600"
     inkscape:window-height="838"
     inkscape:window-x="0"
     inkscape:window-y="34"
     inkscape:window-maximized="1"
     inkscape:current-layer="layer1" />
  <defs
     id="defs2008" />
  <g
     inkscape:label="Layer 1"
     inkscape:groupmode="layer"
     id="layer1">
    <path
       style="fill:#000000;fill-opacity:1;stroke-width:0.352777"
       d="m 11.417683,256.92721 c -1.9940734,-0.99369 -3.7978134,-2.99849 -4.5219064,-5.02597 -0.73995,-2.07187 -0.709846,-175.749796 0.03083,-177.849088 0.773989,-2.193718 2.427938,-4.071932 4.4910784,-5.100039 l 1.825471,-0.90967 h 43.851561 43.851563 v -1.781407 c 0,-1.775619 0.7674,-3.863039 1.42018,-3.863039 0.21881,0 0.34371,-6.838836 0.34371,-18.818933 V 24.76013 l 0.64514,-0.583842 c 0.85202,-0.771065 2.27739,-0.741984 3.00435,0.0613 l 0.58385,0.645139 V 43.35304 61.823359 l 0.79375,0.8445 c 0.58641,0.623906 0.83982,1.413129 0.97013,3.021349 l 0.17639,2.176846 43.74445,0.176389 43.74444,0.176388 1.62049,0.952658 c 1.88233,1.106591 3.30816,2.839392 4.03762,4.906907 0.73239,2.075818 0.75346,175.773544 0.0216,177.822844 -0.72409,2.02748 -2.52783,4.03228 -4.52191,5.02597 l -1.82545,0.90967 H 104.47406 13.243154 Z M 61.787954,162.93966 V 72.275777 H 38.027625 14.267294 l -1.198697,0.80078 c -0.659284,0.440433 -1.476956,1.353243 -1.817049,2.02847 l -0.618351,1.227693 0.08919,87.02207 0.08918,87.02207 0.730633,0.99598 c 0.401848,0.54779 1.274973,1.27355 1.940278,1.6128 l 1.209644,0.61681 23.547916,5.3e-4 23.547917,5.3e-4 z m -14.665232,84.3517 c -6.416448,-2.91428 -5.357958,-12.47674 1.564909,-14.13751 2.959482,-0.70997 2.901699,-0.82463 2.790569,5.53722 l -0.09719,5.56387 -1.136137,0.10977 -1.136139,0.10977 -0.09858,-4.59031 -0.09858,-4.59031 -1.144329,0.55479 c -3.695633,1.7917 -3.480379,7.32761 0.359233,9.23879 5.517433,2.74631 10.2606,-4.8827 5.455042,-8.77401 l -0.675117,-0.54667 0.670089,-0.82753 c 0.837632,-1.03443 1.674285,-0.62252 3.052342,1.50277 4.048493,6.2437 -2.696768,13.9421 -9.506103,10.84936 z m -0.07118,-17.69498 c -4.582506,-2.33759 -6.160331,-10.56505 -2.026116,-10.56505 h 1.265135 l -0.403921,0.75473 c -2.482887,4.63932 1.486249,9.70725 6.194385,7.90919 4.470326,-1.70723 4.799367,-7.4903 0.548154,-9.63406 l -1.574055,-0.79375 h -6.628026 -6.62803 v -1.05833 -1.05834 h 7.015274 7.015271 l 1.886918,0.98574 c 6.773966,3.53877 4.708869,13.51888 -2.910776,14.06708 -1.826758,0.13142 -2.528838,0.0179 -3.754213,-0.60721 z m 0.628928,-17.37913 c -3.549092,-1.13023 -5.690836,-5.59944 -4.533892,-9.46096 l 0.408617,-1.36385 h 1.324922 1.32492 l -0.736928,1.74426 c -2.229951,5.27814 4.522819,9.75426 8.585872,5.69121 2.593816,-2.59382 1.790274,-6.99723 -1.553943,-8.51562 -1.274442,-0.57863 -2.358782,-0.66928 -8.086386,-0.67599 l -6.614584,-0.008 v -1.05834 -1.05833 h 6.750045 c 7.817313,0 9.038532,0.25213 11.072344,2.28594 5.69113,5.69113 -0.189346,14.88798 -7.940987,12.41943 z m -8.046955,-17.59814 c -0.617845,-0.61785 -0.518621,-1.26474 0.257722,-1.68022 0.968354,-0.51825 1.940745,0.45414 1.422498,1.4225 -0.415486,0.77634 -1.062379,0.87556 -1.68022,0.25772 z m 3.170285,-0.7232 0.110548,-1.14652 h 7.40833 7.408334 l 0.110548,1.14652 0.110546,1.14653 H 50.322674 42.69325 Z M 143.98517,162.93966 V 72.275777 H 104.47406 64.962954 v 90.663883 90.66389 h 39.511106 39.51111 z m -65.087496,17.13888 c -4.433022,-1.97872 -4.964181,-8.31266 -0.925343,-11.03444 6.191716,-4.17259 13.31668,4.10164 8.223038,9.54943 -1.777256,1.90083 -4.929187,2.54221 -7.297695,1.48501 z m 4.298561,-1.28737 c 4.957371,-1.8783 3.700966,-9.14282 -1.582052,-9.14741 -2.193163,-0.002 -3.535804,0.8257 -4.359135,2.68697 -1.746361,3.94794 1.953607,7.97129 5.941187,6.46044 z m 11.223662,1.23261 c -6.38647,-3.32155 -3.649331,-12.86373 3.448765,-12.02306 5.968108,0.70683 7.686788,8.70328 2.521258,11.73048 -1.710938,1.00267 -4.355498,1.13228 -5.970023,0.29258 z m 5.324065,-1.72707 c 2.827898,-1.85291 2.870428,-6.23658 0.07703,-7.93967 -4.298577,-2.62077 -9.107284,1.90276 -6.788806,6.3862 1.100722,2.12856 4.598508,2.93814 6.71178,1.55347 z m 9.227148,1.55183 c -6.03825,-3.18765 -3.0851,-12.6531 3.69707,-11.84985 4.99827,0.59197 7.38227,6.0709 4.4397,10.20337 -1.60829,2.25862 -5.4895,3.04399 -8.13677,1.64648 z m 4.7747,-1.1648 c 3.53008,-1.50415 4.11347,-5.93 1.09467,-8.30459 -1.30125,-1.02357 -4.26214,-1.02357 -5.56339,0 -4.35011,3.42179 -0.56787,10.45065 4.46872,8.30459 z m 10.6528,1.0581 c -4.56375,-2.80161 -3.76407,-10.07475 1.26634,-11.51746 6.9044,-1.98015 11.47687,6.81083 5.79618,11.14369 -1.89496,1.44536 -5.04532,1.61209 -7.06252,0.37377 z m 5.10876,-1.13916 c 4.63241,-1.85352 3.28992,-8.96024 -1.69263,-8.96024 -5.28158,0 -6.83846,6.92888 -2.02754,9.02356 1.43177,0.6234 2.02932,0.61323 3.72017,-0.0633 z M 79.196593,164.8668 c -0.114454,-0.29827 0.07388,-0.85389 0.418528,-1.23472 l 0.626629,-0.69242 -0.626629,-0.69241 c -0.602837,-0.66613 -0.541104,-1.77703 0.09875,-1.77703 0.170045,0 0.598733,0.31996 0.952645,0.71103 l 0.643472,0.71103 0.7962,-0.74799 c 1.280142,-1.20263 2.157772,-0.16208 0.970143,1.15024 l -0.583846,0.64513 0.583846,0.64514 c 1.187629,1.31232 0.309999,2.35287 -0.970143,1.15024 l -0.7962,-0.74799 -0.643472,0.71103 c -0.770297,0.85117 -1.189574,0.8993 -1.469923,0.16872 z m 17.152363,-1.30977 -0.01122,-1.49931 -0.494474,0.65269 c -0.27196,0.35897 -0.677585,0.53952 -0.901382,0.4012 -0.272021,-0.16812 -0.02262,-0.64797 0.75235,-1.44753 l 1.159261,-1.19605 1.150726,1.11532 c 1.192332,1.15566 1.271093,2.22179 0.08483,1.14823 l -0.670537,-0.60682 v 1.46578 c 0,1.06774 -0.1437,1.46579 -0.529166,1.46579 -0.385604,0 -0.532212,-0.40676 -0.540385,-1.4993 z m 14.513654,0.30435 c -1.11781,-1.15328 -1.00958,-2.22677 0.12921,-1.28166 0.39817,0.33046 0.51061,0.19294 0.60191,-0.73621 0.17522,-1.78314 0.99422,-1.73117 0.99422,0.0631 v 1.49519 l 0.64514,-0.58385 c 1.44536,-1.30803 1.56765,-0.0876 0.12931,1.29044 -1.22729,1.17581 -1.10945,1.18746 -2.49979,-0.24701 z m 14.83961,0.0257 c -1.25078,-1.3314 -0.94194,-2.23985 0.36069,-1.06098 l 0.65414,0.59198 1.36153,-1.3295 c 1.98286,-1.93621 2.31404,-0.93871 0.35208,1.06039 -1.77771,1.81135 -1.73184,1.79894 -2.72844,0.73811 z m -47.311961,-9.70591 c -0.661077,-0.35454 -1.495562,-1.18798 -1.854412,-1.85209 l -0.652449,-1.20746 0.09602,-13.69756 0.09603,-13.69755 1.317733,-1.20731 1.317737,-1.2073 25.140592,0.005 c 27.0382,0.006 26.14423,-0.0551 27.57604,1.8723 l 0.73956,0.99554 0.0998,13.86843 0.0998,13.86844 -0.91624,1.08889 c -1.50859,1.79286 -1.78584,1.81102 -27.68751,1.81312 l -24.170776,0.002 z m 51.131021,-1.57577 0.88195,-0.4461 0.0923,-13.89204 0.0923,-13.89203 -0.58799,-0.64972 -0.58799,-0.64972 H 104.243 79.074064 l -0.705556,0.70555 -0.705557,0.70556 v 13.25236 c 0,13.78927 0.0599,14.37816 1.522368,14.9674 1.303673,0.52526 49.288161,0.42873 50.335961,-0.10126 z m 65.94437,100.38025 c 0.6653,-0.33925 1.53843,-1.06501 1.94027,-1.6128 l 0.73064,-0.99598 0.0892,-87.02207 0.0892,-87.02207 -0.61835,-1.227693 c -0.34009,-0.675227 -1.15776,-1.588037 -1.81704,-2.02847 l -1.1987,-0.80078 H 170.9205 147.16017 v 90.663883 90.66389 l 23.54792,-7.9e-4 23.54791,-8e-4 1.20965,-0.61681 z"
       id="path1894" />
  </g>
</svg>
