<?xml version="1.0" encoding="UTF-8" standalone="no"?>
<!-- Created with Inkscape (http://www.inkscape.org/) -->

<svg
   width="210mm"
   height="297mm"
   viewBox="0 0 210 297"
   version="1.1"
   id="svg278"
   inkscape:version="1.1.1 (eb90963e84, 2021-10-02)"
   sodipodi:docname="accessories.svg"
   xmlns:inkscape="http://www.inkscape.org/namespaces/inkscape"
   xmlns:sodipodi="http://sodipodi.sourceforge.net/DTD/sodipodi-0.dtd"
   xmlns="http://www.w3.org/2000/svg"
   xmlns:svg="http://www.w3.org/2000/svg">
  <sodipodi:namedview
     id="namedview280"
     pagecolor="#505050"
     bordercolor="#ffffff"
     borderopacity="1"
     inkscape:pageshadow="0"
     inkscape:pageopacity="0"
     inkscape:pagecheckerboard="1"
     inkscape:document-units="mm"
     showgrid="false"
     inkscape:zoom="0.73406285"
     inkscape:cx="397.10496"
     inkscape:cy="561.25984"
     inkscape:window-width="1920"
     inkscape:window-height="1010"
     inkscape:window-x="0"
     inkscape:window-y="34"
     inkscape:window-maximized="1"
     inkscape:current-layer="layer1" />
  <defs
     id="defs275" />
  <g
     inkscape:label="Layer 1"
     inkscape:groupmode="layer"
     id="layer1">
    <path
       style="fill:#000000;stroke-width:1.26717"
       d="m 58.033071,210.11373 c -6.161995,-2.26152 -12.300378,-6.62989 -12.300378,-8.75356 0,-0.90936 1.116817,-4.17813 2.481816,-7.26394 2.870025,-6.48818 2.316533,-10.53155 -2.015111,-14.72083 -1.650576,-1.59633 -3.001047,-3.46962 -3.001047,-4.16287 0,-0.69325 7.768253,-15.92374 17.262784,-33.84554 31.060356,-58.629277 37.815297,-69.926301 45.152485,-75.513447 7.00186,-5.331793 42.77299,-21.557573 44.25604,-20.074532 1.82343,1.823437 25.11447,51.060851 25.11447,53.09217 0,2.291269 -25.76202,14.974159 -33.95919,16.718439 -3.69326,0.78589 -8.82531,1.43102 -11.40454,1.43363 -5.31995,0.005 -11.90397,3.54126 -14.62566,7.85458 -1.01048,1.6014 -6.25,13.70549 -11.64337,26.89798 -7.941538,19.42546 -9.834043,25.33933 -9.952946,31.10182 -0.205539,9.96125 -3.163223,14.26888 -9.483862,13.81252 -5.968433,-0.43094 -9.66543,2.11883 -12.322038,8.49837 -3.090602,7.42171 -4.933418,8.09107 -13.559453,4.92521 z m 11.032265,-7.44945 c 1.174275,-3.07479 3.102691,-5.96187 4.285366,-6.41569 1.535716,-0.58931 -0.89233,-2.25534 -8.495014,-5.82894 -5.854935,-2.75206 -10.724061,-4.85449 -10.82028,-4.67204 -0.650801,1.23401 -3.445651,12.20602 -3.635082,14.2706 -0.168443,1.83583 1.32581,3.32016 5.421443,5.38548 8.536342,4.30463 10.726435,3.85161 13.243567,-2.73941 z m 17.216828,-9.61551 c 0,-0.69694 -0.873736,-1.26717 -1.941635,-1.26717 -3.928308,0 -21.721545,-7.72539 -29.046513,-12.61129 -7.514007,-5.01199 -11.735564,-5.91375 -5.740879,-1.22629 6.206747,4.85327 15.98108,9.90032 25.324488,13.07645 10.785256,3.66628 11.404539,3.77643 11.404539,2.0283 z m 4.192718,-6.4278 c 0.377735,-1.44446 0.384205,-4.4909 0.01437,-6.76986 -0.476235,-2.93471 0.438845,-6.69725 3.136547,-12.89656 2.09492,-4.81414 6.787951,-16.16593 10.428951,-25.22621 9.99307,-24.86681 10.99725,-25.80849 30.21404,-28.33366 8.31001,-1.09198 13.45188,-2.75344 23.75945,-7.67726 7.2349,-3.45604 13.12746,-7.031499 13.09458,-7.945468 -0.033,-0.913972 -1.601,-4.584287 -3.48471,-8.156257 l -3.42495,-6.494491 -15.83963,7.573688 c -18.24332,8.723003 -24.65751,9.656868 -33.90926,4.936983 l -5.37304,-2.741123 0.0269,9.212748 0.0269,9.21274 -17.090087,34.21362 c -9.399547,18.81749 -17.425045,35.47058 -17.834439,37.00686 -0.650395,2.44067 0.02388,3.02934 5.341728,4.66364 8.341339,2.56346 10.11514,2.46928 10.912386,-0.57939 z m -15.661336,-9.72863 c 1.61514,-4.00743 9.757114,-20.68657 18.093275,-37.06475 l 15.156659,-29.77852 -0.59139,-8.6553 c -0.69683,-10.198577 0.0541,-10.876807 8.03423,-7.256579 9.0572,4.108842 13.782,3.423693 30.86062,-4.475134 8.42154,-3.894946 15.74999,-7.4978 16.28544,-8.006342 0.84643,-0.803907 -13.649,-33.064438 -14.85666,-33.064438 -0.25079,0 -9.20446,4.200901 -19.89702,9.335336 -20.67055,9.925731 -24.06377,12.581052 -31.791779,24.878281 -5.752818,9.154192 -46.572715,85.645706 -46.572715,87.271596 0,1.89533 18.563765,13.98113 21.625523,14.07912 0.394461,0.0126 2.038679,-3.25584 3.653817,-7.26327 z M 123.60286,84.790624 c -3.21926,-4.913202 -0.55187,-7.891949 12.67972,-14.159815 6.46284,-3.06147 12.30903,-5.566309 12.99155,-5.566309 2.37651,0 5.63606,4.879878 5.22029,7.81532 -0.32715,2.309809 -3.01031,4.270836 -12.27961,8.974693 -6.52355,3.310485 -12.92545,6.019065 -14.22646,6.019065 -1.301,0 -3.27447,-1.387331 -4.38549,-3.082954 z m 16.71516,-3.811286 c 6.53337,-3.094887 12.22285,-6.523511 12.64329,-7.619162 0.94568,-2.464372 -1.6509,-5.792066 -4.42614,-5.672417 -4.1596,0.179348 -23.60153,10.667105 -24.02572,12.960459 -0.38649,2.089499 1.74396,5.958188 3.28111,5.958188 0.35672,0 5.99409,-2.532181 12.52746,-5.627068 z m -7.00354,-0.391993 c -0.0905,-1.754891 0.58384,-2.851135 1.75377,-2.851135 1.04541,0 1.90075,0.603881 1.90075,1.341954 0,0.738076 -0.52707,1.016207 -1.17127,0.618072 -0.6442,-0.398135 -1.43339,0.281 -1.75376,1.509178 -0.44327,1.699348 -0.61763,1.551624 -0.72949,-0.618069 z m 5.40008,-4.369436 c -0.5268,-0.85237 -0.29289,-1.050963 0.59299,-0.503459 0.80463,0.497288 1.46297,0.300289 1.46297,-0.437798 0,-0.738077 0.57023,-1.341957 1.26717,-1.341957 1.93889,0 1.50636,2.17141 -0.59301,2.977012 -1.02309,0.3926 -2.25165,0.08039 -2.73012,-0.693798 z m 8.70861,-1.855265 c -0.87119,-0.351548 -1.58397,-1.195505 -1.58397,-1.875499 0,-0.679998 0.52152,-0.914041 1.15894,-0.520094 0.63742,0.393947 1.44774,-7.2e-5 1.80072,-0.875592 0.35298,-0.875524 0.68679,-0.308838 0.74181,1.259273 0.055,1.568126 -0.0425,2.806117 -0.21674,2.751095 -0.17424,-0.05503 -1.02958,-0.387654 -1.90075,-0.739183 z"
       id="path147" />
  </g>
</svg>
