<?xml version="1.0" encoding="UTF-8" standalone="no"?>
<!-- Created with Inkscape (http://www.inkscape.org/) -->

<svg
   width="128.75328mm"
   height="128.35179mm"
   viewBox="0 0 128.75328 128.35179"
   version="1.1"
   id="svg1309"
   inkscape:version="1.1.1 (eb90963e84, 2021-10-02)"
   sodipodi:docname="boost_mode.svg"
   xmlns:inkscape="http://www.inkscape.org/namespaces/inkscape"
   xmlns:sodipodi="http://sodipodi.sourceforge.net/DTD/sodipodi-0.dtd"
   xmlns="http://www.w3.org/2000/svg"
   xmlns:svg="http://www.w3.org/2000/svg">
  <sodipodi:namedview
     id="namedview1311"
     pagecolor="#505050"
     bordercolor="#eeeeee"
     borderopacity="1"
     inkscape:pageshadow="0"
     inkscape:pageopacity="0"
     inkscape:pagecheckerboard="0"
     inkscape:document-units="mm"
     showgrid="false"
     inkscape:zoom="0.59776235"
     inkscape:cx="218.31419"
     inkscape:cy="280.21169"
     inkscape:window-width="1600"
     inkscape:window-height="838"
     inkscape:window-x="0"
     inkscape:window-y="34"
     inkscape:window-maximized="1"
     inkscape:current-layer="layer1" />
  <defs
     id="defs1306" />
  <g
     inkscape:label="Layer 1"
     inkscape:groupmode="layer"
     id="layer1"
     transform="translate(-47.245091,-74.187786)">
    <g
       id="g1264"
       transform="translate(-0.44289116,-4.4607608)"
       style="fill:#000000">
      <path
         style="fill:#000000;stroke-width:0.264583"
         d="m 121.39048,206.36754 c 0.19099,-0.0764 0.4192,-0.067 0.50712,0.0209 0.0879,0.0879 -0.0683,0.15045 -0.34727,0.13896 -0.30822,-0.0127 -0.37092,-0.0754 -0.15985,-0.15985 z m 5.72141,-18.34009 c 0,-3.85631 0.037,-5.43388 0.0822,-3.50573 0.0452,1.92815 0.0452,5.0833 0,7.01145 -0.0452,1.92816 -0.0822,0.35058 -0.0822,-3.50572 z m -29.369298,0 c 0,-3.71079 0.03721,-5.22883 0.0827,-3.37344 0.04548,1.85539 0.04548,4.89148 0,6.74687 -0.04548,1.85539 -0.0827,0.33735 -0.0827,-3.37343 z m 62.591248,-2.74573 c 0,-0.0549 0.20836,-0.2633 0.46302,-0.46302 0.41964,-0.32911 0.429,-0.31975 0.0999,0.0999 -0.34564,0.44073 -0.56291,0.58089 -0.56291,0.36313 z m -7.40834,-3.70417 c 0,-0.0549 0.20836,-0.2633 0.46303,-0.46302 0.41964,-0.32911 0.429,-0.31975 0.0999,0.0999 -0.34564,0.44073 -0.56292,0.58089 -0.56292,0.36313 z m -12.32826,-5.5225 -0.50403,-0.59531 0.59532,0.50403 c 0.32742,0.27721 0.59531,0.5451 0.59531,0.59531 0,0.21173 -0.21294,0.0554 -0.6866,-0.50403 z m -28.20259,-27.89584 c 0.19099,-0.0764 0.4192,-0.067 0.50711,0.0209 0.0879,0.0879 -0.0683,0.15045 -0.34726,0.13897 -0.30823,-0.0127 -0.37092,-0.0754 -0.15985,-0.15985 z m -64.487839,-0.76735 c 0.0127,-0.30823 0.07539,-0.37092 0.159851,-0.15986 0.07643,0.191 0.06703,0.4192 -0.02088,0.50712 -0.08792,0.0879 -0.150453,-0.0684 -0.138965,-0.34726 z m 60.675849,-0.97014 -0.50403,-0.59532 0.59531,0.50403 c 0.32742,0.27722 0.59532,0.54511 0.59532,0.59532 0,0.21173 -0.21294,0.0554 -0.6866,-0.50403 z M 55.126306,142.6514 c 7.94e-4,-1.4552 0.04512,-2.01676 0.09873,-1.2479 0.05362,0.76887 0.05305,1.95949 -0.0013,2.64584 -0.05431,0.68634 -0.09817,0.0573 -0.09748,-1.39794 z m -7.438244,0.26459 c 0.0029,-0.58209 0.05712,-0.78906 0.120406,-0.45994 0.06329,0.32912 0.06088,0.80537 -0.0053,1.05833 -0.06622,0.25297 -0.118004,-0.0163 -0.115067,-0.59839 z m 21.392996,-2.44317 -0.897572,-0.10952 0.177839,-2.42782 c 0.322821,-4.40707 1.104445,-8.63538 1.707833,-9.23877 0.249841,-0.24984 5.07162,1.18309 9.78966,2.90928 l 1.148934,0.42036 -0.125137,1.47607 c -0.06883,0.81184 -0.273206,2.67861 -0.454178,4.14839 l -0.329042,2.67231 -3.737467,0.17099 c -3.839437,0.17565 -5.711756,0.17018 -7.28087,-0.0213 z m 75.781692,-0.42905 c -0.0667,-0.31205 -0.19135,-1.39284 -0.27695,-2.40177 -0.0856,-1.00892 -0.19847,-1.90371 -0.25083,-1.98842 -0.12011,-0.19435 10.22291,-3.23195 10.40041,-3.05445 0.072,0.072 0.2209,0.75582 0.33098,1.51968 0.11008,0.76386 0.32442,2.22794 0.4763,3.2535 0.15189,1.02556 0.19071,2.15665 0.0863,2.51354 l -0.18988,0.64889 -5.2275,0.0382 c -5.14544,0.0376 -5.2294,0.0293 -5.3488,-0.52917 z m 23.42948,-0.854 c 0.0127,-0.30822 0.0754,-0.37092 0.15985,-0.15985 0.0764,0.19099 0.067,0.4192 -0.0209,0.50712 -0.0879,0.0879 -0.15045,-0.0683 -0.13896,-0.34727 z M 47.906811,138.13144 c 0.0127,-0.30823 0.07539,-0.37092 0.159851,-0.15985 0.07643,0.19099 0.06703,0.4192 -0.02088,0.50712 -0.08792,0.0879 -0.150453,-0.0684 -0.138965,-0.34727 z m 60.700989,-0.37483 c 0.26339,-0.29104 0.53842,-0.52916 0.61118,-0.52916 0.0728,0 -0.0832,0.23812 -0.3466,0.52916 -0.26339,0.29104 -0.53842,0.52917 -0.61118,0.52917 -0.0728,0 0.0832,-0.23813 0.3466,-0.52917 z m 67.62193,0.11025 c 0.0127,-0.30823 0.0754,-0.37092 0.15985,-0.15986 0.0764,0.191 0.067,0.4192 -0.0209,0.50712 -0.0879,0.0879 -0.15045,-0.0684 -0.13896,-0.34726 z m -33.73362,-10.04828 c -0.24391,-0.2439 -0.83892,-1.23301 -1.32225,-2.19803 -0.95321,-1.90317 -0.91642,-2.51275 0.19281,-3.19423 0.31824,-0.19552 2.02011,-1.4101 3.78193,-2.69906 1.76182,-1.28896 3.3738,-2.34356 3.58217,-2.34356 0.21857,0 1.13114,1.46074 2.1569,3.45251 1.47873,2.87136 1.73017,3.54194 1.49375,3.9837 -0.15635,0.29215 -0.42532,0.57178 -0.5977,0.62141 -0.54332,0.15642 -8.23669,2.5969 -8.54754,2.71143 -0.16313,0.0601 -0.49617,-0.0903 -0.74007,-0.33417 z m -64.976854,-1.59265 c -5.580941,-1.85443 -5.820834,-1.95337 -5.820834,-2.40071 0,-0.37785 1.743684,-3.99418 2.975777,-6.17163 1.048803,-1.85354 1.237731,-1.88072 3.294311,-0.47408 3.168968,2.1675 6.784242,4.92825 7.030937,5.36907 0.415287,0.74208 -2.14032,5.20258 -2.94544,5.14091 -0.09302,-0.007 -2.133658,-0.66572 -4.534751,-1.46356 z m 58.116314,-8.29343 c -0.82251,-0.86232 -1.49548,-1.78726 -1.49548,-2.05541 0,-0.26816 0.38695,-1.03804 0.85989,-1.71084 3.06713,-4.36323 4.46656,-6.27163 4.80497,-6.55248 0.5685,-0.47182 1.05599,-0.11927 3.56741,2.57997 2.20911,2.37432 2.66219,2.92847 2.66993,3.26546 0.002,0.0971 -1.33541,1.15451 -2.97251,2.3498 -1.63711,1.19529 -3.41607,2.51482 -3.95324,2.9323 -0.53717,0.41749 -1.20366,0.75906 -1.48108,0.75906 -0.27742,0 -1.17737,-0.70553 -1.99989,-1.56786 z m -49.938882,-0.59131 c -3.87354,-2.69886 -6.854516,-5.02784 -6.854516,-5.3553 0,-0.18347 0.68461,-0.97001 1.521354,-1.74787 0.836745,-0.77785 2.195378,-2.06369 3.019187,-2.85743 1.685192,-1.62367 2.392357,-1.71087 3.184771,-0.39268 0.244168,0.40617 0.683953,1.03615 0.977302,1.39995 1.571461,1.94888 4.526553,6.25066 4.526553,6.5894 0,0.50679 -3.440914,3.71473 -3.993402,3.72303 -0.231838,0.003 -1.3034,-0.60812 -2.381249,-1.3591 z m 41.986702,-5.48686 c -1.00457,-0.56724 -1.9243,-1.20612 -2.04385,-1.41973 -0.27098,-0.48424 2.72537,-9.73963 3.26289,-10.07869 0.59338,-0.374291 7.15078,3.33395 7.30419,4.13056 0.14089,0.73159 -5.42605,8.23619 -6.18153,8.33311 -0.28336,0.0363 -1.33713,-0.39801 -2.3417,-0.96525 z m -32.352422,-0.35761 c -0.484526,-0.53737 -2.846562,-3.71012 -5.061688,-6.799 -0.464076,-0.64713 -0.843775,-1.3383 -0.843775,-1.53592 0,-0.19762 0.625078,-0.63671 1.389063,-0.97577 0.763984,-0.33905 2.389619,-1.1064 3.612523,-1.70523 2.353413,-1.152406 2.980536,-1.292752 3.387288,-0.758042 0.138372,0.181901 0.588164,1.402292 0.999532,2.711982 0.411372,1.30968 1.08303,3.42272 1.492569,4.69564 0.40955,1.27291 0.67364,2.4994 0.58686,2.72552 -0.20011,0.52149 -3.576785,2.23613 -4.40365,2.23613 -0.342069,0 -0.863494,-0.26789 -1.158722,-0.59531 z m 23.970402,-2.68419 c -0.0606,-0.0575 -0.69464,-0.18244 -1.40891,-0.27769 -2.39692,-0.31967 -2.27321,0.004 -2.27321,-5.94472 0,-6.153037 -0.04,-6.054363 2.21619,-5.466703 0.81842,0.21317 2.43549,0.526119 3.59349,0.695442 3.08378,0.450908 3.15391,0.536159 2.40806,2.927491 -1.26205,4.04635 -2.47002,7.52065 -2.72586,7.83995 -0.244,0.30451 -1.55436,0.46832 -1.80976,0.22623 z m -13.95377,-0.62311 c -0.12986,-0.25466 -0.91938,-2.59046 -1.75449,-5.19068 -1.26864,-3.950071 -1.45981,-4.784655 -1.16227,-5.074185 0.40581,-0.394875 7.60249,-1.347891 8.26341,-1.094275 0.37327,0.14324 0.42709,0.82762 0.42709,5.43146 0,4.17448 -0.0763,5.33092 -0.36781,5.57283 -0.28215,0.23417 -3.7538,0.80284 -4.9807,0.81587 -0.10402,10e-4 -0.29537,-0.20635 -0.42523,-0.46102 z m 46.37483,-5.68854 -1.04588,-1.12448 1.12448,1.04589 c 1.04575,0.97266 1.24606,1.20307 1.04588,1.20307 -0.0432,0 -0.54924,-0.50601 -1.12448,-1.12448 z m 8.84224,-1.98437 c -0.32911,-0.41965 -0.31975,-0.42901 0.0999,-0.0999 0.44073,0.34565 0.58088,0.56292 0.36312,0.56292 -0.0549,0 -0.2633,-0.20836 -0.46302,-0.46302 z M 69.317172,94.794216 c 0,-0.05494 0.20836,-0.2633 0.463021,-0.463021 0.419645,-0.329106 0.429003,-0.319747 0.0999,0.0999 -0.345644,0.44073 -0.562917,0.580888 -0.562917,0.363125 z m 40.431638,-8.812094 c 0.191,-0.07643 0.4192,-0.06703 0.50712,0.02089 0.0879,0.08792 -0.0684,0.150453 -0.34726,0.138964 -0.30823,-0.0127 -0.37092,-0.07539 -0.15986,-0.159852 z m 3.03121,-0.0026 c 0.25743,-0.06708 0.61462,-0.06267 0.79375,0.0098 0.17913,0.07248 -0.0315,0.127362 -0.46806,0.12197 -0.43656,-0.0054 -0.58312,-0.06469 -0.32569,-0.131774 z m 8.61046,-6.876547 c 0.19099,-0.07643 0.4192,-0.06703 0.50712,0.02089 0.0879,0.08792 -0.0683,0.150453 -0.34727,0.138964 -0.30822,-0.01269 -0.37092,-0.07539 -0.15985,-0.159852 z m -3.05925,-0.266227 c 0.25467,-0.06655 0.67138,-0.06655 0.92605,0 0.25466,0.06655 0.0463,0.121 -0.46303,0.121 -0.50932,0 -0.71768,-0.05445 -0.46302,-0.121 z"
         id="path1268" />
      <path
         style="fill:#000000;stroke-width:0.264583"
         d="m 107.54946,206.92523 c -0.43656,-0.0617 -1.92484,-0.24081 -3.30729,-0.39808 -14.114855,-1.60571 -28.346345,-8.72157 -38.326716,-19.16368 -4.993736,-5.22477 -8.330446,-10.01349 -11.428431,-16.40165 -3.197437,-6.59324 -4.775544,-11.68175 -5.990064,-19.31458 -0.656852,-4.1281 -0.64712,-13.61686 0.01844,-17.99167 3.243638,-21.3204 16.234854,-39.103702 35.486146,-48.575943 10.764896,-5.296667 21.901725,-7.249507 34.925005,-6.124094 14.34823,1.239909 29.04358,8.374795 39.4348,19.146388 4.88564,5.064489 8.3591,10.046469 11.50638,16.503649 3.18644,6.53749 4.76712,11.62809 5.99738,19.31458 0.6615,4.13294 0.65178,13.61098 -0.0184,17.99167 -3.26966,21.37086 -16.20869,39.08078 -35.48886,48.57438 -6.09047,2.99895 -11.94235,4.81658 -19.09681,5.93158 -2.48759,0.38768 -12.05341,0.74171 -13.71153,0.50745 z m 19.71146,-18.90001 v -6.88138 l -14.75052,0.0684 -14.75052,0.0684 -0.07099,6.47729 c -0.03904,3.56252 -0.01302,6.62838 0.05784,6.81303 0.101947,0.26567 3.1948,0.33572 14.82151,0.33572 h 14.69268 z m -50.667706,-6.19586 c 0.83412,-0.40143 3.082581,-2.26331 6.085416,-5.03915 3.819065,-3.53037 5.152893,-4.59613 6.73322,-5.38002 l 1.970723,-0.97754 h 20.664937 20.66494 l 1.97059,0.98226 c 1.57097,0.78307 2.93639,1.87374 6.73309,5.37827 5.21401,4.81276 6.5483,5.67838 8.73125,5.66434 1.70969,-0.011 2.70069,-0.56545 4.31616,-2.41487 7.11803,-8.14884 11.73172,-18.05312 13.4637,-28.90275 0.64318,-4.02903 0.63961,-13.18132 -0.007,-17.03027 -2.7593,-16.43397 -11.57492,-30.01974 -25.31385,-39.011246 -5.10549,-3.341316 -11.80423,-6.223413 -17.59479,-7.570064 -8.2532,-1.919362 -17.68338,-1.97615 -25.796871,-0.155347 -5.447118,1.222424 -12.528283,4.163687 -17.4625,7.253296 -6.729172,4.213538 -12.587944,9.936871 -17.269008,16.869781 -1.998995,2.96062 -5.178708,9.45336 -6.381911,13.0314 -2.417556,7.18922 -3.418882,15.14437 -2.814143,22.35729 0.927791,11.06608 4.60936,20.90074 11.074461,29.58348 2.866337,3.84954 3.608798,4.61585 5.204143,5.37133 1.717952,0.81355 3.322216,0.81029 5.027083,-0.0102 z m 35.454166,-33.76079 c -2.81447,-0.41985 -5.15937,-3.11612 -5.15937,-5.93247 0,-2.2058 1.86629,-4.94576 3.90463,-5.73252 1.21824,-0.47021 3.65419,-0.34621 4.85328,0.24705 l 1.08018,0.53443 8.90544,-2.60311 c 4.89798,-1.43171 11.3462,-3.31844 14.32938,-4.19273 15.68424,-4.59664 18.27697,-5.33261 18.7861,-5.33261 1.48553,0 2.91085,1.51694 2.90874,3.09572 -10e-4,1.02424 -0.84497,2.31052 -1.75365,2.67386 -0.41739,0.16689 -4.44983,1.38568 -8.96098,2.70841 -4.51115,1.32273 -10.34521,3.03597 -12.96458,3.80719 -2.61938,0.77122 -7.94743,2.33295 -11.84011,3.47049 -3.89268,1.13755 -7.0776,2.2017 -7.0776,2.36477 0,0.16307 -0.30953,0.91763 -0.68784,1.6768 -1.16006,2.32795 -3.68011,3.60906 -6.32362,3.21472 z"
         id="path1266" />
    </g>
  </g>
</svg>
