<?xml version="1.0" encoding="UTF-8" standalone="no"?>
<!-- Created with Inkscape (http://www.inkscape.org/) -->

<svg
   width="155.70341mm"
   height="222.41333mm"
   viewBox="0 0 155.70341 222.41333"
   version="1.1"
   id="svg113"
   inkscape:version="1.1.1 (eb90963e84, 2021-10-02)"
   sodipodi:docname="charge_session_consumption.svg"
   xmlns:inkscape="http://www.inkscape.org/namespaces/inkscape"
   xmlns:sodipodi="http://sodipodi.sourceforge.net/DTD/sodipodi-0.dtd"
   xmlns="http://www.w3.org/2000/svg"
   xmlns:svg="http://www.w3.org/2000/svg">
  <sodipodi:namedview
     id="namedview115"
     pagecolor="#505050"
     bordercolor="#eeeeee"
     borderopacity="1"
     inkscape:pageshadow="0"
     inkscape:pageopacity="0"
     inkscape:pagecheckerboard="0"
     inkscape:document-units="mm"
     showgrid="false"
     inkscape:zoom="0.59776235"
     inkscape:cx="283.55751"
     inkscape:cy="462.55841"
     inkscape:window-width="1600"
     inkscape:window-height="838"
     inkscape:window-x="0"
     inkscape:window-y="34"
     inkscape:window-maximized="1"
     inkscape:current-layer="layer1" />
  <defs
     id="defs110" />
  <g
     inkscape:label="Layer 1"
     inkscape:groupmode="layer"
     id="layer1"
     transform="translate(-30.110251,-26.102459)">
    <g
       id="g48"
       transform="matrix(0.46367328,0,0,0.46367328,-10.727217,18.623568)">
      <path
         style="fill:#d1d1d1"
         d="m 248.75,479.33772 c 0.6875,-0.27741 1.8125,-0.27741 2.5,0 0.6875,0.27741 0.125,0.50439 -1.25,0.50439 -1.375,0 -1.9375,-0.22698 -1.25,-0.50439 z m 12,0 c 0.6875,-0.27741 1.8125,-0.27741 2.5,0 0.6875,0.27741 0.125,0.50439 -1.25,0.50439 -1.375,0 -1.9375,-0.22698 -1.25,-0.50439 z M 177.92431,471.25 175.5,468.5 l 2.75,2.42431 c 2.57029,2.26589 3.20859,3.07569 2.42431,3.07569 -0.17912,0 -1.41662,-1.2375 -2.75,-2.75 z M 333,471.5 c 1.29175,-1.375 2.57363,-2.5 2.84863,-2.5 0.275,0 -0.55688,1.125 -1.84863,2.5 -1.29175,1.375 -2.57363,2.5 -2.84863,2.5 -0.275,0 0.55688,-1.125 1.84863,-2.5 z m -95.12756,-29.25 c -1.24387,-1.58606 -1.2085,-1.62143 0.37756,-0.37756 1.66575,1.30637 2.19548,2.12756 1.37244,2.12756 -0.20765,0 -0.99515,-0.7875 -1.75,-1.75 z M 272,443.62244 c 0,-0.20765 0.7875,-0.99515 1.75,-1.75 1.58606,-1.24387 1.62143,-1.2085 0.37756,0.37756 C 272.82119,443.91575 272,444.44548 272,443.62244 Z M 178,424.5 c 1.29175,-1.375 2.57363,-2.5 2.84863,-2.5 0.275,0 -0.55688,1.125 -1.84863,2.5 -1.29175,1.375 -2.57363,2.5 -2.84863,2.5 -0.275,0 0.55688,-1.125 1.84863,-2.5 z m 154.92431,-0.25 -2.42431,-2.75 2.75,2.42431 c 2.57029,2.26589 3.20859,3.07569 2.42431,3.07569 -0.17912,0 -1.41662,-1.2375 -2.75,-2.75 z m -151.05187,-80 c -1.24387,-1.58606 -1.2085,-1.62143 0.37756,-0.37756 0.9625,0.75485 1.75,1.54235 1.75,1.75 0,0.82304 -0.82119,0.29331 -2.12756,-1.37244 z M 332,341.68709 c 0,-0.1721 1.4625,-1.6346 3.25,-3.25 l 3.25,-2.93709 -2.93709,3.25 C 332.82513,341.77946 332,342.45965 332,341.68709 Z M 343,330.5 c 1.29175,-1.375 2.57363,-2.5 2.84863,-2.5 0.275,0 -0.55688,1.125 -1.84863,2.5 -1.29175,1.375 -2.57363,2.5 -2.84863,2.5 -0.275,0 0.55688,-1.125 1.84863,-2.5 z m -178.12756,-3.25 c -1.24387,-1.58606 -1.2085,-1.62143 0.37756,-0.37756 0.9625,0.75485 1.75,1.54235 1.75,1.75 0,0.82304 -0.82119,0.29331 -2.12756,-1.37244 z m 20.58051,-3.5 -3.95295,-4.25 4.25,3.95295 c 3.95246,3.6762 4.70953,4.54705 3.95295,4.54705 -0.16338,0 -2.07588,-1.9125 -4.25,-4.25 z m -49.01586,-21 -2.93709,-3.25 3.25,2.93709 c 1.7875,1.6154 3.25,3.0779 3.25,3.25 0,0.77256 -0.82513,0.0924 -3.56291,-2.93709 z M 373,304.62244 c 0,-0.20765 0.7875,-0.99515 1.75,-1.75 1.58606,-1.24387 1.62143,-1.2085 0.37756,0.37756 C 373.82119,304.91575 373,305.44548 373,304.62244 Z m -112.1875,-1.30555 c 0.72187,-0.28887 1.58438,-0.25335 1.91667,0.0789 0.33229,0.33229 -0.25834,0.56864 -1.3125,0.52522 -1.16495,-0.048 -1.4019,-0.28494 -0.60417,-0.60416 z M 368,285.62244 c 0,-0.20765 0.7875,-0.99515 1.75,-1.75 1.58606,-1.24387 1.62143,-1.2085 0.37756,0.37756 C 368.82119,285.91575 368,286.44548 368,285.62244 Z m -32,-13 c 0,-0.20765 0.7875,-0.99515 1.75,-1.75 1.58606,-1.24387 1.62143,-1.2085 0.37756,0.37756 C 336.82119,272.91575 336,273.44548 336,272.62244 Z M 342.5,266 c 0.99549,-1.1 2.03498,-2 2.30998,-2 0.275,0 -0.31449,0.9 -1.30998,2 -0.99549,1.1 -2.03498,2 -2.30998,2 -0.275,0 0.31449,-0.9 1.30998,-2 z m -175.62756,-1.75 c -1.24387,-1.58606 -1.2085,-1.62143 0.37756,-0.37756 0.9625,0.75485 1.75,1.54235 1.75,1.75 0,0.82304 -0.82119,0.29331 -2.12756,-1.37244 z M 407.15789,191 c 0,-1.375 0.22698,-1.9375 0.50439,-1.25 0.27741,0.6875 0.27741,1.8125 0,2.5 -0.27741,0.6875 -0.50439,0.125 -0.50439,-1.25 z m -271,-1 c 0,-1.375 0.22698,-1.9375 0.50439,-1.25 0.27741,0.6875 0.27741,1.8125 0,2.5 -0.27741,0.6875 -0.50439,0.125 -0.50439,-1.25 z m 239,-1 c 0,-1.375 0.22698,-1.9375 0.50439,-1.25 0.27741,0.6875 0.27741,1.8125 0,2.5 -0.27741,0.6875 -0.50439,0.125 -0.50439,-1.25 z M 136.07895,178.41667 c 0.048,-1.16495 0.28494,-1.4019 0.60416,-0.60417 0.28887,0.72187 0.25335,1.58437 -0.0789,1.91667 -0.3323,0.33229 -0.56864,-0.25834 -0.52522,-1.3125 z m 239,0 c 0.048,-1.16495 0.28494,-1.4019 0.60416,-0.60417 0.28887,0.72187 0.25335,1.58437 -0.0789,1.91667 -0.33229,0.33229 -0.56864,-0.25834 -0.52522,-1.3125 z m -271,-1 c 0.048,-1.16495 0.28494,-1.4019 0.60416,-0.60417 0.28887,0.72187 0.25335,1.58437 -0.0789,1.91667 -0.3323,0.33229 -0.56864,-0.25834 -0.52522,-1.3125 z M 407.15789,177 c 0,-1.375 0.22698,-1.9375 0.50439,-1.25 0.27741,0.6875 0.27741,1.8125 0,2.5 -0.27741,0.6875 -0.50439,0.125 -0.50439,-1.25 z M 143.5,82 c 0.99549,-1.1 2.03498,-2 2.30998,-2 0.275,0 -0.31449,0.9 -1.30998,2 -0.99549,1.1 -2.03498,2 -2.30998,2 -0.275,0 0.31449,-0.9 1.30998,-2 z M 374.45295,64.75 370.5,60.5 l 4.25,3.952948 c 2.3375,2.174121 4.25,4.086621 4.25,4.25 0,0.756577 -0.87085,-4.9e-4 -4.54705,-3.952948 z M 261.8125,64.316886 c 0.72187,-0.288871 1.58438,-0.253344 1.91667,0.07895 0.33229,0.332292 -0.25834,0.568641 -1.3125,0.52522 -1.16495,-0.04798 -1.4019,-0.284941 -0.60417,-0.604167 z M 248.26903,32.307009 c 0.97297,-0.253543 2.32297,-0.236869 3,0.03705 0.67703,0.273923 -0.11903,0.481368 -1.76903,0.460988 -1.65,-0.02038 -2.20394,-0.244498 -1.23097,-0.498042 z m 14.54347,0.0099 c 0.72187,-0.288871 1.58438,-0.253344 1.91667,0.07895 0.33229,0.332292 -0.25834,0.568641 -1.3125,0.52522 -1.16495,-0.04798 -1.4019,-0.284941 -0.60417,-0.604167 z"
         id="path62" />
      <path
         style="fill:#b1b1b1"
         d="m 189,436.62244 c 0,-0.20765 0.7875,-0.99515 1.75,-1.75 1.58606,-1.24387 1.62143,-1.2085 0.37756,0.37756 C 189.82119,436.91575 189,437.44548 189,436.62244 Z"
         id="path60" />
      <path
         style="fill:#909090"
         d="m 320,461.62244 c 0,-0.20765 0.7875,-0.99515 1.75,-1.75 1.58606,-1.24387 1.62143,-1.2085 0.37756,0.37756 C 320.82119,461.91575 320,462.44548 320,461.62244 Z m -2,-129 c 0,-0.20765 0.7875,-0.99515 1.75,-1.75 1.58606,-1.24387 1.62143,-1.2085 0.37756,0.37756 C 318.82119,332.91575 318,333.44548 318,332.62244 Z m 15,-15 c 0,-0.20765 0.7875,-0.99515 1.75,-1.75 1.58606,-1.24387 1.62143,-1.2085 0.37756,0.37756 C 333.82119,317.91575 333,318.44548 333,317.62244 Z M 104.07895,195.41667 c 0.048,-1.16495 0.28494,-1.4019 0.60416,-0.60417 0.28887,0.72187 0.25335,1.58437 -0.0789,1.91667 -0.3323,0.33229 -0.56864,-0.25834 -0.52522,-1.3125 z M 362.92431,76.25 360.5,73.5 l 2.75,2.424314 C 365.82029,78.190201 366.45859,79 365.67431,79 c -0.17912,0 -1.41662,-1.2375 -2.75,-2.75 z"
         id="path58" />
      <path
         style="fill:#6e6e6e"
         d="m 147.87244,291.25 c -1.24387,-1.58606 -1.2085,-1.62143 0.37756,-0.37756 0.9625,0.75485 1.75,1.54235 1.75,1.75 0,0.82304 -0.82119,0.29331 -2.12756,-1.37244 z M 88.078947,172.41667 c 0.04798,-1.16495 0.284941,-1.4019 0.604167,-0.60417 0.288871,0.72187 0.253344,1.58437 -0.07895,1.91667 -0.332292,0.33229 -0.568641,-0.25834 -0.52522,-1.3125 z M 354.87244,91.25 C 353.62857,89.663944 353.66394,89.628574 355.25,90.872445 356.91575,92.178814 357.44548,93 356.62244,93 c -0.20765,0 -0.99515,-0.7875 -1.75,-1.75 z"
         id="path56" />
      <path
         style="fill:#4e4e4e"
         d="M 176.92431,338.25 174.5,335.5 l 2.75,2.42431 c 2.57029,2.26589 3.20859,3.07569 2.42431,3.07569 -0.17912,0 -1.41662,-1.2375 -2.75,-2.75 z m -6.51932,-6.5 -1.90499,-2.25 2.25,1.90499 c 2.11444,1.79022 2.70524,2.59501 1.90499,2.59501 -0.18976,0 -1.20226,-1.0125 -2.25,-2.25 z m 21.46745,-0.5 c -1.24387,-1.58606 -1.2085,-1.62143 0.37756,-0.37756 0.9625,0.75485 1.75,1.54235 1.75,1.75 0,0.82304 -0.82119,0.29331 -2.12756,-1.37244 z M 326.5,324 c 2.14824,-2.2 4.1309,-4 4.4059,-4 0.275,0 -1.25766,1.8 -3.4059,4 -2.14824,2.2 -4.1309,4 -4.4059,4 -0.275,0 1.25766,-1.8 3.4059,-4 z m 37,-33 c 2.14824,-2.2 4.1309,-4 4.4059,-4 0.275,0 -1.25766,1.8 -3.4059,4 -2.14824,2.2 -4.1309,4 -4.4059,4 -0.275,0 1.25766,-1.8 3.4059,-4 z M 144.40499,287.75 142.5,285.5 l 2.25,1.90499 c 2.11444,1.79022 2.70524,2.59501 1.90499,2.59501 -0.18976,0 -1.20226,-1.0125 -2.25,-2.25 z m 17.46745,-5.5 c -1.24387,-1.58606 -1.2085,-1.62143 0.37756,-0.37756 0.9625,0.75485 1.75,1.54235 1.75,1.75 0,0.82304 -0.82119,0.29331 -2.12756,-1.37244 z M 349.5,282 c 0.99549,-1.1 2.03498,-2 2.30998,-2 0.275,0 -0.31449,0.9 -1.30998,2 -0.99549,1.1 -2.03498,2 -2.30998,2 -0.275,0 0.31449,-0.9 1.30998,-2 z m -192.62756,-4.75 c -1.24387,-1.58606 -1.2085,-1.62143 0.37756,-0.37756 0.9625,0.75485 1.75,1.54235 1.75,1.75 0,0.82304 -0.82119,0.29331 -2.12756,-1.37244 z M 353,278.62244 c 0,-0.20765 0.7875,-0.99515 1.75,-1.75 1.58606,-1.24387 1.62143,-1.2085 0.37756,0.37756 C 353.82119,278.91575 353,279.44548 353,278.62244 Z M 423.15789,175 c 0,-1.375 0.22698,-1.9375 0.50439,-1.25 0.27741,0.6875 0.27741,1.8125 0,2.5 -0.27741,0.6875 -0.50439,0.125 -0.50439,-1.25 z M 350.92431,87.25 348.5,84.5 l 2.75,2.424314 c 1.5125,1.333373 2.75,2.570873 2.75,2.75 0,0.784274 -0.8098,0.145975 -3.07569,-2.424314 z M 137.5,65 c 2.14824,-2.2 4.1309,-4 4.4059,-4 0.275,0 -1.25766,1.8 -3.4059,4 -2.14824,2.2 -4.1309,4 -4.4059,4 -0.275,0 1.25766,-1.8 3.4059,-4 z"
         id="path54" />
      <path
         style="fill:#2f2f2f"
         d="m 248.26903,495.30701 c 0.97297,-0.25354 2.32297,-0.23687 3,0.0371 0.67703,0.27393 -0.11903,0.48137 -1.76903,0.46099 -1.65,-0.0204 -2.20394,-0.2445 -1.23097,-0.49804 z m 13,0 c 0.97297,-0.25354 2.32297,-0.23687 3,0.0371 0.67703,0.27393 -0.11903,0.48137 -1.76903,0.46099 -1.65,-0.0204 -2.20394,-0.2445 -1.23097,-0.49804 z M 178.43709,470.75 175.5,467.5 l 3.25,2.93709 c 3.02946,2.73778 3.70965,3.56291 2.93709,3.56291 -0.1721,0 -1.6346,-1.4625 -3.25,-3.25 z M 330,473.68709 c 0,-0.1721 1.4625,-1.6346 3.25,-3.25 l 3.25,-2.93709 -2.93709,3.25 C 330.82513,473.77946 330,474.45965 330,473.68709 Z M 168.07895,445.41667 c 0.048,-1.16495 0.28494,-1.4019 0.60416,-0.60417 0.28887,0.72187 0.25335,1.58438 -0.0789,1.91667 -0.3323,0.33229 -0.56864,-0.25834 -0.52522,-1.3125 z m 175,0 c 0.048,-1.16495 0.28494,-1.4019 0.60416,-0.60417 0.28887,0.72187 0.25335,1.58438 -0.0789,1.91667 -0.33229,0.33229 -0.56864,-0.25834 -0.52522,-1.3125 z M 176,427.62244 c 0,-0.20765 0.7875,-0.99515 1.75,-1.75 1.58606,-1.24387 1.62143,-1.2085 0.37756,0.37756 C 176.82119,427.91575 176,428.44548 176,427.62244 Z M 333.87244,426.25 c -1.24387,-1.58606 -1.2085,-1.62143 0.37756,-0.37756 1.66575,1.30637 2.19548,2.12756 1.37244,2.12756 -0.20765,0 -0.99515,-0.7875 -1.75,-1.75 z m -153,-84 c -1.24387,-1.58606 -1.2085,-1.62143 0.37756,-0.37756 0.9625,0.75485 1.75,1.54235 1.75,1.75 0,0.82304 -0.82119,0.29331 -2.12756,-1.37244 z M 338,334.5 c 2.98742,-3.025 5.65668,-5.5 5.93168,-5.5 0.275,0 -1.94426,2.475 -4.93168,5.5 -2.98742,3.025 -5.65668,5.5 -5.93168,5.5 -0.275,0 1.94426,-2.475 4.93168,-5.5 z m -171.12756,-6.25 c -1.24387,-1.58606 -1.2085,-1.62143 0.37756,-0.37756 0.9625,0.75485 1.75,1.54235 1.75,1.75 0,0.82304 -0.82119,0.29331 -2.12756,-1.37244 z m 18.0934,-4 -5.46584,-5.75 5.75,5.46584 c 3.1625,3.00621 5.75,5.59371 5.75,5.75 0,0.74225 -0.95622,-0.12391 -6.03416,-5.46584 z M 248.75,319.33772 c 0.6875,-0.27741 1.8125,-0.27741 2.5,0 0.6875,0.27741 0.125,0.50439 -1.25,0.50439 -1.375,0 -1.9375,-0.22698 -1.25,-0.50439 z m 12,0 c 0.6875,-0.27741 1.8125,-0.27741 2.5,0 0.6875,0.27741 0.125,0.50439 -1.25,0.50439 -1.375,0 -1.9375,-0.22698 -1.25,-0.50439 z M 139.87244,305.25 c -1.24387,-1.58606 -1.2085,-1.62143 0.37756,-0.37756 0.9625,0.75485 1.75,1.54235 1.75,1.75 0,0.82304 -0.82119,0.29331 -2.12756,-1.37244 z M 374,302.5 c 1.86578,-1.925 3.61733,-3.5 3.89233,-3.5 0.275,0 -1.02655,1.575 -2.89233,3.5 -1.86578,1.925 -3.61733,3.5 -3.89233,3.5 -0.275,0 1.02655,-1.575 2.89233,-3.5 z M 133.94617,299.25 130.5,295.5 l 3.75,3.44617 c 3.49042,3.20761 4.20979,4.05383 3.44617,4.05383 -0.16711,0 -1.85461,-1.6875 -3.75,-3.75 z m 19.45882,-2.5 -1.90499,-2.25 2.25,1.90499 c 2.11444,1.79022 2.70524,2.59501 1.90499,2.59501 -0.18976,0 -1.20226,-1.0125 -2.25,-2.25 z M 357,297.62244 c 0,-0.20765 0.7875,-0.99515 1.75,-1.75 1.58606,-1.24387 1.62143,-1.2085 0.37756,0.37756 C 357.82119,297.91575 357,298.44548 357,297.62244 Z M 170.46241,268.75 165.5,263.5 l 5.25,4.96241 c 4.87839,4.61116 5.7086,5.53759 4.96241,5.53759 -0.15818,0 -2.52068,-2.3625 -5.25,-5.25 z M 340.5,269 c 2.14824,-2.2 4.1309,-4 4.4059,-4 0.275,0 -1.25766,1.8 -3.4059,4 -2.14824,2.2 -4.1309,4 -4.4059,4 -0.275,0 1.25766,-1.8 3.4059,-4 z M 88.078947,191.41667 c 0.04798,-1.16495 0.284941,-1.4019 0.604167,-0.60417 0.288871,0.72187 0.253344,1.58437 -0.07895,1.91667 -0.332292,0.33229 -0.568641,-0.25834 -0.52522,-1.3125 z m 32.000003,-1 c 0.048,-1.16495 0.28494,-1.4019 0.60416,-0.60417 0.28887,0.72187 0.25335,1.58437 -0.0789,1.91667 -0.3323,0.33229 -0.56864,-0.25834 -0.52522,-1.3125 z m 271,0 c 0.048,-1.16495 0.28494,-1.4019 0.60416,-0.60417 0.28887,0.72187 0.25335,1.58437 -0.0789,1.91667 -0.33229,0.33229 -0.56864,-0.25834 -0.52522,-1.3125 z M 423.232,189 c 0,-1.925 0.2058,-2.7125 0.45733,-1.75 0.25152,0.9625 0.25152,2.5375 0,3.5 -0.25153,0.9625 -0.45733,0.175 -0.45733,-1.75 z m -32.03705,-10.5 c 0.0204,-1.65 0.2445,-2.20394 0.49804,-1.23097 0.25354,0.97297 0.23687,2.32297 -0.0371,3 -0.27393,0.67703 -0.48137,-0.11903 -0.46099,-1.76903 z m 31.96294,0.5 c 0,-1.375 0.22698,-1.9375 0.50439,-1.25 0.27741,0.6875 0.27741,1.8125 0,2.5 -0.27741,0.6875 -0.50439,0.125 -0.50439,-1.25 z M 88.078947,177.41667 c 0.04798,-1.16495 0.284941,-1.4019 0.604167,-0.60417 0.288871,0.72187 0.253344,1.58437 -0.07895,1.91667 -0.332292,0.33229 -0.568641,-0.25834 -0.52522,-1.3125 z m 32.000003,0 c 0.048,-1.16495 0.28494,-1.4019 0.60416,-0.60417 0.28887,0.72187 0.25335,1.58437 -0.0789,1.91667 -0.3323,0.33229 -0.56864,-0.25834 -0.52522,-1.3125 z M 170.5,99 c 2.70865,-2.75 5.14982,-5 5.42482,-5 0.275,0 -1.71617,2.25 -4.42482,5 -2.70865,2.75 -5.14982,5 -5.42482,5 -0.275,0 1.71617,-2.25 4.42482,-5 z m 172.42431,2.25 -2.42431,-2.75 2.75,2.42431 c 1.5125,1.33338 2.75,2.57088 2.75,2.75 0,0.78428 -0.8098,0.14598 -3.07569,-2.42431 z m -5.51932,-5.5 -1.90499,-2.25 2.25,1.904988 C 339.86444,97.195206 340.45524,98 339.65499,98 c -0.18976,0 -1.20226,-1.0125 -2.25,-2.25 z M 159.5,88 c 0.99549,-1.1 2.03498,-2 2.30998,-2 0.275,0 -0.31449,0.9 -1.30998,2 -0.99549,1.1 -2.03498,2 -2.30998,2 -0.275,0 0.31449,-0.9 1.30998,-2 z M 148,76.5 c 2.98742,-3.025 5.65668,-5.5 5.93168,-5.5 0.275,0 -1.94426,2.475 -4.93168,5.5 -2.98742,3.025 -5.65668,5.5 -5.93168,5.5 -0.275,0 1.94426,-2.475 4.93168,-5.5 z M 373.46241,64.75 368.5,59.5 l 5.25,4.962408 c 2.8875,2.729325 5.25,5.091825 5.25,5.25 0,0.746192 -0.92643,-0.08401 -5.53759,-4.962408 z M 248.8125,48.316886 c 0.72187,-0.288871 1.58437,-0.253344 1.91667,0.07895 0.33229,0.332292 -0.25834,0.568641 -1.3125,0.52522 -1.16495,-0.04798 -1.4019,-0.284941 -0.60417,-0.604167 z m 11.9375,0.02083 c 0.6875,-0.277412 1.8125,-0.277412 2.5,0 0.6875,0.277413 0.125,0.504386 -1.25,0.504386 -1.375,0 -1.9375,-0.226973 -1.25,-0.504386 z m -13,-32 c 0.6875,-0.277412 1.8125,-0.277412 2.5,0 0.6875,0.277413 0.125,0.504386 -1.25,0.504386 -1.375,0 -1.9375,-0.226973 -1.25,-0.504386 z m 15,0 c 0.6875,-0.277412 1.8125,-0.277412 2.5,0 0.6875,0.277413 0.125,0.504386 -1.25,0.504386 -1.375,0 -1.9375,-0.226973 -1.25,-0.504386 z"
         id="path52" />
      <path
         style="fill:#000000"
         d="m 243,494.99153 c -19.07758,-1.49693 -38.99374,-7.19485 -51.8513,-14.83441 -8.11073,-4.81915 -17.50409,-14.44564 -20.3304,-20.83499 -3.05179,-6.89908 -2.82483,-16.74882 0.54419,-23.61726 6.38139,-13.00974 22.65834,-23.97789 44.84093,-30.21585 5.59388,-1.57305 5.68389,-1.65557 4.68673,-4.29644 -1.98784,-5.2646 -10.28897,-19.85482 -17.48224,-30.7271 C 190.34854,350.72687 177.74047,336.90871 156.5,319.05549 127.50236,294.68214 113.0282,276.20648 101.45931,248.79831 92.630861,227.88261 88.662184,207.2978 88.773632,183 89.174707,95.557385 156.08567,24.140844 244.32366,16.975705 c 17.6962,-1.436975 34.31305,0.03373 53.16742,4.705681 29.59879,7.334327 53.45522,21.117052 76.58285,44.244682 19.90256,19.902556 31.36692,38.070882 40.33795,63.926172 15.74631,45.38227 10.43475,97.48647 -14.18733,139.17159 -10.39312,17.59555 -22.6431,31.45872 -42.22455,47.78511 -19.40884,16.18247 -35.05665,33.06529 -47.90975,51.69106 -5.47606,7.93551 -16.49312,26.82662 -18.63625,31.95585 l -1.42506,3.41065 5.73553,1.61319 c 22.21857,6.24926 38.48791,17.20782 44.87304,30.22518 3.64769,7.43655 3.65129,17.14062 0.009,24.58493 -3.30182,6.74867 -13.03579,16.18263 -21.64664,20.97945 -18.57729,10.34879 -48.9963,15.84113 -76,13.72228 z m 45.81756,-18.39699 c 30.88855,-7.77308 46.19518,-23.61366 36.1788,-37.44086 -5.31783,-7.34106 -14.75217,-13.11385 -28.49636,-17.43669 -13.21493,-4.15637 -12.19267,-4.51137 -15.98797,5.55219 -3.54706,9.40534 -5.20584,12.39986 -8.75569,15.80625 -8.41561,8.07552 -23.76492,7.75919 -32.09919,-0.66152 -3.30989,-3.34423 -4.81744,-6.07183 -7.78335,-14.08246 -1.18749,-3.2073 -2.51882,-6.80466 -2.95849,-7.99415 l -0.79942,-2.16269 -7.80795,1.9916 c -15.65519,3.99322 -30.81437,13.11108 -34.88472,20.98226 -7.91655,15.30893 14.26474,32.28695 49.43928,37.84186 3.10063,0.48966 14.1875,0.73511 24.6375,0.54545 16.40656,-0.29777 20.40831,-0.69924 29.31756,-2.94124 z M 261.3435,431.74741 c 1.23893,-1.23893 3.96571,-6.97643 6.05952,-12.75 4.71601,-13.00418 15.73861,-36.14154 22.75245,-47.7593 13.81863,-22.88925 33.60486,-45.33744 58.29745,-66.14053 8.2241,-6.92867 18.07979,-16.19758 21.90153,-20.59758 17.06336,-19.64517 28.1443,-41.446 34.30896,-67.5 3.07138,-12.98074 4.29353,-39.89361 2.41253,-53.12654 C 398.27651,101.96876 354.19592,52.174507 294.5,36.705588 c -15.93158,-4.128329 -24.9131,-5.031649 -43.87346,-4.412593 -25.08185,0.818923 -41.57603,5.053399 -63.84927,16.391729 -14.72403,7.495357 -26.39329,15.990852 -38.24749,27.845052 -20.99571,20.995706 -35.02783,46.764814 -41.7056,76.589724 -2.03597,9.09328 -2.32079,12.98459 -2.29682,31.3805 0.0233,17.86293 0.35232,22.44645 2.20269,30.68276 3.18981,14.19836 6.63257,23.84447 13.31876,37.31724 10.19223,20.53747 22.66165,35.57622 43.90268,52.94881 24.32701,19.89656 44.54919,43.04143 59.19651,67.75212 8.47809,14.30293 13.30749,24.49789 20.39881,43.06222 3.11555,8.15621 6.34298,14.98428 7.55651,15.98685 2.94936,2.43663 7.52557,2.21202 10.24018,-0.50259 z M 232,344 v -8 h 8 8 v 8 8 h -8 -8 z m 32,0 v -8 h 8 8 v 8 8 h -8 -8 z M 243.63552,318.9628 C 182.94833,313.39708 133.07699,267.33816 122.40525,207 c -2.20836,-12.48607 -2.20836,-33.51393 0,-46 8.68693,-49.11603 43.54921,-89.660552 90.64361,-105.417716 14.69068,-4.915307 26.89635,-6.859311 42.95114,-6.840855 37.21145,0.04278 69.0505,13.293919 95.50946,39.750216 26.4053,26.402645 39.61389,58.161865 39.7217,95.508355 0.10872,37.66099 -14.65514,72.0952 -42.1155,98.2273 -28.10277,26.74343 -66.94188,40.2699 -105.48014,36.7355 z m 41.43825,-18.24309 c 43.86862,-11.52461 76.17478,-43.83473 87.63521,-87.64594 3.42774,-13.10362 4.29508,-36.44167 1.84239,-49.57377 C 363.58835,104.80237 314.97351,64 256,64 c -67.03694,0 -120,52.96306 -120,120 0,32.61105 12.18526,62.23133 34.97696,85.02304 16.69598,16.69598 37.29622,27.74734 61.52304,33.00512 13.2872,2.88363 39.05797,2.24225 52.57377,-1.30845 z m -48.05406,-22.0113 c -4.78326,-2.40643 -4.98921,-3.98671 -5.00497,-38.4033 L 232,208.11022 210.52565,207.80511 c -20.56878,-0.29224 -21.5668,-0.39765 -23.66667,-2.49955 -1.25124,-1.25246 -2.19231,-3.44335 -2.19231,-5.10387 0,-3.92182 72.56989,-109.049453 76.62792,-111.006256 2.22468,-1.072755 3.18886,-1.072755 5.42615,0 5.06519,2.428712 5.24862,3.772031 5.26452,38.554566 L 272,160 l 24.25,0.0147 c 26.23066,0.016 28.20127,0.35661 30.56372,5.28362 1.09175,2.27691 1.08288,3.20254 -0.0525,5.47843 -1.50625,3.01935 -77.66941,102.42989 -81.11244,105.8705 -2.90279,2.90074 -5.65397,3.55788 -8.62909,2.06112 z M 277.39128,211 303.90203,176.5 282.47637,176 c -20.62568,-0.48133 -21.51062,-0.58497 -23.70102,-2.77564 -2.21393,-2.2142 -2.28885,-2.94117 -2.77535,-26.93089 l -0.5,-24.65526 -24.16678,34.9309 -24.16678,34.93089 17.89173,0.5 c 24.46613,0.68373 22.35768,-2.16185 22.74091,30.69124 0.25561,21.91292 0.50126,25.4335 1.69026,24.22397 C 250.2545,246.13684 262.81037,229.975 277.39128,211 Z"
         id="path50" />
    </g>
  </g>
</svg>
