<?xml version="1.0" encoding="UTF-8" standalone="no"?>
<!-- Created with Inkscape (http://www.inkscape.org/) -->

<svg
   width="145.40601mm"
   height="141.50044mm"
   viewBox="0 0 145.40601 141.50044"
   version="1.1"
   id="svg6926"
   inkscape:version="1.1.1 (eb90963e84, 2021-10-02)"
   sodipodi:docname="charge_mode.svg"
   xmlns:inkscape="http://www.inkscape.org/namespaces/inkscape"
   xmlns:sodipodi="http://sodipodi.sourceforge.net/DTD/sodipodi-0.dtd"
   xmlns="http://www.w3.org/2000/svg"
   xmlns:svg="http://www.w3.org/2000/svg">
  <sodipodi:namedview
     id="namedview6928"
     pagecolor="#505050"
     bordercolor="#eeeeee"
     borderopacity="1"
     inkscape:pageshadow="0"
     inkscape:pageopacity="0"
     inkscape:pagecheckerboard="0"
     inkscape:document-units="mm"
     showgrid="false"
     inkscape:zoom="0.59776235"
     inkscape:cx="285.23041"
     inkscape:cy="327.05305"
     inkscape:window-width="1600"
     inkscape:window-height="838"
     inkscape:window-x="0"
     inkscape:window-y="34"
     inkscape:window-maximized="1"
     inkscape:current-layer="layer1" />
  <defs
     id="defs6923" />
  <g
     inkscape:label="Layer 1"
     inkscape:groupmode="layer"
     id="layer1"
     transform="translate(-29.861221,-61.929525)">
    <path
       style="fill:#48b902;stroke:none;stroke-width:0.208088"
       d="m 175.1839,61.929525 c -2.47896,3.90458 -6.60848,6.62451 -10.61253,8.787594 -8.09799,4.374861 -17.06412,7.001151 -26.01111,8.988192 -18.81477,4.178842 -38.1275,5.642747 -56.808261,10.548444 -10.03051,2.633989 -20.314056,5.939481 -28.71627,12.231255 -12.855524,9.62682 -15.443941,24.45107 -14.782426,39.55874 0.387669,8.85273 2.173487,17.34316 9.164026,23.30595 -2.736993,1.15698 -5.263193,4.02569 -7.162627,6.24267 -4.328458,5.0524 -7.783358,10.77734 -9.406868,17.27138 -0.467992,1.8728 -1.375675,4.74879 -0.803014,6.65885 0.501493,1.67241 2.543677,3.27468 3.665694,4.57795 0.973232,1.13034 1.946047,2.66854 3.302371,3.32942 0.0011,-8.82317 3.43513,-18.83351 8.473587,-26.01111 1.264974,-1.80205 2.663122,-3.43992 4.219835,-4.99414 0.458629,-0.458 1.126385,-1.3996 1.813495,-1.50198 0.589516,-0.0876 1.143448,0.7204 1.516759,1.0675 1.222939,1.13741 2.556165,2.15455 3.952857,3.06806 4.472871,2.92531 9.634725,4.89258 14.774313,6.28283 17.051013,4.61249 35.979189,4.1599 52.646489,-1.77729 30.4303,-10.83998 43.41295,-45.13344 46.96857,-74.768 0.72311,-6.025214 0.84319,-12.054174 1.10808,-18.103736 0.24304,-5.548482 0.50274,-11.136501 1.2968,-16.647111 0.32525,-2.257141 1.85345,-5.965078 1.40023,-8.115468 m -13.73386,21.641246 c -3.39435,4.818507 -8.80965,8.98965 -13.31769,12.744822 -10.17513,8.475877 -21.40111,15.157197 -33.29422,20.911897 -9.67073,4.67929 -19.734316,8.51291 -29.132446,13.75884 -13.45898,7.51284 -24.090865,18.10872 -32.669955,30.82586 h -0.208088 c 2.577805,-9.42496 10.380931,-18.14576 17.687557,-24.22445 17.037696,-14.17377 38.790682,-20.97994 58.056802,-31.39958 7.39319,-3.99843 14.65799,-8.235533 21.43315,-13.22925 3.95952,-2.918447 7.45332,-6.576442 11.44489,-9.388139 m -53.89502,8.323557 v 0.208088 c -12.829306,5.342892 -23.426646,17.665504 -24.554486,31.837604 -0.994044,-2.36909 0.17583,-6.70629 0.66588,-9.15591 2.38241,-11.90956 12.24749,-20.196488 23.888606,-22.889782 M 69.474753,103.13113 v 0.20809 c -3.414947,2.3231 -6.558337,5.04844 -9.328626,8.11546 -11.127137,12.31928 -12.104531,28.38583 -12.104531,44.11484 -1.914417,-3.57454 -1.8728,-9.35358 -1.8728,-13.31768 0,-11.83152 4.025064,-23.38066 12.485334,-31.8376 2.894308,-2.89306 6.807836,-6.12718 10.820623,-7.28311 m 94.888527,0.83235 c -4.00009,6.95329 -12.48928,11.71749 -20.39271,12.25873 -4.20672,0.28799 -7.96543,-0.67733 -12.06915,-1.23001 v -0.20809 c 7.95981,0.0221 15.14533,0.33606 22.4736,-3.60181 3.72,-1.99911 6.58476,-4.8235 9.98826,-7.21882 m -14.77431,28.09201 c -2.80753,3.9747 -8.34332,6.29385 -12.69342,8.08654 -13.97525,5.75928 -31.04083,4.97707 -44.947196,-0.38725 v -0.20809 c 4.54383,0.66859 8.898496,1.95354 13.525776,2.27046 15.40253,1.05459 30.68541,-2.31333 44.11484,-9.76166 m 1.66472,13.52578 c -3.48341,8.07322 -13.55471,13.45252 -21.22507,16.7347 -15.83598,6.77663 -33.852936,8.27487 -50.773688,5.65066 -5.624228,-0.87231 -10.983766,-2.52537 -16.439023,-4.07355 v -0.20809 c 6.392282,0.50878 12.728381,1.83098 19.144178,2.27046 16.461496,1.12722 33.413873,-0.60637 48.692793,-7.14536 4.82975,-2.06715 9.48636,-4.76544 13.73387,-7.85014 2.33559,-1.69613 4.42959,-3.85402 6.86694,-5.37868 z"
       id="path2692"
       sodipodi:nodetypes="ccccccccccccsccccccccsccccccccssccccccccccscccccccccsccccccccccccc" />
  </g>
</svg>
