<?xml version="1.0" encoding="UTF-8" standalone="no"?>
<!-- Created with Inkscape (http://www.inkscape.org/) -->

<svg
   width="120.74874mm"
   height="186.77261mm"
   viewBox="0 0 120.74874 186.77261"
   version="1.1"
   id="svg1277"
   inkscape:version="1.1.1 (eb90963e84, 2021-10-02)"
   sodipodi:docname="ct-clamp1.svg"
   xmlns:inkscape="http://www.inkscape.org/namespaces/inkscape"
   xmlns:sodipodi="http://sodipodi.sourceforge.net/DTD/sodipodi-0.dtd"
   xmlns="http://www.w3.org/2000/svg"
   xmlns:svg="http://www.w3.org/2000/svg">
  <sodipodi:namedview
     id="namedview1279"
     pagecolor="#505050"
     bordercolor="#ffffff"
     borderopacity="1"
     inkscape:pageshadow="0"
     inkscape:pageopacity="0"
     inkscape:pagecheckerboard="1"
     inkscape:document-units="mm"
     showgrid="false"
     inkscape:zoom="0.73406285"
     inkscape:cx="115.11276"
     inkscape:cy="281.9922"
     inkscape:window-width="1920"
     inkscape:window-height="1010"
     inkscape:window-x="0"
     inkscape:window-y="34"
     inkscape:window-maximized="1"
     inkscape:current-layer="layer1" />
  <defs
     id="defs1274" />
  <g
     inkscape:label="Layer 1"
     inkscape:groupmode="layer"
     id="layer1"
     transform="translate(-74.613959,-73.828451)">
    <path
       style="fill:#000000;fill-opacity:1;stroke-width:0.497434"
       d="m 123.0496,260.03149 c -12.08618,-1.71727 -23.342028,-5.57914 -33.701174,-11.56282 l -3.108953,-1.7958 v -38.23382 -38.23382 l -1.408452,-2.07935 c -6.79924,-10.03799 -10.168263,-21.05813 -10.216298,-33.41773 -0.04174,-10.72972 1.621594,-18.06601 6.206644,-27.37544 8.699987,-17.664312 26.032353,-30.215525 45.696073,-33.090745 5.76757,-0.843326 16.96931,-0.341414 22.39873,1.003617 21.15035,5.23957 37.82368,20.940122 43.97334,41.407818 1.94675,6.47926 2.4527,10.07139 2.47293,17.55732 0.0327,12.12814 -3.04721,22.79231 -9.45055,32.72181 l -2.17531,3.37319 v 38.20868 38.20866 l -4.71948,2.6145 c -8.69852,4.81882 -18.7272,8.34868 -29.20004,10.27776 -6.01912,1.10869 -20.32778,1.33118 -26.76746,0.41617 z m 28.06687,-7.41406 c 7.42912,-1.50422 14.77354,-4.01571 21.25537,-7.26843 l 4.89806,-2.45796 v -32.3287 c 0,-17.78078 -0.13687,-32.32868 -0.30402,-32.32868 -0.24697,0 -2.18191,1.49516 -5.80506,4.48569 -0.21375,0.17635 -0.0459,1.63671 0.37308,3.24511 2.65066,10.17659 -2.28024,20.63139 -11.99511,25.43274 -5.95129,2.94129 -13.80769,2.87624 -19.52112,-0.16168 -5.55022,-2.95109 -9.68563,-8.01177 -11.24032,-13.75525 l -0.85716,-3.16655 -3.76306,-0.58504 c -9.36351,-1.45572 -20.36468,-6.64805 -28.271319,-13.34351 -1.397434,-1.18337 -2.684547,-2.15159 -2.860258,-2.15159 -0.175786,0 -0.319442,14.5479 -0.319442,32.32868 v 32.3287 l 5.049313,2.53386 c 8.534676,4.28291 18.768966,7.29817 28.527496,8.40491 6.53968,0.74167 17.92897,0.18557 24.83355,-1.21238 z M 98.675322,229.2239 v -11.69294 h 36.321858 36.32188 l -0.13348,11.56534 -0.13349,11.56534 -36.18834,0.12765 -36.188315,0.12766 z m 65.556698,4.79755 c 0.46733,-0.29649 0.60243,-1.67909 0.49745,-5.09109 l -0.14421,-4.68405 H 134.988 105.39069 l -0.1442,4.68405 c -0.10491,3.412 0.0301,4.7946 0.49743,5.09109 0.35285,0.22388 13.51267,0.40703 29.24401,0.40703 15.73138,0 28.89118,-0.18312 29.24401,-0.40703 z m -7.71309,-28.33014 c 3.30883,-1.46365 7.01669,-5.41549 8.13244,-8.66755 1.45156,-4.23077 1.19722,-8.56587 -0.73242,-12.48554 -1.68508,-3.42296 -3.61221,-5.29651 -7.54126,-7.33164 -3.40996,-1.76623 -9.20045,-1.68715 -13.01358,0.17767 -3.09479,1.51358 -5.73089,4.12845 -7.47809,7.41791 -1.62461,3.0587 -1.62322,9.53199 0.004,13.08007 3.53524,7.71391 12.86303,11.24474 20.63008,7.80901 z m -14.45693,-6.70213 -2.08695,-2.12647 7.70363,-7.69158 7.70362,-7.69159 2.35667,2.3567 2.3567,2.35668 -7.4489,7.46136 c -4.09689,4.10374 -7.6849,7.46135 -7.97334,7.46135 -0.28846,0 -1.46358,-0.95692 -2.61143,-2.12645 z m -13.07592,-14.29074 c 2.1084,-6.83818 7.6254,-12.20026 14.8479,-14.43107 7.40909,-2.28844 15.00253,-0.56491 20.90949,4.74598 l 2.59335,2.33162 1.60886,-1.26884 c 9.98332,-7.87336 17.23564,-20.28899 19.29183,-33.02676 0.87831,-5.44101 0.64165,-14.82243 -0.50666,-20.08376 -4.74816,-21.75535 -21.78765,-38.135196 -43.64891,-41.959211 -2.40258,-0.420257 -4.64813,-0.764826 -4.99011,-0.765701 -0.45065,-9.94e-4 -0.62179,1.208635 -0.62179,4.395657 v 4.397238 l 3.60639,0.630932 c 15.06898,2.636342 27.29949,14.333885 31.03714,29.684685 1.12082,4.60323 1.1007,13.24804 -0.0416,17.84612 -1.18815,4.78285 -4.6841,11.81449 -7.72226,15.53234 -5.08989,6.22847 -13.3891,11.48297 -21.15927,13.39654 -4.71313,1.16073 -14.24654,1.14874 -18.65375,-0.0235 -7.81535,-2.07864 -15.97115,-7.29943 -20.87961,-13.36573 -15.749185,-19.46416 -9.50477,-48.28736 12.90195,-59.553246 3.78888,-1.905015 10.47428,-3.98888 12.79697,-3.98888 1.1164,0 1.1499,-0.130477 1.1499,-4.47691 0,-2.4623 -0.16789,-4.476007 -0.37308,-4.474909 -2.1655,0.01166 -10.37809,1.798095 -13.86601,3.016267 -18.192964,6.354036 -31.242391,21.409738 -35.245259,40.664098 -0.995063,4.78643 -0.985813,15.18844 0.0188,20.48124 3.327792,17.54265 15.550704,32.62586 32.055939,39.55736 3.69241,1.55066 11.73068,3.74775 13.11665,3.58516 0.6587,-0.0773 1.17549,-0.90676 1.77365,-2.8468 z m 14.4252,-25.19411 c 8.34872,-2.16994 16.52255,-8.77561 20.37375,-16.46496 2.60908,-5.20931 3.51958,-9.09672 3.52887,-15.06642 0.009,-5.76585 -0.8474,-9.35272 -3.55105,-14.8743 -3.57098,-7.29291 -10.94362,-13.510759 -19.07487,-16.087089 -4.98566,-1.579688 -14.41428,-1.579688 -19.39994,0 -8.14458,2.580579 -15.50361,8.792789 -19.08779,16.113199 -2.68295,5.47972 -3.54545,9.08409 -3.54545,14.81641 0,11.43502 5.30356,21.24048 14.87702,27.50534 7.42099,4.8563 17.01792,6.36107 25.87946,4.05782 z"
       id="path1222" />
  </g>
</svg>
