<?xml version="1.0" encoding="UTF-8" standalone="no"?>
<!-- Created with Inkscape (http://www.inkscape.org/) -->

<svg
   width="131.0976mm"
   height="184.02847mm"
   viewBox="0 0 131.0976 184.02847"
   version="1.1"
   id="svg1381"
   inkscape:version="1.1.1 (eb90963e84, 2021-10-02)"
   sodipodi:docname="ct-clamp2.svg"
   xmlns:inkscape="http://www.inkscape.org/namespaces/inkscape"
   xmlns:sodipodi="http://sodipodi.sourceforge.net/DTD/sodipodi-0.dtd"
   xmlns="http://www.w3.org/2000/svg"
   xmlns:svg="http://www.w3.org/2000/svg">
  <sodipodi:namedview
     id="namedview1383"
     pagecolor="#505050"
     bordercolor="#ffffff"
     borderopacity="1"
     inkscape:pageshadow="0"
     inkscape:pageopacity="0"
     inkscape:pagecheckerboard="1"
     inkscape:document-units="mm"
     showgrid="false"
     inkscape:zoom="0.70199214"
     inkscape:cx="235.04537"
     inkscape:cy="390.31776"
     inkscape:window-width="1920"
     inkscape:window-height="1010"
     inkscape:window-x="0"
     inkscape:window-y="34"
     inkscape:window-maximized="1"
     inkscape:current-layer="layer1" />
  <defs
     id="defs1378" />
  <g
     inkscape:label="Layer 1"
     inkscape:groupmode="layer"
     id="layer1"
     transform="translate(-42.836264,-45.410036)">
    <g
       id="g1521"
       style="fill:#000000">
      <path
         style="fill:#000000;fill-opacity:1;stroke-width:0.264583"
         d="m 107.22331,229.33723 c 0.61846,-0.0557 1.63049,-0.0557 2.24896,0 0.61846,0.0557 0.11245,0.10128 -1.12448,0.10128 -1.23693,0 -1.74294,-0.0456 -1.12448,-0.10128 z m -3.54014,-10.91877 c 0,-1.52797 0.0437,-2.15305 0.0972,-1.38907 0.0534,0.76399 0.0534,2.01415 0,2.77813 -0.0534,0.76398 -0.0972,0.13891 -0.0972,-1.38906 z m 9.26042,0 c 0,-1.52797 0.0437,-2.15305 0.0972,-1.38907 0.0534,0.76399 0.0534,2.01415 0,2.77813 -0.0534,0.76398 -0.0972,0.13891 -0.0972,-1.38906 z m -9.26042,-10.58334 c 0,-1.52797 0.0437,-2.15304 0.0972,-1.38906 0.0534,0.76399 0.0534,2.01414 0,2.77813 -0.0534,0.76398 -0.0972,0.1389 -0.0972,-1.38907 z m 9.26042,0 c 0,-1.52797 0.0437,-2.15304 0.0972,-1.38906 0.0534,0.76399 0.0534,2.01414 0,2.77813 -0.0534,0.76398 -0.0972,0.1389 -0.0972,-1.38907 z m -11.14424,-5.20946 c 0.25466,-0.0666 0.67138,-0.0666 0.92604,0 0.25466,0.0665 0.0463,0.121 -0.46302,0.121 -0.50932,0 -0.71768,-0.0545 -0.46302,-0.121 z m 12.44045,-0.001 c 0.25743,-0.0671 0.61462,-0.0627 0.79375,0.01 0.17913,0.0725 -0.0315,0.12737 -0.46805,0.12197 -0.43657,-0.005 -0.58313,-0.0647 -0.3257,-0.13177 z m -14.689408,-0.25637 c 0.181901,-0.0734 0.479558,-0.0734 0.661458,0 0.1819,0.0734 0.0331,0.13345 -0.330729,0.13345 -0.363802,0 -0.51263,-0.06 -0.330729,-0.13345 z m 16.949868,-0.006 c 0.191,-0.0764 0.4192,-0.067 0.50712,0.0209 0.0879,0.0879 -0.0683,0.15045 -0.34726,0.13897 -0.30823,-0.0127 -0.37092,-0.0754 -0.15986,-0.15986 z M 97.979429,202.0977 c 0.190994,-0.0764 0.4192,-0.067 0.507119,0.0209 0.08792,0.0879 -0.06835,0.15045 -0.347266,0.13896 -0.308226,-0.0127 -0.370919,-0.0754 -0.159853,-0.15985 z m 20.372921,0 c 0.19099,-0.0764 0.4192,-0.067 0.50711,0.0209 0.0879,0.0879 -0.0683,0.15045 -0.34726,0.13896 -0.30823,-0.0127 -0.37092,-0.0754 -0.15985,-0.15985 z m -21.960421,-0.26458 c 0.190994,-0.0764 0.4192,-0.067 0.507119,0.0209 0.08792,0.0879 -0.06835,0.15046 -0.347266,0.13897 -0.308226,-0.0127 -0.370919,-0.0754 -0.159853,-0.15985 z m 23.547921,0 c 0.19099,-0.0764 0.4192,-0.067 0.50711,0.0209 0.0879,0.0879 -0.0684,0.15046 -0.34726,0.13897 -0.30823,-0.0127 -0.37092,-0.0754 -0.15985,-0.15985 z m -38.050395,-4.31719 c -0.218282,-0.14106 -0.277813,-0.25648 -0.132292,-0.25648 0.145521,0 0.443177,0.11542 0.661458,0.25648 0.218282,0.14107 0.277813,0.25648 0.132292,0.25648 -0.145521,0 -0.443177,-0.11541 -0.661458,-0.25648 z m 52.387495,0 c 0.21829,-0.14106 0.51594,-0.25648 0.66146,-0.25648 0.14552,0 0.086,0.11542 -0.13229,0.25648 -0.21828,0.14107 -0.51594,0.25648 -0.66146,0.25648 -0.14552,0 -0.086,-0.11541 0.13229,-0.25648 z m -30.75472,-3.89129 c 0.32912,-0.0633 0.80537,-0.0609 1.05833,0.005 0.25297,0.0662 -0.0163,0.11801 -0.5984,0.11507 -0.58208,-0.003 -0.78905,-0.0571 -0.45993,-0.12041 z m 8.73125,0 c 0.32912,-0.0633 0.80537,-0.0609 1.05833,0.005 0.25297,0.0662 -0.0163,0.11801 -0.5984,0.11507 -0.58208,-0.003 -0.78905,-0.0571 -0.45993,-0.12041 z m -11.64475,-0.25268 c 0.1819,-0.0734 0.47955,-0.0734 0.66145,0 0.1819,0.0734 0.0331,0.13345 -0.33073,0.13345 -0.3638,0 -0.51263,-0.0601 -0.33072,-0.13345 z m 14.68941,-0.008 c 0.25743,-0.0671 0.61461,-0.0627 0.79375,0.01 0.17913,0.0725 -0.0315,0.12736 -0.46806,0.12197 -0.43656,-0.005 -0.58313,-0.0647 -0.32569,-0.13177 z M 99.037762,193.1023 c 0.190995,-0.0764 0.419201,-0.067 0.507119,0.0209 0.08792,0.0879 -0.06835,0.15045 -0.347266,0.13896 -0.308226,-0.0127 -0.370919,-0.0754 -0.159853,-0.15985 z m -1.5875,-0.26458 c 0.190995,-0.0764 0.4192,-0.067 0.507119,0.0209 0.08792,0.0879 -0.06835,0.15045 -0.347266,0.13896 -0.308226,-0.0127 -0.370919,-0.0754 -0.159853,-0.15985 z m -1.322917,-0.26458 c 0.190995,-0.0764 0.419201,-0.067 0.507119,0.0209 0.08792,0.0879 -0.06835,0.15046 -0.347265,0.13897 -0.308227,-0.0127 -0.37092,-0.0754 -0.159854,-0.15985 z m 24.077085,0 c 0.19099,-0.0764 0.4192,-0.067 0.50712,0.0209 0.0879,0.0879 -0.0684,0.15046 -0.34727,0.13897 -0.30822,-0.0127 -0.37092,-0.0754 -0.15985,-0.15985 z m 26.50794,-2.03583 c 0,-0.0549 0.20836,-0.2633 0.46302,-0.46302 0.41965,-0.32911 0.42901,-0.31975 0.0999,0.0999 -0.34565,0.44073 -0.56292,0.58088 -0.56292,0.36312 z m 1.05833,-0.79375 c 0,-0.0549 0.20836,-0.2633 0.46303,-0.46302 0.41964,-0.32911 0.429,-0.31975 0.0999,0.0999 -0.34564,0.44073 -0.56292,0.58088 -0.56292,0.36312 z m -80.467079,-1.15687 c -0.329107,-0.41965 -0.319749,-0.42901 0.0999,-0.0999 0.254662,0.19972 0.463021,0.40808 0.463021,0.46302 0,0.21776 -0.217273,0.0776 -0.562917,-0.36312 z m 81.525419,0.36312 c 0,-0.0549 0.20836,-0.2633 0.46302,-0.46302 0.41964,-0.32911 0.429,-0.31975 0.0999,0.0999 -0.34564,0.44073 -0.56291,0.58088 -0.56291,0.36312 z m -83.236598,-1.81833 -0.504029,-0.59531 0.595312,0.50402 c 0.559446,0.47367 0.715762,0.6866 0.504029,0.6866 -0.05021,0 -0.318098,-0.26789 -0.595312,-0.59531 z m 84.824098,0.49541 c 0,-0.0549 0.20836,-0.2633 0.46302,-0.46302 0.41964,-0.3291 0.429,-0.31975 0.0999,0.0999 -0.34564,0.44073 -0.56291,0.58089 -0.56291,0.36312 z m -88.508091,-3.935 -2.640869,-2.71197 2.711979,2.64087 c 2.518897,2.45285 2.832261,2.78308 2.64087,2.78308 -0.03911,0 -1.259502,-1.22039 -2.71198,-2.71198 z m 92.609131,0.0661 c 1.44975,-1.45521 2.69544,-2.64583 2.7682,-2.64583 0.0728,0 -1.05387,1.19062 -2.50362,2.64583 -1.44974,1.45521 -2.69543,2.64583 -2.76819,2.64583 -0.0728,0 1.05386,-1.19062 2.50361,-2.64583 z m -82.186876,-2.84427 c -0.329107,-0.41965 -0.319749,-0.429 0.0999,-0.0999 0.254662,0.19972 0.463021,0.40808 0.463021,0.46302 0,0.21777 -0.217273,0.0776 -0.562917,-0.36312 z m 71.471246,0.36312 c 0,-0.0549 0.20836,-0.2633 0.46303,-0.46302 0.41964,-0.3291 0.429,-0.31975 0.0999,0.0999 -0.34564,0.44073 -0.56292,0.58089 -0.56292,0.36312 z m -85.480438,-1.42145 -0.641432,-0.72761 0.727604,0.64143 c 0.680056,0.59952 0.848939,0.81378 0.641432,0.81378 -0.04739,0 -0.374814,-0.32742 -0.727604,-0.7276 z m 99.767938,0.0661 c 0.34178,-0.3638 0.68094,-0.66146 0.7537,-0.66146 0.0728,0 -0.14734,0.29766 -0.48911,0.66146 -0.34178,0.3638 -0.68094,0.66146 -0.7537,0.66146 -0.0728,0 0.14734,-0.29766 0.48911,-0.66146 z m -11.64166,-1.05833 c 0.79042,-0.80037 1.49666,-1.45521 1.56942,-1.45521 0.0728,0 -0.51442,0.65484 -1.30484,1.45521 -0.79042,0.80036 -1.49666,1.45521 -1.56942,1.45521 -0.0728,0 0.51442,-0.65485 1.30484,-1.45521 z m -76.606823,-0.19844 -1.312971,-1.38906 1.389063,1.31297 c 1.290741,1.22004 1.5104,1.46515 1.312971,1.46515 -0.04185,0 -0.66693,-0.62507 -1.389063,-1.38906 z m 89.306823,-0.0337 c 0,-0.0549 0.20836,-0.2633 0.46302,-0.46302 0.41964,-0.32911 0.429,-0.31975 0.0999,0.0999 -0.34564,0.44073 -0.56291,0.58088 -0.56291,0.36312 z m 0.79375,-1.05833 c 0,-0.0549 0.20836,-0.2633 0.46302,-0.46302 0.41964,-0.32911 0.429,-0.31975 0.0999,0.0999 -0.34564,0.44073 -0.56291,0.58089 -0.56291,0.36313 z m -93.010989,-1.81834 -1.312971,-1.38906 1.389062,1.31297 c 0.763985,0.72214 1.389063,1.34721 1.389063,1.38907 0,0.19742 -0.245118,-0.0222 -1.465154,-1.31298 z m 82.559949,0.0661 c 0.71666,-0.7276 1.36255,-1.32292 1.43531,-1.32292 0.0728,0 -0.45407,0.59532 -1.17073,1.32292 -0.71666,0.7276 -1.36256,1.32292 -1.43532,1.32292 -0.0728,0 0.45407,-0.59532 1.17074,-1.32292 z m -94.093129,0.33073 c -0.329107,-0.41965 -0.319749,-0.429 0.0999,-0.0999 0.44073,0.34565 0.580888,0.56292 0.363125,0.56292 -0.05494,0 -0.2633,-0.20836 -0.463021,-0.46302 z m 105.337919,0.36312 c 0,-0.0549 0.20836,-0.2633 0.46302,-0.46302 0.41964,-0.3291 0.429,-0.31975 0.0999,0.0999 -0.34564,0.44073 -0.56291,0.58089 -0.56291,0.36312 z m -96.077502,-3.27354 c -0.329108,-0.41964 -0.319749,-0.429 0.0999,-0.0999 0.44073,0.34564 0.580887,0.56291 0.363125,0.56291 -0.05494,0 -0.263301,-0.20836 -0.463021,-0.46302 z m 86.817082,0.36313 c 0,-0.0549 0.20836,-0.2633 0.46302,-0.46302 0.41965,-0.32911 0.42901,-0.31975 0.0999,0.0999 -0.34565,0.44073 -0.56292,0.58089 -0.56292,0.36313 z m 1.32292,-1.5875 c 0,-0.0549 0.20836,-0.2633 0.46302,-0.46302 0.41964,-0.32911 0.429,-0.31975 0.0999,0.0999 -0.34564,0.44073 -0.56291,0.58089 -0.56291,0.36313 z M 48.187766,163.77177 c -0.255317,-0.66535 -0.179998,-0.83702 0.131903,-0.30066 0.154435,0.26558 0.225055,0.5386 0.156932,0.60673 -0.06812,0.0681 -0.198098,-0.0696 -0.288835,-0.30607 z m 119.963964,0.27481 c 0,-0.14552 0.11541,-0.44318 0.25647,-0.66146 0.14107,-0.21828 0.25648,-0.27781 0.25648,-0.13229 0,0.14552 -0.11541,0.44318 -0.25648,0.66146 -0.14106,0.21828 -0.25647,0.27781 -0.25647,0.13229 z m -43.1848,-1.90053 c 0.19099,-0.0764 0.4192,-0.067 0.50712,0.0209 0.0879,0.0879 -0.0684,0.15045 -0.34727,0.13896 -0.30822,-0.0127 -0.37092,-0.0754 -0.15985,-0.15985 z m 3.43958,0 c 0.191,-0.0764 0.4192,-0.067 0.50712,0.0209 0.0879,0.0879 -0.0684,0.15045 -0.34726,0.13896 -0.30823,-0.0127 -0.37092,-0.0754 -0.15986,-0.15985 z m 2.38125,-0.52917 c 0.191,-0.0764 0.4192,-0.067 0.50712,0.0209 0.0879,0.0879 -0.0684,0.15045 -0.34726,0.13896 -0.30823,-0.0127 -0.37092,-0.0754 -0.15986,-0.15985 z m -74.39791,-1.81386 c -0.255318,-0.66535 -0.179999,-0.83702 0.131902,-0.30066 0.154435,0.26558 0.225055,0.5386 0.156933,0.60673 -0.06812,0.0681 -0.198099,-0.0696 -0.288835,-0.30607 z m 61.97835,-0.84967 c -0.3291,-0.41964 -0.31974,-0.429 0.0999,-0.0999 0.25466,0.19972 0.46302,0.40808 0.46302,0.46302 0,0.21776 -0.21727,0.0776 -0.56292,-0.36313 z m 18.29,-0.16604 c 0,-0.0549 0.20836,-0.2633 0.46303,-0.46302 0.41964,-0.32911 0.429,-0.31975 0.0999,0.0999 -0.34564,0.44073 -0.56292,0.58088 -0.56292,0.36312 z m -19.98849,-1.28917 -1.04588,-1.12447 1.12448,1.04588 c 1.04575,0.97266 1.24606,1.20307 1.04588,1.20307 -0.0432,0 -0.54924,-0.50601 -1.12448,-1.12448 z m 22.35869,-0.79375 c 0.64876,-0.69122 1.21431,-1.25677 1.25677,-1.25677 0.19867,0 -0.0114,0.23755 -1.17957,1.33398 l -1.25677,1.17957 z m -24.48804,-1.5875 -0.50403,-0.59531 0.59531,0.50403 c 0.55945,0.47366 0.71576,0.6866 0.50403,0.6866 -0.0502,0 -0.3181,-0.26789 -0.59531,-0.59532 z m -1.19924,-1.4552 c -0.32911,-0.41965 -0.31975,-0.42901 0.0999,-0.0999 0.44073,0.34564 0.58088,0.56292 0.36312,0.56292 -0.0549,0 -0.2633,-0.20836 -0.46302,-0.46302 z m 28.34417,-0.16605 c 0,-0.0549 0.20836,-0.2633 0.46302,-0.46302 0.41964,-0.3291 0.429,-0.31975 0.0999,0.0999 -0.34564,0.44073 -0.56291,0.58089 -0.56291,0.36312 z m -15.27969,-0.34707 c 0.25466,-0.0666 0.67138,-0.0666 0.92604,0 0.25466,0.0666 0.0463,0.121 -0.46302,0.121 -0.50932,0 -0.71768,-0.0544 -0.46302,-0.121 z m -13.85823,-0.54522 c -0.32911,-0.41964 -0.31975,-0.429 0.0999,-0.0999 0.44073,0.34564 0.58088,0.56291 0.36312,0.56291 -0.0549,0 -0.2633,-0.20836 -0.46302,-0.46302 z m 16.45997,0.10199 c 0.0606,-0.0531 0.4079,-0.23821 0.7717,-0.41147 0.62369,-0.29704 0.63214,-0.29153 0.14787,0.0965 -0.42149,0.33768 -1.28267,0.63269 -0.91957,0.31502 z m -6.10747,-1.88792 c -0.64268,-0.65485 -1.10898,-1.19063 -1.03622,-1.19063 0.0728,0 0.65812,0.53578 1.3008,1.19063 0.64269,0.65484 1.10898,1.19062 1.03622,1.19062 -0.0728,0 -0.65812,-0.53578 -1.3008,-1.19062 z m 9.78958,-0.79375 c 0.79043,-0.80037 1.49667,-1.45521 1.56943,-1.45521 0.0728,0 -0.51442,0.65484 -1.30484,1.45521 -0.79042,0.80036 -1.49667,1.4552 -1.56943,1.4552 -0.0728,0 0.51442,-0.65484 1.30484,-1.4552 z m -79.61869,-0.55122 c 0.0127,-0.30823 0.07539,-0.37092 0.159851,-0.15985 0.07643,0.19099 0.06703,0.4192 -0.02088,0.50712 -0.08792,0.0879 -0.150452,-0.0684 -0.138964,-0.34727 z m 110.33125,0 c 0.0127,-0.30823 0.0754,-0.37092 0.15985,-0.15985 0.0764,0.19099 0.067,0.4192 -0.0209,0.50712 -0.0879,0.0879 -0.15046,-0.0684 -0.13897,-0.34727 z M 43.810344,149.20787 c 0.0127,-0.30823 0.07539,-0.37092 0.15985,-0.15986 0.07643,0.191 0.06703,0.4192 -0.02087,0.50712 -0.08792,0.0879 -0.150453,-0.0683 -0.138965,-0.34726 z m 128.852086,0 c 0.0127,-0.30823 0.0754,-0.37092 0.15985,-0.15986 0.0764,0.191 0.067,0.4192 -0.0209,0.50712 -0.0879,0.0879 -0.15045,-0.0683 -0.13896,-0.34726 z m -51.64839,-0.57327 c -0.32911,-0.41964 -0.31975,-0.429 0.0999,-0.0999 0.25467,0.19972 0.46302,0.40808 0.46302,0.46302 0,0.21776 -0.21727,0.0776 -0.56291,-0.36313 z m -68.207863,-0.48507 c 0.0127,-0.30822 0.07539,-0.37092 0.159851,-0.15985 0.07643,0.191 0.06703,0.4192 -0.02088,0.50712 -0.08792,0.0879 -0.150453,-0.0684 -0.138965,-0.34727 z m 110.860413,0 c 0.0127,-0.30822 0.0754,-0.37092 0.15985,-0.15985 0.0764,0.191 0.067,0.4192 -0.0209,0.50712 -0.0879,0.0879 -0.15045,-0.0684 -0.13897,-0.34727 z M 43.566646,147.77471 c 0,-0.36381 0.06006,-0.51263 0.133454,-0.33073 0.0734,0.1819 0.0734,0.47956 0,0.66146 -0.0734,0.1819 -0.133454,0.0331 -0.133454,-0.33073 z m 90.710304,0.42927 c 0,-0.0549 0.20836,-0.2633 0.46303,-0.46302 0.41964,-0.32911 0.429,-0.31975 0.0999,0.0999 -0.34564,0.44073 -0.56292,0.58089 -0.56292,0.36313 z m 38.65006,-0.58361 c 0.0127,-0.30823 0.0754,-0.37092 0.15985,-0.15986 0.0764,0.191 0.067,0.4192 -0.0209,0.50712 -0.0879,0.0879 -0.15046,-0.0684 -0.13897,-0.34726 z m -52.97131,-0.30868 c -0.3291,-0.41965 -0.31974,-0.42901 0.0999,-0.0999 0.44073,0.34564 0.58089,0.56292 0.36313,0.56292 -0.0549,0 -0.2633,-0.20836 -0.46303,-0.46302 z m -67.414106,-0.74966 c 0.0127,-0.30822 0.07539,-0.37092 0.15985,-0.15985 0.07643,0.191 0.06703,0.4192 -0.02088,0.50712 -0.08792,0.0879 -0.150453,-0.0684 -0.138965,-0.34727 z m 111.389586,0 c 0.0127,-0.30822 0.0754,-0.37092 0.15985,-0.15985 0.0764,0.191 0.067,0.4192 -0.0209,0.50712 -0.0879,0.0879 -0.15045,-0.0684 -0.13896,-0.34727 z M 43.281177,145.76828 c 0.0127,-0.30822 0.07539,-0.37092 0.159851,-0.15985 0.07643,0.191 0.06703,0.4192 -0.02088,0.50712 -0.08792,0.0879 -0.150453,-0.0684 -0.138965,-0.34727 z m 129.910413,0 c 0.0127,-0.30822 0.0754,-0.37092 0.15985,-0.15985 0.0764,0.191 0.067,0.4192 -0.0209,0.50712 -0.0879,0.0879 -0.15045,-0.0684 -0.13897,-0.34727 z m -8.96514,-1.03628 c 0.005,-0.43656 0.0647,-0.58313 0.13177,-0.3257 0.0671,0.25744 0.0627,0.61462 -0.01,0.79375 -0.0725,0.17914 -0.12736,-0.0315 -0.12197,-0.46805 z M 52.297896,144.59971 c 0,-0.36381 0.06006,-0.51263 0.133454,-0.33073 0.0734,0.1819 0.0734,0.47956 0,0.66146 -0.0734,0.1819 -0.133454,0.0331 -0.133454,-0.33073 z m -9.250611,-0.92604 c 0.0054,-0.43657 0.06469,-0.58313 0.131773,-0.3257 0.06708,0.25743 0.06267,0.61462 -0.0098,0.79375 -0.07248,0.17913 -0.127362,-0.0315 -0.12197,-0.46805 z m 130.439585,0 c 0.005,-0.43657 0.0647,-0.58313 0.13177,-0.3257 0.0671,0.25743 0.0627,0.61462 -0.01,0.79375 -0.0725,0.17913 -0.12737,-0.0315 -0.12197,-0.46805 z M 52.058261,141.82158 c 0.0029,-0.58208 0.05712,-0.78905 0.120406,-0.45993 0.06329,0.32911 0.06088,0.80536 -0.0053,1.05833 -0.06622,0.25297 -0.118005,-0.0163 -0.115068,-0.5984 z m 112.447919,0 c 0.003,-0.58208 0.0571,-0.78905 0.1204,-0.45993 0.0633,0.32911 0.0609,0.80536 -0.005,1.05833 -0.0662,0.25297 -0.118,-0.0163 -0.11507,-0.5984 z m -59.06881,-0.13229 c -0.15576,-0.29104 -0.22367,-0.52917 -0.15091,-0.52917 0.0728,0 0.25973,0.23813 0.41549,0.52917 0.15576,0.29104 0.22368,0.52917 0.15092,0.52917 -0.0728,0 -0.25974,-0.23813 -0.4155,-0.52917 z m 68.36832,-4.10104 c 2.6e-4,-2.18281 0.0413,-3.04057 0.0911,-1.90614 0.0497,1.13444 0.0494,2.92038 -8e-4,3.96875 -0.0501,1.04838 -0.0908,0.1202 -0.0904,-2.06261 z M 42.836264,137.45596 c 0,-2.11006 0.04109,-2.97326 0.09131,-1.91823 0.05022,1.05502 0.05022,2.78143 0,3.83646 -0.05022,1.05502 -0.09131,0.19182 -0.09131,-1.91823 z m 30.536915,2.99426 c 0.190994,-0.0764 0.4192,-0.067 0.507119,0.0209 0.08792,0.0879 -0.06835,0.15046 -0.347266,0.13897 -0.308226,-0.0127 -0.370919,-0.0754 -0.159853,-0.15985 z m 1.107942,-0.18783 c 0,-0.0572 0.184777,-0.17489 0.410618,-0.26155 0.235458,-0.0904 0.341662,-0.046 0.248967,0.10398 -0.155379,0.25141 -0.659585,0.37186 -0.659585,0.15757 z m -6.648333,-1.68195 c -0.329108,-0.41965 -0.319749,-0.42901 0.0999,-0.0999 0.44073,0.34564 0.580887,0.56292 0.363125,0.56292 -0.05494,0 -0.263301,-0.20836 -0.463021,-0.46302 z m 80.697912,-2.38125 c -0.3291,-0.41965 -0.31974,-0.42901 0.0999,-0.0999 0.44073,0.34564 0.58089,0.56292 0.36313,0.56292 -0.0549,0 -0.2633,-0.20836 -0.46303,-0.46302 z m -6.91597,-1.4219 c 0.17948,-0.18082 0.39297,-0.26211 0.47443,-0.18065 0.0815,0.0815 -0.0654,0.22941 -0.32631,0.32877 -0.37709,0.14358 -0.40748,0.11319 -0.14812,-0.14812 z m 1.34387,-0.41249 c 0.19099,-0.0764 0.4192,-0.067 0.50711,0.0209 0.0879,0.0879 -0.0684,0.15045 -0.34726,0.13896 -0.30823,-0.0127 -0.37092,-0.0754 -0.15985,-0.15985 z m -90.895,-1.14218 c 0,-0.65484 0.0516,-0.92273 0.114662,-0.59531 0.06307,0.32742 0.06307,0.8632 0,1.19063 -0.06306,0.32742 -0.114662,0.0595 -0.114662,-0.59532 z m 112.44792,0 c 0,-0.65484 0.0516,-0.92273 0.11466,-0.59531 0.0631,0.32742 0.0631,0.8632 0,1.19063 -0.0631,0.32742 -0.11466,0.0595 -0.11466,-0.59532 z m -53.5179,0 c -0.15576,-0.29104 -0.22367,-0.52916 -0.15091,-0.52916 0.0728,0 0.25973,0.23812 0.41549,0.52916 0.15576,0.29105 0.22368,0.52917 0.15092,0.52917 -0.0728,0 -0.25974,-0.23812 -0.4155,-0.52917 z m -67.946335,-1.98437 c 0.0054,-0.43656 0.06469,-0.58313 0.131773,-0.3257 0.06708,0.25744 0.06267,0.61462 -0.0098,0.79375 -0.07248,0.17914 -0.127362,-0.0315 -0.12197,-0.46805 z m 130.439585,0 c 0.005,-0.43656 0.0647,-0.58313 0.13177,-0.3257 0.0671,0.25744 0.0627,0.61462 -0.01,0.79375 -0.0725,0.17914 -0.12737,-0.0315 -0.12197,-0.46805 z M 52.307702,130.17992 c 0.0054,-0.43657 0.06469,-0.58313 0.131773,-0.3257 0.06708,0.25743 0.06267,0.61462 -0.0098,0.79375 -0.07248,0.17913 -0.127363,-0.0315 -0.12197,-0.46805 z m 111.918748,0 c 0.005,-0.43657 0.0647,-0.58313 0.13177,-0.3257 0.0671,0.25743 0.0627,0.61462 -0.01,0.79375 -0.0725,0.17913 -0.12736,-0.0315 -0.12197,-0.46805 z M 43.302063,128.98929 c 0,-0.3638 0.06006,-0.51263 0.133453,-0.33073 0.0734,0.1819 0.0734,0.47956 0,0.66146 -0.0734,0.1819 -0.133453,0.0331 -0.133453,-0.33073 z m 129.910417,0 c 0,-0.3638 0.06,-0.51263 0.13345,-0.33073 0.0734,0.1819 0.0734,0.47956 0,0.66146 -0.0734,0.1819 -0.13345,0.0331 -0.13345,-0.33073 z M 52.541594,128.30578 c 0.0127,-0.30822 0.07539,-0.37092 0.15985,-0.15985 0.07643,0.191 0.06703,0.4192 -0.02088,0.50712 -0.08792,0.0879 -0.150453,-0.0684 -0.138965,-0.34727 z m 111.389586,0 c 0.0127,-0.30822 0.0754,-0.37092 0.15985,-0.15985 0.0764,0.191 0.067,0.4192 -0.0209,0.50712 -0.0879,0.0879 -0.15045,-0.0684 -0.13896,-0.34727 z m -67.523392,-0.83784 c -0.329108,-0.41965 -0.319749,-0.42901 0.0999,-0.0999 0.44073,0.34564 0.580887,0.56292 0.363125,0.56292 -0.05494,0 -0.263301,-0.20836 -0.463021,-0.46302 z M 43.54576,127.24745 c 0.0127,-0.30823 0.07539,-0.37092 0.159851,-0.15985 0.07643,0.19099 0.06703,0.4192 -0.02088,0.50712 -0.08792,0.0879 -0.150452,-0.0684 -0.138964,-0.34727 z m 129.38125,0 c 0.0127,-0.30823 0.0754,-0.37092 0.15985,-0.15985 0.0764,0.19099 0.067,0.4192 -0.0209,0.50712 -0.0879,0.0879 -0.15046,-0.0684 -0.13897,-0.34727 z m -91.302139,0.0544 c 0,-0.0549 0.20836,-0.2633 0.463021,-0.46302 0.419645,-0.3291 0.429004,-0.31975 0.0999,0.0999 -0.345643,0.44073 -0.562917,0.58089 -0.562917,0.36312 z m -28.818694,-0.58361 c 0.0127,-0.30822 0.07539,-0.37092 0.159851,-0.15985 0.07643,0.191 0.06703,0.4192 -0.02088,0.50712 -0.08792,0.0879 -0.150453,-0.0683 -0.138965,-0.34727 z m 42.543277,-0.57326 c -0.329107,-0.41965 -0.319749,-0.429 0.0999,-0.0999 0.254662,0.19972 0.463021,0.40808 0.463021,0.46302 0,0.21777 -0.217273,0.0776 -0.562917,-0.36312 z m -51.53911,-0.48507 c 0.0127,-0.30823 0.07539,-0.37092 0.15985,-0.15985 0.07643,0.19099 0.06703,0.4192 -0.02087,0.50712 -0.08792,0.0879 -0.150453,-0.0684 -0.138965,-0.34727 z m 40.063486,-0.90399 c 0.716663,-0.72761 1.362556,-1.32292 1.435317,-1.32292 0.07276,0 -0.45407,0.59531 -1.170734,1.32292 -0.716664,0.7276 -1.362557,1.32291 -1.435317,1.32291 -0.07276,0 0.45407,-0.59531 1.170734,-1.32291 z m 88.7886,0.90399 c 0.0127,-0.30823 0.0754,-0.37092 0.15985,-0.15985 0.0764,0.19099 0.067,0.4192 -0.0209,0.50712 -0.0879,0.0879 -0.15045,-0.0684 -0.13896,-0.34727 z M 53.07076,125.39537 c 0.0127,-0.30823 0.07539,-0.37092 0.159851,-0.15986 0.07643,0.191 0.06703,0.4192 -0.02088,0.50712 -0.08792,0.0879 -0.150452,-0.0684 -0.138964,-0.34726 z m 19.029111,-0.11025 c 0.155761,-0.29104 0.342734,-0.52916 0.415494,-0.52916 0.07276,0 0.0048,0.23812 -0.15091,0.52916 -0.155761,0.29105 -0.342734,0.52917 -0.415494,0.52917 -0.07276,0 -0.0048,-0.23812 0.15091,-0.52917 z m 91.302139,0.11025 c 0.0127,-0.30823 0.0754,-0.37092 0.15985,-0.15986 0.0764,0.191 0.067,0.4192 -0.0209,0.50712 -0.0879,0.0879 -0.15046,-0.0684 -0.13897,-0.34726 z M 93.531121,124.0945 c -0.642681,-0.65485 -1.10898,-1.19063 -1.036219,-1.19063 0.07276,0 0.658122,0.53578 1.300803,1.19063 0.642681,0.65484 1.10898,1.19062 1.036219,1.19062 -0.07276,0 -0.658122,-0.53578 -1.300803,-1.19062 z m -19.314583,-2.08427 c 0,-0.0549 0.208359,-0.2633 0.463021,-0.46302 0.419645,-0.32911 0.429003,-0.31975 0.0999,0.0999 -0.345644,0.44073 -0.562917,0.58089 -0.562917,0.36313 z m 15.147396,-0.34707 c 0.254661,-0.0666 0.67138,-0.0666 0.926041,0 0.254662,0.0665 0.0463,0.121 -0.46302,0.121 -0.509323,0 -0.717683,-0.0545 -0.463021,-0.121 z m 13.658436,-0.54522 c -0.32911,-0.41965 -0.31975,-0.42901 0.0999,-0.0999 0.25466,0.19972 0.46302,0.40808 0.46302,0.46302 0,0.21776 -0.21728,0.0776 -0.56292,-0.36312 z m -28.012082,-0.16605 c 0,-0.0549 0.208359,-0.2633 0.463021,-0.46302 0.419645,-0.3291 0.429003,-0.31975 0.0999,0.0999 -0.345644,0.44073 -0.562917,0.58089 -0.562917,0.36312 z m 26.689162,-1.42145 c -0.3291,-0.41965 -0.31974,-0.42901 0.0999,-0.0999 0.25466,0.19972 0.46302,0.40808 0.46302,0.46302 0,0.21776 -0.21727,0.0776 -0.56292,-0.36312 z m -24.440204,-1.12448 c 0.716664,-0.72761 1.362557,-1.32292 1.435317,-1.32292 0.07276,0 -0.45407,0.59531 -1.170733,1.32292 -0.716664,0.7276 -1.362557,1.32291 -1.435317,1.32291 -0.07276,0 0.45407,-0.59531 1.170733,-1.32291 z m 22.607633,-0.99219 -0.911799,-0.99219 0.992187,0.9118 c 0.545703,0.50149 0.992183,0.94797 0.992183,0.99219 0,0.20204 -0.22389,0.0117 -1.072571,-0.9118 z m -20.623258,-0.69521 c 0,-0.0549 0.20836,-0.2633 0.463021,-0.46302 0.419645,-0.32911 0.429004,-0.31975 0.0999,0.0999 -0.345643,0.44073 -0.562917,0.58088 -0.562917,0.36312 z m 18.751667,-0.89229 c -0.329108,-0.41965 -0.319749,-0.429 0.0999,-0.0999 0.44073,0.34565 0.580887,0.56292 0.363125,0.56292 -0.05494,0 -0.263301,-0.20836 -0.463021,-0.46302 z m -10.086563,-3.15179 c 0.181902,-0.0734 0.479558,-0.0734 0.661459,0 0.181901,0.0734 0.03307,0.13345 -0.330729,0.13345 -0.363802,0 -0.512631,-0.0601 -0.33073,-0.13345 z m 3.45612,-0.005 c 0.190995,-0.0764 0.419201,-0.067 0.507119,0.0209 0.08792,0.0879 -0.06835,0.15045 -0.347265,0.13897 -0.308227,-0.0127 -0.37092,-0.0754 -0.159854,-0.15986 z m -43.333953,-1.0099 c 0,-0.14552 0.115414,-0.44318 0.256479,-0.66146 0.141066,-0.21828 0.256479,-0.27781 0.256479,-0.13229 0,0.14552 -0.115413,0.44318 -0.256479,0.66146 -0.141065,0.21828 -0.256479,0.27781 -0.256479,0.13229 z M 168.3086,111.38427 c -0.25532,-0.66535 -0.18,-0.83702 0.1319,-0.30066 0.15444,0.26558 0.22506,0.5386 0.15693,0.60673 -0.0681,0.0681 -0.19809,-0.0696 -0.28883,-0.30607 z M 64.426955,101.90189 c 0,-0.0549 0.208359,-0.2633 0.46302,-0.46302 0.419646,-0.3291 0.429004,-0.31975 0.0999,0.0999 -0.345644,0.44073 -0.562917,0.58089 -0.562917,0.36312 z m 87.278745,-0.36312 c -0.3291,-0.41965 -0.31974,-0.429 0.0999,-0.0999 0.25466,0.19972 0.46302,0.40808 0.46302,0.46302 0,0.21777 -0.21727,0.0776 -0.56292,-0.36312 z M 66.940496,99.091374 c 0.716664,-0.727605 1.362557,-1.322917 1.435317,-1.322917 0.07276,0 -0.45407,0.595312 -1.170733,1.322917 -0.716664,0.727604 -1.362557,1.322916 -1.435317,1.322916 -0.07276,0 0.45407,-0.595312 1.170733,-1.322916 z m 80.957994,-1.653646 -2.90591,-2.976563 2.97656,2.905906 c 1.63711,1.598247 2.97656,2.937699 2.97656,2.976559 0,0.1908 -0.3481,-0.14115 -3.04721,-2.905902 z m 13.06763,1.190625 c -0.32911,-0.419645 -0.31975,-0.429004 0.0999,-0.0999 0.25466,0.19972 0.46302,0.40808 0.46302,0.463021 0,0.217762 -0.21728,0.07761 -0.56292,-0.363125 z M 70.115496,95.916374 c 0.716664,-0.727604 1.362557,-1.322917 1.435317,-1.322917 0.07276,0 -0.45407,0.595313 -1.170733,1.322917 -0.716664,0.727604 -1.362557,1.322916 -1.435317,1.322916 -0.07276,0 0.45407,-0.595312 1.170733,-1.322916 z m -13.361458,0.958437 c 0,-0.05494 0.208359,-0.2633 0.463021,-0.463021 0.419645,-0.329107 0.429003,-0.319749 0.0999,0.0999 -0.345644,0.44073 -0.562917,0.580888 -0.562917,0.363125 z M 159.37862,96.511686 c -0.32911,-0.419645 -0.31975,-0.429003 0.0999,-0.0999 0.44073,0.345644 0.58088,0.562917 0.36312,0.562917 -0.0549,0 -0.2633,-0.208359 -0.46302,-0.463021 z M 58.341538,94.990332 c 0.341776,-0.363802 0.68094,-0.661458 0.7537,-0.661458 0.07276,0 -0.147341,0.297656 -0.489117,0.661458 -0.341775,0.363802 -0.680939,0.661458 -0.7537,0.661458 -0.07276,0 0.147341,-0.297656 0.489117,-0.661458 z m 99.727892,-0.06615 -0.64143,-0.727604 0.7276,0.641432 c 0.40018,0.35279 0.7276,0.680212 0.7276,0.727604 0,0.207508 -0.21425,0.03862 -0.81377,-0.641432 z M 72.099871,94.228978 c 0,-0.05494 0.20836,-0.263301 0.463021,-0.463021 0.419645,-0.329108 0.429004,-0.319749 0.0999,0.0999 -0.345643,0.44073 -0.562917,0.580887 -0.562917,0.363125 z m 71.932919,-0.363125 c -0.32911,-0.419645 -0.31975,-0.429004 0.0999,-0.0999 0.44073,0.345643 0.58089,0.562917 0.36313,0.562917 -0.0549,0 -0.2633,-0.20836 -0.46302,-0.463021 z M 61.913413,91.153874 c 1.449747,-1.455209 2.695437,-2.645834 2.768198,-2.645834 0.07276,0 -1.053867,1.190625 -2.503615,2.645834 -1.449747,1.455208 -2.695437,2.645833 -2.768198,2.645833 -0.07276,0 1.053868,-1.190625 2.503615,-2.645833 z m 92.599207,-0.06615 -2.64087,-2.711979 2.71198,2.640869 c 1.49158,1.452478 2.71197,2.672869 2.71197,2.71198 0,0.191391 -0.33023,-0.121973 -2.78308,-2.64087 z m -80.825249,1.818333 c 0,-0.05494 0.20836,-0.2633 0.463021,-0.463021 0.419645,-0.329107 0.429004,-0.319749 0.0999,0.0999 -0.345643,0.44073 -0.562917,0.580888 -0.562917,0.363125 z m 68.757919,-0.363125 c -0.32911,-0.419645 -0.31975,-0.429003 0.0999,-0.0999 0.44073,0.345644 0.58089,0.562917 0.36313,0.562917 -0.0549,0 -0.2633,-0.208359 -0.46302,-0.463021 z M 65.749871,87.581999 c 0.341776,-0.363802 0.68094,-0.661459 0.7537,-0.661459 0.07276,0 -0.147341,0.297657 -0.489116,0.661459 -0.341776,0.363802 -0.68094,0.661458 -0.7537,0.661458 -0.07276,0 0.147341,-0.297656 0.489116,-0.661458 z m 84.773819,-0.198438 -0.50403,-0.595312 0.59532,0.504028 c 0.55944,0.473663 0.71576,0.686597 0.50402,0.686597 -0.0502,0 -0.31809,-0.267891 -0.59531,-0.595313 z m -1.46382,-1.190625 c -0.32911,-0.419645 -0.31975,-0.429003 0.0999,-0.0999 0.44073,0.345644 0.58088,0.562917 0.36312,0.562917 -0.0549,0 -0.2633,-0.208359 -0.46302,-0.463021 z m -2.11667,-1.5875 c -0.3291,-0.419645 -0.31974,-0.429003 0.0999,-0.0999 0.44073,0.345644 0.58089,0.562917 0.36313,0.562917 -0.0549,0 -0.2633,-0.208359 -0.46303,-0.463021 z M 96.127345,82.241884 c 0.190995,-0.07643 0.419201,-0.06703 0.507119,0.02088 0.08792,0.08792 -0.06835,0.150452 -0.347265,0.138964 -0.308227,-0.0127 -0.37092,-0.07539 -0.159854,-0.15985 z m 24.077085,0 c 0.19099,-0.07643 0.4192,-0.06703 0.50712,0.02088 0.0879,0.08792 -0.0684,0.150452 -0.34727,0.138964 -0.30822,-0.0127 -0.37092,-0.07539 -0.15985,-0.15985 z M 97.450262,81.977301 c 0.190995,-0.07643 0.4192,-0.06703 0.507119,0.02088 0.08792,0.08792 -0.06835,0.150453 -0.347266,0.138965 -0.308226,-0.0127 -0.370919,-0.07539 -0.159853,-0.159851 z m 21.431248,0 c 0.191,-0.07643 0.4192,-0.06703 0.50712,0.02088 0.0879,0.08792 -0.0684,0.150453 -0.34726,0.138965 -0.30823,-0.0127 -0.37092,-0.07539 -0.15986,-0.159851 z M 99.037762,81.712717 c 0.190995,-0.07643 0.419201,-0.06703 0.507119,0.02088 0.08792,0.08792 -0.06835,0.150453 -0.347266,0.138965 -0.308226,-0.0127 -0.370919,-0.07539 -0.159853,-0.159851 z m 18.256248,0 c 0.191,-0.07643 0.4192,-0.06703 0.50712,0.02088 0.0879,0.08792 -0.0683,0.150453 -0.34726,0.138965 -0.30823,-0.0127 -0.37092,-0.07539 -0.15986,-0.159851 z m -16.4207,-0.259072 c 0.1819,-0.0734 0.47956,-0.0734 0.66146,0 0.1819,0.0734 0.0331,0.133454 -0.33073,0.133454 -0.3638,0 -0.51263,-0.06006 -0.33073,-0.133454 z m 14.42483,-0.0081 c 0.25743,-0.06708 0.61461,-0.06267 0.79375,0.0098 0.17913,0.07248 -0.0315,0.127362 -0.46806,0.12197 -0.43656,-0.0054 -0.58313,-0.06469 -0.32569,-0.131773 z m -11.77591,-0.268359 c 0.32912,-0.06329 0.80537,-0.06088 1.05833,0.0053 0.25297,0.06622 -0.0163,0.118005 -0.5984,0.115068 -0.58208,-0.0029 -0.78905,-0.05712 -0.45993,-0.120407 z m 8.46358,5.29e-4 c 0.32742,-0.06307 0.8632,-0.06307 1.19062,0 0.32743,0.06306 0.0595,0.114662 -0.59531,0.114662 -0.65484,0 -0.92273,-0.0516 -0.59531,-0.114662 z M 96.391929,72.981594 c 0.190994,-0.07643 0.4192,-0.06703 0.507119,0.02088 0.08792,0.08792 -0.06835,0.150453 -0.347266,0.138965 -0.308226,-0.0127 -0.370919,-0.07539 -0.159853,-0.159851 z m 23.547921,0 c 0.19099,-0.07643 0.4192,-0.06703 0.50711,0.02088 0.0879,0.08792 -0.0684,0.150453 -0.34726,0.138965 -0.30823,-0.0127 -0.37092,-0.07539 -0.15985,-0.159851 z M 97.979429,72.717011 c 0.190994,-0.07643 0.4192,-0.06703 0.507119,0.02088 0.08792,0.08792 -0.06835,0.150452 -0.347266,0.138964 -0.308226,-0.0127 -0.370919,-0.07539 -0.159853,-0.15985 z m 20.372921,0 c 0.19099,-0.07643 0.4192,-0.06703 0.50711,0.02088 0.0879,0.08792 -0.0683,0.150452 -0.34726,0.138964 -0.30823,-0.0127 -0.37092,-0.07539 -0.15985,-0.15985 z M 99.831512,72.452428 c 0.190998,-0.07643 0.419198,-0.06703 0.507118,0.02088 0.0879,0.08792 -0.0683,0.150453 -0.347265,0.138965 -0.308226,-0.0127 -0.370919,-0.07539 -0.159853,-0.159851 z m 16.668748,0 c 0.191,-0.07643 0.4192,-0.06703 0.50712,0.02088 0.0879,0.08792 -0.0683,0.150453 -0.34726,0.138965 -0.30823,-0.0127 -0.37092,-0.07539 -0.15986,-0.159851 z M 101.80439,72.18523 c 0.25743,-0.06708 0.61461,-0.06267 0.79375,0.0098 0.17913,0.07248 -0.0315,0.127363 -0.46806,0.121971 -0.43656,-0.0054 -0.58313,-0.06469 -0.32569,-0.131773 z m 12.43541,0 c 0.25743,-0.06708 0.61462,-0.06267 0.79375,0.0098 0.17913,0.07248 -0.0315,0.127363 -0.46805,0.121971 -0.43657,-0.0054 -0.58313,-0.06469 -0.3257,-0.131773 z m -10.5606,-2.330315 c -7.9e-4,-1.309687 0.0439,-1.878827 0.0994,-1.264753 0.0555,0.614071 0.0561,1.685634 0.002,2.38125 -0.0547,0.695613 -0.10008,0.193191 -0.10088,-1.116497 z m 9.26042,0 c -7.9e-4,-1.309687 0.0439,-1.878827 0.0994,-1.264753 0.0555,0.614071 0.0562,1.685634 0.002,2.38125 -0.0548,0.695613 -0.1002,0.193191 -0.10101,-1.116497 z m -9.25645,-10.186458 c 0,-1.527969 0.0437,-2.153047 0.0972,-1.389063 0.0534,0.763985 0.0534,2.014141 0,2.778125 -0.0534,0.763985 -0.0972,0.138907 -0.0972,-1.389062 z m 9.26042,0 c 0,-1.527969 0.0437,-2.153047 0.0972,-1.389063 0.0534,0.763985 0.0534,2.014141 0,2.778125 -0.0534,0.763985 -0.0972,0.138907 -0.0972,-1.389062 z m -9.27148,-9.657292 c 10e-4,-1.018646 0.049,-1.402943 0.10627,-0.853994 0.0573,0.548949 0.0563,1.382386 -0.002,1.852083 -0.0585,0.469697 -0.10533,0.02056 -0.10415,-0.998089 z m 9.26042,0 c 0.001,-1.018646 0.049,-1.402943 0.10627,-0.853994 0.0573,0.548949 0.0563,1.382386 -0.002,1.852083 -0.0585,0.469697 -0.10533,0.02056 -0.10415,-0.998089 z m -7.8303,-4.133873 c 0.17948,-0.180821 0.39297,-0.262115 0.47443,-0.180653 0.0815,0.08146 -0.0654,0.229406 -0.32631,0.328765 -0.37709,0.143586 -0.40748,0.113195 -0.14812,-0.148112 z m 2.12108,-0.425481 c 0.61846,-0.0557 1.63049,-0.0557 2.24896,0 0.61846,0.0557 0.11245,0.10128 -1.12448,0.10128 -1.23693,0 -1.74294,-0.04558 -1.12448,-0.10128 z"
         id="path1525" />
      <path
         style="fill:#000000;fill-opacity:1;stroke-width:0.264583"
         d="m 105.178,228.93855 c -1.30748,-0.6855 -1.32006,-0.81737 -1.32423,-13.88154 l -0.004,-12.22499 -0.85989,-0.12328 c -0.47295,-0.0678 -2.28865,-0.31867 -4.0349,-0.55749 -11.705114,-1.60084 -23.263188,-6.724 -32.412125,-14.36679 -12.399304,-10.35807 -20.194379,-24.18322 -22.931763,-40.67121 -0.755076,-4.54803 -0.688499,-15.48775 0.121568,-19.97552 1.354542,-7.50418 2.870351,-12.21135 6.006862,-18.65365 C 56.058629,95.504835 66.841265,84.811962 79.90498,78.569745 87.228895,75.070168 92.896151,73.487539 102.593,72.233927 l 1.25677,-0.162478 V 59.934053 c 0,-7.088044 0.10534,-12.414468 0.25322,-12.803407 0.45173,-1.188143 1.59737,-1.542192 4.6665,-1.442133 2.43226,0.0793 2.80727,0.156929 3.34177,0.691796 l 0.60205,0.602477 0.0736,12.545449 0.0736,12.54545 1.24932,0.161358 c 9.67841,1.250035 15.34108,2.831344 22.69122,6.336544 6.84346,3.263574 11.96344,6.932221 17.72549,12.700928 6.77339,6.781216 11.10864,13.303205 14.57875,21.932405 2.06878,5.14445 3.66904,11.62511 4.34684,17.60354 0.40501,3.57237 0.18167,13.06833 -0.3866,16.43708 -2.46278,14.59973 -8.39375,26.25864 -18.52383,36.41357 -5.57009,5.58375 -11.15368,9.56079 -17.95294,12.78739 -7.17797,3.40632 -12.90618,4.99398 -22.47893,6.23037 l -1.24932,0.16136 -0.0736,12.54545 -0.0736,12.54545 -0.602,0.60247 c -0.54012,0.54056 -0.89365,0.61012 -3.43958,0.67675 -1.94569,0.0509 -3.04385,-0.0339 -3.49383,-0.2698 z m 13.34736,-35.89871 c 7.46618,-1.4282 14.35943,-4.20265 20.60519,-8.29336 13.09056,-8.57374 22.12988,-22.22328 24.92237,-37.63323 0.56207,-3.10172 0.81132,-12.36341 0.42722,-15.875 -0.9462,-8.65053 -4.12355,-17.4233 -8.95988,-24.73854 -8.62249,-13.042054 -22.03314,-21.887374 -37.51518,-24.744067 -3.65749,-0.674867 -12.89557,-0.824618 -17.06563,-0.27664 -10.400094,1.366658 -20.683893,5.87515 -28.699926,12.582266 -11.000854,9.204551 -18.38592,22.755981 -19.971803,36.647811 -0.398741,3.49285 -0.335259,10.75824 0.125296,14.3401 2.036228,15.83621 11.226334,30.40029 24.998521,39.61655 5.176136,3.46384 13.271902,6.85672 19.284484,8.08201 4.427228,0.90221 6.194068,1.03232 12.730098,0.93741 4.93219,-0.0716 6.8176,-0.20504 9.11924,-0.64531 z m 5.78947,-31.07182 c -4.21582,-1.07483 -7.93712,-4.25301 -12.51436,-10.6879 -1.72055,-2.41882 -4.20189,-6.34673 -8.4823,-13.42729 -6.100733,-10.09169 -9.519362,-14.50225 -12.401995,-16.00049 -1.550939,-0.8061 -5.009163,0.7325 -7.365801,3.27713 -2.558923,2.76305 -5.111385,7.21921 -6.954978,12.14218 -0.913685,2.43982 -1.544426,3.09472 -2.980552,3.09472 -0.974339,0 -4.988608,-1.27171 -5.513388,-1.74664 -1.251566,-1.13264 -0.631785,-3.57793 2.542583,-10.03153 3.985254,-8.10215 8.774758,-13.12287 14.281763,-14.97121 5.51011,-1.84938 9.496867,-0.96599 14.137722,3.13263 3.176776,2.8056 6.383236,7.27788 12.853846,17.92821 6.80665,11.20342 9.67059,15.22257 12.36469,17.35213 1.61453,1.27621 2.24729,1.44857 3.84876,1.0484 4.24164,-1.0599 8.77419,-6.90599 11.96936,-15.43809 1.24827,-3.33328 1.90018,-3.60606 5.81648,-2.43386 3.51713,1.05273 3.89039,1.73266 2.78199,5.06775 -1.74656,5.25528 -5.77192,12.24417 -9.05946,15.72912 -4.38876,4.65232 -10.75412,7.12993 -15.32436,5.96474 z"
         id="path1523" />
    </g>
  </g>
</svg>
