<?xml version="1.0" encoding="UTF-8" standalone="no"?>
<!-- Created with Inkscape (http://www.inkscape.org/) -->

<svg
   width="64.008705mm"
   height="64.091751mm"
   viewBox="0 0 64.008705 64.091751"
   version="1.1"
   id="svg1910"
   sodipodi:docname="gauge_energy.svg"
   inkscape:version="1.1.2 (0a00cf5339, 2022-02-04)"
   xmlns:inkscape="http://www.inkscape.org/namespaces/inkscape"
   xmlns:sodipodi="http://sodipodi.sourceforge.net/DTD/sodipodi-0.dtd"
   xmlns="http://www.w3.org/2000/svg"
   xmlns:svg="http://www.w3.org/2000/svg">
  <sodipodi:namedview
     id="namedview1912"
     pagecolor="#505050"
     bordercolor="#ffffff"
     borderopacity="1"
     inkscape:pageshadow="0"
     inkscape:pageopacity="0"
     inkscape:pagecheckerboard="1"
     inkscape:document-units="mm"
     showgrid="false"
     inkscape:zoom="2.8036096"
     inkscape:cx="144.27829"
     inkscape:cy="134.64785"
     inkscape:window-width="1920"
     inkscape:window-height="1018"
     inkscape:window-x="0"
     inkscape:window-y="28"
     inkscape:window-maximized="1"
     inkscape:current-layer="layer1" />
  <defs
     id="defs1907" />
  <g
     inkscape:label="Layer 1"
     inkscape:groupmode="layer"
     id="layer1"
     transform="translate(-73.725473,-83.453309)">
    <g
       id="g6294">
      <path
         style="fill:#000000;fill-opacity:1;stroke-width:0.264583"
         d="m 102.94713,147.4429 c -14.244651,-1.09965 -26.372021,-12.19405 -28.847682,-26.39054 -0.498633,-2.85937 -0.498633,-8.33996 0,-11.19933 2.287257,-13.1161 12.91387,-23.739555 26.035522,-26.02778 2.88918,-0.503831 8.34577,-0.494346 11.29313,0.01963 12.77888,2.228449 23.15622,12.39155 25.79025,25.25781 0.80582,3.93618 0.64844,10.57449 -0.33875,14.2875 -0.90216,3.39321 -2.44756,6.87965 -4.29963,9.70002 -2.1419,3.26172 -6.68901,7.70237 -9.90815,9.67616 -5.86622,3.59683 -12.70563,5.21838 -19.72469,4.67653 z m 8.72785,-2.22554 c 12.30056,-2.62512 21.54194,-12.0629 23.97516,-24.48469 0.50263,-2.56595 0.43538,-8.41438 -0.12702,-11.04685 -2.63157,-12.31786 -11.74141,-21.441805 -23.97704,-24.014169 -3.00119,-0.630957 -8.32114,-0.641988 -11.45963,-0.02376 -10.660013,2.099833 -19.306095,9.585209 -23.02349,19.932669 -2.160695,6.01435 -2.153413,13.74088 0.01865,19.79401 3.757111,10.47034 12.92116,18.25403 23.48427,19.94688 1.01864,0.16324 2.14974,0.34782 2.51354,0.41017 1.23414,0.2115 6.73773,-0.11777 8.59556,-0.51426 z M 100.169,141.1497 c -9.619273,-2.09796 -17.276526,-9.44565 -19.886361,-19.08242 -0.519887,-1.91967 -0.609234,-2.88816 -0.610226,-6.61458 -0.001,-3.74078 0.08645,-4.68752 0.610963,-6.61459 2.258924,-8.29931 8.403838,-15.099627 16.246881,-17.979737 3.374627,-1.239225 4.741273,-1.488846 9.176293,-1.728206 3.77355,0.211869 4.70094,0.354696 6.63328,0.880647 4.59546,1.250801 8.58426,3.558839 11.92636,6.900936 3.33973,3.33973 5.65294,7.33422 6.90657,11.92636 0.52654,1.92876 0.61395,2.87052 0.61395,6.61459 0,3.74406 -0.0874,4.68582 -0.61395,6.61458 -1.25363,4.59214 -3.56684,8.58663 -6.90657,11.92636 -3.3001,3.3001 -7.45857,5.72103 -11.85127,6.89945 -2.98762,0.80148 -9.15509,0.93071 -12.24592,0.25661 z m 10.15709,-1.65296 c 2.27511,-0.39156 5.59004,-1.66095 7.98622,-3.05818 2.9567,-1.72405 6.96079,-5.80469 8.65051,-8.81587 7.63723,-13.60997 1.11136,-30.4875 -13.69694,-35.423763 -6.8088,-2.269674 -14.681665,-1.254922 -20.688892,2.666633 -12.911812,8.42893 -15.148958,26.06439 -4.720611,37.21269 5.863466,6.26826 13.843903,8.90305 22.469713,7.41849 z M 94.133815,131.5855 c -1.600894,-0.97604 -2.086235,-3.21034 -1.038921,-4.78274 1.327373,-1.99287 3.647618,-2.28302 5.401725,-0.67551 1.700531,1.55843 1.440625,4.27829 -0.523271,5.47574 -1.096238,0.66842 -2.726691,0.66099 -3.839533,-0.0175 z m 2.956802,-1.59992 c 0.852936,-0.67092 0.929316,-1.86529 0.167973,-2.62663 -1.067517,-1.06752 -2.910416,-0.23547 -2.910416,1.31401 0,0.76554 1.012332,1.86099 1.719791,1.86099 0.179032,0 0.639225,-0.24677 1.022652,-0.54837 z m 7.361943,1.59992 c -1.37801,-0.84015 -2.03647,-2.95796 -1.34008,-4.31009 1.70413,-3.30879 6.36736,-2.65777 6.77351,0.94562 0.33422,2.96513 -2.85219,4.9382 -5.43343,3.36447 z m 2.9568,-1.59992 c 1.24744,-0.98124 0.6001,-3.1558 -0.93945,-3.1558 -0.82827,0 -1.80299,1.01581 -1.80299,1.879 0,0.72995 1.03198,1.82517 1.71979,1.82517 0.17903,0 0.63923,-0.24677 1.02265,-0.54837 z m 7.36195,1.59992 c -1.6009,-0.97604 -2.08624,-3.21034 -1.03892,-4.78274 1.32737,-1.99287 3.64762,-2.28302 5.40173,-0.67551 1.70053,1.55843 1.44062,4.27829 -0.52328,5.47574 -1.09624,0.66842 -2.72669,0.66099 -3.83953,-0.0175 z m 2.9568,-1.59992 c 1.24744,-0.98124 0.6001,-3.1558 -0.93945,-3.1558 -0.82827,0 -1.80299,1.01581 -1.80299,1.879 0,0.72995 1.03198,1.82517 1.71979,1.82517 0.17903,0 0.63923,-0.24677 1.02265,-0.54837 z m -28.784996,-9.12783 c -0.618495,-0.61849 -0.618495,-10.19162 0,-10.81011 0.369014,-0.36902 2.256403,-0.41578 16.782136,-0.41578 14.52574,0 16.41313,0.0468 16.78214,0.41578 0.6185,0.61849 0.6185,10.19162 0,10.81011 -0.36901,0.36902 -2.2564,0.41578 -16.78214,0.41578 -14.525733,0 -16.413122,-0.0468 -16.782136,-0.41578 z m 32.127966,-5.40505 v -3.96875 H 105.72525 90.379424 v 3.96875 3.96875 h 15.345826 15.34583 z"
         id="path1749"
         sodipodi:nodetypes="sssssssssssssssssssscsssscsssscsscscsscsscscsccsssssssssssssscscsccsssssccscsscccccccccc" />
      <path
         style="fill:#000000;stroke-width:0.0406526"
         d="m 103.4892,108.60579 c -0.26159,-0.0711 -0.44718,-0.31531 -0.44718,-0.58839 0,-0.0846 0.18109,-0.79441 0.40242,-1.57732 0.22133,-0.78291 0.43333,-1.56066 0.47113,-1.72836 0.0378,-0.1677 0.13931,-0.51528 0.22557,-0.77241 0.14255,-0.42486 0.48634,-1.58649 0.48634,-1.64327 0,-0.0129 -0.57833,-0.0235 -1.28519,-0.0235 -1.25614,0 -1.28886,-0.002 -1.44737,-0.0911 -0.27967,-0.15719 -0.39687,-0.52968 -0.25375,-0.80645 0.0344,-0.0667 0.37571,-0.58253 0.75833,-1.14643 0.38262,-0.563897 0.99273,-1.464321 1.35581,-2.000938 0.36307,-0.536617 0.97186,-1.433011 1.35286,-1.991988 0.38102,-0.558977 0.88149,-1.296384 1.11218,-1.638681 1.27877,-1.897431 1.36613,-2.017028 1.5423,-2.111538 0.20608,-0.11056 0.32841,-0.11371 0.54779,-0.0141 0.22989,0.1044 0.34166,0.296627 0.34166,0.587547 0,0.201597 -0.44879,5.18965 -0.51169,5.687057 l -0.0244,0.1931 h 1.54993 c 1.71841,0 1.71435,-7.3e-4 1.97199,0.264747 0.12373,0.12742 0.14443,0.17597 0.14421,0.338377 -3.1e-4,0.24805 -0.12616,0.477667 -0.38043,0.694207 -0.14556,0.12396 -0.20508,0.19027 -2.15523,2.40096 -0.22628,0.25651 -0.62303,0.7047 -0.88168,0.99599 -0.51856,0.584 -2.2822,2.57978 -3.45159,3.90591 -0.88528,1.00393 -0.80915,0.92246 -0.93616,1.00179 -0.13944,0.0871 -0.31836,0.11087 -0.48783,0.0648 z m 2.09542,-3.73146 c 0.26616,-0.30184 0.49432,-0.55796 0.50701,-0.56914 0.0127,-0.0112 0.55507,-0.62402 1.2053,-1.36187 0.65023,-0.73784 1.45744,-1.65254 1.79382,-2.03264 l 0.61159,-0.69111 -1.22638,-0.0203 c -1.35935,-0.0225 -1.4125,-0.0326 -1.57357,-0.296707 -0.10952,-0.17962 -0.10534,-0.28401 0.0997,-2.488008 0.0978,-1.050874 0.16959,-1.919298 0.15959,-1.929838 -0.01,-0.0105 -0.0341,0.007 -0.0537,0.0383 -0.0402,0.0651 -1.06102,1.572831 -2.63561,3.892869 l -1.06972,1.576164 1.1307,0.0203 c 0.96862,0.0174 1.14908,0.0303 1.2589,0.0905 0.17571,0.0962 0.29865,0.30826 0.29865,0.51521 0,0.12982 -0.80235,3.06149 -1.0172,3.71671 -0.0207,0.0632 -0.0231,0.10889 -0.006,0.10163 0.0177,-0.007 0.25005,-0.26016 0.51621,-0.56201 z"
         id="path6106" />
    </g>
  </g>
</svg>
