<?xml version="1.0" encoding="UTF-8" standalone="no"?>
<!-- Created with Inkscape (http://www.inkscape.org/) -->

<svg
   width="140.3405mm"
   height="140.21333mm"
   viewBox="0 0 140.3405 140.21333"
   version="1.1"
   id="svg142"
   inkscape:version="1.1.2 (0a00cf5339, 2022-02-04)"
   sodipodi:docname="gauge_current.svg"
   xmlns:inkscape="http://www.inkscape.org/namespaces/inkscape"
   xmlns:sodipodi="http://sodipodi.sourceforge.net/DTD/sodipodi-0.dtd"
   xmlns="http://www.w3.org/2000/svg"
   xmlns:svg="http://www.w3.org/2000/svg">
  <sodipodi:namedview
     id="namedview144"
     pagecolor="#505050"
     bordercolor="#ffffff"
     borderopacity="1"
     inkscape:pageshadow="0"
     inkscape:pageopacity="0"
     inkscape:pagecheckerboard="1"
     inkscape:document-units="mm"
     showgrid="false"
     inkscape:zoom="0.75098906"
     inkscape:cx="260.32337"
     inkscape:cy="314.91804"
     inkscape:window-width="1920"
     inkscape:window-height="1018"
     inkscape:window-x="0"
     inkscape:window-y="28"
     inkscape:window-maximized="1"
     inkscape:current-layer="layer1" />
  <defs
     id="defs139" />
  <g
     inkscape:label="Layer 1"
     inkscape:groupmode="layer"
     id="layer1"
     transform="translate(-33.686939,-65.249433)">
    <g
       id="g5416">
      <path
         style="fill:#000000;stroke-width:0.352777"
         d="m 95.831297,205.22883 c -33.11211,-4.16151 -58.45422,-29.86597 -61.88234,-62.76716 -0.51907,-4.98174 -0.23661,-14.0963 0.57993,-18.71401 2.97881,-16.84566 11.28174,-31.298234 24.23671,-42.187862 13.41787,-11.27874 29.76202,-16.871596 47.534303,-16.265918 9.10324,0.310238 17.20696,2.082237 25.19182,5.50857 25.75431,11.051263 42.53572,36.53241 42.53572,64.58687 0,26.58463 -15.01951,50.9253 -38.73953,62.78141 -6.39534,3.19662 -12.53421,5.21081 -19.99218,6.55951 -3.7252,0.67367 -15.642473,0.97893 -19.464433,0.49859 z m 13.467213,-6.35322 c 29.15857,-2.74948 52.41262,-24.18131 57.34333,-52.84981 0.37874,-2.2021 0.68861,-4.78178 0.68861,-5.73264 v -1.72883 h -4.5346 c -4.3244,0 -4.57786,-0.0401 -5.46805,-0.8651 -0.71666,-0.66418 -0.93346,-1.20067 -0.93346,-2.30991 0,-1.10923 0.2168,-1.64572 0.93346,-2.3099 0.89019,-0.825 1.14365,-0.8651 5.46805,-0.8651 h 4.5346 v -1.72883 c 0,-2.40249 -1.19467,-9.11405 -2.2965,-12.90152 -2.45334,-8.43317 -7.28718,-17.2817 -13.13057,-24.035989 l -1.49234,-1.72498 -2.91738,2.891131 c -3.38565,3.355197 -4.35346,3.853659 -6.08085,3.131907 -1.38152,-0.577236 -1.9518,-1.467919 -1.9518,-3.048394 0,-0.94058 0.51049,-1.650005 3.0868,-4.289748 l 3.08681,-3.162792 -1.41111,-1.234289 c -2.23002,-1.950585 -8.46743,-6.012661 -11.78436,-7.674499 -7.45242,-3.733792 -15.56367,-5.947949 -24.46356,-6.677916 l -2.38125,-0.195308 v 3.285472 c 0,3.900829 -0.42613,5.344811 -1.78462,6.047308 -1.44127,0.745311 -2.61958,0.640975 -3.75196,-0.332232 -0.957223,-0.822668 -0.993743,-0.979482 -1.109223,-4.762499 -0.14028,-4.595841 0.4157,-4.284427 -5.75456,-3.223202 -11.51085,1.979755 -22.40215,7.12244 -31.19429,14.729409 l -1.7144,1.483305 2.72258,2.797712 c 2.9186,2.999139 3.20607,3.74269 2.19955,5.689094 -0.57509,1.1121 -2.47411,1.942624 -3.56827,1.560555 -0.36916,-0.128905 -1.83371,-1.363533 -3.25457,-2.743615 l -2.58337,-2.509242 -1.24354,1.41111 c -2.18921,2.484212 -6.37116,9.057062 -8.19254,12.876392 -3.21383,6.73919 -5.47281,14.89494 -5.93342,21.42182 l -0.20606,2.91984 h 3.70899 c 3.1823,0 3.83714,0.10081 4.61143,0.70986 1.19087,0.93674 1.50917,2.46662 0.79894,3.84005 -0.81102,1.56833 -1.52122,1.8001 -5.51599,1.8001 h -3.60337 l 0.20606,2.91984 c 0.86454,12.25065 6.78069,25.9201 15.56876,35.9721 13.18702,15.08364 33.57897,23.27872 53.298043,21.41934 z M 99.898477,185.8169 c -21.28436,-1.87745 -38.96819,-20.41084 -40.41602,-42.35762 -0.23252,-3.5247 -0.0347,-4.60152 1.02712,-5.59074 0.74079,-0.69016 1.19958,-0.71533 13.04178,-0.71533 h 12.27398 l 0.19915,-0.97013 c 0.88262,-4.29957 2.71123,-7.85589 5.29669,-10.30112 l 1.88779,-1.78539 -6.86009,-12.59532 c -7.3837,-13.556677 -7.69386,-14.369017 -6.06635,-15.88817 1.1386,-1.062783 2.46811,-1.301609 3.69988,-0.664633 0.84307,0.435965 2.37258,2.982365 8.01639,13.346073 3.836,7.04402 7.00185,12.83979 7.03523,12.87949 0.0334,0.0397 1.126493,-0.0787 2.429133,-0.26323 5.41744,-0.7672 10.93069,1.10439 14.87644,5.05014 2.88044,2.88044 4.19939,5.43516 5.27747,10.22216 l 0.21849,0.97013 h 12.27398 c 11.8422,0 12.30099,0.0252 13.04179,0.71533 1.0618,0.98922 1.25963,2.06604 1.02711,5.59074 -1.14911,17.41877 -12.68458,33.27414 -28.80944,39.59825 -5.88228,2.307 -13.06261,3.3246 -19.470523,2.75937 z m 12.460533,-7.33715 c 8.36454,-2.20803 16.15831,-7.45914 21.47327,-14.46779 3.58378,-4.7258 6.97979,-12.9362 7.59316,-18.35765 l 0.24337,-2.1511 h -10.2282 -10.22819 l -0.62969,1.6757 c -2.58879,6.8892 -9.19702,11.37708 -16.75228,11.37708 -7.555263,0 -14.163483,-4.48788 -16.752283,-11.37708 l -0.62969,-1.6757 h -10.22819 -10.2282 l 0.24337,2.1511 c 0.5635,4.98066 3.37973,12.22966 6.5848,16.94934 1.94464,2.86362 6.21963,7.31616 9.11995,9.49875 4.3012,3.23679 10.2238,5.8564 15.50802,6.85931 3.747273,0.7112 11.317763,0.46651 14.910783,-0.48196 z m -4.5365,-29.18817 c 2.12935,-0.72554 4.96355,-3.28676 6.16812,-5.57402 0.83649,-1.58834 0.94913,-2.19897 0.95062,-5.15323 0.001,-3.05719 -0.0902,-3.51724 -1.04474,-5.24066 -1.99853,-3.60818 -5.92067,-6.04823 -9.72193,-6.04823 h -1.74607 l 0.76114,1.56665 c 0.65624,1.35074 0.94854,1.59832 2.12086,1.79638 2.21148,0.37363 4.55408,2.18244 5.66369,4.37314 1.58757,3.13434 1.19132,6.40323 -1.08181,8.92449 -3.13786,3.48038 -8.2981,3.7102 -11.661273,0.51938 -2.72181,-2.58235 -3.24151,-6.08758 -1.43777,-9.69719 1.02558,-2.05237 1.05087,-2.20498 0.53167,-3.20898 -0.29981,-0.57977 -0.69052,-1.144 -0.86824,-1.25384 -0.47567,-0.29398 -2.13721,1.81919 -3.13201,3.98334 -1.18248,2.57244 -1.01901,6.72268 0.37178,9.43875 1.12357,2.19423 3.97861,4.83728 5.99743,5.55213 2.002393,0.70903 6.079663,0.72001 8.128533,0.0219 z m -2.74039,-9.82165 c 0.77921,-1.18924 0.17006,-2.31672 -1.25167,-2.31672 -1.42173,0 -2.03088,1.12748 -1.25166,2.31672 0.3093,0.47206 0.87255,0.85828 1.25166,0.85828 0.37911,0 0.94236,-0.38622 1.25167,-0.85828 z"
         id="path30" />
      <text
         xml:space="preserve"
         style="font-style:normal;font-weight:normal;font-size:31.2477px;line-height:1.25;font-family:sans-serif;fill:#000000;fill-opacity:1;stroke:none;stroke-width:0.781197"
         x="91.941315"
         y="105.80286"
         id="text3681"><tspan
           sodipodi:role="line"
           id="tspan3679"
           style="stroke-width:0.781197"
           x="91.941315"
           y="105.80286">A</tspan></text>
    </g>
  </g>
</svg>
