<?xml version="1.0" encoding="UTF-8" standalone="no"?>
<!-- Created with Inkscape (http://www.inkscape.org/) -->

<svg
   version="1.1"
   id="svg1091"
   width="218.66667"
   height="302.66666"
   viewBox="0 0 218.66667 302.66666"
   sodipodi:docname="myenergi-white.svg"
   inkscape:version="1.1 (c68e22c387, 2021-05-23)"
   xmlns:inkscape="http://www.inkscape.org/namespaces/inkscape"
   xmlns:sodipodi="http://sodipodi.sourceforge.net/DTD/sodipodi-0.dtd"
   xmlns="http://www.w3.org/2000/svg"
   xmlns:svg="http://www.w3.org/2000/svg">
  <defs
     id="defs1095" />
  <sodipodi:namedview
     id="namedview1093"
     pagecolor="#505050"
     bordercolor="#ffffff"
     borderopacity="1"
     inkscape:pageshadow="0"
     inkscape:pageopacity="0"
     inkscape:pagecheckerboard="1"
     showgrid="false"
     inkscape:zoom="1.9311675"
     inkscape:cx="63.692042"
     inkscape:cy="173.21129"
     inkscape:window-width="2560"
     inkscape:window-height="1377"
     inkscape:window-x="1912"
     inkscape:window-y="-8"
     inkscape:window-maximized="1"
     inkscape:current-layer="g1097" />
  <g
     inkscape:groupmode="layer"
     inkscape:label="Image"
     id="g1097">
    <path
       style="fill:#fefefe;stroke-width:1.33333"
       d="m 87.25607,301.54948 c -12.77557,-1.90896 -22.92704,-9.83904 -28.41966,-22.20077 -3.16303,-7.11874 -2.78708,-22.27112 0.73186,-29.49756 1.24985,-2.56667 11.8748,-17.09698 23.61101,-32.28957 11.7362,-15.1926 21.33854,-27.9426 21.33854,-28.33334 0,-0.39073 -16.0911,-0.71042 -35.758,-0.71042 -40.45486,0 -45.33898,-0.7847 -54.68688,-8.78616 C 2.9073399,170.17432 -1.7970801,154.45198 2.3094999,140.41784 4.0865499,134.34486 11.70793,123.7732 49.81852,74.51782 74.78436,42.251154 97.96323,13.300987 101.32713,10.184115 c 19.74811,-18.2979268 52.27939,-8.5976158 59.97793,17.884472 2.47879,8.526721 1.74203,16.920074 -2.20464,25.115901 -1.41253,2.933333 -12.09745,17.633332 -23.74425,32.666665 l -21.17602,27.333327 37.50217,0.71734 c 34.16801,0.65355 38.04162,0.96243 43.56992,3.4742 13.49224,6.1302 21.40558,17.46372 22.35722,32.02009 0.9751,14.91497 0.24339,16.10137 -49.2761,79.89848 -24.99848,32.2061 -47.03363,60.2615 -48.967,62.34533 -7.42981,8.00804 -19.63273,11.77397 -32.11029,9.90956 z m 16.75315,-16.52937 c 3.37141,-1.59984 13.85718,-14.1224 40.20151,-48.0104 19.60223,-25.21531 35.84043,-46.44135 36.08487,-47.16896 0.28477,-0.84765 -9.80611,-1.32293 -28.08791,-1.32293 h -28.53236 l -23.91209,30.88256 c -13.15165,16.98541 -24.93693,32.73541 -26.18953,34.99999 -4.23106,7.64942 -2.33405,20.93706 3.76306,26.35846 7.37078,6.5539 18.19638,8.28344 26.67245,4.26128 z m 86.745,-112.61673 c 16.968,-8.21407 17.18095,-32.99872 0.34875,-40.58899 -6.8044,-3.06836 -18.16419,-2.20338 -23.21231,1.76747 -3.46054,2.72208 -32.70617,39.2488 -32.70617,40.84884 0,0.41457 11.21056,0.75378 24.91237,0.75378 22.52898,0 25.46199,-0.26606 30.65736,-2.7811 z M 47.84185,171.58707 c 3.32785,-1.58695 9.32297,-8.16924 20.04524,-22.00853 8.41357,-10.85946 15.2974,-20.04062 15.2974,-20.40259 0,-0.36197 -11.21057,-0.65813 -24.91237,-0.65813 -22.5678,0 -25.45569,0.26302 -30.68551,2.79473 -16.50311,7.98901 -16.4219,32.47985 0.13264,39.99803 6.84241,3.10744 13.98036,3.20552 20.1226,0.27649 z m 86.00931,-19.35856 c 9.16666,-11.83939 16.86666,-22.01768 17.1111,-22.61843 0.24446,-0.60074 -10.62817,-1.09226 -24.16138,-1.09226 h -24.60583 l -13.10816,17 c -7.20948,9.35 -15.15914,19.55 -17.66589,22.66666 l -4.55774,5.66667 25.16061,-0.0482 25.16062,-0.0482 z M 120.51782,81.931176 c 13.56667,-17.504671 25.50626,-34.162044 26.53243,-37.016384 3.21096,-8.931421 -0.71473,-19.668709 -9.59724,-26.249761 -4.91908,-3.644549 -18.67417,-3.926788 -23.92578,-0.490928 -2.71757,1.777968 -37.13701,45.082102 -74.72231,94.010377 -1.01542,1.32188 4.75292,1.65702 27.88298,1.62002 l 29.16326,-0.0466 z"
       id="path1547" />
  </g>
</svg>
