<?xml version="1.0" encoding="UTF-8" standalone="no"?>
<!-- Created with Inkscape (http://www.inkscape.org/) -->

<svg
   width="56.327774mm"
   height="57.284401mm"
   viewBox="0 0 56.327774 57.284401"
   version="1.1"
   id="svg3804"
   inkscape:version="1.1.1 (50ffc5b540, 2022-01-11)"
   sodipodi:docname="kwh_limit.svg"
   xmlns:inkscape="http://www.inkscape.org/namespaces/inkscape"
   xmlns:sodipodi="http://sodipodi.sourceforge.net/DTD/sodipodi-0.dtd"
   xmlns="http://www.w3.org/2000/svg"
   xmlns:svg="http://www.w3.org/2000/svg">
  <sodipodi:namedview
     id="namedview3806"
     pagecolor="#505050"
     bordercolor="#eeeeee"
     borderopacity="1"
     inkscape:pageshadow="0"
     inkscape:pageopacity="0"
     inkscape:pagecheckerboard="0"
     inkscape:document-units="mm"
     showgrid="false"
     inkscape:zoom="0.59776235"
     inkscape:cx="-2.5093585"
     inkscape:cy="51.023622"
     inkscape:window-width="1600"
     inkscape:window-height="838"
     inkscape:window-x="0"
     inkscape:window-y="34"
     inkscape:window-maximized="1"
     inkscape:current-layer="layer1" />
  <defs
     id="defs3801" />
  <g
     inkscape:label="Layer 1"
     inkscape:groupmode="layer"
     id="layer1"
     transform="translate(-252.90169,-135.12829)">
    <path
       style="fill:#000000;stroke-width:0.264583"
       d="m 277.09552,192.21761 c -7.9825,-1.2591 -14.74018,-5.66707 -19.08889,-12.4515 -3.86932,-6.03653 -5.37006,-11.3114 -5.06711,-17.81006 0.26772,-5.74281 2.08379,-10.90275 5.41733,-15.39211 10.04156,-13.52322 29.50079,-15.34098 41.84817,-3.9092 9.07175,8.39905 11.6357,22.11898 6.17369,33.03602 -1.20293,2.40431 -3.52903,5.97802 -5.05189,7.76146 -3.06014,3.58378 -8.47712,6.86856 -13.40581,8.12911 -2.97684,0.76136 -8.1171,1.06348 -10.82549,0.63628 z m -5.1818,-9.73896 c 0,-0.41401 0.22561,-0.95692 0.50136,-1.20647 0.48056,-0.4349 0.53727,-0.40369 1.36776,0.75275 0.62389,0.86874 1.04806,1.20646 1.5153,1.20646 0.7203,0 0.80256,0.20501 -0.84807,-2.11339 l -0.77094,-1.08283 1.02308,-1.04773 c 0.97897,-1.00255 0.99548,-1.04772 0.38315,-1.04772 -0.40723,0 -1.10022,0.45338 -1.90578,1.24683 l -1.26586,1.24682 v -2.17287 c 0,-1.99647 -0.043,-2.17286 -0.52916,-2.17286 -0.50304,0 -0.52917,0.17639 -0.52917,3.57187 0,3.39549 0.0261,3.57188 0.52917,3.57188 0.40516,0 0.52916,-0.17639 0.52916,-0.75274 z m 8.23278,-1.49622 c 0.34129,-1.23693 0.6941,-2.24896 0.78401,-2.24896 0.0899,0 0.43083,1.01203 0.75759,2.24896 0.53372,2.02034 0.65769,2.24896 1.2195,2.24896 0.54421,0 0.69303,-0.2318 1.14656,-1.78594 1.04538,-3.58229 1.35331,-4.66181 1.35331,-4.74438 0,-0.0463 -0.2874,-0.0843 -0.63867,-0.0843 -0.58414,0 -0.68452,0.19451 -1.1757,2.27814 -0.29537,1.25297 -0.58319,2.32429 -0.63961,2.38071 -0.0564,0.0564 -0.39208,-0.93898 -0.7459,-2.21199 -0.53715,-1.93256 -0.73837,-2.32817 -1.21921,-2.39701 -0.5065,-0.0725 -0.64289,0.15062 -1.1321,1.85209 -0.90375,3.14317 -0.93608,3.18097 -1.31178,1.53345 -0.77358,-3.39227 -0.79192,-3.43539 -1.46121,-3.43539 h -0.63088 l 0.52608,1.91823 c 1.35177,4.92898 1.25648,4.69636 1.92374,4.69636 0.55766,0 0.68946,-0.23823 1.24426,-2.24896 z m 7.64222,0.41188 c 0,-1.57039 0.0812,-1.89398 0.55954,-2.229 0.5673,-0.39735 1.2652,-0.3067 1.61922,0.21032 0.10692,0.15614 0.19621,1.08755 0.19844,2.06982 0.004,1.6082 0.0567,1.78594 0.53322,1.78594 0.48381,0 0.52917,-0.17639 0.52917,-2.0578 0,-2.43945 -0.39794,-3.23387 -1.6199,-3.23387 -0.43788,0 -1.02644,0.12325 -1.30791,0.27389 -0.47101,0.25208 -0.51178,0.17831 -0.51178,-0.92604 0,-1.02354 -0.0778,-1.19993 -0.52916,-1.19993 -0.50304,0 -0.52917,0.17639 -0.52917,3.57187 0,3.39549 0.0261,3.57188 0.52917,3.57188 0.47836,0 0.52916,-0.17639 0.52916,-1.83708 z m -13.94681,-11.86325 c 0.0824,-0.6957 0.18827,-1.42719 0.23529,-1.62553 0.13,-0.54844 -9.10523,-5.7326 -9.38495,-5.2682 -0.11709,0.19439 -0.48472,0.81114 -0.81695,1.37057 l -0.60405,1.01713 -0.72454,-2.69619 c -0.39849,-1.4829 -0.68636,-2.72329 -0.6397,-2.75641 0.0467,-0.0331 1.03734,-0.32591 2.2015,-0.65065 1.16417,-0.32473 2.33227,-0.6537 2.59577,-0.73104 0.41977,-0.12322 0.39263,0.03 -0.21919,1.23738 -0.38406,0.7579 -0.59966,1.46576 -0.4791,1.57301 0.12055,0.10725 2.16841,1.2842 4.55079,2.61545 l 4.33159,2.42044 1.05998,-0.95763 c 2.93726,-2.65364 6.967,-2.75258 9.93515,-0.24393 1.12072,0.94723 2.1573,2.99859 2.35386,4.65822 l 0.15424,1.30229 h 9.08107 9.08107 l 0.26682,-0.99219 c 0.27812,-1.03418 0.79759,-4.35665 0.80667,-5.15937 0.005,-0.41459 -0.31488,-0.46302 -3.05504,-0.46302 h -3.06028 l 0.0837,-0.72761 0.0837,-0.7276 2.98303,-0.0749 2.98304,-0.0749 -0.1745,-1.77722 c -0.34844,-3.54876 -1.72058,-7.78186 -3.49203,-10.77304 -1.01626,-1.71601 -3.20003,-4.63021 -3.46967,-4.63021 -0.0913,0 -1.05602,0.89689 -2.14379,1.99308 -1.34847,1.35892 -2.14526,1.96926 -2.50421,1.91823 -1.12391,-0.15979 -0.75376,-1.03135 1.32684,-3.12423 1.18475,-1.19174 1.96569,-2.18003 1.85902,-2.35263 -0.10117,-0.16369 -0.95505,-0.88137 -1.89751,-1.59483 -3.67377,-2.78112 -8.82358,-4.84614 -13.13116,-5.26548 l -2.05052,-0.19961 v 2.54237 c 0,2.8503 -0.36471,3.81309 -1.24128,3.2768 -0.40374,-0.24701 -0.49016,-0.72431 -0.55306,-3.05443 l -0.0745,-2.76167 -1.9379,0.18511 c -4.60836,0.44019 -9.54961,2.40916 -13.30916,5.30339 -2.28653,1.76025 -2.28801,1.57553 0.0314,3.90859 1.38825,1.39644 2.0244,2.22778 1.96012,2.56155 -0.20809,1.08051 -1.0594,0.70825 -3.18336,-1.39203 l -2.09992,-2.0765 -0.91622,1.05833 c -3.19844,3.69457 -5.48193,9.19711 -6.06639,14.61823 l -0.17828,1.65365 h 2.904 c 3.02011,0 3.76011,0.25813 3.40357,1.18725 -0.12481,0.32525 -0.72525,0.40025 -3.2046,0.40025 -2.73133,0 -3.05046,0.0485 -3.04577,0.46302 0.009,0.80272 0.52855,4.12519 0.80667,5.15937 l 0.26682,0.99219 h 9.08107 9.08107 z m 28.6461,-8.50054 c -0.0896,-0.14493 0.26222,-0.34154 0.78735,-0.44006 0.68383,-0.12829 0.90784,-0.28604 0.80111,-0.56418 -0.0815,-0.21235 -0.14816,-0.61448 -0.14816,-0.89361 0,-0.40365 -0.18955,-0.50753 -0.92605,-0.50753 -1.53301,0 -1.04385,-0.42409 0.80849,-0.70091 1.73566,-0.25939 2.7359,0.0317 1.17892,0.34311 -0.57574,0.11515 -0.78134,0.28099 -0.67899,0.5477 0.0807,0.2104 0.14679,0.61093 0.14679,0.89007 0,0.38753 0.18767,0.50753 0.79375,0.50753 1.24909,0 0.92655,0.45033 -0.46302,0.64649 -0.69122,0.0976 -1.45511,0.23499 -1.69752,0.30538 -0.24242,0.0704 -0.51362,0.0101 -0.60267,-0.13399 z m -44.79564,-1.15444 c -0.76399,-0.14687 -1.38906,-0.37981 -1.38906,-0.51766 0,-0.14968 0.45293,-0.17049 1.12448,-0.0517 1.948,0.34467 2.17497,0.303 2.27136,-0.41703 0.10322,-0.77106 0.57291,-1.38384 0.57291,-0.74745 0,0.2292 -0.0744,0.78879 -0.16537,1.24355 -0.18097,0.90484 -0.21833,0.91243 -2.41432,0.49026 z m 0.80297,-2.96444 c -1.11887,-0.48648 -1.39892,-1.50803 -0.67898,-2.47672 1.30754,-1.75929 3.89904,-0.43278 3.18063,1.62805 -0.19934,0.57184 -1.17404,1.3195 -1.60205,1.2289 -0.0269,-0.006 -0.43173,-0.1768 -0.8996,-0.38023 z m 1.77672,-0.66775 c 0.29104,-0.29104 0.52916,-0.64823 0.52916,-0.79375 0,-0.5027 -1.06052,-1.32292 -1.71048,-1.32292 -1.27755,0 -1.52929,1.89266 -0.31677,2.38161 0.82831,0.33402 0.91434,0.31881 1.49809,-0.26494 z m 41.48851,0.59531 c -0.97376,-1.1338 -0.65117,-2.45808 0.72637,-2.98182 1.33062,-0.50591 2.77954,0.82342 2.3551,2.16071 -0.21851,0.68845 -0.60493,0.37833 -0.46176,-0.37059 0.0743,-0.3889 -0.0795,-0.78631 -0.42561,-1.09954 -0.46999,-0.42534 -0.64724,-0.44695 -1.33373,-0.1626 -0.43544,0.18037 -0.86179,0.54876 -0.94745,0.81866 -0.21756,0.68547 0.3177,1.56903 0.95052,1.56903 0.44166,0 0.48375,-0.0848 0.25456,-0.5131 -0.15995,-0.29888 -0.1746,-0.57492 -0.0351,-0.66115 0.27,-0.16687 0.86268,1.3082 0.62225,1.54864 -0.3193,0.3193 -1.32184,0.13808 -1.70516,-0.30824 z m -1.53643,-3.18007 c 0,-0.36293 3.12652,-1.94107 3.29748,-1.66445 0.0893,0.14445 -0.55321,0.62383 -1.42774,1.0653 -1.70469,0.86052 -1.86974,0.91341 -1.86974,0.59915 z m -39.88594,-0.88904 c -0.9095,-0.28264 -1.65364,-0.62869 -1.65364,-0.769 0,-0.32669 -0.007,-0.32743 1.32291,0.14176 1.65374,0.58347 1.72477,0.50906 0.67964,-0.71194 -0.99674,-1.16447 -0.93923,-1.71838 0.13717,-1.32101 0.35112,0.12962 0.99559,0.32077 1.43215,0.42479 l 0.79375,0.18912 -1.14923,-1.1778 c -0.63208,-0.64779 -1.04512,-1.24214 -0.91788,-1.32078 0.28692,-0.17733 2.85242,2.69134 2.61723,2.92652 -0.0936,0.0936 -0.71822,0.0237 -1.38797,-0.15543 -0.66974,-0.17913 -1.25876,-0.28464 -1.30892,-0.23448 -0.0502,0.0502 0.25866,0.50048 0.68629,1.0007 0.74167,0.86755 1.02588,1.59922 0.60059,1.54618 -0.10915,-0.0136 -0.94258,-0.25599 -1.85209,-0.53863 z m 39.35677,-0.46268 c 0,-0.12777 0.25782,-0.40349 0.57292,-0.61272 0.56782,-0.37701 0.56851,-0.38786 0.0782,-1.21788 -0.47322,-0.80109 -0.52181,-0.81973 -1.11822,-0.42895 -0.34293,0.22469 -0.76394,0.36173 -0.93557,0.30451 -0.17164,-0.0572 0.3732,-0.55901 1.21074,-1.11511 0.83755,-0.5561 1.60314,-0.93077 1.7013,-0.8326 0.0982,0.0982 -0.0842,0.36245 -0.40517,0.5873 -0.56753,0.3975 -0.57099,0.43026 -0.12543,1.18453 0.53175,0.90018 0.56502,0.90919 1.3436,0.36385 0.4495,-0.31484 0.58692,-0.33042 0.58329,-0.0661 -0.003,0.19015 -0.59655,0.73268 -1.31985,1.20563 -1.40589,0.91926 -1.58582,0.99047 -1.58582,0.62758 z"
       id="path3767" />
  </g>
</svg>
