<?xml version="1.0" encoding="UTF-8" standalone="no"?>
<!-- Created with Inkscape (http://www.inkscape.org/) -->

<svg
   width="210.62381mm"
   height="142.2925mm"
   viewBox="0 0 210.62381 142.2925"
   version="1.1"
   id="svg23"
   inkscape:version="1.1.2 (0a00cf5339, 2022-02-04)"
   sodipodi:docname="power_fire.svg"
   xmlns:inkscape="http://www.inkscape.org/namespaces/inkscape"
   xmlns:sodipodi="http://sodipodi.sourceforge.net/DTD/sodipodi-0.dtd"
   xmlns="http://www.w3.org/2000/svg"
   xmlns:svg="http://www.w3.org/2000/svg">
  <sodipodi:namedview
     id="namedview25"
     pagecolor="#505050"
     bordercolor="#ffffff"
     borderopacity="1"
     inkscape:pageshadow="0"
     inkscape:pageopacity="0"
     inkscape:pagecheckerboard="1"
     inkscape:document-units="mm"
     showgrid="false"
     showguides="true"
     inkscape:guide-bbox="true"
     inkscape:zoom="0.49748294"
     inkscape:cx="640.22296"
     inkscape:cy="437.20092"
     inkscape:window-width="1920"
     inkscape:window-height="1018"
     inkscape:window-x="0"
     inkscape:window-y="28"
     inkscape:window-maximized="1"
     inkscape:current-layer="layer1">
    <sodipodi:guide
       position="-62.159008,0.64016665"
       orientation="0,-1"
       id="guide765" />
  </sodipodi:namedview>
  <defs
     id="defs20" />
  <g
     inkscape:label="Layer 1"
     inkscape:groupmode="layer"
     id="layer1"
     transform="translate(0.90504912,-40.141261)">
    <path
       style="fill:#000000;stroke-width:0.105523"
       d="m 28.726912,181.79359 c 0,-0.0247 4.611956,-9.2998 10.248811,-20.61147 5.636859,-11.31166 11.335572,-22.751 12.66381,-25.42071 l 2.41497,-4.85409 -12.397525,-0.0528 -12.397507,-0.0528 3.87549,-4.59676 c 2.131521,-2.52821 5.559885,-6.5882 7.618583,-9.02223 2.058699,-2.434 5.147228,-6.08745 6.863419,-8.11878 1.716189,-2.03132 3.426993,-4.05525 3.801815,-4.49763 0.374813,-0.44239 1.518516,-1.79572 2.541539,-3.00741 2.655273,-3.14496 3.030969,-3.58985 4.62305,-5.474313 0.78453,-0.928601 2.068529,-2.451201 2.853337,-3.383559 0.784807,-0.932358 2.827735,-3.351393 4.539855,-5.375635 5.721915,-6.765075 6.862422,-8.115146 8.156017,-9.654604 0.707155,-0.841545 2.190603,-2.59851 3.296561,-3.904369 1.62475,-1.918386 8.137019,-9.626379 10.677354,-12.63782 0.306644,-0.363517 0.557531,-0.643709 0.557531,-0.622648 0,0.02105 -4.516872,9.103277 -10.037493,20.182754 -5.520604,11.079443 -11.220427,22.518694 -12.666253,25.420604 l -2.62878,5.27615 12.414943,0.0528 12.414926,0.0528 -1.357884,1.5699 c -0.746856,0.86346 -1.609627,1.87874 -1.91731,2.25619 -0.307675,0.37744 -1.01996,1.22774 -1.582851,1.88957 -0.562884,0.66181 -1.332093,1.57577 -1.709349,2.03098 -0.778537,0.93948 -7.59019,9.00939 -8.959385,10.61438 -0.495121,0.58038 -1.285896,1.50633 -1.757303,2.0577 -0.471382,0.55135 -1.371837,1.61978 -2.000992,2.37426 -0.629147,0.7545 -1.764517,2.10399 -2.523057,2.99888 -0.758531,0.89489 -1.664069,1.96613 -2.012295,2.38049 -0.348224,0.41437 -2.152668,2.54433 -4.009873,4.73324 -1.857206,2.18892 -3.590423,4.23497 -3.85159,4.54678 -0.261167,0.31182 -1.068423,1.26608 -1.793904,2.12056 -0.725463,0.85449 -1.460592,1.72598 -1.633609,1.93667 -0.173,0.21068 -1.312649,1.56729 -2.532549,3.01465 -1.219891,1.44739 -2.621608,3.11117 -3.114928,3.69731 -1.221311,1.45108 -4.886806,5.79162 -7.390155,8.7511 -1.133681,1.34025 -3.36362,3.98011 -4.955415,5.86633 -1.591798,1.88622 -3.537663,4.18927 -4.324145,5.11787 -0.786483,0.92861 -1.559994,1.84634 -1.718908,2.03942 -0.158926,0.19307 -0.288951,0.33088 -0.288951,0.30622 z m 27.488756,-3.5208 c -2.416919,-0.18663 -5.91713,-0.69778 -8.230804,-1.20197 -0.812531,-0.17707 -1.609558,-0.35008 -1.771177,-0.38451 -0.16162,-0.0344 -0.274912,-0.0815 -0.25177,-0.1047 0.02312,-0.0232 0.677725,0.0744 1.454608,0.21693 5.447031,0.99881 12.047317,1.10049 17.821362,0.27455 19.843636,-2.83849 36.725103,-16.22879 43.901073,-34.82208 2.45535,-6.36196 3.63332,-12.72856 3.63147,-19.62731 -8.6e-4,-2.79738 -0.11691,-4.55279 -0.47762,-7.21414 -1.08839,-8.0316 -3.94083,-15.63133 -8.37875,-22.323367 -3.59755,-5.424851 -8.040326,-10.014168 -13.569834,-14.017468 -0.729985,-0.5285 -1.447281,-1.118578 -1.594012,-1.311289 -1.98755,-2.61047 -0.554586,-6.330577 2.63104,-6.830416 0.82179,-0.12895 1.75948,0.0087 2.49708,0.366271 1.10089,0.533841 4.69102,3.629775 7.292966,6.28905 3.48412,3.560863 6.45666,7.453972 8.95533,11.7287 4.60867,7.884536 7.29537,16.459639 8.04034,25.662259 0.20914,2.58349 0.15353,8.07185 -0.10737,10.60507 -0.61988,6.0167 -2.14165,11.92183 -4.4801,17.38451 -6.22738,14.54746 -18.029216,25.93729 -32.776887,31.63268 -3.305014,1.27635 -7.448248,2.40889 -10.974398,2.99983 -3.27517,0.54885 -4.768891,0.66331 -9.022228,0.69131 -2.234454,0.0147 -4.300063,0.009 -4.590253,-0.0139 z m -31.535554,-6.90255 c -0.281476,-0.0472 -0.708844,-0.16391 -0.9497,-0.25932 -0.993274,-0.39347 -4.206457,-3.11329 -7.093043,-6.00394 C 10.117838,158.57825 5.2110677,150.7171 2.2723717,142.0928 c -1.60885758,-4.72159 -2.62017958,-9.60578 -3.04803158,-14.72048 -0.212216,-2.53694 -0.154544,-8.23923 0.108329,-10.71059 0.527417,-4.95832 1.72960558,-10.14818 3.38544658,-14.61496 3.49758,-9.434994 9.4629253,-17.939329 17.1448583,-24.442111 7.989601,-6.763225 17.940083,-11.356734 28.069129,-12.95777 3.676581,-0.581126 4.506675,-0.638617 9.233274,-0.639526 4.730913,-8.67e-4 5.443843,0.04902 9.127751,0.638062 2.22891,0.356435 5.52057,1.061635 5.098382,1.092269 -0.06877,0.0052 -0.453922,-0.06011 -0.855948,-0.144687 C 65.656724,64.566718 58.060557,64.38672 52.522363,65.166179 43.175728,66.481652 34.498251,69.998596 27.038546,75.494688 23.455329,78.134692 19.767411,81.650537 16.896961,85.163073 9.8606638,93.773267 5.7509567,104.00645 4.7554237,115.39544 c -0.168461,1.92722 -0.165387,6.55072 0.0052,8.49461 0.82696,9.39904 3.761717,17.89021 8.7841423,25.41538 3.546434,5.31363 7.944565,9.8755 13.214905,13.70693 1.409856,1.02495 1.738525,1.31701 2.084651,1.85257 0.547499,0.84706 0.675061,1.31615 0.665716,2.44788 -0.006,0.79269 -0.05422,1.05148 -0.288246,1.56523 -0.380596,0.83542 -0.808412,1.34932 -1.512272,1.8165 -0.912902,0.60597 -2.000066,0.8484 -3.029853,0.6757 z"
       id="path3292"
       sodipodi:nodetypes="ssscccsssssssssssssscccsssssssssssssssssssssssscssccsscssssssssssssccssssssscsscsssscssscsscc" />
    <path
       style="fill:#000000;stroke-width:0.264583"
       d="m 147.81437,181.79359 c -2.39375,-0.50715 -3.19255,-0.79318 -3.83232,-1.37226 -0.5286,-0.47847 -0.63528,-0.52561 -0.30833,-0.13626 0.27494,0.32743 0.43139,0.59532 0.34767,0.59532 -0.54042,0 -5.24417,-1.85231 -7.36257,-2.89934 -4.82339,-2.38398 -8.43124,-5.0278 -12.153,-8.90568 -2.17775,-2.26911 -5.28506,-6.35797 -5.28506,-6.95454 0,-0.15975 -0.11046,-0.29044 -0.24548,-0.29044 -0.38067,0 -3.36768,-6.2088 -4.24471,-8.82308 -0.64044,-1.90904 -0.70137,-2.27652 -0.33036,-1.99238 0.25609,0.19613 0.20391,0.0628 -0.11939,-0.30505 -0.39629,-0.4509 -0.78316,-1.64665 -1.24807,-3.85758 -1.02059,-4.8536 -1.31768,-8.7492 -1.12774,-14.78754 0.51501,-16.37248 5.03094,-30.08151 13.77082,-41.804169 3.53677,-4.743818 9.94913,-11.431271 10.87718,-11.343823 0.19414,0.01828 0.30012,-0.104521 0.23549,-0.272923 -0.11151,-0.290613 2.14197,-2.290691 5.02136,-4.456692 1.54671,-1.163497 2.99288,-1.339379 3.8625,-0.469752 0.9826,0.982594 0.93819,1.690068 -0.32101,5.11475 -0.65245,1.774495 -1.4061,3.854697 -1.67477,4.622668 -0.34753,0.993405 -0.59797,1.354302 -0.86791,1.250715 -0.28203,-0.108225 -0.30778,-0.05915 -0.10032,0.191188 0.20137,0.242996 -0.005,1.3315 -0.74198,3.90866 -1.73347,6.063916 -2.91942,12.812888 -2.88259,16.404168 l 0.0149,1.45521 0.86309,-2.51354 c 2.49641,-7.270222 5.99196,-12.906969 11.3048,-18.229571 1.36526,-1.367772 4.68495,-4.420886 7.37709,-6.7847 8.42874,-7.400809 12.75334,-12.174411 16.0496,-17.715942 3.11325,-5.233869 4.94531,-10.490431 5.80115,-16.64466 0.43372,-3.11884 0.52337,-3.409823 1.23501,-4.008626 0.87021,-0.732239 1.93315,-0.830125 2.75597,-0.253796 0.88087,0.616977 8.14438,14.169621 10.00539,18.668572 2.5055,6.056971 3.75892,12.088786 4.02701,19.379126 0.15192,4.131104 0.14676,4.183745 -0.47955,4.8929 l -0.63313,0.716865 0.63441,-0.527273 0.63441,-0.527274 -0.16357,2.910416 c -0.21758,3.87154 -1.0176,8.429451 -2.45165,13.967661 -1.58548,6.123072 -3.31427,13.955262 -3.22425,14.607342 0.0533,0.38638 0.31799,0.1008 0.9808,-1.05833 0.9735,-1.70248 1.24739,-2.10448 3.51526,-5.15938 1.64598,-2.21719 5.10517,-5.66495 7.4197,-7.39518 1.8632,-1.392832 3.2052,-1.567602 4.28046,-0.55744 0.84611,0.79488 0.87869,1.88273 0.12724,4.24846 -0.78955,2.48564 -0.95368,6.97214 -0.40698,11.1247 1.03139,7.83405 1.26354,17.01363 0.57514,22.74196 -1.6988,14.13602 -8.66034,26.8566 -18.93242,34.59452 -5.10447,3.84518 -12.09739,6.99181 -18.08109,8.13601 -3.59855,0.68812 -4.70335,0.41626 -5.15694,-1.26895 -0.42313,-1.57208 0.0294,-2.18057 2.81197,-3.78066 1.73784,-0.99936 4.50738,-3.69194 5.79904,-5.63792 2.3273,-3.50622 3.30607,-7.18967 3.31188,-12.46383 0.006,-5.3291 -0.74534,-8.37612 -3.88123,-15.74271 -2.53421,-5.95316 -4.35771,-11.98686 -5.03762,-16.66875 -0.74477,-5.12858 -0.7421,-7.51054 0.016,-14.2875 0.17722,-1.58422 0.17651,-1.58641 -0.34725,-1.05833 -0.90029,0.90771 -3.00602,2.84029 -5.89312,5.40853 -5.46419,4.86072 -8.16488,8.79748 -9.99358,14.56751 -1.30807,4.12727 -1.5176,5.88594 -1.49736,12.56771 0.0204,6.71864 0.25792,8.6689 1.84136,15.11635 1.09407,4.45484 1.11701,4.94964 0.2689,5.79776 -1.06728,1.06728 -2.28998,0.88994 -4.99913,-0.72507 -5.2389,-3.12307 -11.69542,-9.30689 -15.07088,-14.43436 -0.59873,-0.9095 -1.18945,-1.65364 -1.31269,-1.65364 -0.12325,0 -0.14586,0.12656 -0.0503,0.28125 0.0956,0.15469 -0.0462,0.5396 -0.31511,0.85534 -0.3209,0.37678 -0.34451,0.46305 -0.0687,0.25101 0.37274,-0.28654 0.47185,-0.002 0.87672,2.5181 0.25105,1.56265 0.91651,4.22659 1.4788,5.91987 3.03643,9.14394 8.83434,16.34262 16.27424,20.20607 1.30968,0.68011 2.53007,1.42725 2.71198,1.66032 0.60364,0.77345 0.40039,2.14574 -0.44267,2.98881 -0.96213,0.96212 -1.69056,0.97452 -5.82258,0.0991 z m -5.57486,-3.12115 c 0,-0.0502 -0.26789,-0.3181 -0.59531,-0.59532 l -0.59531,-0.50403 0.50402,0.59532 c 0.47367,0.55944 0.6866,0.71576 0.6866,0.50403 z m -2.11667,-2.11667 c 0,-0.0502 -0.26789,-0.3181 -0.59531,-0.59531 l -0.59531,-0.50403 0.50403,0.59531 c 0.47366,0.55945 0.68659,0.71576 0.68659,0.50403 z m -1.32291,-1.30682 c 0,-0.0413 -0.68461,-0.72596 -1.52136,-1.52135 l -1.52135,-1.44617 1.44617,1.52135 c 1.34354,1.41339 1.59654,1.64256 1.59654,1.44617 z m 0.28834,-1.73251 c -0.1427,-0.26663 -0.45486,-0.64696 -0.69369,-0.84517 -0.64803,-0.53782 -3.59885,-4.89378 -4.72261,-6.97145 -1.36262,-2.51928 -2.87367,-6.22369 -3.6872,-9.03933 -0.97745,-3.38298 -1.10204,-4.27463 -0.67369,-4.82103 0.32241,-0.41124 0.31393,-0.42353 -0.0798,-0.11568 -0.39804,0.31123 -0.46179,0.17096 -0.66146,-1.45521 -0.12153,-0.98981 -0.22096,-4.30536 -0.22096,-7.3679 0,-6.18295 0.0973,-6.59197 1.72875,-7.26775 1.28298,-0.53142 2.37328,0.16987 3.44698,2.21712 0.46818,0.89268 1.44211,2.61225 2.16429,3.82127 1.29716,2.17159 1.30713,2.20524 0.82298,2.77813 -0.48961,0.57933 -0.48953,0.57944 0.0744,0.10374 0.55891,-0.47143 0.57837,-0.45697 1.95756,1.45521 0.76618,1.06225 2.05337,2.70528 2.86043,3.65116 2.59311,3.03916 7.02618,7.12638 7.36351,6.78904 0.0907,-0.0907 -0.0296,-1.08976 -0.26724,-2.22019 -1.36668,-6.50037 -1.4807,-15.3712 -0.27297,-21.2376 1.33043,-6.46247 4.34363,-12.45889 8.53593,-16.98697 0.94892,-1.02491 3.54459,-3.46387 5.76816,-5.4199 2.22357,-1.95604 4.80796,-4.41195 5.74309,-5.45759 1.71522,-1.91792 4.65638,-5.631712 4.65638,-5.879582 0,-0.0737 0.3082,-0.5997 0.68489,-1.16892 0.91695,-1.3856 1.98923,-1.7599 3.25937,-1.13775 1.17867,0.57734 1.56579,1.54513 1.16698,2.91744 -2.38615,8.210872 -2.97675,10.784472 -3.39024,14.773272 -0.3582,3.4555 -0.38242,4.68854 -0.13706,6.97903 0.75308,7.03026 2.1639,12.0041 5.8253,20.53714 3.10469,7.23558 4.18024,13.3592 3.45719,19.68342 -0.38329,3.35252 -1.69867,7.49463 -3.19197,10.05153 -0.58293,0.99811 -1.05988,1.87721 -1.05988,1.95355 0,0.28983 3.41303,-1.56331 5.94231,-3.22643 5.54058,-3.64321 10.43597,-9.09799 13.64562,-15.20492 1.44278,-2.74514 3.1921,-7.08615 3.68719,-9.14992 0.29213,-1.21771 0.37939,-1.33589 0.76431,-1.03517 0.38179,0.29828 0.39313,0.2865 0.0934,-0.097 -0.28119,-0.35982 -0.24935,-0.8945 0.18119,-3.04271 1.28001,-6.38669 1.38542,-14.79874 0.30285,-24.16972 -0.29419,-2.54661 -0.54057,-5.70177 -0.5475,-7.01146 l -0.0126,-2.38125 -1.18999,1.32292 c -3.73735,4.15483 -7.17446,10.60494 -10.55337,19.80455 -0.3631,0.98859 -0.66812,1.36587 -1.32679,1.64108 -1.10757,0.46277 -2.19082,0.17284 -2.8989,-0.77589 -0.50982,-0.6831 -0.54449,-1.06054 -0.50907,-5.542 0.0626,-7.92356 0.59403,-11.42367 3.52199,-23.19753 0.99519,-4.001822 2.07052,-8.704796 2.38964,-10.451046 0.50699,-2.774397 0.6857,-3.291774 1.41632,-4.100486 l 0.83612,-0.925489 -0.79375,0.712843 -0.79375,0.712843 -0.016,-6.269648 c -0.0133,-5.230347 -0.11127,-6.79862 -0.59073,-9.460715 -0.64665,-3.590364 -1.73452,-7.546628 -2.83297,-10.302682 -0.80762,-2.026356 -3.97209,-8.494866 -5.08386,-10.39196 l -0.69858,-1.192046 -0.57009,2.088822 c -1.66279,6.092521 -4.93666,12.370792 -9.29741,17.829559 -2.69963,3.379388 -7.12524,7.799028 -12.65104,12.633974 -8.6281,7.549398 -11.37756,10.625198 -14.51445,16.237199 -3.49814,6.258292 -5.7355,16.431942 -5.7355,26.080322 0,1.7171 -0.0786,2.03655 -0.63867,2.59665 -1.1764,1.17641 -2.868,1.0904 -3.69535,-0.1879 -0.93514,-1.44483 -2.5975,-9.98472 -3.07047,-15.77363 -0.34574,-4.23181 0.0395,-10.74899 0.91776,-15.525152 0.56288,-3.06108 2.43486,-10.342506 3.19702,-12.435421 0.53814,-1.477737 -6.36527,6.09137 -9.33631,10.236618 -7.63568,10.653435 -11.40771,21.843735 -12.27455,36.414345 -0.62292,10.47054 0.71395,18.06536 4.57231,25.97544 2.72179,5.57999 6.51668,10.13847 11.54531,13.8684 1.85851,1.37853 5.53528,3.60286 6.34487,3.83845 0.0415,0.0121 -0.0413,-0.19619 -0.18399,-0.46282 z m -19.04001,-12.41366 c 0.32911,-0.41964 0.31975,-0.429 -0.0999,-0.0999 -0.25466,0.19972 -0.46302,0.40808 -0.46302,0.46302 0,0.21776 0.21727,0.0776 0.56292,-0.36313 z m 2.05378,-2.01541 c 0.23041,-0.27763 0.19178,-0.44687 -0.16604,-0.72761 -0.41202,-0.32326 -0.42853,-0.31737 -0.14185,0.0506 0.24869,0.31918 0.25178,0.48905 0.0132,0.7276 -0.17116,0.17116 -0.24244,0.31121 -0.15839,0.31121 0.084,0 0.28792,-0.1628 0.45305,-0.36177 z m -1.0292,-1.5816 c 0,-0.0502 -0.26789,-0.3181 -0.59531,-0.59531 l -0.59531,-0.50403 0.50403,0.59531 c 0.47366,0.55945 0.68659,0.71576 0.68659,0.50403 z m -2.11666,-2.11667 c 0,-0.0502 -0.26789,-0.3181 -0.59532,-0.59531 l -0.59531,-0.50403 0.50403,0.59531 c 0.47366,0.55945 0.6866,0.71576 0.6866,0.50403 z m -2.11667,-2.11667 c 0,-0.0502 -0.26789,-0.31809 -0.59531,-0.59531 l -0.59531,-0.50403 0.50402,0.59532 c 0.47367,0.55944 0.6866,0.71576 0.6866,0.50402 z m 13.79208,-2.75298 c 0.32911,-0.41965 0.31975,-0.42901 -0.0999,-0.0999 -0.25466,0.19972 -0.46302,0.40808 -0.46302,0.46302 0,0.21777 0.21727,0.0776 0.56291,-0.36312 z m 75.37251,-3.05936 c 0,-0.0455 -0.38696,-0.43248 -0.8599,-0.85989 l -0.8599,-0.77711 0.77711,0.8599 c 0.72437,0.80154 0.94269,0.98151 0.94269,0.7771 z m -71.13917,-1.17398 c 0.32911,-0.41964 0.31975,-0.429 -0.0999,-0.0999 -0.25466,0.19972 -0.46302,0.40808 -0.46302,0.46302 0,0.21776 0.21727,0.0776 0.56292,-0.36313 z m 61.49852,-60.986457 0.7771,-0.859896 -0.85989,0.777105 c -0.47294,0.427408 -0.8599,0.814361 -0.8599,0.859896 0,0.204407 0.21832,0.02445 0.94269,-0.777105 z m -54.38852,-1.337159 c 0,-0.04422 -0.44649,-0.490699 -0.99219,-0.992188 l -0.99219,-0.911799 0.9118,0.992188 c 0.84868,0.923507 1.07258,1.11384 1.07258,0.911799 z m -2.11667,-2.122451 c 0,-0.04739 -0.32742,-0.374814 -0.7276,-0.727604 l -0.72761,-0.641432 0.64143,0.727604 c 0.59952,0.680056 0.81378,0.84894 0.81378,0.641432 z m -1.85208,-1.865807 c 0,-0.05494 -0.20836,-0.2633 -0.46302,-0.463021 -0.41965,-0.329107 -0.42901,-0.319749 -0.0999,0.0999 0.34564,0.44073 0.56292,0.580888 0.56292,0.363125 z"
       id="path77"
       sodipodi:nodetypes="cssssssssssssssssssssscscsssssssssscccssssssssssssssscssssssssssssssssssssccsscsssscsssscsscssssssssssssssscsssssssssssssssssssssscssssssssccccssscsssssssssssssssccsssssssssssssscsssscsssscssssssssscsssssssscssssscsssscsssssss" />
  </g>
</svg>
