<?xml version="1.0" encoding="UTF-8" standalone="no"?>
<!-- Created with Inkscape (http://www.inkscape.org/) -->

<svg
   width="300.60245mm"
   height="149.90385mm"
   viewBox="0 0 300.60245 149.90385"
   version="1.1"
   id="svg103"
   inkscape:version="1.1.1 (eb90963e84, 2021-10-02)"
   sodipodi:docname="sinus.svg"
   xmlns:inkscape="http://www.inkscape.org/namespaces/inkscape"
   xmlns:sodipodi="http://sodipodi.sourceforge.net/DTD/sodipodi-0.dtd"
   xmlns="http://www.w3.org/2000/svg"
   xmlns:svg="http://www.w3.org/2000/svg">
  <sodipodi:namedview
     id="namedview105"
     pagecolor="#505050"
     bordercolor="#ffffff"
     borderopacity="1"
     inkscape:pageshadow="0"
     inkscape:pageopacity="0"
     inkscape:pagecheckerboard="1"
     inkscape:document-units="mm"
     showgrid="false"
     inkscape:zoom="0.43311984"
     inkscape:cx="930.45841"
     inkscape:cy="544.88383"
     inkscape:window-width="1920"
     inkscape:window-height="1010"
     inkscape:window-x="0"
     inkscape:window-y="34"
     inkscape:window-maximized="1"
     inkscape:current-layer="layer1" />
  <defs
     id="defs100" />
  <g
     inkscape:label="Layer 1"
     inkscape:groupmode="layer"
     id="layer1"
     transform="translate(48.834927,-87.43333)">
    <path
       style="fill:#000000;stroke:#000000;stroke-width:8.232;stroke-miterlimit:4;stroke-dasharray:none;stroke-opacity:1"
       d="m 44.784015,230.68734 c -2.84029,-1.41538 -5.57375,-4.8527 -8.93235,-11.23243 -4.8644,-9.24004 -11.18401,-26.65614 -16.54851,-45.60579 -1.19742,-4.22978 -2.44794,-8.64175 -2.77893,-9.80437 l -0.60181,-2.11385 -30.32038,-0.028 -30.32038,-0.028 c -0.03338,-3.9655 1.565506,-7.78527 2.67915,-11.59134 10.79958,-36.90951 19.69315,-56.30378 26.79472,-58.431462 4.18563,-1.254045 8.51985,2.885872 13.52967,12.923122 5.83772,11.69601 13.76572,34.66315 18.90625,54.77076 l 0.3838,1.5013 29.683672,-0.0902 29.68367,-0.0902 1.184074,-4.40972 c 1.724017,-6.42057 5.448249,-18.79826 7.666603,-25.48037 5.996154,-18.06157 11.28385,-29.64605 16.362226,-35.84698 1.44873,-1.768962 4.37646,-3.575642 5.80213,-3.580453 6.41606,-0.02162 14.12045,13.720323 23.13884,41.271693 2.55943,7.81913 5.14968,16.45002 6.97477,23.24045 l 1.33897,4.98177 h 29.66554 29.66558 l 0.46264,-1.85208 c 1.38761,-5.55499 5.41319,-18.9498 8.29617,-27.60486 6.65043,-19.96548 12.14313,-31.738306 17.25075,-36.974526 4.45609,-4.568259 8.55718,-3.397301 13.40361,3.827023 1.5821,2.358373 1.60076,2.418603 0.90062,2.908983 -0.3932,0.27542 -0.7583,0.44488 -0.81132,0.37658 -0.053,-0.0683 -0.62836,-0.91793 -1.2785,-1.888066 -2.06578,-3.082504 -3.30237,-4.459755 -4.78409,-5.328295 -1.86589,-1.093724 -2.88845,-1.066242 -4.64462,0.124825 -5.6642,3.841559 -12.85497,19.377736 -20.85893,45.067366 -2.60324,8.35528 -6.15109,20.99583 -5.94955,21.19737 0.083,0.083 10.35039,0.11004 22.81644,0.0601 46.82654,0.35888 18.00695,2.04288 -23.04226,1.16264 -0.1073,0.10731 -1.55318,4.94223 -3.21306,10.74427 -8.6335,30.17797 -16.78995,49.69587 -23.40415,56.00476 -2.61094,2.49041 -4.36065,3.06816 -6.64729,2.19488 -5.83834,-2.22968 -12.65708,-15.31526 -20.76978,-39.85846 -1.79579,-5.43278 -4.24641,-13.37028 -5.44582,-17.63889 -1.19941,-4.26861 -2.44482,-8.63423 -2.76758,-9.70139 l -0.58684,-1.94027 -29.38944,-0.0112 c -19.795314,-0.008 -29.479845,0.10761 -29.666368,0.35278 -0.152305,0.20019 -0.552045,1.39586 -0.888302,2.65704 -5.377476,20.16892 -12.619402,41.23321 -17.934527,52.16543 -3.8638,7.94711 -8.074702,13.29528 -11.138003,14.1461 -1.76313,0.48971 -1.793073,0.48547 -3.867105,-0.54807 z m 5.21847,-2.22175 c 4.92801,-3.88705 11.160006,-16.82654 18.030232,-37.43616 3.016295,-9.04843 8.428101,-27.39438 8.428101,-28.57117 0,-0.53099 -2.372421,-0.57577 -29.19236,-0.55096 l -29.192363,0.027 0.11476,1.05381 c 0.20911,1.92037 5.32817,19.25051 8.49138,28.74688 7.35995,22.09549 13.95834,35.17393 18.890839,37.4429 1.70393,0.78381 2.744843,0.61642 4.429411,-0.71231 z m 120.186055,0.99613 c 4.86121,-1.82715 11.63882,-14.74367 18.81634,-35.85952 3.25093,-9.56405 8.68118,-27.79614 9.22177,-30.96213 0.11751,-0.68827 -0.21784,-0.69686 -28.98528,-0.74274 -16.00729,-0.0255 -29.21125,0.012 -29.34213,0.0833 -0.2916,0.15898 0.74378,4.08921 3.95404,15.00932 7.715,26.24354 15.31585,44.31685 21.17824,50.35764 1.23087,1.26832 3.06425,2.42454 3.9223,2.47357 0.13289,0.008 0.68852,-0.15416 1.23472,-0.35946 z M 15.648935,160.42596 c -0.0999,-0.33955 -0.99944,-3.55423 -1.99897,-7.14375 C 9.718695,139.16415 4.409905,123.21379 0.44068495,113.59471 -1.721095,108.3558 -5.959635,100.35143 -7.965575,97.719708 c -2.32466,-3.049868 -4.61753,-4.593606 -6.34219,-4.270058 -6.58911,1.236123 -17.264,25.35757 -27.08868,61.21074 -0.77591,2.83152 -1.49426,5.42602 -1.59634,5.76557 -0.17574,0.58452 1.38385,0.61736 29.31888,0.61736 27.93353,0 29.49482,-0.0329 29.32284,-0.61736 z m 121.842435,0.3388 c 0,-0.15321 -0.96034,-3.6854 -2.1341,-7.84931 -8.56748,-30.39321 -16.84463,-50.7285 -23.28155,-57.198019 -3.07317,-3.088751 -4.94748,-3.094797 -7.94629,-0.02564 -6.352096,6.501099 -14.655938,26.972259 -23.068892,56.870879 -1.171651,4.16391 -2.130277,7.77547 -2.130277,8.0257 0,0.36776 5.611387,0.45495 29.280559,0.45495 16.1043,0 29.28055,-0.12535 29.28055,-0.27856 z"
       id="path66"
       sodipodi:nodetypes="ssssccccscscccsssssscccsssssssssssccssssssccsssssssssscssssssssscsscsssssssssssssssssss" />
  </g>
</svg>
