<?xml version="1.0" encoding="UTF-8" standalone="no"?>
<!-- Created with Inkscape (http://www.inkscape.org/) -->

<svg
   width="267.27484mm"
   height="281.06213mm"
   viewBox="0 0 267.27484 281.06213"
   version="1.1"
   id="svg1910"
   inkscape:version="1.1.2 (0a00cf5339, 2022-02-04)"
   sodipodi:docname="solar_wind_energy.svg"
   xmlns:inkscape="http://www.inkscape.org/namespaces/inkscape"
   xmlns:sodipodi="http://sodipodi.sourceforge.net/DTD/sodipodi-0.dtd"
   xmlns="http://www.w3.org/2000/svg"
   xmlns:svg="http://www.w3.org/2000/svg">
  <sodipodi:namedview
     id="namedview1912"
     pagecolor="#505050"
     bordercolor="#ffffff"
     borderopacity="1"
     inkscape:pageshadow="0"
     inkscape:pageopacity="0"
     inkscape:pagecheckerboard="1"
     inkscape:document-units="mm"
     showgrid="false"
     inkscape:zoom="1.4945882"
     inkscape:cx="327.51497"
     inkscape:cy="803.23131"
     inkscape:window-width="1920"
     inkscape:window-height="1018"
     inkscape:window-x="0"
     inkscape:window-y="28"
     inkscape:window-maximized="1"
     inkscape:current-layer="layer1" />
  <defs
     id="defs1907" />
  <g
     inkscape:label="Layer 1"
     inkscape:groupmode="layer"
     id="layer1"
     transform="translate(-84.83798,54.325732)">
    <path
       style="fill:#000000;fill-opacity:1;stroke-width:0.565711"
       d="m 147.31757,207.57092 c -30.45683,-2.35119 -56.386716,-26.07239 -61.679985,-56.42625 -1.06614,-6.11369 -1.06614,-17.83187 0,-23.94556 4.890439,-28.043844 27.611525,-50.758044 55.667245,-55.650553 6.17742,-1.077254 17.84429,-1.056973 24.14611,0.04197 27.32283,4.764701 49.51087,26.494615 55.14276,54.004263 1.72294,8.41604 1.38644,22.60957 -0.72429,30.54845 -1.92893,7.2551 -5.23319,14.70954 -9.19315,20.73985 -4.57964,6.97396 -14.30193,16.46862 -21.18485,20.68883 -12.54271,7.69047 -27.16621,11.15754 -42.17384,9.999 z m 18.66123,-4.75848 c 26.30013,-5.61283 46.05934,-25.79198 51.26187,-52.35131 1.07468,-5.48632 0.9309,-17.99099 -0.27158,-23.61954 -5.62663,-26.33711 -25.1046,-45.845165 -51.26589,-51.345199 -6.41692,-1.349064 -17.79163,-1.37265 -24.50212,-0.0508 -22.79243,4.489704 -41.278887,20.494313 -49.227142,42.618449 -4.619836,12.85943 -4.604266,29.37971 0.0399,42.32205 8.033172,22.38689 27.627102,39.02938 50.212352,42.64891 2.17797,0.34902 4.59641,0.74368 5.37426,0.87699 2.63874,0.45221 14.4061,-0.25181 18.37837,-1.09955 z m -24.60121,-8.69716 c -20.5672,-4.4857 -36.9394,-20.19598 -42.519571,-40.80059 -1.111584,-4.10449 -1.302624,-6.17524 -1.304744,-14.14279 -0.002,-7.99825 0.18484,-10.0225 1.306314,-14.14281 4.829881,-17.74496 17.968511,-32.284838 34.737911,-38.442843 7.21537,-2.649617 10.13743,-3.183338 19.62006,-3.695119 8.06831,0.453002 10.05119,0.758384 14.18277,1.882933 9.82567,2.674371 18.35422,7.609214 25.50004,14.754992 7.14076,7.140747 12.08669,15.681467 14.76711,25.500037 1.1258,4.12392 1.3127,6.13752 1.3127,14.14281 0,8.00526 -0.18688,10.01886 -1.3127,14.14279 -2.68042,9.81857 -7.62635,18.35928 -14.76711,25.50004 -7.05602,7.05603 -15.94735,12.23227 -25.33949,14.75188 -6.3879,1.71367 -19.57471,1.98998 -26.18329,0.54867 z m 21.71712,-3.53424 c 4.86446,-0.8372 11.9522,-3.55131 17.07553,-6.53877 6.32179,-3.68623 14.88303,-12.41114 18.49586,-18.84942 16.32935,-29.09981 2.37623,-65.18606 -29.28576,-75.74034 -14.55806,-4.852837 -31.39122,-2.683171 -44.23542,5.70156 -27.607115,18.02207 -32.390418,55.72887 -10.09325,79.56532 12.53682,13.40232 29.59998,19.03583 48.04304,15.86165 z m -34.6211,-16.91521 c -3.42291,-2.0869 -4.46063,-6.86411 -2.22134,-10.22609 2.83809,-4.26101 7.79906,-4.88138 11.54956,-1.44433 3.63594,3.33212 3.08023,9.14752 -1.11882,11.70782 -2.34389,1.42916 -5.83,1.41327 -8.2094,-0.0374 z m 6.32201,-3.42083 c 1.82368,-1.43451 1.98699,-3.98822 0.35915,-5.61606 -2.28249,-2.28249 -6.22283,-0.50346 -6.22283,2.80952 0,1.63682 2.16449,3.97902 3.67712,3.97902 0.3828,0 1.36675,-0.52762 2.18656,-1.17248 z m 15.74075,3.42083 c -2.94636,-1.79635 -4.35423,-6.32449 -2.86526,-9.21551 3.64364,-7.0746 13.61421,-5.68264 14.48261,2.02185 0.7146,6.33982 -6.09834,10.55849 -11.61735,7.19366 z m 6.32201,-3.42083 c 2.66718,-2.09801 1.28308,-6.74749 -2.00867,-6.74749 -1.77094,0 -3.85501,2.17193 -3.85501,4.01753 0,1.56073 2.2065,3.90244 3.67712,3.90244 0.38279,0 1.36676,-0.52762 2.18656,-1.17248 z m 15.74076,3.42083 c -3.42292,-2.0869 -4.46064,-6.86411 -2.22134,-10.22609 2.83808,-4.26101 7.79906,-4.88138 11.54957,-1.44433 3.63594,3.33212 3.08022,9.14752 -1.11884,11.70782 -2.3439,1.42916 -5.83,1.41327 -8.20939,-0.0374 z m 6.322,-3.42083 c 2.66719,-2.09801 1.28309,-6.74749 -2.00866,-6.74749 -1.77094,0 -3.85501,2.17193 -3.85501,4.01753 0,1.56073 2.2065,3.90244 3.67712,3.90244 0.38279,0 1.36675,-0.52762 2.18655,-1.17248 z m -61.54589,-19.51643 c -1.32242,-1.32241 -1.32242,-21.79095 0,-23.11336 0.789,-0.78901 4.82447,-0.88899 35.88229,-0.88899 31.05783,0 35.09331,0.10007 35.8823,0.88899 1.32243,1.32241 1.32243,21.79095 0,23.11336 -0.78899,0.78901 -4.82447,0.88899 -35.8823,0.88899 -31.05782,0 -35.09329,-0.10007 -35.88229,-0.88899 z m 68.69358,-11.55667 v -8.48568 h -32.81129 -32.81128 v 8.48568 8.48568 h 32.81128 32.81129 z"
       id="path1749"
       sodipodi:nodetypes="sssssssssscssssssssscsssscsssscsscscsscsscccsccsssssssssssssscscscssssssccscssccccccccc" />
    <path
       style="fill:#000000;stroke-width:0.264583"
       d="m 231.49003,226.39717 -11.24479,-0.13229 -1.71979,-0.81952 c -4.21902,-2.01044 -6.60301,-5.7762 -6.61145,-10.44339 -0.01,-5.5108 4.03142,-10.20871 9.60301,-11.16309 1.47148,-0.25207 1.78034,-0.40492 2.17792,-1.07799 0.25481,-0.43136 1.04138,-1.42264 1.74795,-2.20285 1.02002,-1.12633 1.28465,-1.60874 1.28465,-2.3418 v -0.92323 h -5.30016 c -5.76778,0 -6.66536,-0.1695 -7.47969,-1.4123 -0.70684,-1.07878 -0.59858,-2.38294 0.55264,-6.6575 0.58788,-2.18281 1.72759,-6.46906 2.53269,-9.525 0.80511,-3.05593 2.17332,-8.23515 3.04046,-11.50937 0.86715,-3.27422 2.85105,-10.77516 4.40867,-16.66875 1.55762,-5.89359 3.30446,-12.44203 3.88186,-14.55208 0.5774,-2.11006 1.46362,-5.50334 1.96937,-7.54063 0.50575,-2.03729 1.03599,-4.06135 1.17831,-4.49791 0.14231,-0.43657 1.09249,-4.05324 2.1115,-8.03705 1.019,-3.98381 1.97554,-7.47276 2.12564,-7.75322 0.15009,-0.28046 0.65225,-0.74123 1.11591,-1.02394 0.79394,-0.4841 1.40439,-0.51408 10.48785,-0.51501 l 9.64484,-9.9e-4 -1.04565,1.12448 -1.04565,1.12448 1.20041,-1.12448 1.2004,-1.12448 h 6.12053 6.12052 l 0.13813,-0.72761 c 0.076,-0.40018 0.28508,-7.069766 0.4647,-14.821316 l 0.32658,-14.09371 0.81309,0.72622 0.81309,0.72623 -0.79375,-0.84822 -0.79375,-0.84821 0.1757,-6.55408 c 0.0966,-3.604749 0.25533,-11.018933 0.35265,-16.475964 0.0973,-5.457031 0.26165,-11.945937 0.36519,-14.419791 0.10354,-2.473854 0.14632,-4.586986 0.0951,-4.695852 -0.0512,-0.108862 -1.54481,1.082382 -3.31902,2.647212 -11.21326,9.889932 -16.75237,13.505677 -24.05525,15.702449 -4.31416,1.297737 -7.48955,1.940071 -12.50809,2.530192 -6.96898,0.81947 -22.81818,0.540311 -25.41679,-0.447678 -0.84547,-0.321444 -1.70077,-1.754155 -1.70201,-2.851025 -10e-4,-1.027816 0.60816,-2.317401 1.25852,-2.663553 0.25316,-0.134741 3.85356,-1.631963 8.00091,-3.327161 4.14734,-1.695202 8.79078,-3.604501 10.31875,-4.242893 1.52797,-0.638395 3.25437,-1.335484 3.83646,-1.549093 0.58208,-0.213609 3.20145,-1.275887 5.82083,-2.360618 6.33137,-2.621939 11.42453,-4.715174 15.61041,-6.41573 1.89177,-0.768551 6.17802,-2.523773 9.525,-3.900493 3.34698,-1.376722 6.25951,-2.55883 6.4723,-2.62691 0.27924,-0.08934 0.36652,-0.454779 0.31372,-1.313424 -0.16508,-2.684393 1.22766,-6.461715 3.15241,-8.549817 0.57298,-0.621609 1.04178,-1.217607 1.04178,-1.324441 0,-0.106833 -0.61565,-1.641329 -1.36811,-3.409994 -0.75246,-1.7686665 -1.70277,-4.1053185 -2.11179,-5.1925625 l -0.74368,-1.976811 0.85502,-0.933053 0.85502,-0.933053 -0.85714,0.773906 c -0.47142,0.425649 -0.9066,0.723056 -0.96706,0.660906 -0.53528,-0.550257 -2.93166,-8.75891 -3.89503,-13.34217 -0.45195,-2.1501205 -0.44994,-9.1454205 0.004,-12.6338195 0.33064,-2.542974 0.41472,-2.809211 0.79376,-2.513542 0.37773,0.294648 0.38346,0.279146 0.0526,-0.142218 -0.31298,-0.398587 -0.31821,-0.770197 -0.0333,-2.364476 0.90711,-5.075904 3.48243,-13.650433 5.74351,-19.123027 3.07771,-7.449148 3.52185,-8.069792 5.77477,-8.069792 1.65978,0 2.91872,1.170866 3.14648,2.926366 0.0838,0.64607 0.62361,10.280965 1.19952,21.410877 0.96288,18.607984 1.01294,20.2739825 0.62216,20.7057855 -0.39683,0.438496 -0.45716,0.440454 -0.91119,0.02956 -0.26742,-0.242014 -0.48622,-0.384315 -0.48622,-0.316227 0,0.06809 0.3824,0.473496 0.84979,0.900904 0.46738,0.427408 0.70404,0.584544 0.5259,0.349189 -0.25824,-0.34118 -0.2505,-0.488823 0.0382,-0.728409 0.45432,-0.37705 0.51354,0.259101 1.13879,12.233439 l 0.46788,8.9604485 0.67254,0.254077 c 4.82216,1.821746 7.78696,4.969314 8.75492,9.294608 l 0.31165,1.392592 3.07903,0.588545 c 10.5146,2.009825 20.20458,5.17285 25.03944,8.173423 5.64465,3.503142 12.10799,9.598404 17.99244,16.967785 1.69731,2.125625 1.77053,2.229562 5.4551,7.744177 3.91581,5.860692 4.39959,7.042184 3.55348,8.67837 -0.53882,1.041958 -1.53222,1.613651 -2.80396,1.613651 -1.17098,0 -1.36769,-0.101642 -7.6606,-3.958338 -5.81043,-3.561001 -9.57888,-5.862955 -10.84792,-6.626445 -0.65484,-0.39397 -2.79797,-1.700919 -4.7625,-2.904326 -1.96453,-1.203409 -5.45458,-3.333866 -7.75566,-4.734351 -2.30108,-1.400481 -4.68233,-2.871824 -5.29166,-3.269649 -0.60934,-0.397825 -1.28648,-0.807974 -1.50476,-0.911442 -0.21828,-0.10347 -3.31391,-1.974323 -6.87917,-4.157456 -3.56526,-2.18313 -7.59729,-4.649385 -8.96006,-5.480566 l -2.47776,-1.511236 -1.04725,0.703469 -1.04724,0.703466 0.15121,5.159375 c 0.0832,2.837656 0.26538,11.291093 0.40493,18.785416 0.13954,7.494323 0.32965,15.154104 0.42245,17.021734 0.16412,3.30294 0.15178,3.41491 -0.4518,4.09915 -0.50847,0.57643 -0.5197,0.61883 -0.0622,0.2348 l 0.55833,-0.46866 0.18592,4.4393 c 0.10226,2.44162 0.18,5.51087 0.17276,6.82055 -0.0109,1.96728 0.41204,16.51723 0.48644,16.73489 0.0124,0.0364 3.14148,0.0661 6.95344,0.0661 h 6.93084 l 0.80726,0.7276 0.80727,0.72761 -0.64047,-0.72761 -0.64047,-0.7276 21.80809,5.3e-4 c 24.54849,5.3e-4 23.15319,-0.11303 24.16792,1.96579 l 0.50773,1.04016 -0.70539,2.7963 c -0.38796,1.53796 -1.00849,3.92739 -1.37896,5.30984 -0.37046,1.38244 -1.33423,5.01385 -2.14171,8.06979 -0.80747,3.05594 -2.11206,7.9502 -2.89908,10.87614 l -1.43095,5.31977 v 27.39854 27.39853 l 0.79354,1.67741 c 0.43645,0.92257 0.79364,1.82623 0.79375,2.00813 1.2e-4,0.1819 0.27285,0.33073 0.60608,0.33073 0.92516,0 3.46343,0.71393 4.84181,1.36184 2.10314,0.98862 4.20557,3.17727 5.43456,5.65748 0.9656,1.94866 1.10313,2.46353 1.22394,4.58234 0.1952,3.42363 -0.35206,5.33586 -2.361,8.24977 -1.14132,1.65541 -2.80585,2.99317 -5.27643,4.24053 l -1.69062,0.85357 -50.00625,-0.10351 c -27.50344,-0.0569 -55.0664,-0.16296 -61.25104,-0.23572 z m 111.25041,-4.25349 c 1.80736,-0.67622 3.90957,-2.64713 4.70044,-4.4069 0.86398,-1.92241 0.82166,-5.01809 -0.0953,-6.97352 -0.80908,-1.72529 -2.48786,-3.43882 -4.12143,-4.20666 -1.41182,-0.66366 -3.80514,-0.93118 -5.27885,-0.59008 -1.53256,0.35473 -1.78379,0.11454 -1.71291,-1.63753 0.10188,-2.51817 -1.26007,-4.84949 -3.5392,-6.05824 -2.04057,-1.08223 -5.70735,-0.56473 -6.99541,0.98729 -0.55558,0.66942 -1.29459,0.48517 -2.20281,-0.54925 -0.46622,-0.53099 -1.23267,-1.1263 -1.70321,-1.32292 -1.25003,-0.52228 -3.2335,-0.44563 -4.44449,0.17177 -0.98046,0.49985 -1.98429,0.5011 -1.98429,0.003 0,-0.52811 -1.49138,-1.93241 -2.74644,-2.58607 -1.75236,-0.91268 -4.24979,-0.96858 -5.85252,-0.13099 -1.3688,0.71535 -2.90675,2.31799 -3.43021,3.57449 -0.22734,0.54571 -0.56057,1.00235 -0.74052,1.01476 -0.17995,0.0124 -0.946,0.004 -1.70233,-0.0185 -2.43153,-0.0727 -4.57889,1.27042 -5.49283,3.43556 -0.73905,1.7508 -0.9233,1.89606 -2.0033,1.57935 -1.88679,-0.55332 -4.13321,0.28689 -5.47685,2.04851 -0.5805,0.76108 -0.73706,1.30083 -0.85423,2.94508 l -0.14347,2.01327 -1.17874,0.20026 c -1.73475,0.29477 -3.42945,1.45267 -4.17888,2.8552 -0.53127,0.99425 -0.62061,1.4833 -0.5417,2.96516 0.1153,2.16535 1.03046,3.64392 2.85251,4.60867 l 1.18654,0.62825 h 28.10614 c 27.80203,0 28.12203,-0.006 29.57433,-0.54933 z m -80.76009,-0.5706 c 0.58016,-0.44257 1.12923,-1.19801 1.41543,-1.94739 0.40438,-1.05886 0.42323,-1.39023 0.13947,-2.45195 -0.71398,-2.67141 -3.26085,-3.89598 -6.02448,-2.89665 -0.47961,0.17343 -0.94999,0.23735 -1.04528,0.14208 -0.0953,-0.0953 -0.21399,-0.94734 -0.26376,-1.89344 -0.15017,-2.85443 -1.46843,-5.07156 -3.75437,-6.31439 -1.85734,-1.00978 -3.54348,-1.17043 -5.89177,-0.56139 -1.72788,0.44818 -1.91703,0.45389 -2.19436,0.0665 -0.16692,-0.2332 -0.68788,-0.97353 -1.15768,-1.6452 -1.51271,-2.16271 -4.93582,-3.86779 -7.76492,-3.86779 -2.03908,0 -4.42865,0.89104 -6.18575,2.30659 -1.23245,0.9929 -1.79435,1.70571 -2.59794,3.29573 l -1.02537,2.02882 h -2.07322 c -1.73523,0 -2.32508,0.12203 -3.6182,0.74851 -3.50274,1.69693 -5.06541,6.01969 -3.42689,9.47973 0.55872,1.17985 1.48541,2.24004 2.87157,3.28525 1.39182,1.0495 1.72001,1.06444 22.04978,1.0052 l 19.59988,-0.0571 z m 19.06274,0.26003 c -1.81003,-1.97556 -2.22769,-5.31233 -0.97867,-7.81878 0.83424,-1.6741 2.40455,-3.06872 4.08304,-3.62622 l 1.25381,-0.41646 0.11881,-1.43261 c 0.26507,-3.19648 3.11676,-5.75223 6.47036,-5.7989 1.57263,-0.022 1.68323,-0.0653 1.97892,-0.77742 0.17226,-0.41484 0.86121,-1.31689 1.531,-2.00454 1.37878,-1.41555 3.09245,-2.13601 5.08064,-2.13601 1.18492,0 1.29078,-0.0578 1.70494,-0.93054 0.90685,-1.91106 4.17719,-4.10223 6.11607,-4.09784 1.04689,0.003 0.90931,-0.48577 -0.34395,-1.2202 -0.97112,-0.56912 -1.66645,-0.74732 -3.28105,-0.84077 -2.66296,-0.15417 -4.29914,0.37656 -6.07026,1.96892 -1.71756,1.54425 -2.20606,1.46561 -2.4333,-0.39168 -0.38043,-3.10915 -2.79173,-5.35374 -5.9687,-5.55604 -1.38686,-0.0883 -1.96533,0.006 -2.99486,0.48821 -0.70179,0.32869 -1.43744,0.53567 -1.63477,0.45995 -0.19733,-0.0757 -0.57591,-0.82648 -0.84129,-1.66836 -0.36162,-1.14721 -0.82572,-1.87391 -1.85236,-2.90055 -1.71742,-1.71741 -3.41615,-2.35159 -5.87897,-2.19477 -1.48739,0.0947 -1.76778,0.0357 -2.2453,-0.4726 l -0.54565,-0.58084 0.9899,-0.32668 c 0.62531,-0.20637 1.74998,-0.27461 3.05352,-0.18526 1.76693,0.1211 2.08262,0.0786 2.1958,-0.29591 0.0727,-0.24053 0.43258,-1.68748 0.79975,-3.21545 0.36716,-1.52797 1.19389,-4.7637 1.83716,-7.19052 0.64327,-2.42681 1.10133,-4.48064 1.01791,-4.56406 -0.0834,-0.0834 -5.61985,-0.15167 -12.30318,-0.15167 -12.03159,0 -12.15291,0.005 -12.29348,0.54292 -0.14117,0.5398 -0.14557,0.53954 -0.76898,-0.0461 -0.63245,-0.59415 -0.82365,-1.40236 -0.39451,-1.66759 0.39391,-0.24345 27.35716,-0.18497 27.60199,0.0599 0.1828,0.1828 -2.78828,12.3851 -3.98741,16.37641 -0.23397,0.77877 -0.18399,0.89913 0.63177,1.52135 0.48722,0.37161 0.94386,0.67567 1.01477,0.67567 0.0709,0 0.21116,-0.38696 0.31168,-0.8599 0.10052,-0.47294 0.37787,-1.08873 0.61634,-1.3684 0.29398,-0.34478 0.31367,-0.43794 0.0612,-0.28935 -0.29395,0.17296 -0.33428,0.085 -0.19146,-0.41754 0.0995,-0.35018 0.90145,-3.43466 1.78204,-6.8544 0.8806,-3.41974 1.77887,-6.84278 1.99617,-7.60677 l 0.39508,-1.38906 h 13.74786 c 12.02034,0 13.76714,0.0502 13.90126,0.39976 0.13299,0.34656 -2.14158,9.71435 -4.01448,16.53357 -0.33972,1.23693 -0.80896,3.08007 -1.04276,4.09586 -0.2338,1.01579 -0.60748,2.4743 -0.83041,3.24114 l -0.40532,1.39425 h -6.7281 c -3.70046,0 -6.7281,0.0564 -6.7281,0.1252 0,0.0969 0.99006,2.30646 1.22721,2.73889 0.0259,0.0473 0.52277,-0.22878 1.10408,-0.61346 3.50784,-2.3214 8.64718,-1.88595 11.88316,1.00682 0.46804,0.41838 0.61532,0.45021 0.71999,0.15562 0.0724,-0.2037 1.02656,-3.82317 2.12042,-8.04328 2.33687,-9.0156 2.95753,-11.37877 6.35842,-24.20937 1.40787,-5.31151 2.78802,-10.52049 3.06699,-11.57552 0.27898,-1.05503 0.75834,-2.84096 1.06527,-3.96875 0.69227,-2.54375 2.55266,-9.62359 4.67556,-17.79323 0.88863,-3.41974 2.09866,-7.99963 2.68896,-10.17754 0.5903,-2.17791 1.07327,-4.05314 1.07327,-4.16719 0,-0.11404 -6.33241,-0.20735 -14.07201,-0.20735 h -14.07201 l -0.67662,-0.59532 -0.67661,-0.59531 0.50213,0.59531 0.50214,0.59532 h -32.43198 -32.43195 l -0.26887,0.85989 c -0.14788,0.47295 -0.94428,3.47927 -1.76978,6.68073 -0.8255,3.20146 -1.85466,7.13052 -2.28702,8.73125 -0.43235,1.60073 -1.12634,4.22011 -1.54218,5.82084 -3.93157,15.13391 -5.61104,21.51252 -7.14467,27.13534 -0.57785,2.11861 -1.51128,5.63095 -2.0743,7.80521 -0.563,2.17426 -1.77028,6.75116 -2.68283,10.1709 -1.952,7.31504 -3.69362,14.07343 -3.6989,14.35365 -0.002,0.10914 6.84267,0.19844 15.2105,0.19844 h 15.21423 l 0.95382,-1.05577 c 0.5246,-0.58068 1.72126,-1.43359 2.65924,-1.89534 1.41133,-0.6948 2.03375,-0.84352 3.60954,-0.86247 1.04728,-0.0127 2.21821,0.0653 2.60207,0.17315 0.62886,0.17663 0.70942,0.11771 0.81407,-0.59531 l 0.11614,-0.79135 h -3.22907 c -2.40789,0 -3.3054,-0.092 -3.52924,-0.36168 -0.22921,-0.27617 -0.0229,-1.41775 0.87269,-4.82865 1.84964,-7.04452 4.58517,-17.62073 4.77667,-18.46777 l 0.17446,-0.77164 0.66158,0.66159 0.66159,0.66158 -1.75833,6.85693 c -0.96707,3.77132 -2.21554,8.61311 -2.77436,10.75954 l -1.01604,3.9026 h 3.0049 c 2.7407,0 3.01921,-0.0451 3.16767,-0.51287 0.21371,-0.67333 1.72149,-1.98268 3.12138,-2.7106 1.37683,-0.71591 4.30848,-0.79512 5.78285,-0.15621 0.94105,0.40778 0.9689,0.40294 1.30602,-0.22698 0.3973,-0.74237 2.23896,-2.3132 3.2545,-2.77591 0.58539,-0.26672 0.77613,-0.24116 1.22373,0.16389 0.72874,0.6595 0.67191,0.83923 -0.37456,1.18459 -0.95945,0.31665 -2.86695,2.19556 -3.38642,3.33568 -0.34662,0.76076 -0.43199,0.75639 -2.94727,-0.14997 -1.36968,-0.49355 -1.71887,-0.52345 -3.00253,-0.25696 -2.58731,0.53713 -4.55733,2.94203 -4.56984,5.57869 -0.008,1.69899 -0.3784,1.92751 -2.07753,1.2819 -2.62783,-0.99851 -5.3871,-0.4446 -7.46432,1.49839 -1.74284,1.63023 -2.43237,3.18273 -2.47141,5.56459 -0.0171,1.04296 -0.11653,1.9817 -0.22096,2.08602 -0.10443,0.10436 -0.62351,0.23752 -1.15351,0.29591 -1.00861,0.11116 -3.03001,1.01696 -3.01149,1.34948 0.006,0.10618 0.35378,0.59413 0.77305,1.08432 l 0.76229,0.89125 1.37495,-0.32983 c 4.88061,-1.17086 10.18755,2.36088 10.75568,7.15777 l 0.15375,1.29823 1.4938,-0.0212 c 1.79361,-0.0251 3.04823,0.45579 4.20447,1.61202 1.35642,1.35642 1.75134,2.31781 1.76129,4.2876 0.008,1.56909 -0.0857,1.89855 -0.84552,2.97657 l -0.85444,1.21221 h 9.0365 9.0365 L 281.04309,221.833 Z M 222.16347,188.1148 c -0.65462,-0.17108 -0.59443,-0.70324 0.57345,-5.07019 0.57007,-2.13156 1.88956,-7.20931 2.93222,-11.2839 1.04266,-4.07458 2.0397,-7.82505 2.21563,-8.33437 l 0.31988,-0.92604 13.21821,-0.0733 c 7.27002,-0.0403 13.4861,-0.008 13.81352,0.0712 0.34145,0.0829 0.59531,0.34616 0.59531,0.61742 0,0.26012 -0.7001,3.20464 -1.55578,6.5434 -0.85567,3.33875 -2.24315,8.74936 -3.08328,12.02358 -0.84012,3.27422 -1.64288,6.10195 -1.78391,6.28385 -0.19964,0.25752 -3.19256,0.32393 -13.51931,0.30004 -7.29461,-0.0169 -13.47128,-0.0851 -13.72594,-0.15168 z m 26.11647,-1.73586 c 0.0575,-0.1819 0.81664,-3.06916 1.68696,-6.41614 0.87032,-3.34698 2.12922,-8.17504 2.79755,-10.72901 0.66834,-2.55398 1.21516,-4.7864 1.21516,-4.96094 0,-0.24218 -2.90965,-0.31734 -12.28435,-0.31734 h -12.28435 l -0.39995,1.38906 c -0.21998,0.76398 -0.99647,3.71078 -1.72555,6.54844 -0.72908,2.83765 -1.86643,7.24297 -2.52746,9.78958 -0.66103,2.54661 -1.20267,4.7195 -1.20365,4.82865 -0.001,0.10914 5.53837,0.19843 12.30966,0.19843 9.61699,0 12.33431,-0.0724 12.41598,-0.33073 z m -19.16701,-25.85252 c -0.33721,-0.21522 -0.19504,-1.02846 1.0057,-5.75297 2.70362,-10.63774 3.91413,-15.30304 4.08882,-15.75828 0.16437,-0.42833 1.11288,-0.45966 13.91472,-0.45966 11.21958,0 13.7632,0.0648 13.87399,0.35355 0.0746,0.19445 -0.37717,2.36734 -1.00398,4.82864 -3.39946,13.34869 -4.13564,16.15236 -4.33611,16.51364 -0.35404,0.63806 -1.42059,0.53774 -2.21344,-0.2082 -0.89611,-0.84309 -0.9172,-1.08893 -0.0856,-0.99764 0.35311,0.0388 0.75048,-0.002 0.88303,-0.0894 0.13256,-0.0879 1.26732,-4.15528 2.52168,-9.0385 1.25436,-4.88323 2.35802,-9.08018 2.45257,-9.32657 0.16001,-0.417 -0.68863,-0.44797 -12.27305,-0.44797 h -12.44493 l -0.40967,1.4092 c -0.22532,0.77507 -0.71992,2.70984 -1.09912,4.29948 -0.37921,1.58965 -1.27487,5.10656 -1.99036,7.81535 -0.7155,2.70879 -1.3009,5.07722 -1.3009,5.26318 0,0.27164 2.20129,0.30611 11.19988,0.17536 l 11.19988,-0.16273 0.8816,0.90959 0.88161,0.90958 -12.6768,0.008 c -7.54265,0.004 -12.83585,-0.094 -13.06952,-0.24312 z m 30.29432,-0.1769 c -0.23704,-0.23705 -0.37265,-0.58301 -0.30136,-0.76881 0.15042,-0.39199 2.94921,-11.15304 4.38409,-16.85634 0.53978,-2.14551 1.03667,-3.95618 1.10421,-4.02372 0.0911,-0.0911 24.31909,-0.23018 27.28698,-0.15662 0.67142,0.0166 0.60496,0.5354 -0.73995,5.77547 -3.11037,12.11872 -4.15544,15.81674 -4.55846,16.13028 -0.32708,0.25445 -3.46019,0.33073 -13.58482,0.33073 -11.80769,0 -13.20398,-0.0443 -13.59069,-0.43099 z m 26.29938,-1.58197 c 0.0601,-0.056 0.78893,-2.75141 1.61958,-5.98976 0.83064,-3.23835 1.9026,-7.40597 2.38213,-9.26139 0.47954,-1.85541 0.82229,-3.40322 0.76168,-3.43958 -0.0606,-0.0364 -5.6422,-0.007 -12.40352,0.0662 l -12.29333,0.13229 -1.15933,4.49792 c -0.63764,2.47385 -1.72254,6.64104 -2.41089,9.26041 -0.68836,2.61938 -1.15121,4.83038 -1.02855,4.91333 0.24239,0.16394 24.35297,-0.0124 24.53223,-0.17941 z m 3.99347,1.61818 c -0.27123,-0.32682 -0.10866,-1.28227 0.88957,-5.22808 3.23426,-12.78431 4.19027,-16.2206 4.60049,-16.536 0.33113,-0.25457 3.4798,-0.32979 13.67491,-0.32668 7.28461,0.002 13.40987,0.10863 13.6117,0.23645 0.41382,0.26206 0.41633,0.246 -0.70775,4.522 -0.43992,1.67349 -1.39761,5.36443 -2.1282,8.20209 -1.72337,6.69371 -2.37581,9.03404 -2.57372,9.23195 -0.0884,0.0884 -6.20748,0.19167 -13.59793,0.22946 -11.72321,0.06 -13.47951,0.0177 -13.76907,-0.33119 z m 20.78065,-1.45818 5.54365,-8e-4 1.24738,-4.82777 c 0.68606,-2.65527 1.71172,-6.6137 2.27925,-8.79652 0.56753,-2.18281 1.11061,-4.29935 1.20683,-4.70341 l 0.17496,-0.73467 -12.3722,0.0732 -12.3722,0.0732 -0.4711,1.71979 c -0.2591,0.94588 -1.3018,4.93448 -2.31711,8.86354 -1.0153,3.92906 -1.92027,7.41164 -2.01104,7.73906 l -0.16503,0.59532 h 6.69494 6.69495 l -0.77655,0.85989 -0.77655,0.8599 0.93808,-0.8599 0.93808,-0.85989 5.54366,-8e-4 z m -75.71503,-22.87253 c -0.20687,-0.5391 -0.0179,-1.32635 4.38238,-18.25789 0.4522,-1.73997 0.96795,-3.25837 1.14612,-3.37422 0.17816,-0.11586 2.50876,-0.20091 5.17911,-0.189 l 4.85517,0.0216 -0.62088,0.70675 -0.62088,0.70675 0.80727,-0.72761 0.80726,-0.7276 h 8.37674 c 7.71071,0 8.39567,0.0368 8.61493,0.46302 0.16103,0.31302 0.005,1.32015 -0.48168,3.10885 -0.39594,1.45521 -1.46001,5.56287 -2.3646,9.12813 -0.9046,3.56526 -1.84452,7.13713 -2.0887,7.9375 l -0.44397,1.45521 -13.69958,0.0685 c -11.84693,0.0593 -13.71974,0.016 -13.84869,-0.32006 z m 26.62691,-2.32816 c 0.15931,-0.61846 0.39747,-1.48167 0.52923,-1.91823 0.13176,-0.43656 0.89614,-3.37463 1.69861,-6.52904 0.80247,-3.15441 1.69418,-6.58384 1.98157,-7.62094 l 0.52254,-1.88565 -9.18134,0.0522 c -5.04973,0.0287 -10.65777,0.12435 -12.4623,0.2126 l -3.28096,0.16046 -0.88678,3.43958 c -0.48773,1.89177 -1.54137,5.94957 -2.34143,9.01732 -0.80006,3.06776 -1.45466,5.7169 -1.45466,5.88698 0,0.23149 3.09065,0.30924 12.29293,0.30924 h 12.29292 z m 3.73094,2.35301 c -0.22648,-0.27289 0.0518,-1.71609 1.16057,-6.01927 0.80216,-3.11316 2.00624,-7.80343 2.67572,-10.4228 0.66949,-2.61938 1.33786,-4.91133 1.48527,-5.09323 0.20813,-0.25682 3.30775,-0.33073 13.86997,-0.33073 15.11164,0 14.16002,-0.12495 13.64762,1.79202 -0.43808,1.63895 -3.77388,14.5583 -4.49019,17.39027 -0.36808,1.45521 -0.8023,2.73331 -0.96493,2.84022 -0.16263,0.10691 -6.32354,0.19621 -13.69091,0.19844 -10.95904,0.003 -13.44938,-0.0612 -13.69312,-0.35492 z m 26.42908,-1.89579 c 0.13953,-0.367 0.68243,-2.36129 1.20644,-4.43177 0.52402,-2.07048 1.4671,-5.72904 2.09574,-8.13014 0.62865,-2.40109 1.21646,-4.69422 1.30625,-5.09584 l 0.16326,-0.73023 -12.37218,0.0688 -12.37217,0.0688 -1.13494,4.36563 c -0.62421,2.40109 -1.67376,6.44922 -2.33231,8.99583 -0.65856,2.54661 -1.25844,4.83857 -1.33308,5.09323 -0.12787,0.43629 0.576,0.46302 12.19179,0.46302 h 12.32751 z m 4.03269,2.08178 c -0.51612,-0.21177 -0.42828,-0.73508 1.15596,-6.88658 0.81767,-3.175 2.0069,-7.78944 2.64272,-10.25431 0.63583,-2.46487 1.24674,-4.56467 1.35759,-4.66622 0.11085,-0.10156 6.27996,-0.26852 13.70914,-0.37104 11.98557,-0.1654 13.54568,-0.14052 13.84552,0.22077 0.27958,0.33686 0.11043,1.26617 -0.97955,5.38179 -0.72462,2.73604 -1.98658,7.52887 -2.80436,10.65074 -0.81777,3.12187 -1.63336,5.7668 -1.81241,5.87764 -0.35702,0.22098 -26.57982,0.26665 -27.11461,0.0472 z m 26.48474,-2.80358 c 0.40646,-1.43053 2.58356,-9.77883 3.8662,-14.82535 0.39881,-1.56913 0.65262,-2.89776 0.56402,-2.95251 -0.0886,-0.0548 -5.65771,-0.0326 -12.37581,0.0491 -12.11602,0.14748 -12.21599,0.15317 -12.37018,0.70355 -0.0855,0.30518 -0.93722,3.59096 -1.89272,7.30174 -0.95551,3.71078 -1.96625,7.57792 -2.24609,8.59364 -0.27984,1.01572 -0.50881,1.99799 -0.50881,2.18281 0,0.26685 2.52958,0.33605 12.28435,0.33605 h 12.28435 z m 28.25161,76.33229 c 0.32911,-0.41966 0.31975,-0.429 -0.0999,-0.0999 -0.44073,0.34565 -0.58088,0.56293 -0.36312,0.56293 0.0549,0 0.2633,-0.20836 0.46302,-0.46302 z m -117.56376,-12.85809 0.0773,-2.02472 h -1.06946 -1.06947 v 2.36741 2.36738 l 0.99219,-0.34268 0.99219,-0.34267 z m 10.63835,0.7534 c 0.63346,-0.36211 0.59986,-0.37811 -0.79375,-0.37811 -1.39362,0 -1.42722,0.0161 -0.79375,0.37811 0.3638,0.20796 0.72099,0.37812 0.79375,0.37812 0.0728,0 0.42995,-0.17016 0.79375,-0.37812 z m 90.99989,-24.40781 c -0.0114,-16.24167 -0.10213,-23.79691 -0.28057,-23.34948 -0.14508,0.3638 -0.67332,2.24543 -1.17385,4.18139 l -0.91006,3.51994 0.004,18.83735 c 0.002,10.36056 0.0722,19.09319 0.15613,19.40584 0.12694,0.47313 0.62866,0.79672 2.15536,1.39018 0.0364,0.014 0.0586,-10.77921 0.0494,-23.98522 z m -7.59,20.83398 1.25677,-0.37238 -0.0209,-5.56752 c -0.0115,-3.06213 -0.0682,-5.44846 -0.12599,-5.30294 -0.12167,0.30626 -3.02812,11.53944 -3.02812,11.70342 0,0.0601 0.14883,0.0649 0.33073,0.0106 0.1819,-0.0543 0.89628,-0.26633 1.5875,-0.47115 z m -5.55978,-1.5194 c 0.11018,-0.65349 1.35092,-5.43271 5.10012,-19.64531 0.67178,-2.54661 1.94222,-7.36865 2.82318,-10.71563 2.82307,-10.72539 3.3018,-12.53387 5.77821,-21.82812 1.33768,-5.02047 3.00462,-11.33078 3.7043,-14.02292 0.69969,-2.69213 1.81802,-6.96087 2.4852,-9.48609 0.66717,-2.52522 1.21304,-4.76074 1.21304,-4.96783 0,-0.31237 -0.68689,-0.36408 -4.03105,-0.30349 l -4.03106,0.073 -1.24207,4.63021 c -0.68314,2.54661 -1.8557,6.95192 -2.60568,9.78958 -0.74999,2.83766 -2.05884,7.77875 -2.90856,10.98021 -0.84971,3.20146 -2.87529,10.88099 -4.50127,17.06562 -1.62599,6.18464 -3.36347,12.75159 -3.86107,14.59323 -2.17562,8.05213 -6.18765,23.67936 -6.18781,24.10209 -1.6e-4,0.42092 0.37,0.46302 4.07083,0.46302 h 4.07101 z m -12.14062,-7.00087 c 0.22061,-0.76981 1.17817,-4.43574 2.1279,-8.14652 0.94975,-3.71078 2.08801,-8.1161 2.52948,-9.78959 0.44146,-1.67349 0.80341,-3.16177 0.80431,-3.30729 0.001,-0.17262 -4.27573,-0.26458 -12.30463,-0.26458 -10.71042,0 -12.3215,0.0515 -12.42355,0.39687 -0.19291,0.65293 -2.71049,10.34154 -3.07321,11.8269 -0.18479,0.75672 -0.41815,1.32507 -0.51857,1.26301 -0.10042,-0.0621 -0.40686,0.15224 -0.68097,0.47623 l -0.49838,0.58907 0.59531,-0.50403 c 0.58542,-0.49564 0.59498,-0.49564 0.57519,0 -0.0111,0.27722 -0.28463,1.4501 -0.60791,2.60644 l -0.58778,2.1024 0.7654,1.41317 c 0.66514,1.22804 0.84007,1.38586 1.33551,1.20488 0.31356,-0.11456 1.58215,-0.20828 2.81907,-0.20828 1.98582,0 2.42621,0.0929 3.76381,0.79375 l 1.51484,0.79375 6.73154,0.0767 6.73153,0.0767 z m -8.52574,-22.36788 c 0.3291,-0.41964 0.31974,-0.429 -0.0999,-0.0999 -0.25467,0.19972 -0.46302,0.40808 -0.46302,0.46302 0,0.21776 0.21727,0.0776 0.56291,-0.36313 z M 254.1119,110.77426 c 0.26339,-0.29104 0.41936,-0.52917 0.3466,-0.52917 -0.0728,0 -0.34779,0.23813 -0.61118,0.52917 -0.26339,0.29104 -0.41936,0.52916 -0.3466,0.52916 0.0728,0 0.34779,-0.23812 0.61118,-0.52916 z m 28.08246,-2.71198 c -0.0868,-1.05503 -0.2368,-5.7271 -0.3333,-10.382376 -0.17157,-8.27682 -0.16437,-8.45558 0.32519,-8.07778 0.41947,0.3237 0.41103,0.28039 -0.052,-0.26711 -0.46615,-0.55113 -0.56277,-1.05941 -0.61704,-3.246 -0.0458,-1.84679 0.037,-2.71761 0.28811,-3.02735 0.19385,-0.23914 0.21677,-0.35352 0.0509,-0.25417 -0.31574,0.18918 -0.42839,-2.39028 -0.82962,-18.996769 l -0.19177,-7.9375 -2.80523,-0.0747 -2.80523,-0.0747 -0.16936,4.704911 c -0.0932,2.587699 -0.23682,8.098189 -0.31925,12.245528 -0.0824,4.14735 -0.20728,7.81903 -0.27745,8.15929 -0.1112,0.53925 -0.18561,0.57379 -0.57969,0.26914 -0.40826,-0.3156 -0.4072,-0.29659 0.0109,0.19592 0.39861,0.46957 0.46302,1.12961 0.46302,4.74534 v 4.19991 l -0.8599,0.93612 c -0.51969,0.56576 -0.59043,0.70064 -0.17881,0.34091 0.3746,-0.32737 0.73179,-0.54489 0.79375,-0.48337 0.062,0.0615 0.0367,2.59268 -0.0561,5.62481 -0.0929,3.03213 -0.18214,7.269136 -0.19843,9.415566 l -0.0296,3.90261 h 4.26442 4.26442 z M 271.04523,93.840924 c 0.26339,-0.29104 0.41936,-0.52916 0.3466,-0.52916 -0.0728,0 -0.34779,0.23812 -0.61118,0.52916 -0.26339,0.29105 -0.41936,0.52917 -0.3466,0.52917 0.0728,0 0.34779,-0.23812 0.61118,-0.52917 z m 1.22438,-1.25677 c 0.32911,-0.41964 0.31975,-0.429 -0.0999,-0.0999 -0.25466,0.19972 -0.46302,0.40808 -0.46302,0.46302 0,0.21776 0.21727,0.0776 0.56292,-0.36313 z m 12.93083,-0.15743 c 0,-0.0502 -0.26789,-0.31809 -0.59531,-0.59531 l -0.59531,-0.50403 0.50403,0.59531 c 0.47366,0.55945 0.68659,0.71577 0.68659,0.50403 z m -2.3475,-10.42589 c 0.32911,-0.41965 0.31975,-0.42901 -0.0999,-0.0999 -0.25466,0.19972 -0.46302,0.40808 -0.46302,0.46302 0,0.21777 0.21728,0.0776 0.56292,-0.36311 z m 55.6583,-23.276096 c -5.50196,-8.342194 -12.91184,-16.640416 -18.82045,-21.076769 -4.40326,-3.306088 -7.28893,-4.705292 -14.00787,-6.792137 -4.89149,-1.519256 -17.7947,-4.38508 -18.11524,-4.023424 -0.0981,0.110678 -0.30816,0.590169 -0.46681,1.06553 -0.28042,0.840182 -0.25743,0.883431 0.82378,1.550054 0.61174,0.377166 1.82663,1.129101 2.69975,1.670965 2.65537,1.647931 6.09783,3.749051 11.50938,7.02478 2.83765,1.717699 6.05464,3.687464 7.14885,4.377253 1.09422,0.689793 2.4039,1.49138 2.91042,1.78131 0.50651,0.289928 2.70687,1.630913 4.88968,2.979968 4.16575,2.574576 9.16462,5.621075 17.33021,10.561685 2.69214,1.628883 5.00592,3.070236 5.14174,3.203009 0.13582,0.13277 0.30123,0.187113 0.36758,0.120764 0.0663,-0.06635 -0.56861,-1.165696 -1.41102,-2.442988 z m -57.54965,-5.695784 c -0.003,-0.618463 -0.11665,-3.803385 -0.25248,-7.077604 -0.13583,-3.274218 -0.2661,-7.284481 -0.2895,-8.911693 l -0.0425,-2.958568 -2.32377,-0.08414 -2.32378,-0.08414 -0.1517,1.719791 c -0.0834,0.945886 -0.23161,5.500026 -0.32927,10.120313 l -0.17756,8.400521 h 2.94806 2.94806 l -0.006,-1.12448 z m -53.78568,-0.183681 c 8.16261,-0.602838 15.65881,-2.248747 20.26666,-4.449866 5.31466,-2.538759 11.92893,-7.501739 20.47907,-15.36637 l 2.43265,-2.237616 -0.56396,-0.979918 -0.56397,-0.979916 -1.47181,0.587282 c -0.8095,0.323006 -3.43635,1.390843 -5.83744,2.372968 -2.40109,0.982128 -5.61578,2.294636 -7.14375,2.916688 -1.52797,0.622048 -5.15937,2.107644 -8.06979,3.301325 -8.89977,3.650155 -13.64303,5.584497 -16.27187,6.635813 -1.38245,0.55286 -4.12089,1.674307 -6.08542,2.492103 -1.96453,0.817792 -5.32731,2.191652 -7.47285,3.053019 -2.14553,0.861369 -4.28866,1.777921 -4.7625,2.036781 l -0.86152,0.470659 1.4552,0.132292 c 3.01386,0.273987 10.85299,0.28198 14.4713,0.01476 z m 54.97183,-21.459759 c 4.53196,-2.735276 5.41586,-8.71779 1.86822,-12.644607 -3.4782,-3.849949 -10.00507,-3.377699 -12.90044,0.933408 -0.97411,1.450417 -1.62308,4.045442 -1.40289,5.609691 0.26103,1.854297 1.34129,3.838426 2.80764,5.1568 1.80042,1.618729 3.02147,2.022957 5.83399,1.931334 2.06564,-0.06729 2.42523,-0.160816 3.79348,-0.986626 z m -5.36723,-2.425724 c -1.48882,-0.319103 -3.07971,-1.877581 -3.50496,-3.433545 -0.58854,-2.153417 0.50114,-4.520848 2.53374,-5.504815 4.71613,-2.283039 9.1398,3.414617 5.76502,7.425311 -1.19576,1.421091 -2.82445,1.935144 -4.7938,1.513049 z m 2.87234,-1.930627 c 1.86173,-0.962734 2.07062,-3.565308 0.40843,-5.088591 -0.72048,-0.660268 -1.17614,-0.860055 -1.96157,-0.860055 -3.06315,0 -4.45881,3.713356 -2.13164,5.671534 0.94171,0.792401 2.46657,0.907077 3.68478,0.277112 z m -3.95026,-12.301789 c 0.94402,-0.262231 0.95226,-0.276847 0.85614,-1.51988 -0.0534,-0.690306 -0.33253,-5.8985395 -0.62033,-11.5738515 -0.72243,-14.2460765 -0.68945,-13.6284145 -1.73009,-32.3977255 -0.51191,-9.233019 -0.96797,-16.824529 -1.01346,-16.870019 -0.12828,-0.128278 -2.93619,7.166425 -3.84045,9.97712 -1.37882,4.285819 -2.67331,9.281001 -3.08547,11.90625 -0.58911,3.752347 -0.65336,3.995764 -0.99991,3.787979 -0.23236,-0.139322 -0.23486,-0.09058 -0.01,0.196127 0.20833,0.265703 0.24324,1.301724 0.11501,3.412853 -0.10127,1.667232 -0.0988,4.227433 0.006,5.689332 0.19937,2.7933095 1.41042,8.2107405 2.52817,11.3094135 0.36352,1.00775803 0.70078,2.03293903 0.74948,2.27818703 0.11935,0.60108497 3.92998,10.04944147 4.95509,12.28600347 0.45021,0.982266 0.89024,1.785274 0.97783,1.784461 0.0876,-7.93e-4 0.58821,-0.120623 1.11246,-0.26625 z M 268.03628,1.8320795 c 0.3291,-0.419645 0.31975,-0.429003 -0.0999,-0.0999 -0.25467,0.199721 -0.46302,0.40808 -0.46302,0.463021 0,0.217762 0.21727,0.07761 0.56291,-0.363125 z"
       id="path5406" />
    <path
       style="fill:#000000;stroke-width:0.0772017"
       d="m 148.22031,121.34866 c -0.4968,-0.13502 -0.84922,-0.59879 -0.84922,-1.11739 0,-0.16066 0.34387,-1.50863 0.76421,-2.99542 0.42032,-1.4868 0.8229,-2.96378 0.89469,-3.28226 0.0718,-0.31847 0.26456,-0.97855 0.42839,-1.46686 0.27071,-0.80682 0.92359,-3.01283 0.92359,-3.12066 0,-0.0244 -1.09829,-0.0446 -2.44065,-0.0446 -2.38551,0 -2.44763,-0.003 -2.74864,-0.173 -0.53113,-0.29851 -0.75369,-1.0059 -0.4819,-1.53149 0.0654,-0.12667 0.71351,-1.10627 1.44012,-2.17715 0.72662,-1.07087 1.88525,-2.78083 2.57476,-3.79989 0.68948,-1.01906 1.84563,-2.721376 2.56917,-3.782876 0.72358,-1.061531 1.674,-2.461909 2.11209,-3.111934 2.42844,-3.603318 2.59436,-3.830441 2.92892,-4.009925 0.39136,-0.20995 0.62367,-0.215941 1.04029,-0.02674 0.43658,0.198264 0.64883,0.563317 0.64883,1.115787 0,0.38283 -0.85228,9.855398 -0.97173,10.799998 l -0.0464,0.3667 h 2.9434 c 3.26337,0 3.25566,-0.001 3.74494,0.50278 0.23497,0.24198 0.27427,0.33417 0.27386,0.6426 -5.9e-4,0.47107 -0.23959,0.90711 -0.72246,1.31833 -0.27643,0.23541 -0.38946,0.36134 -4.09292,4.55956 -0.42971,0.48714 -1.18316,1.33828 -1.67435,1.89146 -0.98479,1.10905 -4.33403,4.89915 -6.55477,7.41755 -1.6812,1.90653 -1.53664,1.75181 -1.77783,1.90247 -0.26481,0.1654 -0.60459,0.21055 -0.92642,0.12305 z m 3.9793,-7.08626 c 0.50548,-0.57322 0.93877,-1.0596 0.96286,-1.08083 0.0241,-0.0213 1.05411,-1.18506 2.28892,-2.58628 1.23483,-1.4012 2.76776,-3.13827 3.40657,-3.8601 l 1.16144,-1.31246 -2.32897,-0.0385 c -2.58147,-0.0428 -2.68241,-0.0619 -2.98829,-0.56345 -0.20799,-0.34111 -0.20005,-0.53935 0.18934,-4.72487 0.18572,-1.995659 0.32205,-3.644842 0.30306,-3.664866 -0.019,-0.01997 -0.0647,0.01331 -0.10203,0.07279 -0.0764,0.123635 -2.01494,2.98688 -5.00518,7.392766 l -2.03146,2.99322 2.14726,0.0385 c 1.83947,0.0331 2.18218,0.0575 2.39073,0.17187 0.33369,0.18269 0.56715,0.58541 0.56715,0.97841 0,0.24654 -1.5237,5.81395 -1.93172,7.05826 -0.0393,0.12001 -0.0439,0.20678 -0.0113,0.19299 0.0336,-0.0133 0.47486,-0.49405 0.98031,-1.06729 z"
       id="path6106" />
  </g>
</svg>
