<?xml version="1.0" encoding="utf-8"?>
<!-- Svg Vector Icons : http://www.onlinewebfonts.com/icon -->
<!DOCTYPE svg PUBLIC "-//W3C//DTD SVG 1.1//EN" "http://www.w3.org/Graphics/SVG/1.1/DTD/svg11.dtd">
<svg version="1.1"
    xmlns="http://www.w3.org/2000/svg"
    xmlns:xlink="http://www.w3.org/1999/xlink" x="0px" y="0px" viewBox="0 0 1000 1000" enable-background="new 0 0 1000 1000" xml:space="preserve">
    <metadata> Svg Vector Icons : http://www.onlinewebfonts.com/icon </metadata>
    <g>
        <g>
            <path d="M817.8,341.3c47.2,0,85.6-38.4,85.6-85.6c0-47.2-38.4-85.6-85.6-85.6c-47.2,0-85.6,38.4-85.6,85.6S770.6,341.3,817.8,341.3z M817.8,186.1c38.3,0,69.6,31.2,69.6,69.6c0,38.4-31.2,69.6-69.6,69.6c-38.4,0-69.6-31.2-69.6-69.6S779.4,186.1,817.8,186.1z M685.7,213.9c0-0.5,0-1.1,0.2-1.6c0.7-2.1,2.9-3.3,5-2.6l21.9,7.1c2.1,0.7,3.3,3,2.6,5.1c-0.5,1.7-2.1,2.8-3.8,2.8c0,0,0,0,0,0c-0.4,0-0.8-0.1-1.2-0.2l-21.9-7.1C686.9,216.9,685.8,215.5,685.7,213.9z M735.2,148.6c-1.3-1.8-0.9-4.3,0.9-5.6c1.8-1.3,4.3-0.9,5.6,0.9l13.6,18.7c1.3,1.8,0.9,4.3-0.9,5.6c-0.7,0.5-1.5,0.8-2.4,0.8c-1.2,0-2.5-0.6-3.2-1.7l0,0L735.2,148.6z M880.7,167.7c-1.8-1.3-2.2-3.8-0.9-5.6l13.5-18.7c1.3-1.8,3.8-2.2,5.6-0.9c1.8,1.3,2.2,3.8,0.9,5.6l-13.5,18.7c-0.8,1.1-2,1.7-3.2,1.7C882.2,168.5,881.4,168.2,880.7,167.7z M919.9,221.3c-0.7-2.1,0.5-4.4,2.6-5.1l21.9-7.1c2.1-0.7,4.4,0.5,5.1,2.6c0.7,2.1-0.5,4.4-2.6,5.1l-21.9,7.1c-0.4,0.1-0.8,0.2-1.2,0.2C922,224.1,920.4,223,919.9,221.3z M949.6,297.4c-0.5,1.7-2.1,2.8-3.8,2.8c-0.4,0-0.8-0.1-1.2-0.2l-21.9-7.1c-2.1-0.7-3.3-2.9-2.6-5.1c0.7-2.1,3-3.3,5.1-2.6l21.9,7.1C949.2,293,950.3,295.2,949.6,297.4z M886.8,342.5l13.6,18.7c1.3,1.8,0.9,4.3-0.9,5.6c-0.7,0.5-1.5,0.8-2.4,0.8c-1.2,0-2.5-0.6-3.2-1.7l-13.6-18.7c-1.3-1.8-0.9-4.3,0.9-5.6C883,340.3,885.5,340.7,886.8,342.5z M819.6,362.6c1.4,0.6,2.4,2,2.4,3.7v23.1c0,2.2-1.8,4-4,4c-2.2,0-4-1.8-4-4v-23.1c0-2.2,1.8-4,4-4C818.6,362.3,819.2,362.4,819.6,362.6z M754.9,342c0.9,0.7,1.4,1.6,1.6,2.6c0.2,1-0.1,2.1-0.7,3l-13.5,18.7c-0.8,1.1-2,1.7-3.2,1.7c-0.8,0-1.6-0.2-2.4-0.8c-0.9-0.7-1.4-1.6-1.6-2.6c-0.1-0.5-0.1-1,0.1-1.5c0.1-0.5,0.3-1,0.7-1.5l13.5-18.7C750.6,341,753.1,340.7,754.9,342z M715.7,288.4c0.7,2.1-0.5,4.4-2.6,5.1v0l-21.9,7.1c-0.4,0.1-0.8,0.2-1.2,0.2c-1.7,0-3.3-1.1-3.8-2.8c-0.2-0.5-0.2-1.1-0.2-1.6c0.1-1.5,1.2-3,2.8-3.5l21.9-7.1C712.7,285.1,715,286.3,715.7,288.4z M813.4,143.4L813.4,143.4v-23.1c0-2.2,1.8-4,4-4c2.2,0,4,1.8,4,4v23.1c0,2.2-1.8,4-4,4C815.2,147.4,813.4,145.6,813.4,143.4z M988.8,643.4c-2.2-3.7-6.9-5.1-10.8-3.1c-21.2,10.8-44.9,15.2-68.9,17.6c-13.6-11.3-28.2-22.4-43.9-33.5c1.4-9.1,3.5-17.8,6.6-25.8c1.6-4.1-0.3-8.7-4.3-10.4c-4-1.8-8.7-0.1-10.6,3.8c-3,5.9-7.9,11.6-14.1,17.1c-2.8-1.8-5.4-3.6-8.2-5.5l-25.2-17.5L715.9,368c-1.9-4.4-6.2-7.3-11.1-7.3l-557.1-60.5c-0.1,0-0.1,0-0.2,0c-0.9,0-1.8,0.1-2.7,0.3c-0.2,0.1-0.5,0.2-0.7,0.2c-0.6,0.2-1.3,0.4-1.9,0.7c-0.3,0.1-0.6,0.3-0.8,0.5c-0.2,0.2-0.5,0.3-0.8,0.4l-20.6,14.7c-4,2.9-5.6,7.8-4.5,12.5c-13.1-1.1-28.8-1.8-44.9-0.6c-35.6,2.8-55.1,13.1-59.8,31.5c-14.1,56.1,141.3,156.9,142.9,157.9c17.8,11.5,36,22.7,54.6,33.6L293,754.1c1.9,4.3,6.2,7.1,11,7.1h32.6h4.9h204.3l11.8,39.7L469,859.9c-3.1,2.1-4.4,6-3.1,9.5c1.2,3.1,4.2,5.2,7.5,5.2c0.4,0,0.8,0,1.1-0.1l176.2-25.2l29-6c1.1-1.1,2.4-2.1,3.4-3.2c1.3-1.4,2.7-2.8,4.2-4.2c2.2-2.2,4.6-4.5,7-7.3l3.1-3.5c0.6-0.7,1.3-1.5,1.9-2.2l-42.2,8.7v-15l45.8,2.2c1-1.1,1.9-2.2,2.9-3.4c-3.1-4.4-5.9-8.7-8.5-13l-40.2-1.9v-39.4h23.2c-0.6-3.1-1-6.2-1.3-9.3c4.1,1.2,8.2,2.5,12.3,3.6c1,21.5,11.4,44.6,31.6,69.9c-2.2,2.8-4.3,5.6-6.5,8.2c-4.4,5.6-9,10.5-13.1,15.1c-4.1,4.8-8.2,8.5-11.8,12.2c-3.5,3.7-6.8,6.7-9.6,9.1c-5.5,4.9-8.6,7.9-8.6,7.9l16.7,5.8l35.3-41.8c2.6-2.6,5.3-5.3,8.1-8c0.8-0.8,1.6-1.8,2.4-2.7c15.3,2.7,29.3,4.1,41.5,4.1c8.7,0,16.7-0.8,24-2.1l0,0c12.5,4.6,23.8,6.7,34.1,6.7c31.9,0,53.7-20.3,71-47.4c38.6-0.4,61.2-10.6,68.9-31.2c6.8-18.1-0.7-38.8-22.3-62.9c9.8-19.1,20.4-35.2,33.4-44.1C990,651.9,991.1,647.1,988.8,643.4z M886.1,659.9c-2,0.1-4,0.3-6,0.4c-5.9,0.4-11.7,0.9-17.6,1.3c0.1-6.4,0.3-12.8,0.7-19C871.2,648.4,878.8,654.1,886.1,659.9z M795.4,614.7c4.9-2.9,9.7-5.8,14.4-8.7l15.9,11c1.4,0.9,2.6,1.7,4,2.6c-11.8,8.4-25.9,16.6-40.5,25c-41.7,24.2-88.9,51.5-96.8,94.5c-10.9-3.2-21.8-6.4-32.6-9.7c-22.8-7-45.2-14.2-67.4-21.7l-10-23.7l11.2-14.2l95.6,3.5l12.9,8.4c5-5.9,10.5-11.5,16.6-16.8l-15.7-10.9l-17.8-42.2l9.5-12.1l96.5,4.9L795.4,614.7z M630.9,737.2h-26l-4.1-9.8C610.7,730.7,620.7,734,630.9,737.2z M269.7,568.3L238,493l101.3,6.6l18.6,12.1l22.7,53.6l-9.5,10.2l-97.2-4.9C272.5,569.8,271.1,569.1,269.7,568.3z M652.9,589.7l-98.6-5L534.6,571l-20-47.3l9.6-12.2l99.3,6.4l18.1,11.8l20.9,49.5L652.9,589.7z M675.9,610.8l18.4,43.5l-10.1,10.9l-99.4-3.6l-16.8-11.7l-19-44.9l9.5-12l97.7,4.9L675.9,610.8z M526.4,572.3l-9.8,10.5l-111.3-5.6l-15.5-10.8l-22.2-52.5l9.4-11.9l108.6,7l19.6,12.8L526.4,572.3z M618.2,509.6l-99.6-6.4l-18-12.5l-20.7-48.9l8.3-10.5l102.8,8l17.2,11.2l20.3,48L618.2,509.6z M492.1,491.1l-9,9.7l-110.7-7.2l-19-13.2l-21.3-50.2l8.3-10.6l114.6,9l14.7,9.6L492.1,491.1z M345,481.2l-9.4,10l-101.1-6.5l-32-75.8l100.6,7.9l20.1,13.1L345,481.2z M372.9,583.6l21.4,14l16.9,40c-41.6-18.3-81.8-37.7-120.5-58.1L372.9,583.6z M421.9,642.3l-18.8-44.4l9.6-12.2l109.3,5.5l17,11.1l20.8,49.1l-8.4,9l-95-3.5C444.8,652.1,433.3,647.2,421.9,642.3z M553,668.4l19.4,12.7l9.8,23.1c-35.4-12.2-70.1-25-103.9-38.5L553,668.4z M787.6,596.5l-99.1-5l-17-11.8L651,531.2l8.6-10.9l98.1,6.4L787.6,596.5z M754.1,518.4l-97.6-6.3l-19.3-13.4l-19.3-45.7l8.6-10.8l98.3,7.7L754.1,518.4z M697,384.8l24.2,56.6l-96.5-7.6l-21-14.6L584,372.7L697,384.8z M574.9,371.7l20.5,48.5l-9.9,10.6l-96.9-7.6L465.2,407l-20.8-49.2L574.9,371.7z M435.3,356.8l22.1,52.2l-10.2,11l-110.2-8.6l-18.1-12.6l-24.1-57L435.3,356.8z M285.5,340.8l24.1,56.9l-10,10.8L199,400.5l-30.5-72.3L285.5,340.8z M162.5,505c-46.2-29.7-144.6-106.4-136-140.5c3.4-13.4,26.6-18,45.4-19.4c14-1.1,29.2-0.7,49.4,1.1l0.2-1.6L197.8,527C185.9,519.7,174.1,512.4,162.5,505z M279.6,591.8c40.9,21.6,83.3,42.1,127.3,61.4l-1.7,1.8l-100.6-3.7L279.6,591.8z M340.9,737.2l-32.7-77.7l100.3,3.7l18.7,12.2l26.2,61.8L340.9,737.2L340.9,737.2z M462.1,737.2L437,677.8l6.9-8.8c47.2,19.7,96.1,38,146.6,55l5.6,13.2H462.1z M507.4,853.7l60.2-40.1l53.2,23.9L507.4,853.7z M641.2,829.1l-32.6-14.7l32.6,1.6V829.1z M641.2,799.9l-68.3-3.2l-10.5-35.4h78.8L641.2,799.9L641.2,799.9z M748.2,816.6c2.8-3.6,5.6-7.3,8.5-11.1c4.7-7,9.7-14,14.1-21.3c4.5-7.3,8.6-14.8,12.6-22.1c4-7.3,7.6-14.8,11-21.9c6.9-14.3,12.5-28,17.2-39.8c4.7-11.7,8.4-21.6,11-28.5c2.7-6.9,4.1-10.9,4.1-10.9c0,0-10.7,13.4-23.5,35.3c-6.6,10.8-13.8,23.7-21.5,37.3c-3.9,6.8-7.9,13.8-12,20.9c-4.1,7.1-8.3,14.2-12.8,21.2c-4.1,7.2-8.8,14-13.2,20.8c-3.8,5.1-7.1,10.3-10.7,15.3c-20.3-26.5-28.4-49.3-24.7-69.7c6.6-35.6,48.4-59.9,88.9-83.3c16.9-9.8,33.2-19.4,46.7-29.6c1.3,0.9,2.6,1.7,3.8,2.6c-2.3,21.5-1.7,44.2-1,66.5c1.3,42.6,2.5,82.9-17.8,103.9C814,817.6,787.5,822.2,748.2,816.6z M828.9,823.1c4.3-2.7,8.3-5.9,11.8-9.5c17.3-17.8,22.1-43.9,22.9-73.4c0.3-0.2,0.7-0.3,1-0.6l0.1-0.1l56.2-47.4l-57.2,29.6c-0.1-7.9-0.3-15.9-0.6-24c-0.2-6.6-0.4-13.2-0.5-19.8c6.2-0.5,12.4-1,18.6-1.4c23.6-1.7,47.8-3.4,71-9.4c-11.4,16.9-20.9,37.9-30.7,59.6C898.4,778.3,876.3,827.3,828.9,823.1z M960.3,755.7c-4.5,12-19.2,18.9-44.3,20.5c7.4-13.7,14-28.4,20.5-42.6c3-6.6,6-13.1,8.9-19.5C959.3,730.9,964.3,744.9,960.3,755.7z" />
        </g>
        <g></g>
        <g></g>
        <g></g>
        <g></g>
        <g></g>
        <g></g>
        <g></g>
        <g></g>
        <g></g>
        <g></g>
        <g></g>
        <g></g>
        <g></g>
        <g></g>
        <g></g>
    </g>
</svg>