<?xml version="1.0" encoding="UTF-8" standalone="no"?>
<!-- Created with Inkscape (http://www.inkscape.org/) -->

<svg
   width="147.60886mm"
   height="281.06213mm"
   viewBox="0 0 147.60886 281.06213"
   version="1.1"
   id="svg5525"
   inkscape:version="1.1.2 (0a00cf5339, 2022-02-04)"
   sodipodi:docname="solar_wind.svg"
   xmlns:inkscape="http://www.inkscape.org/namespaces/inkscape"
   xmlns:sodipodi="http://sodipodi.sourceforge.net/DTD/sodipodi-0.dtd"
   xmlns="http://www.w3.org/2000/svg"
   xmlns:svg="http://www.w3.org/2000/svg">
  <sodipodi:namedview
     id="namedview5527"
     pagecolor="#505050"
     bordercolor="#ffffff"
     borderopacity="1"
     inkscape:pageshadow="0"
     inkscape:pageopacity="0"
     inkscape:pagecheckerboard="1"
     inkscape:document-units="mm"
     showgrid="false"
     inkscape:zoom="0.75098906"
     inkscape:cx="454.73366"
     inkscape:cy="642.48606"
     inkscape:window-width="1920"
     inkscape:window-height="1018"
     inkscape:window-x="0"
     inkscape:window-y="28"
     inkscape:window-maximized="1"
     inkscape:current-layer="layer1" />
  <defs
     id="defs5522" />
  <g
     inkscape:label="Layer 1"
     inkscape:groupmode="layer"
     id="layer1"
     transform="translate(15.320436,35.541771)">
    <path
       style="fill:#000000;stroke-width:0.264583"
       d="M 11.666075,245.18114 0.42128356,245.04885 -1.2985081,244.22933 c -4.219014,-2.01044 -6.6030104,-5.7762 -6.6114426,-10.44339 -0.00995,-5.5108 4.0314165,-10.20871 9.6030017,-11.16309 1.4714802,-0.25207 1.7803442,-0.40492 2.1779282,-1.07799 0.254807,-0.43136 1.0413789,-1.42264 1.7479407,-2.20285 1.0200243,-1.12633 1.2846552,-1.60874 1.2846552,-2.3418 v -0.92323 h -5.300165 c -5.767771,0 -6.6653541,-0.1695 -7.4796834,-1.4123 -0.7068397,-1.07878 -0.5985801,-2.38294 0.5526405,-6.6575 0.5878724,-2.18281 1.7275836,-6.46906 2.5326922,-9.525 0.8051059,-3.05593 2.17331126,-8.23515 3.04045667,-11.50937 0.86714543,-3.27422 2.85104673,-10.77516 4.40867003,-16.66875 1.5576232,-5.89359 3.3044606,-12.44203 3.8818608,-14.55208 0.5774002,-2.11006 1.4636171,-5.50334 1.9693681,-7.54063 0.505753,-2.03729 1.035992,-4.06135 1.178308,-4.49791 0.142314,-0.43657 1.092489,-4.05324 2.111497,-8.03705 1.019006,-3.98381 1.975546,-7.47276 2.125641,-7.75322 0.150096,-0.28046 0.652256,-0.74123 1.115912,-1.02394 0.793943,-0.4841 1.404395,-0.51408 10.487853,-0.51501 l 9.644843,-9.9e-4 -1.045652,1.12448 -1.045649,1.12448 1.200407,-1.12448 1.200404,-1.12448 h 6.120527 6.120524 l 0.138125,-0.72761 c 0.07597,-0.40018 0.285086,-7.06977 0.464704,-14.82132 l 0.32658,-14.093719 0.813089,0.726226 0.813088,0.726225 -0.79375,-0.848214 -0.79375,-0.848212 0.175707,-6.554084 c 0.09664,-3.604746 0.255329,-11.01893 0.352645,-16.475961 0.09732,-5.457031 0.261652,-11.945937 0.365191,-14.419791 0.103537,-2.473854 0.14632,-4.586986 0.09507,-4.695852 -0.05125,-0.108862 -1.544807,1.082382 -3.31902,2.647212 -11.213256,9.889932 -16.752372,13.505677 -24.055253,15.702449 -4.314158,1.297737 -7.489555,1.940071 -12.508089,2.530192 -6.9689796,0.81947 -22.818183,0.540311 -25.416793,-0.447678 -0.845465,-0.321444 -1.700768,-1.754155 -1.702009,-2.851025 -0.0011,-1.027816 0.608161,-2.317401 1.25852,-2.663553 0.253156,-0.134741 3.853563,-1.631963 8.000907,-3.327161 4.1473437,-1.695202 8.7907811,-3.604501 10.3187499,-4.242893 1.5279687,-0.638395 3.2543749,-1.335484 3.8364582,-1.549093 0.5820834,-0.213609 3.2014579,-1.275887 5.8208329,-2.360618 6.331379,-2.621939 11.424531,-4.715174 15.610417,-6.41573 1.891771,-0.768551 6.178021,-2.523773 9.525,-3.900493 3.346979,-1.376722 6.259512,-2.55883 6.472295,-2.62691 0.279239,-0.08934 0.366525,-0.454779 0.313725,-1.313424 -0.165079,-2.684393 1.227661,-6.461715 3.152407,-8.549817 0.572979,-0.621609 1.041781,-1.217607 1.041781,-1.324441 0,-0.106833 -0.615648,-1.641329 -1.36811,-3.409994 -0.752459,-1.768666 -1.702766,-4.105318 -2.111791,-5.192562 l -0.743682,-1.976811 0.855022,-0.933053 0.855019,-0.933053 -0.857136,0.773906 c -0.471424,0.425649 -0.906603,0.723056 -0.967063,0.660906 -0.535275,-0.550257 -2.931662,-8.75891 -3.895034,-13.3421703 -0.451943,-2.1501206 -0.449937,-9.14542069 0.0036,-12.6338196 0.330636,-2.5429739 0.41471,-2.8092109 0.79375,-2.5135416 0.377732,0.2946479 0.383466,0.279146 0.05261,-0.1422189 -0.312976,-0.3985868 -0.31821,-0.7701968 -0.0333,-2.3644754 0.907116,-5.0759042 3.482436,-13.6504332 5.743512,-19.1230272 3.077715,-7.449148 3.52185,-8.069792 5.774774,-8.069792 1.659777,0 2.918714,1.170866 3.146481,2.926366 0.08382,0.64607 0.623607,10.280965 1.199515,21.410877 C 59.44171,7.403456 59.491769,9.0694552 59.10099,9.5012578 58.704157,9.9397544 58.643827,9.9417124 58.189799,9.5308224 57.922374,9.288808 57.703575,9.1465072 57.703575,9.214595 c 0,0.068088 0.382404,0.4734957 0.849791,0.900904 0.467384,0.427408 0.70404,0.584544 0.525904,0.349189 -0.258238,-0.34118 -0.250499,-0.4888232 0.03818,-0.7284087 0.454319,-0.3770498 0.513538,0.2591011 1.138788,12.2334387 l 0.467879,8.960448 0.672539,0.254077 c 4.822161,1.821746 7.786965,4.969314 8.754925,9.294608 l 0.311647,1.392592 3.079028,0.588545 c 10.514599,2.009825 20.204585,5.17285 25.039441,8.173423 5.644653,3.503142 12.107993,9.598404 17.992443,16.967785 1.69731,2.125625 1.77053,2.229562 5.4551,7.744177 3.91581,5.860692 4.39959,7.042184 3.55348,8.67837 -0.53882,1.041958 -1.53222,1.613651 -2.80396,1.613651 -1.17098,0 -1.36769,-0.101642 -7.6606,-3.958338 -5.81043,-3.561001 -9.57888,-5.862955 -10.84792,-6.626445 -0.65484,-0.39397 -2.79797,-1.700919 -4.762501,-2.904326 C 97.543207,70.944876 94.053163,68.814419 91.752082,67.413934 89.451,66.013453 87.06975,64.54211 86.460415,64.144285 85.85108,63.74646 85.173937,63.336311 84.955655,63.232843 84.737374,63.129373 81.641749,61.25852 78.076489,59.075387 74.511229,56.892257 70.479203,54.426002 69.11643,53.594821 l -2.477765,-1.511236 -1.047244,0.703469 -1.047245,0.703466 0.151209,5.159375 c 0.08316,2.837656 0.265383,11.291093 0.404929,18.785416 0.139547,7.494323 0.329653,15.154103 0.422453,17.021733 0.164123,3.302937 0.15178,3.414908 -0.451795,4.09915 -0.508476,0.576432 -0.519708,0.618829 -0.0622,0.234797 l 0.558323,-0.468659 0.185928,4.439298 c 0.102259,2.44162 0.179996,5.51087 0.172752,6.82056 -0.01087,1.96728 0.412046,16.51723 0.486442,16.73489 0.01243,0.0364 3.141485,0.0661 6.953443,0.0661 h 6.930834 l 0.807268,0.7276 0.807265,0.72761 -0.640472,-0.72761 -0.640471,-0.7276 21.808096,5.3e-4 c 24.54849,5.3e-4 23.15319,-0.11303 24.16792,1.96579 l 0.50773,1.04016 -0.70539,2.7963 c -0.38796,1.53796 -1.00849,3.92739 -1.37896,5.30984 -0.37046,1.38244 -1.33423,5.01385 -2.14171,8.06979 -0.80747,3.05594 -2.11206,7.9502 -2.89908,10.87614 l -1.43095,5.31977 v 27.39854 27.39853 l 0.79354,1.67741 c 0.43645,0.92257 0.79364,1.82623 0.79375,2.00813 1.2e-4,0.1819 0.27285,0.33073 0.60608,0.33073 0.92516,0 3.46343,0.71393 4.84181,1.36184 2.10314,0.98862 4.20557,3.17727 5.43456,5.65748 0.9656,1.94866 1.10313,2.46353 1.22394,4.58234 0.1952,3.42363 -0.35206,5.33586 -2.361,8.24977 -1.14132,1.65541 -2.80585,2.99317 -5.27643,4.24053 l -1.69062,0.85357 -50.006253,-0.10351 C 45.413679,245.36 17.85071,245.2539 11.666075,245.18114 Z m 111.250415,-4.25349 c 1.80736,-0.67622 3.90957,-2.64713 4.70044,-4.4069 0.86398,-1.92241 0.82166,-5.01809 -0.0953,-6.97352 -0.80908,-1.72529 -2.48786,-3.43882 -4.12143,-4.20666 -1.41182,-0.66366 -3.80514,-0.93118 -5.27885,-0.59008 -1.53256,0.35473 -1.78379,0.11454 -1.71291,-1.63753 0.10188,-2.51817 -1.26007,-4.84949 -3.5392,-6.05824 -2.04057,-1.08223 -5.70735,-0.56473 -6.99541,0.98729 -0.55558,0.66942 -1.29459,0.48517 -2.20281,-0.54925 -0.46622,-0.53099 -1.23267,-1.1263 -1.70321,-1.32292 -1.25003,-0.52228 -3.233502,-0.44563 -4.444494,0.17177 -0.980461,0.49985 -1.984285,0.5011 -1.984285,0.003 0,-0.52811 -1.49138,-1.93241 -2.746444,-2.58607 -1.752362,-0.91268 -4.249785,-0.96858 -5.852515,-0.13099 -1.3688,0.71535 -2.906754,2.31799 -3.430214,3.57449 -0.22734,0.54571 -0.560575,1.00235 -0.740524,1.01476 -0.179948,0.0124 -0.945994,0.004 -1.702324,-0.0185 -2.431534,-0.0727 -4.578892,1.27042 -5.492834,3.43556 -0.739045,1.7508 -0.923301,1.89606 -2.003295,1.57935 -1.886794,-0.55332 -4.133218,0.28689 -5.476857,2.04851 -0.580498,0.76108 -0.737055,1.30083 -0.854231,2.94508 l -0.14347,2.01327 -1.178735,0.20026 c -1.734746,0.29477 -3.429452,1.45267 -4.178877,2.8552 -0.53127,0.99425 -0.620614,1.4833 -0.541705,2.96516 0.115303,2.16535 1.030462,3.64392 2.852515,4.60867 l 1.186535,0.62825 h 28.106145 c 27.802029,0 28.122029,-0.006 29.574329,-0.54933 z m -80.760097,-0.5706 c 0.580163,-0.44257 1.129237,-1.19801 1.415431,-1.94739 0.404384,-1.05886 0.423233,-1.39023 0.139475,-2.45195 -0.71398,-2.67141 -3.260852,-3.89598 -6.024477,-2.89665 -0.479616,0.17343 -0.949997,0.23735 -1.045287,0.14208 -0.09529,-0.0953 -0.213982,-0.94734 -0.263758,-1.89344 -0.150172,-2.85443 -1.468424,-5.07156 -3.754371,-6.31439 -1.857338,-1.00978 -3.543483,-1.17043 -5.891768,-0.56139 -1.727878,0.44818 -1.917028,0.45389 -2.194362,0.0665 -0.16692,-0.2332 -0.687877,-0.97353 -1.157676,-1.6452 -1.512708,-2.16271 -4.935829,-3.86779 -7.764928,-3.86779 -2.03908,0 -4.428646,0.89104 -6.1857469,2.30659 -1.2324503,0.9929 -1.7943459,1.70571 -2.597941,3.29573 l -1.0253689,2.02882 H 3.7323984 c -1.7352354,0 -2.3250842,0.12203 -3.61820612,0.74851 -3.50273938,1.69693 -5.06540288,6.01969 -3.42689128,9.47973 0.558726,1.17985 1.4854132,2.24004 2.87157849,3.28525 1.39181944,1.0495 1.72000601,1.06444 22.04978251,1.0052 l 19.59988,-0.0571 z m 19.062745,0.26003 c -1.810028,-1.97556 -2.227686,-5.31233 -0.978667,-7.81878 0.834236,-1.6741 2.404552,-3.06872 4.083037,-3.62622 l 1.25381,-0.41646 0.118806,-1.43261 c 0.265075,-3.19648 3.116762,-5.75223 6.470366,-5.7989 1.572626,-0.022 1.683232,-0.0653 1.97892,-0.77742 0.172257,-0.41484 0.861208,-1.31689 1.531001,-2.00454 1.37878,-1.41555 3.092442,-2.13601 5.080632,-2.13601 1.184928,0 1.290788,-0.0578 1.704946,-0.93054 0.906854,-1.91106 4.177194,-4.10223 6.116074,-4.09784 1.04689,0.003 0.909301,-0.48577 -0.343953,-1.2202 -0.971127,-0.56912 -1.666455,-0.74732 -3.281053,-0.84077 -2.662963,-0.15417 -4.299138,0.37656 -6.070254,1.96892 -1.717564,1.54425 -2.206061,1.46561 -2.433309,-0.39168 -0.380421,-3.10915 -2.791727,-5.35374 -5.968701,-5.55604 -1.386856,-0.0883 -1.96533,0.006 -2.994853,0.48821 -0.701792,0.32869 -1.437439,0.53567 -1.634773,0.45995 -0.197332,-0.0757 -0.575913,-0.82648 -0.841293,-1.66836 -0.361619,-1.14721 -0.825712,-1.87391 -1.852353,-2.90055 -1.717419,-1.71741 -3.416152,-2.35159 -5.878973,-2.19477 -1.487387,0.0947 -1.767785,0.0357 -2.245299,-0.4726 l -0.545656,-0.58084 0.989907,-0.32668 c 0.625306,-0.20637 1.749981,-0.27461 3.053522,-0.18526 1.766922,0.1211 2.082617,0.0786 2.195793,-0.29591 0.0727,-0.24053 0.432588,-1.68748 0.799753,-3.21545 0.367162,-1.52797 1.193885,-4.7637 1.837158,-7.19052 0.643274,-2.42681 1.101334,-4.48064 1.017913,-4.56406 -0.08342,-0.0834 -5.619853,-0.15167 -12.303183,-0.15167 -12.031585,0 -12.152905,0.005 -12.293481,0.54292 -0.141163,0.5398 -0.145565,0.53954 -0.768979,-0.0461 -0.632447,-0.59415 -0.823648,-1.40236 -0.394505,-1.66759 0.393907,-0.24345 27.357155,-0.18497 27.601987,0.0599 0.182801,0.1828 -2.788277,12.3851 -3.987406,16.37641 -0.233976,0.77877 -0.183994,0.89913 0.631767,1.52135 0.487214,0.37161 0.943861,0.67567 1.014767,0.67567 0.07091,0 0.211167,-0.38696 0.311684,-0.8599 0.100518,-0.47294 0.37787,-1.08873 0.616334,-1.3684 0.293987,-0.34478 0.313679,-0.43794 0.06117,-0.28935 -0.293944,0.17296 -0.33428,0.085 -0.191452,-0.41754 0.09952,-0.35018 0.901446,-3.43466 1.78204,-6.8544 0.880597,-3.41974 1.77887,-6.84278 1.996165,-7.60677 l 0.395078,-1.38906 h 13.747861 c 12.020341,0 13.767138,0.0502 13.901266,0.39976 0.132988,0.34656 -2.141585,9.71435 -4.014485,16.53357 -0.339723,1.23693 -0.808964,3.08007 -1.042763,4.09586 -0.233796,1.01579 -0.607481,2.4743 -0.830405,3.24114 l -0.405324,1.39425 h -6.7281 c -3.700454,0 -6.7281,0.0564 -6.7281,0.1252 0,0.0969 0.990058,2.30646 1.227214,2.73889 0.02593,0.0473 0.522767,-0.22878 1.10408,-0.61346 3.507841,-2.3214 8.647179,-1.88595 11.883155,1.00682 0.46804,0.41838 0.615325,0.45021 0.719992,0.15562 0.07237,-0.2037 1.026562,-3.82317 2.120421,-8.04328 2.336866,-9.0156 2.957533,-11.37877 6.358423,-24.20937 1.40787,-5.31151 2.78802,-10.52049 3.06699,-11.57552 0.27898,-1.05503 0.75834,-2.84096 1.06527,-3.96875 0.69227,-2.54375 2.55266,-9.62359 4.67556,-17.79323 0.88863,-3.41974 2.09866,-7.99963 2.68896,-10.17754 0.5903,-2.17791 1.07327,-4.05314 1.07327,-4.16719 0,-0.11404 -6.33241,-0.20735 -14.072012,-0.20735 h -14.07201 l -0.676616,-0.59532 -0.676619,-0.59531 0.502134,0.59531 0.502137,0.59532 H 51.811976 19.380029 l -0.268873,0.85989 c -0.147881,0.47295 -0.944282,3.47927 -1.769784,6.68073 -0.8255,3.20146 -1.854658,7.13052 -2.287014,8.73125 -0.432358,1.60073 -1.126342,4.22011 -1.542187,5.82084 -3.9315629,15.13391 -5.6110347,21.51252 -7.1446655,27.13534 -0.5778526,2.11861 -1.5112841,5.63095 -2.0742963,7.80521 -0.5630095,2.17426 -1.7702847,6.75116 -2.6828352,10.1709 -1.95200059,7.31504 -3.6936177,14.07343 -3.6988962,14.35365 -0.00212,0.10914 6.8426674,0.19844 15.2104932,0.19844 h 15.214232 l 0.953826,-1.05577 c 0.524603,-0.58068 1.72126,-1.43359 2.659237,-1.89534 1.411335,-0.6948 2.033754,-0.84352 3.609546,-0.86247 1.047277,-0.0127 2.218206,0.0653 2.602066,0.17315 0.628857,0.17663 0.70942,0.11771 0.81407,-0.59531 l 0.116144,-0.79135 h -3.22907 c -2.407891,0 -3.305408,-0.092 -3.529245,-0.36168 -0.229209,-0.27617 -0.02289,-1.41775 0.872691,-4.82865 1.849644,-7.04452 4.585174,-17.62073 4.776674,-18.46777 l 0.174453,-0.77164 0.661588,0.66159 0.661588,0.66158 -1.758329,6.85693 c -0.967078,3.77132 -2.215544,8.61311 -2.774365,10.75954 l -1.01604,3.9026 h 3.004897 c 2.740702,0 3.019211,-0.0451 3.167676,-0.51287 0.213704,-0.67333 1.721493,-1.98268 3.121383,-2.7106 1.37682,-0.71591 4.308475,-0.79512 5.782844,-0.15621 0.941046,0.40778 0.968899,0.40294 1.30602,-0.22698 0.397304,-0.74237 2.238957,-2.3132 3.254502,-2.77591 0.585386,-0.26672 0.776134,-0.24116 1.223725,0.16389 0.728742,0.6595 0.671917,0.83923 -0.374555,1.18459 -0.959448,0.31665 -2.866951,2.19556 -3.386423,3.33568 -0.346618,0.76076 -0.431991,0.75639 -2.947263,-0.14997 -1.369687,-0.49355 -1.718871,-0.52345 -3.002531,-0.25696 -2.587318,0.53713 -4.557329,2.94203 -4.569844,5.57869 -0.0081,1.69899 -0.378396,1.92751 -2.077529,1.2819 -2.627831,-0.99851 -5.387097,-0.4446 -7.464317,1.49839 -1.742847,1.63023 -2.43237,3.18273 -2.471417,5.56459 -0.01709,1.04296 -0.11653,1.9817 -0.220959,2.08602 -0.104428,0.10436 -0.623506,0.23752 -1.153504,0.29591 -1.008615,0.11116 -3.030019,1.01696 -3.011498,1.34948 0.0059,0.10618 0.353788,0.59413 0.773049,1.08432 l 0.762297,0.89125 1.374952,-0.32983 c 4.880602,-1.17086 10.187548,2.36088 10.755672,7.15777 l 0.153755,1.29823 1.493803,-0.0212 c 1.79361,-0.0251 3.04823,0.45579 4.204462,1.61202 1.356423,1.35642 1.751348,2.31781 1.761299,4.2876 0.0079,1.56909 -0.08566,1.89855 -0.845526,2.97657 l -0.854443,1.21221 h 9.0365 9.036502 l -0.545428,-0.59531 z M 2.3395127,206.89877 c -0.6546188,-0.17108 -0.5944288,-0.70324 0.5734553,-5.07019 0.5700633,-2.13156 1.8895615,-7.20931 2.9322209,-11.2839 1.0426594,-4.07458 2.0396914,-7.82505 2.2156261,-8.33437 l 0.3198839,-0.92604 13.2182071,-0.0733 c 7.270017,-0.0403 13.486101,-0.008 13.813523,0.0712 0.341445,0.0829 0.595312,0.34616 0.595312,0.61742 0,0.26012 -0.7001,3.20464 -1.555779,6.5434 -0.855678,3.33875 -2.243156,8.74936 -3.083282,12.02358 -0.840126,3.27422 -1.642885,6.10195 -1.783908,6.28385 -0.199644,0.25752 -3.19256,0.32393 -13.519322,0.30004 -7.2946045,-0.0169 -13.4712758,-0.0851 -13.7259373,-0.15168 z m 26.1164783,-1.73586 c 0.05751,-0.1819 0.816639,-3.06916 1.686957,-6.41614 0.870317,-3.34698 2.129218,-8.17504 2.797553,-10.72901 0.668337,-2.55398 1.215157,-4.7864 1.215157,-4.96094 0,-0.24218 -2.909649,-0.31734 -12.28435,-0.31734 H 9.5869581 l -0.3999574,1.38906 c -0.2199746,0.76398 -0.9964711,3.71078 -1.7255463,6.54844 -0.7290779,2.83765 -1.8664343,7.24297 -2.5274614,9.78958 -0.6610297,2.54661 -1.2026688,4.7195 -1.2036451,4.82865 -0.00106,0.10914 5.5383694,0.19843 12.3096551,0.19843 9.61699,0 12.334314,-0.0724 12.415988,-0.33073 z M 9.2889738,179.31039 c -0.3372088,-0.21522 -0.1950403,-1.02846 1.0057052,-5.75297 2.703615,-10.63774 3.914124,-15.30304 4.088815,-15.75828 0.164367,-0.42833 1.112877,-0.45966 13.91472,-0.45966 11.21958,0 13.763202,0.0648 13.873999,0.35355 0.07462,0.19445 -0.377174,2.36734 -1.003985,4.82864 -3.399462,13.34869 -4.135644,16.15236 -4.336106,16.51364 -0.354041,0.63806 -1.420598,0.53774 -2.213443,-0.2082 -0.896109,-0.84309 -0.917199,-1.08893 -0.08559,-0.99764 0.353113,0.0388 0.750478,-0.002 0.883034,-0.0894 0.132559,-0.0879 1.267312,-4.15528 2.521675,-9.0385 1.254363,-4.88323 2.358017,-9.08018 2.452566,-9.32657 0.160017,-0.417 -0.688629,-0.44797 -12.273045,-0.44797 H 15.672375 l -0.409671,1.4092 c -0.225316,0.77507 -0.719923,2.70984 -1.099124,4.29948 -0.379203,1.58965 -1.274863,5.10656 -1.990357,7.81535 -0.715494,2.70879 -1.300898,5.07722 -1.300898,5.26318 0,0.27164 2.201291,0.30611 11.199881,0.17536 l 11.199881,-0.16273 0.881605,0.90959 0.881603,0.90958 -12.676796,0.008 c -7.542657,0.004 -12.8358532,-0.094 -13.0695252,-0.24312 z m 30.2943252,-0.1769 c -0.237045,-0.23705 -0.372655,-0.58301 -0.301357,-0.76881 0.150421,-0.39199 2.949209,-11.15304 4.384082,-16.85634 0.539782,-2.14551 1.036677,-3.95618 1.104215,-4.02372 0.09112,-0.0911 24.319094,-0.23018 27.286981,-0.15662 0.67142,0.0166 0.604957,0.5354 -0.739949,5.77547 -3.110368,12.11872 -4.155438,15.81674 -4.558462,16.13028 -0.327078,0.25445 -3.460186,0.33073 -13.584822,0.33073 -11.80769,0 -13.203978,-0.0443 -13.590688,-0.43099 z m 26.299382,-1.58197 c 0.06012,-0.056 0.78893,-2.75141 1.619576,-5.98976 0.830643,-3.23835 1.902605,-7.40597 2.382136,-9.26139 0.479531,-1.85541 0.822285,-3.40322 0.761675,-3.43958 -0.06061,-0.0364 -5.642198,-0.007 -12.403524,0.0662 l -12.293322,0.13229 -1.159338,4.49792 c -0.637635,2.47385 -1.722535,6.64104 -2.410889,9.26041 -0.688356,2.61938 -1.151202,4.83038 -1.028549,4.91333 0.242393,0.16394 24.352975,-0.0124 24.532235,-0.17941 z m 3.99347,1.61818 c -0.271237,-0.32682 -0.108664,-1.28227 0.889572,-5.22808 3.234253,-12.78431 4.190267,-16.2206 4.60049,-16.536 0.331121,-0.25457 3.479797,-0.32979 13.67491,-0.32668 7.284609,0.002 13.409867,0.10863 13.611697,0.23645 0.41382,0.26206 0.41633,0.246 -0.70775,4.522 -0.43992,1.67349 -1.39761,5.36443 -2.128198,8.20209 -1.723369,6.69371 -2.375818,9.03404 -2.573724,9.23195 -0.08841,0.0884 -6.207482,0.19167 -13.597929,0.22946 -11.723209,0.06 -13.47951,0.0177 -13.769068,-0.33119 z m 20.780645,-1.45818 5.543653,-8e-4 1.247378,-4.82777 c 0.686059,-2.65527 1.711725,-6.6137 2.279256,-8.79652 0.567527,-2.18281 1.110607,-4.29935 1.206827,-4.70341 l 0.17496,-0.73467 -12.372203,0.0732 -12.3722,0.0732 -0.471098,1.71979 c -0.259104,0.94588 -1.301803,4.93448 -2.317107,8.86354 -1.015304,3.92906 -1.920272,7.41164 -2.01104,7.73906 l -0.165031,0.59532 h 6.694942 6.694943 l -0.776549,0.85989 -0.776553,0.8599 0.938083,-0.8599 0.938083,-0.85989 5.543656,-8e-4 z M 14.941765,154.83899 c -0.206873,-0.5391 -0.01791,-1.32635 4.382386,-18.25789 0.452197,-1.73997 0.967949,-3.25837 1.146114,-3.37422 0.178163,-0.11586 2.508764,-0.20091 5.179108,-0.189 l 4.855173,0.0216 -0.620879,0.70675 -0.620877,0.70675 0.807265,-0.72761 0.807268,-0.7276 h 8.376734 c 7.71071,0 8.395671,0.0368 8.614931,0.46302 0.161031,0.31302 0.005,1.32015 -0.481682,3.10885 -0.395933,1.45521 -1.460005,5.56287 -2.364602,9.12813 -0.9046,3.56526 -1.844514,7.13713 -2.088697,7.9375 l -0.443974,1.45521 -13.699577,0.0685 c -11.846933,0.0593 -13.719741,0.016 -13.848691,-0.32006 z m 26.626912,-2.32816 c 0.159314,-0.61846 0.39747,-1.48167 0.529233,-1.91823 0.131762,-0.43656 0.896136,-3.37463 1.698606,-6.52904 0.802471,-3.15441 1.69418,-6.58384 1.981576,-7.62094 l 0.522539,-1.88565 -9.181341,0.0522 c -5.049736,0.0287 -10.657773,0.12435 -12.4623,0.2126 l -3.280961,0.16046 -0.88678,3.43958 c -0.487727,1.89177 -1.541375,5.94957 -2.341435,9.01732 -0.800061,3.06776 -1.454656,5.7169 -1.454656,5.88698 0,0.23149 3.090651,0.30924 12.292928,0.30924 h 12.292925 z m 3.730945,2.35301 c -0.226486,-0.27289 0.05177,-1.71609 1.160563,-6.01927 0.802161,-3.11316 2.006238,-7.80343 2.675724,-10.4228 0.669488,-2.61938 1.337857,-4.91133 1.48527,-5.09323 0.208126,-0.25682 3.307747,-0.33073 13.869971,-0.33073 15.11164,0 14.160021,-0.12495 13.647621,1.79202 -0.438084,1.63895 -3.773879,14.5583 -4.490193,17.39027 -0.368075,1.45521 -0.802296,2.73331 -0.96493,2.84022 -0.162634,0.10691 -6.323542,0.19621 -13.690907,0.19844 -10.959047,0.003 -13.449387,-0.0612 -13.693119,-0.35492 z m 26.429076,-1.89579 c 0.13953,-0.367 0.682431,-2.36129 1.206444,-4.43177 0.524013,-2.07048 1.467096,-5.72904 2.095738,-8.13014 0.628645,-2.40109 1.216456,-4.69422 1.306248,-5.09584 l 0.163259,-0.73023 -12.372174,0.0688 -12.372173,0.0688 -1.134941,4.36563 c -0.624215,2.40109 -1.673756,6.44922 -2.332312,8.99583 -0.658559,2.54661 -1.258443,4.83857 -1.333082,5.09323 -0.127871,0.43629 0.576008,0.46302 12.191796,0.46302 h 12.327504 z m 4.032689,2.08178 c -0.51612,-0.21177 -0.428279,-0.73508 1.155959,-6.88658 0.817676,-3.175 2.006904,-7.78944 2.642727,-10.25431 0.635823,-2.46487 1.246735,-4.56467 1.357583,-4.66622 0.110849,-0.10156 6.279964,-0.26852 13.709144,-0.37104 11.98557,-0.1654 13.54568,-0.14052 13.84552,0.22077 0.27958,0.33686 0.11043,1.26617 -0.97955,5.38179 -0.72462,2.73604 -1.98658,7.52887 -2.80436,10.65074 -0.81777,3.12187 -1.63336,5.7668 -1.81241,5.87764 -0.35702,0.22098 -26.579822,0.26665 -27.114613,0.0472 z m 26.484743,-2.80358 c 0.40646,-1.43053 2.58356,-9.77883 3.8662,-14.82535 0.39881,-1.56913 0.65262,-2.89776 0.56402,-2.95251 -0.0886,-0.0548 -5.65771,-0.0326 -12.375816,0.0491 -12.116011,0.14748 -12.215987,0.15317 -12.370173,0.70355 -0.08549,0.30518 -0.93722,3.59096 -1.892726,7.30174 -0.955508,3.71078 -1.966248,7.57792 -2.24609,8.59364 -0.279842,1.01572 -0.508804,1.99799 -0.508804,2.18281 0,0.26685 2.529578,0.33605 12.28435,0.33605 h 12.284349 z m 28.25161,76.33229 c 0.32911,-0.41966 0.31975,-0.429 -0.0999,-0.0999 -0.44073,0.34565 -0.58088,0.56293 -0.36312,0.56293 0.0549,0 0.2633,-0.20836 0.46302,-0.46302 z m -117.563766,-12.85809 0.07728,-2.02472 H 11.94179 10.872328 v 2.36741 2.36738 l 0.992188,-0.34268 0.992187,-0.34267 z m 10.638351,0.7534 c 0.633463,-0.36211 0.599866,-0.37811 -0.79375,-0.37811 -1.393616,0 -1.427213,0.0161 -0.79375,0.37811 0.363802,0.20796 0.72099,0.37812 0.79375,0.37812 0.07276,0 0.429948,-0.17016 0.79375,-0.37812 z m 90.999895,-24.40781 c -0.0114,-16.24167 -0.10213,-23.79691 -0.28057,-23.34948 -0.14508,0.3638 -0.67332,2.24543 -1.17385,4.18139 l -0.91006,3.51994 0.004,18.83735 c 0.002,10.36056 0.0722,19.09319 0.15613,19.40584 0.12694,0.47313 0.62866,0.79672 2.15536,1.39018 0.0364,0.014 0.0586,-10.77921 0.0494,-23.98522 z m -7.59,20.83398 1.25677,-0.37238 -0.0209,-5.56752 c -0.0115,-3.06213 -0.0682,-5.44846 -0.12599,-5.30294 -0.12167,0.30626 -3.02812,11.53944 -3.02812,11.70342 0,0.0601 0.14883,0.0649 0.33073,0.0106 0.1819,-0.0543 0.89628,-0.26633 1.5875,-0.47115 z m -5.55978,-1.5194 c 0.11018,-0.65349 1.35092,-5.43271 5.10012,-19.64531 0.67178,-2.54661 1.94222,-7.36865 2.82318,-10.71563 2.82307,-10.72539 3.3018,-12.53387 5.77821,-21.82812 1.33768,-5.02047 3.00462,-11.33078 3.7043,-14.02292 0.69969,-2.69213 1.81802,-6.96087 2.4852,-9.48609 0.66717,-2.52522 1.21304,-4.76074 1.21304,-4.96783 0,-0.31237 -0.68689,-0.36408 -4.03105,-0.30349 l -4.03106,0.073 -1.24207,4.63021 c -0.68314,2.54661 -1.8557,6.95192 -2.60568,9.78958 -0.74999,2.83766 -2.05884,7.77875 -2.90856,10.98021 -0.84971,3.20146 -2.87529,10.88099 -4.50127,17.06562 -1.62599,6.18464 -3.363472,12.75159 -3.861069,14.59323 -2.175621,8.05213 -6.187654,23.67936 -6.187816,24.10209 -1.58e-4,0.42092 0.370004,0.46302 4.070837,0.46302 h 4.071008 z m -12.140625,-7.00087 c 0.220612,-0.76981 1.178171,-4.43574 2.127908,-8.14652 0.949741,-3.71078 2.088002,-8.1161 2.529473,-9.78959 0.441467,-1.67349 0.803412,-3.16177 0.804317,-3.30729 0.0011,-0.17262 -4.275738,-0.26458 -12.304638,-0.26458 -10.710418,0 -12.321495,0.0515 -12.423548,0.39687 -0.192913,0.65293 -2.710489,10.34154 -3.073209,11.8269 -0.184788,0.75672 -0.418145,1.32507 -0.518567,1.26301 -0.100423,-0.0621 -0.406861,0.15224 -0.680969,0.47623 l -0.498383,0.58907 0.595313,-0.50403 c 0.585414,-0.49564 0.594979,-0.49564 0.575186,0 -0.01106,0.27722 -0.284629,1.4501 -0.60791,2.60644 l -0.58778,2.1024 0.765398,1.41317 c 0.665144,1.22804 0.840073,1.38586 1.335513,1.20488 0.313563,-0.11456 1.582145,-0.20828 2.819072,-0.20828 1.985822,0 2.426203,0.0929 3.763806,0.79375 l 1.514846,0.79375 6.731531,0.0767 6.73153,0.0767 z m -8.525741,-22.36788 c 0.329108,-0.41964 0.319749,-0.429 -0.0999,-0.0999 -0.254661,0.19972 -0.46302,0.40808 -0.46302,0.46302 0,0.21776 0.217273,0.0776 0.562916,-0.36313 z M 34.28795,129.55823 c 0.26339,-0.29104 0.419359,-0.52917 0.346599,-0.52917 -0.07276,0 -0.347792,0.23813 -0.611183,0.52917 -0.26339,0.29104 -0.419359,0.52916 -0.346598,0.52916 0.07276,0 0.347792,-0.23812 0.611182,-0.52916 z m 28.082454,-2.71198 c -0.08681,-1.05503 -0.236794,-5.7271 -0.333293,-10.38238 -0.171572,-8.27683 -0.164375,-8.45559 0.325191,-8.07779 0.419468,0.3237 0.411028,0.28039 -0.05205,-0.26711 -0.466151,-0.55113 -0.562771,-1.05941 -0.617043,-3.24599 -0.04584,-1.84679 0.03704,-2.71762 0.28811,-3.02735 0.193853,-0.23915 0.216774,-0.35352 0.05093,-0.25417 -0.315743,0.18917 -0.428392,-2.390286 -0.829617,-18.996774 l -0.191775,-7.9375 -2.805229,-0.0747 -2.805226,-0.0747 -0.169368,4.704911 c -0.09315,2.587699 -0.236812,8.098189 -0.319243,12.245533 -0.08243,4.147343 -0.207285,7.819022 -0.277453,8.159287 -0.111199,0.539253 -0.185608,0.573793 -0.579694,0.269142 -0.408255,-0.315606 -0.407197,-0.296598 0.0109,0.195921 0.398618,0.46957 0.463021,1.12961 0.463021,4.74534 v 4.19991 l -0.859896,0.93612 c -0.51969,0.56576 -0.590434,0.70064 -0.178808,0.34091 0.374597,-0.32737 0.731784,-0.54489 0.79375,-0.48337 0.06196,0.0615 0.0367,2.59268 -0.05615,5.62481 -0.09285,3.03213 -0.182142,7.26914 -0.198438,9.41557 l -0.02962,3.90261 h 4.264419 4.264419 z M 51.221283,112.62489 c 0.26339,-0.29104 0.419359,-0.52916 0.346599,-0.52916 -0.07276,0 -0.347792,0.23812 -0.611182,0.52916 -0.26339,0.29105 -0.41936,0.52917 -0.346599,0.52917 0.07276,0 0.347792,-0.23812 0.611182,-0.52917 z m 1.224375,-1.25677 c 0.329107,-0.41964 0.319749,-0.429 -0.0999,-0.0999 -0.254661,0.19972 -0.463021,0.40808 -0.463021,0.46302 0,0.21776 0.217273,0.0776 0.562917,-0.36313 z m 12.930833,-0.15743 c 0,-0.0502 -0.267891,-0.31809 -0.595312,-0.59531 l -0.595313,-0.50403 0.504029,0.59531 c 0.473662,0.55945 0.686596,0.71577 0.686596,0.50403 z m -2.3475,-10.4259 c 0.329108,-0.41964 0.319749,-0.429 -0.0999,-0.0999 -0.254661,0.19972 -0.463021,0.40808 -0.463021,0.46302 0,0.21777 0.217274,0.0776 0.562917,-0.36312 z M 118.68729,77.508699 C 113.18533,69.166505 105.77545,60.868283 99.866836,56.43193 c -4.403262,-3.306088 -7.28893,-4.705292 -14.00787,-6.792137 -4.891492,-1.519256 -17.7947,-4.38508 -18.115235,-4.023424 -0.09809,0.110678 -0.308162,0.590169 -0.466817,1.06553 -0.280416,0.840182 -0.257429,0.883431 0.823785,1.550054 0.611738,0.377166 1.826625,1.129101 2.69975,1.670965 2.655367,1.647931 6.097831,3.749051 11.509375,7.02478 2.837656,1.717699 6.05464,3.687464 7.148857,4.377253 1.094213,0.689793 2.403901,1.49138 2.910416,1.78131 0.506513,0.289928 2.706873,1.630913 4.889685,2.979968 4.165748,2.574576 9.164618,5.621075 17.330208,10.561685 2.69214,1.628883 5.00592,3.070236 5.14174,3.203009 0.13582,0.13277 0.30123,0.187113 0.36758,0.120764 0.0663,-0.06635 -0.56861,-1.165696 -1.41102,-2.442988 z M 61.137639,71.812915 c -0.003,-0.618463 -0.11665,-3.803385 -0.252476,-7.077604 -0.13583,-3.274218 -0.266102,-7.284481 -0.2895,-8.911693 l -0.04254,-2.958568 -2.323777,-0.08414 -2.323777,-0.08414 -0.151704,1.719791 c -0.08344,0.945886 -0.231606,5.500026 -0.329266,10.120313 l -0.17756,8.400521 h 2.948059 2.948062 l -0.0055,-1.12448 z M 7.3519539,71.629234 C 15.514569,71.026396 23.010771,69.380487 27.618616,67.179368 32.933281,64.640609 39.547544,59.677629 48.097689,51.812998 l 2.432653,-2.237616 -0.563967,-0.979918 -0.56397,-0.979916 -1.471811,0.587282 c -0.809495,0.323006 -3.436342,1.390843 -5.837436,2.372968 -2.401094,0.982128 -5.615781,2.294636 -7.14375,2.916688 -1.527969,0.622048 -5.159375,2.107644 -8.069791,3.301325 -8.899769,3.650155 -13.643028,5.584497 -16.271875,6.635813 -1.3824481,0.55286 -4.1208856,1.674307 -6.0854168,2.492103 -1.9645312,0.817792 -5.32731393,2.191652 -7.4728493,3.053019 -2.1455353,0.861369 -4.2886603,1.777921 -4.7624999,2.036781 l -0.8615257,0.470659 1.4552084,0.132292 c 3.0138581,0.273987 10.8529833,0.28198 14.4712952,0.01476 z M 62.323787,50.169475 c 4.531958,-2.735276 5.415864,-8.71779 1.868223,-12.644607 -3.4782,-3.849949 -10.005068,-3.377699 -12.900441,0.933408 -0.974111,1.450417 -1.623083,4.045442 -1.402889,5.609691 0.261025,1.854297 1.341289,3.838426 2.807639,5.1568 1.800416,1.618729 3.021473,2.022957 5.833994,1.931334 2.065639,-0.06729 2.425223,-0.160816 3.793474,-0.986626 z m -5.367226,-2.425724 c -1.488819,-0.319103 -3.079713,-1.877581 -3.504962,-3.433545 -0.588537,-2.153417 0.501139,-4.520848 2.533742,-5.504815 4.716132,-2.283039 9.139799,3.414617 5.765022,7.425311 -1.195768,1.421091 -2.824453,1.935144 -4.793802,1.513049 z m 2.87234,-1.930627 c 1.861727,-0.962734 2.070616,-3.565308 0.408427,-5.088591 -0.720479,-0.660268 -1.176142,-0.860055 -1.961574,-0.860055 -3.063144,0 -4.458805,3.713356 -2.131639,5.671534 0.941713,0.792401 2.466573,0.907077 3.684786,0.277112 z M 55.878637,33.511335 c 0.944021,-0.262231 0.952257,-0.276847 0.856137,-1.51988 -0.05338,-0.690306 -0.332529,-5.898539 -0.620329,-11.573851 -0.722432,-14.2460771 -0.689446,-13.6284152 -1.730084,-32.397726 -0.511913,-9.233019 -0.96797,-16.824529 -1.013463,-16.870019 -0.128278,-0.128278 -2.936192,7.166425 -3.840445,9.97712 -1.378826,4.285819 -2.673313,9.2810012 -3.085471,11.9062499 -0.58911,3.7523473 -0.653364,3.9957639 -0.999916,3.7879787 -0.232362,-0.1393217 -0.234862,-0.090583 -0.01005,0.1961277 0.208333,0.2657025 0.243245,1.3017235 0.115015,3.41285241 -0.101272,1.66723219 -0.09876,4.22743309 0.0056,5.68933269 0.199372,2.7933094 1.410415,8.2107406 2.528168,11.3094136 0.363519,1.007758 0.700783,2.032939 0.749477,2.278187 0.119349,0.601085 3.929981,10.049441 4.955088,12.286003 0.450215,0.982266 0.890241,1.785274 0.977839,1.784461 0.0876,-7.93e-4 0.588203,-0.120623 1.112456,-0.26625 z M 48.212325,20.616041 c 0.329107,-0.419645 0.319749,-0.429003 -0.0999,-0.0999 -0.254662,0.199721 -0.463021,0.40808 -0.463021,0.463021 0,0.217762 0.217273,0.07761 0.562917,-0.363125 z"
       id="path5406" />
  </g>
</svg>
