<?xml version="1.0" encoding="UTF-8" standalone="no"?>
<!-- Created with Inkscape (http://www.inkscape.org/) -->

<svg
   width="267.60037mm"
   height="281.06238mm"
   viewBox="0 0 267.60037 281.06237"
   version="1.1"
   id="svg1910"
   inkscape:version="1.1.2 (0a00cf5339, 2022-02-04)"
   sodipodi:docname="solar_wind_energy.svg"
   xmlns:inkscape="http://www.inkscape.org/namespaces/inkscape"
   xmlns:sodipodi="http://sodipodi.sourceforge.net/DTD/sodipodi-0.dtd"
   xmlns="http://www.w3.org/2000/svg"
   xmlns:svg="http://www.w3.org/2000/svg">
  <sodipodi:namedview
     id="namedview1912"
     pagecolor="#505050"
     bordercolor="#ffffff"
     borderopacity="1"
     inkscape:pageshadow="0"
     inkscape:pageopacity="0"
     inkscape:pagecheckerboard="1"
     inkscape:document-units="mm"
     showgrid="false"
     inkscape:zoom="0.80824021"
     inkscape:cx="578.41715"
     inkscape:cy="369.3209"
     inkscape:window-width="1920"
     inkscape:window-height="1018"
     inkscape:window-x="0"
     inkscape:window-y="28"
     inkscape:window-maximized="1"
     inkscape:current-layer="layer1" />
  <defs
     id="defs1907" />
  <g
     inkscape:label="Layer 1"
     inkscape:groupmode="layer"
     id="layer1"
     transform="translate(-84.83798,54.462851)">
    <g
       id="g10384">
      <path
         style="fill:#000000;fill-opacity:1;stroke-width:0.565711"
         d="m 147.31757,207.57092 c -30.45683,-2.35119 -56.386716,-26.07239 -61.679985,-56.42625 -1.06614,-6.11369 -1.06614,-17.83187 0,-23.94556 4.890439,-28.043844 27.611525,-50.758044 55.667245,-55.650553 6.17742,-1.077254 17.84429,-1.056973 24.14611,0.04197 27.32283,4.764701 49.51087,26.494615 55.14276,54.004263 1.72294,8.41604 1.38644,22.60957 -0.72429,30.54845 -1.92893,7.2551 -5.23319,14.70954 -9.19315,20.73985 -4.57964,6.97396 -14.30193,16.46862 -21.18485,20.68883 -12.54271,7.69047 -27.16621,11.15754 -42.17384,9.999 z m 18.66123,-4.75848 c 26.30013,-5.61283 46.05934,-25.79198 51.26187,-52.35131 1.07468,-5.48632 0.9309,-17.99099 -0.27158,-23.61954 -5.62663,-26.33711 -25.1046,-45.845165 -51.26589,-51.345199 -6.41692,-1.349064 -17.79163,-1.37265 -24.50212,-0.0508 -22.79243,4.489704 -41.278887,20.494313 -49.227142,42.618449 -4.619836,12.85943 -4.604266,29.37971 0.0399,42.32205 8.033172,22.38689 27.627102,39.02938 50.212352,42.64891 2.17797,0.34902 4.59641,0.74368 5.37426,0.87699 2.63874,0.45221 14.4061,-0.25181 18.37837,-1.09955 z m -24.60121,-8.69716 c -20.5672,-4.4857 -36.9394,-20.19598 -42.519571,-40.80059 -1.111584,-4.10449 -1.302624,-6.17524 -1.304744,-14.14279 -0.002,-7.99825 0.18484,-10.0225 1.306314,-14.14281 4.829881,-17.74496 17.968511,-32.284838 34.737911,-38.442843 7.21537,-2.649617 10.13743,-3.183338 19.62006,-3.695119 8.06831,0.453002 10.05119,0.758384 14.18277,1.882933 9.82567,2.674371 18.35422,7.609214 25.50004,14.754992 7.14076,7.140747 12.08669,15.681467 14.76711,25.500037 1.1258,4.12392 1.3127,6.13752 1.3127,14.14281 0,8.00526 -0.18688,10.01886 -1.3127,14.14279 -2.68042,9.81857 -7.62635,18.35928 -14.76711,25.50004 -7.05602,7.05603 -15.94735,12.23227 -25.33949,14.75188 -6.3879,1.71367 -19.57471,1.98998 -26.18329,0.54867 z m 21.71712,-3.53424 c 4.86446,-0.8372 11.9522,-3.55131 17.07553,-6.53877 6.32179,-3.68623 14.88303,-12.41114 18.49586,-18.84942 16.32935,-29.09981 2.37623,-65.18606 -29.28576,-75.74034 -14.55806,-4.852837 -31.39122,-2.683171 -44.23542,5.70156 -27.607115,18.02207 -32.390418,55.72887 -10.09325,79.56532 12.53682,13.40232 29.59998,19.03583 48.04304,15.86165 z m -34.6211,-16.91521 c -3.42291,-2.0869 -4.46063,-6.86411 -2.22134,-10.22609 2.83809,-4.26101 7.79906,-4.88138 11.54956,-1.44433 3.63594,3.33212 3.08023,9.14752 -1.11882,11.70782 -2.34389,1.42916 -5.83,1.41327 -8.2094,-0.0374 z m 6.32201,-3.42083 c 1.82368,-1.43451 1.98699,-3.98822 0.35915,-5.61606 -2.28249,-2.28249 -6.22283,-0.50346 -6.22283,2.80952 0,1.63682 2.16449,3.97902 3.67712,3.97902 0.3828,0 1.36675,-0.52762 2.18656,-1.17248 z m 15.74075,3.42083 c -2.94636,-1.79635 -4.35423,-6.32449 -2.86526,-9.21551 3.64364,-7.0746 13.61421,-5.68264 14.48261,2.02185 0.7146,6.33982 -6.09834,10.55849 -11.61735,7.19366 z m 6.32201,-3.42083 c 2.66718,-2.09801 1.28308,-6.74749 -2.00867,-6.74749 -1.77094,0 -3.85501,2.17193 -3.85501,4.01753 0,1.56073 2.2065,3.90244 3.67712,3.90244 0.38279,0 1.36676,-0.52762 2.18656,-1.17248 z m 15.74076,3.42083 c -3.42292,-2.0869 -4.46064,-6.86411 -2.22134,-10.22609 2.83808,-4.26101 7.79906,-4.88138 11.54957,-1.44433 3.63594,3.33212 3.08022,9.14752 -1.11884,11.70782 -2.3439,1.42916 -5.83,1.41327 -8.20939,-0.0374 z m 6.322,-3.42083 c 2.66719,-2.09801 1.28309,-6.74749 -2.00866,-6.74749 -1.77094,0 -3.85501,2.17193 -3.85501,4.01753 0,1.56073 2.2065,3.90244 3.67712,3.90244 0.38279,0 1.36675,-0.52762 2.18655,-1.17248 z m -61.54589,-19.51643 c -1.32242,-1.32241 -1.32242,-21.79095 0,-23.11336 0.789,-0.78901 4.82447,-0.88899 35.88229,-0.88899 31.05783,0 35.09331,0.10007 35.8823,0.88899 1.32243,1.32241 1.32243,21.79095 0,23.11336 -0.78899,0.78901 -4.82447,0.88899 -35.8823,0.88899 -31.05782,0 -35.09329,-0.10007 -35.88229,-0.88899 z m 68.69358,-11.55667 v -8.48568 h -32.81129 -32.81128 v 8.48568 8.48568 h 32.81128 32.81129 z"
         id="path1749"
         sodipodi:nodetypes="sssssssssscssssssssscsssscsssscsscscsscsscccsccsssssssssssssscscscssssssccscssccccccccc" />
      <path
         style="fill:#000000;stroke-width:0.0772017"
         d="m 148.22031,121.34866 c -0.4968,-0.13502 -0.84922,-0.59879 -0.84922,-1.11739 0,-0.16066 0.34387,-1.50863 0.76421,-2.99542 0.42032,-1.4868 0.8229,-2.96378 0.89469,-3.28226 0.0718,-0.31847 0.26456,-0.97855 0.42839,-1.46686 0.27071,-0.80682 0.92359,-3.01283 0.92359,-3.12066 0,-0.0244 -1.09829,-0.0446 -2.44065,-0.0446 -2.38551,0 -2.44763,-0.003 -2.74864,-0.173 -0.53113,-0.29851 -0.75369,-1.0059 -0.4819,-1.53149 0.0654,-0.12667 0.71351,-1.10627 1.44012,-2.17715 0.72662,-1.07087 1.88525,-2.78083 2.57476,-3.79989 0.68948,-1.01906 1.84563,-2.721376 2.56917,-3.782876 0.72358,-1.061531 1.674,-2.461909 2.11209,-3.111934 2.42844,-3.603318 2.59436,-3.830441 2.92892,-4.009925 0.39136,-0.20995 0.62367,-0.215941 1.04029,-0.02674 0.43658,0.198264 0.64883,0.563317 0.64883,1.115787 0,0.38283 -0.85228,9.855398 -0.97173,10.799998 l -0.0464,0.3667 h 2.9434 c 3.26337,0 3.25566,-0.001 3.74494,0.50278 0.23497,0.24198 0.27427,0.33417 0.27386,0.6426 -5.9e-4,0.47107 -0.23959,0.90711 -0.72246,1.31833 -0.27643,0.23541 -0.38946,0.36134 -4.09292,4.55956 -0.42971,0.48714 -1.18316,1.33828 -1.67435,1.89146 -0.98479,1.10905 -4.33403,4.89915 -6.55477,7.41755 -1.6812,1.90653 -1.53664,1.75181 -1.77783,1.90247 -0.26481,0.1654 -0.60459,0.21055 -0.92642,0.12305 z m 3.9793,-7.08626 c 0.50548,-0.57322 0.93877,-1.0596 0.96286,-1.08083 0.0241,-0.0213 1.05411,-1.18506 2.28892,-2.58628 1.23483,-1.4012 2.76776,-3.13827 3.40657,-3.8601 l 1.16144,-1.31246 -2.32897,-0.0385 c -2.58147,-0.0428 -2.68241,-0.0619 -2.98829,-0.56345 -0.20799,-0.34111 -0.20005,-0.53935 0.18934,-4.72487 0.18572,-1.995659 0.32205,-3.644842 0.30306,-3.664866 -0.019,-0.01997 -0.0647,0.01331 -0.10203,0.07279 -0.0764,0.123635 -2.01494,2.98688 -5.00518,7.392766 l -2.03146,2.99322 2.14726,0.0385 c 1.83947,0.0331 2.18218,0.0575 2.39073,0.17187 0.33369,0.18269 0.56715,0.58541 0.56715,0.97841 0,0.24654 -1.5237,5.81395 -1.93172,7.05826 -0.0393,0.12001 -0.0439,0.20678 -0.0113,0.19299 0.0336,-0.0133 0.47486,-0.49405 0.98031,-1.06729 z"
         id="path6106" />
      <path
         style="fill:#000000;stroke-width:0.264583"
         d="m 231.81558,226.26032 -11.24479,-0.13229 -1.71979,-0.81952 c -4.21901,-2.01044 -6.60301,-5.7762 -6.61144,-10.44339 -0.01,-5.5108 4.03142,-10.20871 9.603,-11.16309 1.47148,-0.25207 1.78035,-0.40492 2.17793,-1.07799 0.25481,-0.43136 1.04138,-1.42264 1.74794,-2.20285 1.02002,-1.12633 1.28466,-1.60874 1.28466,-2.3418 v -0.92323 h -5.30017 c -5.76777,0 -6.66535,-0.1695 -7.47968,-1.4123 -0.70684,-1.07878 -0.59858,-2.38294 0.55264,-6.6575 0.58787,-2.18281 1.72758,-6.46908 2.53269,-9.52504 0.80511,-3.05594 2.17331,-8.23519 3.04046,-11.50943 0.86714,-3.27424 2.85104,-10.77522 4.40867,-16.66885 1.55762,-5.89362 3.30446,-12.4421 3.88186,-14.55216 0.5774,-2.11007 1.46361,-5.50337 1.96936,-7.54067 0.50576,-2.0373 1.036,-4.06138 1.17831,-4.49794 0.14232,-0.43657 1.09249,-4.05326 2.1115,-8.03709 1.01901,-3.98383 1.97555,-7.47281 2.12564,-7.75327 0.1501,-0.28046 0.65226,-0.74123 1.11591,-1.02394 0.79395,-0.4841 1.4044,-0.51408 10.48786,-0.51501 l 9.64484,-9.9e-4 c -0.39639,0.003 1.49138,0 6.43004,0 h 6.12052 l 0.13812,-0.72762 c 0.076,-0.40018 0.28509,-7.069806 0.46471,-14.821358 l 0.32658,-14.093727 v 0 0 0 c 0.14029,-2.257813 0.15368,-4.533908 0.21438,-6.798061 0.0966,-3.604746 0.25533,-11.01893 0.35265,-16.475961 0.0973,-5.457031 0.26165,-11.945937 0.36519,-14.419791 0.10354,-2.473854 0.14632,-4.586986 0.0951,-4.695852 -0.0512,-0.108862 -1.54481,1.082382 -3.31902,2.647212 -11.21326,9.889932 -16.75237,13.505677 -24.05525,15.702449 -4.31416,1.297737 -7.48956,1.940071 -12.50809,2.530192 -6.96898,0.81947 -22.81819,0.540311 -25.4168,-0.447678 -0.84546,-0.321444 -1.70076,-1.754155 -1.70201,-2.851025 -0.001,-1.027816 0.60817,-2.317401 1.25852,-2.663553 0.25316,-0.134741 3.85357,-1.631963 8.00091,-3.327161 4.14735,-1.695202 8.79078,-3.604501 10.31875,-4.242893 1.52797,-0.638395 3.25438,-1.335484 3.83646,-1.549093 0.58208,-0.213609 3.20146,-1.275887 5.82083,-2.360618 6.33138,-2.621939 11.42453,-4.715174 15.61042,-6.41573 1.89177,-0.768551 6.17802,-2.523773 9.525,-3.900493 3.34698,-1.376722 6.25951,-2.55883 6.47229,-2.62691 0.27924,-0.08934 0.36653,-0.454779 0.31373,-1.313424 -0.16508,-2.684393 1.22766,-6.461715 3.15241,-8.549817 0.57298,-0.621609 1.04178,-1.217607 1.04178,-1.324441 0,-0.106833 -0.61565,-1.641329 -1.36811,-3.409994 -0.75246,-1.7686652 -1.70277,-4.1053161 -2.11179,-5.1925595 -1.41891,-3.6862379 0,0 -0.85784,-2.4081034 -0.88161,-2.0587782 -2.93167,-8.7589051 -3.89504,-13.3421624 -0.45194,-2.1501207 -0.44993,-9.1453997 0.004,-12.6337787 0.33095,-2.720095 0.43657,-3.309102 0.81306,-5.020203 0.90712,-5.07588 3.48244,-13.650352 5.74351,-19.122922 3.07772,-7.449108 3.52185,-8.069745 5.77478,-8.069745 1.65978,0 2.91871,1.170864 3.14648,2.926355 0.0838,0.646067 0.62361,10.2809 1.19951,21.410747 0.0209,10.94596 1.36377,25.253428 1.77742,33.1741533 l 0.46788,8.9604437 0.67254,0.254077 c 4.82216,1.821746 7.78696,4.969314 8.75492,9.294608 l 0.31165,1.392592 3.07903,0.588545 c 10.51459,2.009825 20.20458,5.17285 25.03944,8.173423 5.64465,3.503142 12.10799,9.598404 17.99244,16.967785 1.69731,2.125625 1.77053,2.229562 5.4551,7.744177 3.91581,5.860692 4.39959,7.042184 3.55348,8.67837 -0.53882,1.041958 -1.53222,1.613651 -2.80396,1.613651 -1.17098,0 -1.36769,-0.101642 -7.6606,-3.958338 -5.81043,-3.561001 -9.57888,-5.862955 -10.84792,-6.626445 -0.65484,-0.39397 -2.79797,-1.700919 -4.7625,-2.904326 -1.96453,-1.203409 -5.45458,-3.333866 -7.75566,-4.734351 -2.30108,-1.400481 -4.68233,-2.871824 -5.29167,-3.269649 -0.60933,-0.397825 -1.28647,-0.807974 -1.50476,-0.911442 -0.21828,-0.10347 -3.3139,-1.974323 -6.87916,-4.157456 -3.56526,-2.18313 -7.59729,-4.649385 -8.96006,-5.480566 l -2.47777,-1.511236 -1.04724,0.703469 -1.04724,0.703466 0.1512,5.159375 c 0.0832,2.837656 0.26539,11.291093 0.40493,18.785416 0.13955,7.494323 0.32966,15.154103 0.42246,17.021733 0.15972,5.560019 0.0851,2.635306 0.23025,8.304591 0.10226,2.441622 0.18,5.510873 0.17275,6.820564 -0.0109,1.967281 0.41205,16.517269 0.48645,16.734929 0.0124,0.0364 3.14148,0.0661 6.95344,0.0661 9.73762,0.015 19.51113,0.0372 29.07252,5.3e-4 24.54849,5.3e-4 23.15319,-0.11303 24.16792,1.96579 l 0.50773,1.04017 -0.70539,2.79632 c -0.38796,1.53796 -1.00849,3.92741 -1.37896,5.30987 -0.37046,1.38244 -1.33423,5.01388 -2.14171,8.06983 -0.80747,3.05596 -2.11206,7.95025 -2.89908,10.8762 l -1.43095,5.3198 v 27.3987 27.39862 l 0.79354,1.67741 c 0.43645,0.92257 0.79364,1.82623 0.79375,2.00813 1.2e-4,0.1819 0.27285,0.33073 0.60608,0.33073 0.92516,0 3.46343,0.71393 4.84181,1.36184 2.10314,0.98862 4.20557,3.17727 5.43456,5.65748 0.9656,1.94866 1.10313,2.46353 1.22394,4.58234 0.1952,3.42363 -0.35206,5.33586 -2.361,8.24977 -1.14132,1.65541 -2.80585,2.99317 -5.27643,4.24053 l -1.69062,0.85357 -50.00625,-0.10351 c -27.50344,-0.0569 -55.06641,-0.16296 -61.25105,-0.23572 z M 343.066,222.00683 c 1.80736,-0.67622 3.90957,-2.64713 4.70044,-4.4069 0.86398,-1.92241 0.82166,-5.01809 -0.0953,-6.97352 -0.80908,-1.72529 -2.48786,-3.43882 -4.12143,-4.20666 -1.41182,-0.66366 -3.80514,-0.93118 -5.27885,-0.59008 -1.53256,0.35473 -1.78379,0.11454 -1.71291,-1.63753 0.10188,-2.51817 -1.26007,-4.84949 -3.5392,-6.05824 -2.04057,-1.08223 -5.70735,-0.56473 -6.99541,0.98729 -0.55558,0.66942 -1.29459,0.48517 -2.20281,-0.54925 -0.46622,-0.53099 -1.23267,-1.1263 -1.70321,-1.32292 -1.25003,-0.52228 -3.2335,-0.44563 -4.44449,0.17177 -0.98047,0.49985 -1.98429,0.5011 -1.98429,0.003 0,-0.52811 -1.49138,-1.93241 -2.74644,-2.58607 -1.75236,-0.91268 -4.24979,-0.96858 -5.85252,-0.13099 -1.3688,0.71535 -2.90675,2.31799 -3.43021,3.57449 -0.22734,0.54571 -0.56058,1.00235 -0.74053,1.01476 -0.17994,0.0124 -0.94599,0.004 -1.70232,-0.0185 -2.43153,-0.0727 -4.57889,1.27042 -5.49283,3.43556 -0.73905,1.7508 -0.92331,1.89606 -2.0033,1.57935 -1.88679,-0.55332 -4.13322,0.28689 -5.47686,2.04851 -0.58049,0.76108 -0.73705,1.30083 -0.85423,2.94508 l -0.14347,2.01327 -1.17873,0.20026 c -1.73475,0.29477 -3.42945,1.45267 -4.17888,2.8552 -0.53127,0.99425 -0.62061,1.4833 -0.5417,2.96516 0.1153,2.16535 1.03046,3.64392 2.85251,4.60867 l 1.18654,0.62825 h 28.10614 c 27.80203,0 28.12203,-0.006 29.57433,-0.54933 z m -80.7601,-0.5706 c 0.58017,-0.44257 1.12924,-1.19801 1.41543,-1.94739 0.40439,-1.05886 0.42324,-1.39023 0.13948,-2.45195 -0.71398,-2.67141 -3.26085,-3.89598 -6.02448,-2.89665 -0.47961,0.17343 -0.95,0.23735 -1.04529,0.14208 -0.0953,-0.0953 -0.21398,-0.94734 -0.26375,-1.89344 -0.15018,-2.85443 -1.46843,-5.07156 -3.75437,-6.31439 -1.85734,-1.00978 -3.54349,-1.17043 -5.89177,-0.56139 -1.72788,0.44818 -1.91703,0.45389 -2.19436,0.0665 -0.16692,-0.2332 -0.68788,-0.97353 -1.15768,-1.6452 -1.51271,-2.16271 -4.93583,-3.86779 -7.76493,-3.86779 -2.03908,0 -4.42864,0.89104 -6.18574,2.30659 -1.23246,0.9929 -1.79435,1.70571 -2.59795,3.29573 l -1.02536,2.02882 h -2.07322 c -1.73524,0 -2.32509,0.12203 -3.61821,0.74851 -3.50274,1.69693 -5.0654,6.01969 -3.42689,9.47973 0.55873,1.17985 1.48541,2.24004 2.87158,3.28525 1.39182,1.0495 1.72001,1.06444 22.04978,1.0052 l 19.59988,-0.0571 z m 19.06275,0.26003 c -1.81003,-1.97556 -2.22769,-5.31233 -0.97867,-7.81878 0.83424,-1.6741 2.40455,-3.06872 4.08304,-3.62622 l 1.25381,-0.41646 0.1188,-1.43261 c 0.26508,-3.19648 3.11677,-5.75223 6.47037,-5.7989 1.57263,-0.022 1.68323,-0.0653 1.97892,-0.77742 0.17226,-0.41484 0.86121,-1.31689 1.531,-2.00454 1.37878,-1.41555 3.09244,-2.13601 5.08063,-2.13601 1.18493,0 1.29079,-0.0578 1.70495,-0.93054 0.90685,-1.91106 4.17719,-4.10223 6.11607,-4.09784 1.04689,0.003 0.9093,-0.48577 -0.34395,-1.2202 -0.97113,-0.56912 -1.66645,-0.74732 -3.28105,-0.84077 -2.66297,-0.15417 -4.29914,0.37656 -6.07026,1.96892 -1.71756,1.54425 -2.20606,1.46561 -2.43331,-0.39168 -0.38042,-3.10915 -2.79172,-5.35374 -5.9687,-5.55604 -1.38685,-0.0883 -1.96533,0.006 -2.99485,0.48821 -0.70179,0.32869 -1.43744,0.53567 -1.63477,0.45995 -0.19733,-0.0757 -0.57592,-0.82648 -0.8413,-1.66836 -0.36161,-1.14722 -0.82571,-1.87392 -1.85235,-2.90057 -1.71742,-1.71742 -3.41615,-2.35158 -5.87897,-2.19478 -0.87145,0.0555 -1.2741,0.17913 -2.33054,0.44784 -0.0997,-1.18307 -3.03214,0.0781 -1.37965,-1.05918 l 1.29191,-0.59741 c 0.59767,-0.27637 2.36721,-0.44599 3.67075,-0.35664 1.76692,0.1211 2.08262,0.0786 2.19579,-0.29591 0.0727,-0.24053 0.43259,-1.68749 0.79976,-3.21547 0.36716,-1.52798 1.19388,-4.76372 1.83716,-7.19056 0.64327,-2.42682 1.10133,-4.48066 1.01791,-4.56409 -0.0834,-0.0834 -5.61985,-0.15167 -12.30318,-0.15167 -12.03159,0 -12.15291,0.005 -12.29349,0.54293 -0.51689,1.11576 -1.49188,-1.35333 -1.16348,-1.7137 0.39391,-0.24346 27.35716,-0.18497 27.60199,0.0599 0.1828,0.1828 -2.78828,12.38517 -3.98741,16.3765 -0.23397,0.77877 -0.18399,0.89914 0.63177,1.52136 0.48721,0.37161 0.94386,0.67567 1.01477,0.67567 0.0709,0 0.18947,-0.32753 0.31168,-0.8599 0.22637,-0.80716 0.3122,-1.38642 0.48605,-2.0753 0.0995,-0.35019 0.90145,-3.43468 1.78204,-6.85444 0.8806,-3.41976 1.77887,-6.84282 1.99617,-7.60682 l 0.39508,-1.38906 H 302.751 c 12.02034,0 13.76713,0.0502 13.90126,0.39976 0.13299,0.34656 -2.14158,9.7144 -4.01448,16.53366 -0.33973,1.23694 -0.80897,3.08009 -1.04277,4.09588 -0.23379,1.0158 -0.60748,2.47432 -0.8304,3.24116 l -0.40532,1.39425 h -6.7281 c -3.70046,0 -6.7281,0.0564 -6.7281,0.1252 0,0.0969 0.99005,2.30646 1.22721,2.73889 0.0259,0.0473 0.52277,-0.22878 1.10408,-0.61346 3.50784,-2.3214 8.64718,-1.88595 11.88315,1.00682 0.46804,0.41838 0.61533,0.45021 0.72,0.15562 0.0724,-0.2037 1.02656,-3.82317 2.12042,-8.0433 2.33686,-9.01565 2.95753,-11.37883 6.35842,-24.2095 1.40787,-5.31154 2.78802,-10.52055 3.06699,-11.57559 0.27898,-1.05503 0.75834,-2.84097 1.06527,-3.96877 0.69227,-2.54377 2.55266,-9.62364 4.67556,-17.79333 0.88863,-3.41976 2.09866,-7.99968 2.68896,-10.1776 0.5903,-2.17792 1.07327,-4.05316 1.07327,-4.16721 0,-0.11404 -6.33241,-0.20735 -14.07201,-0.20735 -16.10089,-0.0205 -28.90965,0 -46.85292,0 h -32.43195 l -0.26887,0.85989 c -0.14789,0.47296 -0.94429,3.47929 -1.76979,6.68077 -0.8255,3.20148 -1.85466,7.13056 -2.28701,8.7313 -0.43236,1.60074 -1.12634,4.22013 -1.54219,5.82087 -3.93156,15.134 -5.61103,21.51265 -7.14466,27.1355 -0.57786,2.11862 -1.51129,5.63098 -2.0743,7.80525 -0.56301,2.17427 -1.77029,6.7512 -2.68284,10.17096 -1.952,7.31508 -3.69361,14.07347 -3.69889,14.35369 -0.002,0.10914 6.84267,0.19844 15.21049,0.19844 h 15.21423 l 0.95383,-1.05577 c 0.5246,-0.58068 1.72126,-1.43359 2.65924,-1.89534 1.41133,-0.6948 2.03375,-0.84352 3.60954,-0.86247 1.04728,-0.0127 2.21821,0.0653 2.60207,0.17315 0.62886,0.17663 0.70942,0.11771 0.81407,-0.59531 l 0.11614,-0.79135 h -3.22907 c -2.40789,0 -3.30541,-0.092 -3.52924,-0.36168 -0.22921,-0.27617 -0.0229,-1.41775 0.87269,-4.82867 1.84964,-7.04456 4.58517,-17.62083 4.77667,-18.46787 l 0.63935,-1.8544 c 0.10332,1.15614 0.32613,1.53904 0.98925,1.96196 l -1.8893,7.30094 c -0.97537,3.7692 -2.21554,8.61316 -2.77436,10.7596 l -1.01604,3.90262 h 3.00489 c 2.74071,0 3.01921,-0.0451 3.16768,-0.51287 0.2137,-0.67333 1.72149,-1.98269 3.12138,-2.71062 1.37682,-0.71591 4.30848,-0.79512 5.78285,-0.15621 0.94104,0.40778 0.9689,0.40294 1.30602,-0.22698 0.3973,-0.74237 2.23895,-2.31321 3.2545,-2.77592 1.37044,-0.73844 2.80635,0.57861 1.37965,1.05918 -0.95945,0.31666 -3.39743,2.48488 -3.9169,3.625 -0.34662,0.76077 -0.432,0.7564 -2.94727,-0.14997 -1.36968,-0.49355 -1.71887,-0.52345 -3.00253,-0.25696 -2.58732,0.53713 -4.55733,2.94204 -4.56984,5.5787 -0.008,1.69899 -0.3784,1.92751 -2.07753,1.2819 -2.62783,-0.99851 -5.3871,-0.4446 -7.46432,1.49839 -1.74285,1.63023 -2.43237,3.18273 -2.47142,5.56459 -0.0171,1.04296 -0.11653,1.9817 -0.22095,2.08602 -0.10443,0.10436 -0.62351,0.23752 -1.15351,0.29591 -1.00861,0.11116 -3.03002,1.01696 -3.0115,1.34948 0.006,0.10618 0.35379,0.59413 0.77305,1.08432 l 0.7623,0.89125 1.37495,-0.32983 c 4.8806,-1.17086 10.18755,2.36088 10.75567,7.15777 l 0.15376,1.29823 1.4938,-0.0212 c 1.79361,-0.0251 3.04823,0.45579 4.20446,1.61202 1.35643,1.35642 1.75135,2.31781 1.7613,4.2876 0.008,1.56909 -0.0857,1.89855 -0.84552,2.97657 l -0.85445,1.21221 h 9.0365 9.03651 l -0.54543,-0.59531 z m -58.87963,-33.71831 c -0.65462,-0.17108 -0.59443,-0.70324 0.57346,-5.07021 0.57006,-2.13157 1.88956,-7.20935 2.93222,-11.28396 1.04266,-4.07461 2.03969,-7.8251 2.21562,-8.33442 l 0.31989,-0.92605 13.21821,-0.0733 c 7.27001,-0.0403 13.17038,0.0498 13.4978,0.12903 0.34145,0.0829 0.91103,0.28834 0.91103,0.5596 0,0.26012 -0.7001,3.20466 -1.55578,6.54344 -0.85568,3.33876 -2.24315,8.7494 -3.08328,12.02365 -0.84013,3.27423 -1.64289,6.10197 -1.78391,6.28387 -0.19964,0.25752 -3.19256,0.32393 -13.51932,0.30004 -7.2946,-0.0169 -13.47128,-0.0851 -13.72594,-0.15168 z m 26.11648,-1.73586 c 0.0575,-0.1819 0.81664,-3.06918 1.68696,-6.41618 0.87031,-3.34699 2.12922,-8.17508 2.79755,-10.72907 0.66834,-2.55399 1.21516,-4.78642 1.21516,-4.96096 0,-0.24219 -2.90965,-0.31735 -12.28435,-0.31735 h -12.28435 l -0.39996,1.38907 c -0.21997,0.76399 -0.99647,3.7108 -1.72555,6.54848 -0.72907,2.83766 -1.86643,7.24301 -2.52746,9.78964 -0.66103,2.54662 -1.20267,4.71952 -1.20364,4.82867 -0.001,0.10914 5.53837,0.19843 12.30965,0.19843 9.61699,0 12.33432,-0.0724 12.41599,-0.33073 z m -19.48273,-25.79483 c -0.33721,-0.21523 -0.19504,-1.02847 1.0057,-5.75301 2.70362,-10.6378 3.91413,-15.30312 4.08882,-15.75837 0.16436,-0.42833 1.11287,-0.45966 13.91472,-0.45966 11.21958,0 13.7632,0.0648 13.874,0.35355 0.0746,0.19445 -0.37718,2.36735 -1.00399,4.82867 -3.39946,13.34876 -4.13564,16.15245 -4.3361,16.51373 -0.35405,0.63807 -1.4206,0.53775 -2.21345,-0.2082 -0.89611,-0.84309 -0.9172,-1.08893 -0.0856,-0.99764 0.35312,0.0388 0.75048,-0.002 0.88304,-0.0894 0.13256,-0.0879 1.26731,-4.15531 2.52167,-9.03855 1.25436,-4.88326 2.35802,-9.08024 2.45257,-9.32663 0.16001,-0.417 -0.68863,-0.44797 -12.27305,-0.44797 h -12.44494 l -0.40967,1.40921 c -0.22532,0.77507 -0.71993,2.70985 -1.09913,4.2995 -0.3792,1.58966 -1.27486,5.10659 -1.99035,7.8154 -0.7155,2.7088 -1.3009,5.07724 -1.3009,5.26321 0,0.27164 2.20129,0.3061 11.19988,0.17536 l 12.27117,-0.0713 c 0.69164,1.01238 0.89133,1.24457 1.88425,1.63621 l -13.86913,0.0996 c -7.54265,0.004 -12.83585,-0.094 -13.06952,-0.24312 z m 30.61004,-0.23474 c -0.23705,-0.23705 -0.37266,-0.58301 -0.30136,-0.76881 0.15042,-0.39199 2.94921,-11.1531 4.38408,-16.85644 0.53979,-2.14552 1.03668,-3.9562 1.10422,-4.02374 0.0911,-0.0911 24.31909,-0.23018 27.28698,-0.15662 0.67142,0.0166 0.60496,0.5354 -0.73995,5.7755 -3.11037,12.11879 -4.15544,15.81683 -4.55846,16.13037 -0.32708,0.25446 -3.46019,0.33074 -13.58482,0.33074 -11.80769,0 -13.20398,-0.0443 -13.59069,-0.431 z m 26.29938,-1.58198 c 0.0601,-0.056 0.78893,-2.75142 1.61958,-5.98979 0.83064,-3.23837 1.9026,-7.40601 2.38213,-9.26144 0.47953,-1.85542 0.82229,-3.40324 0.76168,-3.4396 -0.0606,-0.0364 -5.6422,-0.007 -12.40353,0.0662 l -12.29332,0.13229 -1.15934,4.49795 c -0.63763,2.47386 -1.72253,6.64107 -2.41089,9.26046 -0.68835,2.61939 -1.1512,4.8304 -1.02854,4.91336 0.24239,0.16394 24.35297,-0.0124 24.53223,-0.17942 z m 3.99347,1.61819 c -0.27124,-0.32682 -0.10866,-1.28227 0.88957,-5.22811 3.23426,-12.78438 4.19027,-16.22069 4.60049,-16.53609 0.33112,-0.25457 3.4798,-0.32979 13.67491,-0.32668 7.28461,0.002 13.40987,0.10863 13.6117,0.23645 0.41382,0.26206 0.41633,0.246 -0.70775,4.52203 -0.43992,1.6735 -1.39761,5.36446 -2.1282,8.20213 -1.72337,6.69375 -2.37582,9.03409 -2.57372,9.23201 -0.0884,0.0884 -6.20748,0.19167 -13.59793,0.22946 -11.72321,0.06 -13.47951,0.0177 -13.76907,-0.3312 z m 20.78065,-1.45818 5.54365,-8e-4 1.24738,-4.8278 c 0.68606,-2.65529 1.71172,-6.61374 2.27925,-8.79657 0.56753,-2.18282 1.11061,-4.29938 1.20683,-4.70344 l 0.17496,-0.73467 -12.3722,0.0732 -12.3722,0.0732 -0.4711,1.7198 c -0.25911,0.94588 -1.3018,4.9345 -2.31711,8.86359 -1.0153,3.92908 -1.92027,7.41168 -2.01104,7.7391 l -0.16503,0.59533 h 6.69494 c 6.28197,0.0756 6.88869,0.0706 12.56167,-8e-4 z m -75.71504,-22.87267 c -0.20687,-0.5391 -0.0179,-1.32635 4.38239,-18.25799 0.4522,-1.73998 0.96795,-3.25839 1.14611,-3.37424 0.17817,-0.11586 2.50877,-0.20091 5.17911,-0.189 l 4.85518,0.0216 c 5.52418,-0.0432 6.60511,-0.0417 8.74951,-0.0417 7.71071,0 8.39567,0.0368 8.61493,0.46302 0.16103,0.31303 0.005,1.32016 -0.48168,3.10887 -0.39594,1.45522 -1.46001,5.5629 -2.36461,9.12818 -0.9046,3.56528 -1.84451,7.13718 -2.08869,7.93755 l -0.44398,1.45522 -13.69957,0.0685 c -11.84694,0.0593 -13.71975,0.016 -13.8487,-0.32007 z m 26.62692,-2.32817 c 0.15931,-0.61846 0.39747,-1.48168 0.52923,-1.91824 0.13176,-0.43656 0.89614,-3.37465 1.69861,-6.52908 0.80247,-3.15442 1.69418,-6.58387 1.98157,-7.62098 l 0.52254,-1.88566 -9.18134,0.0522 c -5.04974,0.0287 -10.65777,0.12435 -12.4623,0.2126 l -3.28096,0.16046 -0.88678,3.4396 c -0.48773,1.89178 -1.54138,5.94961 -2.34144,9.01737 -0.80006,3.06778 -1.45465,5.71694 -1.45465,5.88702 0,0.23149 3.09065,0.30924 12.29293,0.30924 h 12.29292 z m 3.73094,2.35302 c -0.22648,-0.27289 0.0518,-1.71609 1.16056,-6.0193 0.80217,-3.11318 2.00624,-7.80347 2.67573,-10.42286 0.66949,-2.61939 1.33786,-4.91136 1.48527,-5.09326 0.20812,-0.25682 3.30775,-0.33073 13.86997,-0.33073 15.11164,0 14.16002,-0.12495 13.64762,1.79203 -0.43808,1.63896 -3.77388,14.55838 -4.49019,17.39037 -0.36808,1.45522 -0.8023,2.73333 -0.96493,2.84024 -0.16264,0.10691 -6.32354,0.19621 -13.69091,0.19844 -10.95905,0.003 -13.44939,-0.0612 -13.69312,-0.35493 z m 26.42908,-1.89579 c 0.13953,-0.36701 0.68243,-2.36131 1.20644,-4.4318 0.52401,-2.07049 1.4671,-5.72907 2.09574,-8.13019 0.62864,-2.4011 1.21646,-4.69424 1.30625,-5.09587 l 0.16326,-0.73023 -12.37218,0.0688 -12.37217,0.0688 -1.13494,4.36566 c -0.62422,2.4011 -1.67376,6.44925 -2.33231,8.99588 -0.65856,2.54662 -1.25845,4.8386 -1.33309,5.09326 -0.12787,0.43629 0.57601,0.46302 12.1918,0.46302 h 12.3275 z m 4.03269,2.08179 c -0.51612,-0.21178 -0.42828,-0.73509 1.15596,-6.88662 0.81767,-3.17502 2.0069,-7.78949 2.64272,-10.25437 0.63583,-2.46488 1.24674,-4.5647 1.35759,-4.66625 0.11084,-0.10156 6.27996,-0.26852 13.70914,-0.37104 11.98557,-0.1654 13.54568,-0.14052 13.84552,0.22077 0.27958,0.33686 0.11043,1.26618 -0.97955,5.38182 -0.72462,2.73606 -1.98658,7.52892 -2.80436,10.6508 -0.81777,3.12189 -1.63336,5.76683 -1.81241,5.87768 -0.35702,0.22098 -26.57982,0.26665 -27.11461,0.0472 z m 26.48474,-2.8036 c 0.40646,-1.43054 2.58356,-9.77888 3.8662,-14.82543 0.39881,-1.56914 0.65262,-2.89778 0.56402,-2.95253 -0.0886,-0.0548 -5.65771,-0.0326 -12.37582,0.0491 -12.11601,0.14748 -12.21598,0.15317 -12.37017,0.70355 -0.0855,0.30519 -0.93722,3.59098 -1.89273,7.30179 -0.9555,3.7108 -1.96624,7.57796 -2.24609,8.59368 -0.27984,1.01573 -0.5088,1.99801 -0.5088,2.18283 0,0.26685 2.52958,0.33605 12.28435,0.33605 h 12.28435 z m -89.31216,63.4745 0.0773,-2.02472 h -1.06946 -1.06946 v 2.36741 2.36738 l 0.99219,-0.34268 0.99218,-0.34267 z m 10.63835,0.7534 c 0.63347,-0.36211 0.59987,-0.37811 -0.79375,-0.37811 -1.39361,0 -1.42721,0.0161 -0.79375,0.37811 0.36381,0.20796 0.72099,0.37812 0.79375,0.37812 0.0728,0 0.42995,-0.17016 0.79375,-0.37812 z m 90.9999,-24.40788 c -0.0114,-16.24177 -0.10213,-23.79705 -0.28057,-23.34961 -0.14508,0.3638 -0.67332,2.24544 -1.17385,4.18141 l -0.91006,3.51996 0.004,18.83746 c 0.002,10.36061 0.0722,19.09324 0.15613,19.40589 0.12694,0.47313 0.62866,0.79672 2.15536,1.39018 0.0364,0.014 0.0586,-10.77921 0.0494,-23.98529 z m -7.59,20.83405 1.25677,-0.37238 -0.0209,-5.56752 c -0.0115,-3.06214 -0.0682,-5.44848 -0.12599,-5.30296 -0.12167,0.30626 -3.02812,11.53946 -3.02812,11.70344 0,0.0601 0.14883,0.0649 0.33073,0.0106 0.1819,-0.0543 0.89628,-0.26633 1.5875,-0.47115 z m -5.55978,-1.5194 c 0.11018,-0.65349 1.35092,-5.43271 5.10012,-19.64539 0.67178,-2.54662 1.94222,-7.36869 2.82318,-10.71569 2.82307,-10.72545 3.3018,-12.53394 5.77821,-21.82824 1.33768,-5.0205 3.00462,-11.33084 3.7043,-14.023 0.69969,-2.69214 1.81802,-6.96091 2.4852,-9.48614 0.66717,-2.52524 1.21304,-4.76077 1.21304,-4.96786 0,-0.31237 -0.68689,-0.36408 -4.03105,-0.30349 l -4.03106,0.073 -1.24207,4.63023 c -0.68314,2.54663 -1.8557,6.95196 -2.60568,9.78964 -0.74999,2.83768 -2.05884,7.77879 -2.90856,10.98027 -0.84971,3.20148 -2.87529,10.88105 -4.50127,17.06572 -1.62599,6.18467 -3.36347,12.75166 -3.86107,14.59331 -2.17562,8.05218 -6.18765,23.67946 -6.18782,24.10219 -1.5e-4,0.42092 0.37001,0.46302 4.07084,0.46302 h 4.07101 z m -12.14063,-7.00087 c 0.22062,-0.76982 1.17818,-4.43577 2.12791,-8.14657 0.94974,-3.7108 2.088,-8.11615 2.52948,-9.78965 0.44146,-1.67349 0.80341,-3.16178 0.80431,-3.3073 0.001,-0.17262 -4.27574,-0.26459 -12.30464,-0.26459 -10.71041,0 -12.32149,0.0515 -12.42354,0.39688 -0.19292,0.65293 -2.71049,10.3416 -3.07321,11.82696 -0.22174,0.7045 -0.39287,1.16935 -0.52742,1.82429 -0.0795,0.35483 -0.28463,1.45011 -0.60791,2.60646 l -0.58778,2.10241 0.7654,1.41318 c 0.66514,1.22805 0.84007,1.38587 1.33551,1.20489 0.31356,-0.11456 1.58214,-0.20829 2.81907,-0.20829 1.98582,0 2.4262,0.0929 3.76381,0.79376 l 1.51484,0.79375 6.73153,0.0767 6.73153,0.0767 z m -26.91141,-77.53394 c -0.0868,-1.05504 -0.23679,-5.72713 -0.33329,-10.382426 0.0428,-11.628896 -0.54523,-22.694864 -0.83448,-33.869196 l -0.19177,-7.9375 -2.80523,-0.0747 -2.80523,-0.0747 -0.16937,4.704911 c -0.0931,2.587699 -0.23681,8.098189 -0.31924,12.245533 -0.0824,4.147343 -0.20728,7.819024 -0.27745,8.159289 -0.02,1.413014 -0.0185,3.090005 -0.10578,5.210406 v 4.199913 c -0.0882,0.88199 0.0333,-0.602481 -0.0882,0.88199 0.04,0.748211 -0.12004,2.504351 -0.21289,5.536483 -0.0928,3.03213 -0.18214,7.269157 -0.19844,9.415607 l -0.0296,3.90263 h 4.26442 4.26442 z M 338.8368,58.587381 c -5.50196,-8.342194 -12.91184,-16.640416 -18.82045,-21.076769 -4.40327,-3.306088 -7.28893,-4.705292 -14.00787,-6.792137 -4.8915,-1.519256 -17.7947,-4.38508 -18.11524,-4.023424 -0.0981,0.110678 -0.30816,0.590169 -0.46682,1.06553 -0.28041,0.840182 -0.25743,0.883431 0.82379,1.550054 0.61174,0.377166 1.82662,1.129101 2.69975,1.670965 2.65537,1.647931 6.09783,3.749051 11.50937,7.02478 2.83766,1.717699 6.05464,3.687464 7.14886,4.377253 1.09421,0.689793 2.4039,1.49138 2.91042,1.78131 0.50651,0.289928 2.70687,1.630913 4.88968,2.979968 4.16575,2.574576 9.16462,5.621075 17.33021,10.561685 2.69214,1.628883 5.00592,3.070236 5.14174,3.203009 0.13582,0.13277 0.30123,0.187113 0.36758,0.120764 0.0663,-0.06635 -0.56861,-1.165696 -1.41102,-2.442988 z m -57.54965,-5.695784 c -0.003,-0.618463 -0.11665,-3.803385 -0.25248,-7.077604 -0.13583,-3.274218 -0.2661,-7.284481 -0.2895,-8.911693 l -0.0425,-2.958568 -2.32377,-0.08414 -2.32378,-0.08414 -0.15171,1.719791 c -0.0834,0.945886 -0.2316,5.500026 -0.32926,10.120313 l -0.17756,8.40052 h 2.94806 2.94806 l -0.005,-1.124479 z m -53.78569,-0.183681 c 8.16262,-0.602838 15.65882,-2.248747 20.26667,-4.449866 5.31466,-2.538759 11.92892,-7.501739 20.47907,-15.36637 l 2.43265,-2.237616 -0.56397,-0.979918 -0.56397,-0.979916 -1.47181,0.587282 c -0.80949,0.323006 -3.43634,1.390843 -5.83743,2.372968 -2.4011,0.982128 -5.61578,2.294636 -7.14375,2.916688 -1.52797,0.622048 -5.15938,2.107644 -8.06979,3.301325 -8.89977,3.650155 -13.64303,5.584497 -16.27188,6.635813 -1.38245,0.55286 -4.12088,1.674307 -6.08541,2.492103 -1.96454,0.817792 -5.32732,2.191652 -7.47285,3.053019 -2.14554,0.861369 -4.28866,1.777921 -4.7625,2.036781 l -0.86153,0.470659 1.45521,0.132292 c 3.01386,0.273987 10.85298,0.28198 14.47129,0.01476 z M 282.4733,31.248157 c 4.53195,-2.735276 5.41586,-8.71779 1.86822,-12.644607 -3.4782,-3.849949 -10.00507,-3.377699 -12.90044,0.933408 -0.97411,1.450417 -1.62308,4.045442 -1.40289,5.609691 0.26102,1.854297 1.34129,3.838426 2.80764,5.1568 1.80041,1.618729 3.02147,2.022957 5.83399,1.931334 2.06564,-0.06729 2.42523,-0.160816 3.79348,-0.986626 z m -5.36723,-2.425724 c -1.48882,-0.319103 -3.07971,-1.877581 -3.50496,-3.433545 -0.58854,-2.153417 0.50114,-4.520848 2.53374,-5.504815 4.71613,-2.283039 9.1398,3.414617 5.76502,7.425311 -1.19576,1.421091 -2.82445,1.935144 -4.7938,1.513049 z m 2.87234,-1.930627 c 1.86173,-0.962734 2.07062,-3.565308 0.40843,-5.088591 -0.72048,-0.660268 -1.17614,-0.860055 -1.96158,-0.860055 -3.06314,0 -4.4588,3.713356 -2.13163,5.671534 0.94171,0.792401 2.46657,0.907077 3.68478,0.277112 z m -3.95026,-12.301789 c 0.94402,-0.262231 0.95225,-0.276847 0.85613,-1.51988 -0.0534,-0.690306 -0.33253,-5.8985371 -0.62033,-11.5738458 -0.72243,-14.2460702 -0.68944,-13.6284082 -1.73008,-32.3976242 -0.51191,-9.232969 -0.96797,-16.824434 -1.01346,-16.869924 -0.12828,-0.12828 -2.93619,7.166378 -3.84045,9.977063 -1.37882,4.285796 -2.67331,9.280946 -3.08547,11.906181 -0.66305,3.856169 -0.74019,4.275806 -0.89495,7.396918 -0.10127,1.667221 -0.0988,4.22741 0.006,5.689309 0.19937,2.79331 1.41042,8.2107377 2.52817,11.3094089 0.36352,1.00775767 0.70078,2.03293801 0.74948,2.27818568 0.11934,0.60108462 3.92998,10.04943542 4.95508,12.28599742 0.45022,0.982266 0.89025,1.785274 0.97784,1.784461 0.0876,-7.93e-4 0.58821,-0.120623 1.11246,-0.26625 z"
         id="path5406"
         sodipodi:nodetypes="scsssssscssssssssssssscccsscccccssssssscssssssssssssccsccssscccsscsssssssssssssscccssccssccscsssscccssssssssccscssssssssssssssscsssscsssscsccssssssssssssscssssscscsscscsssscssssssssssccsssssssccssssccsscssssscssscssssssssscccssssssscscsscsscssssccsscsssssccssssssssssscssccssscccccsssscscsssssssssssscssscsscsssssssscssscssssscccccsssssssssssssccsssssssscssssssccssscccssscccccsscccssssccccsssscsscsssscssssssssscssssscccsssscssssssssssssssscssssscscccccccccssssscssccscccccssssscsssssssscssssssscsssssssccscsssscccsscccccssccccsscccssssssssssssssssssscccssccccsssscccsssssssscssssssssssssssssssssssssssccsssssss" />
    </g>
  </g>
</svg>
