<?xml version="1.0" encoding="UTF-8" standalone="no"?>
<!-- Created with Inkscape (http://www.inkscape.org/) -->

<svg
   width="259.29144mm"
   height="253.6671mm"
   viewBox="0 0 259.29144 253.6671"
   version="1.1"
   id="svg165"
   inkscape:version="1.1.1 (50ffc5b540, 2022-01-11)"
   sodipodi:docname="solar_recycle.svg"
   xmlns:inkscape="http://www.inkscape.org/namespaces/inkscape"
   xmlns:sodipodi="http://sodipodi.sourceforge.net/DTD/sodipodi-0.dtd"
   xmlns="http://www.w3.org/2000/svg"
   xmlns:svg="http://www.w3.org/2000/svg">
  <sodipodi:namedview
     id="namedview167"
     pagecolor="#505050"
     bordercolor="#eeeeee"
     borderopacity="1"
     inkscape:pageshadow="0"
     inkscape:pageopacity="0"
     inkscape:pagecheckerboard="0"
     inkscape:document-units="mm"
     showgrid="false"
     inkscape:zoom="0.59776235"
     inkscape:cx="506.05396"
     inkscape:cy="502.70815"
     inkscape:window-width="1600"
     inkscape:window-height="838"
     inkscape:window-x="0"
     inkscape:window-y="34"
     inkscape:window-maximized="1"
     inkscape:current-layer="layer1" />
  <defs
     id="defs162" />
  <g
     inkscape:label="Layer 1"
     inkscape:groupmode="layer"
     id="layer1"
     transform="translate(28.64344,-15.45853)">
    <path
       style="fill:#000000;stroke-width:0.264583"
       d="m 99.682006,268.93002 c -0.60868,-0.30621 -1.04572,-1.76861 -5.75074,-19.24264 -2.8006,-10.40119 -5.09377,-19.27439 -5.09594,-19.71823 -0.002,-0.44384 0.13892,-0.94986 0.31354,-1.12448 0.23668,-0.23668 3.09437,-0.3175 11.225904,-0.3175 11.79799,0 11.75121,-0.006 11.73217,1.40796 -0.011,0.81853 -10.196,38.53844 -10.47627,38.79874 -0.46785,0.43449 -1.307,0.51896 -1.948664,0.19615 z M 10.779287,231.96675 c -0.291041,-0.29104 -0.529166,-0.76393 -0.529166,-1.05086 0,-0.7439 19.567553,-34.64808 20.257981,-35.10047 0.40957,-0.26835 0.752401,-0.30427 1.203701,-0.12609 0.347064,0.13703 3.93501,3.56814 7.973213,7.6247 6.54186,6.57158 7.34219,7.46768 7.34219,8.2208 0,0.6867 -0.18612,0.96516 -0.99219,1.4845 -1.12314,0.72362 -31.753921,18.36355 -33.059777,19.03876 -1.104035,0.57086 -1.552406,0.55221 -2.195952,-0.0913 z m 152.818253,-9.3965 c -9.4471,-5.4447 -17.27364,-10.05247 -17.39231,-10.23949 -0.68415,-1.07826 -0.30856,-1.55574 6.98604,-8.88106 3.96544,-3.98215 7.53155,-7.41026 7.92468,-7.61802 0.53365,-0.28203 0.8689,-0.3075 1.32292,-0.1005 0.80092,0.36516 20.15081,33.85458 20.26791,35.07828 0.0606,0.63313 -0.0691,0.94728 -0.52189,1.26444 -0.33138,0.23211 -0.78438,0.41612 -1.00666,0.40891 -0.22228,-0.007 -8.13359,-4.46787 -17.58069,-9.91256 z M 95.390736,210.79443 c -16.14815,-1.17746 -31.71288,-8.27375 -43.22199,-19.7058 -10.79842,-10.72612 -17.398021,-23.79781 -19.722672,-39.06425 -0.816647,-5.36309 -0.822386,-14.10647 -0.01273,-19.40867 1.381781,-9.049 4.040716,-16.82527 8.303429,-24.28405 10.781793,-18.865703 29.337183,-31.313515 51.005013,-34.216529 3.99592,-0.535365 12.440644,-0.601059 16.271874,-0.126584 16.20716,2.007158 29.91277,8.651309 41.07128,19.910364 10.47494,10.569329 16.78103,23.047479 19.29888,38.187639 0.69583,4.18408 0.69583,16.18882 0,20.37291 -2.60144,15.64274 -9.19321,28.3458 -20.31973,39.15833 -10.79684,10.49216 -23.97829,16.84254 -38.95577,18.76757 -3.94763,0.50739 -9.924764,0.68563 -13.717584,0.40907 z m 26.512884,-36.50684 h 15.59059 l 0.37471,-1.25677 c 0.20609,-0.69123 1.2496,-4.05474 2.3189,-7.47448 1.35691,-4.33954 1.94135,-6.61732 1.9348,-7.54063 -0.008,-1.07608 -0.51428,-2.50544 -2.71531,-7.66065 -1.48826,-3.48575 -2.76012,-6.39194 -2.82637,-6.45819 -0.17602,-0.17602 -9.64957,4.25391 -9.64957,4.51224 0,0.12017 1.31021,2.83683 2.91157,6.03703 l 2.91157,5.81853 h -13.48497 -13.48498 l -0.0761,-2.37135 -0.0761,-2.37134 -5.794024,5.9618 -5.79401,5.96181 6.058604,5.89437 6.05859,5.89437 0.0757,-2.47337 0.0757,-2.47337 z m -35.718084,-9.09505 v -5.39088 l -6.52571,0.13858 c -5.52535,0.11734 -6.50231,0.0819 -6.37314,-0.23152 0.65062,-1.57832 11.22584,-23.74894 11.44836,-24.00113 0.0403,-0.0457 0.93118,0.34887 1.97966,0.87687 1.04847,0.528 1.96927,0.89705 2.04622,0.8201 0.0769,-0.0769 -1.1459,-3.60199 -2.71745,-7.83342 -2.34009,-6.30078 -2.93312,-7.66287 -3.27588,-7.52421 -0.23018,0.0931 -3.57367,1.36141 -7.42998,2.81843 -3.8563,1.45703 -7.24958,2.74444 -7.54062,2.86092 -0.43671,0.17478 -0.14838,0.3893 1.65015,1.22769 1.19863,0.55875 2.1809,1.15386 2.18281,1.32246 0.002,0.1686 -2.92335,6.50901 -6.5006,14.08979 -3.57726,7.58078 -6.464,13.90354 -6.41498,14.05058 0.16661,0.49985 11.72431,10.89238 12.5222,11.25981 0.70666,0.32542 6.29112,0.68882 13.29531,0.86517 l 1.65365,0.0416 z m 40.190554,-28.67422 c 2.22189,-8.516 3.78773,-14.91356 3.67723,-15.02406 -0.0762,-0.0762 -0.98803,0.35115 -2.02624,0.94972 -1.03821,0.59857 -2.00098,1.04848 -2.13949,0.99981 -0.13852,-0.0487 -3.24885,-5.32725 -6.91186,-11.73017 -3.663,-6.40291 -7.11795,-12.429473 -7.67764,-13.392352 l -1.01764,-1.750693 -3.38235,0.756283 c -11.548994,2.582317 -12.919034,2.936342 -13.532414,3.496842 -0.98217,0.8975 -8.81494,11.2778 -8.72023,11.55641 0.0853,0.25095 7.74279,5.77589 8.30352,5.99106 0.16489,0.0633 1.8955,-2.26697 3.84579,-5.17833 1.95029,-2.91136 3.617554,-5.2984 3.705024,-5.30453 0.0875,-0.006 2.93977,4.84065 6.33842,10.77063 3.39865,5.92998 6.39816,11.15763 6.66557,11.61702 l 0.4862,0.83525 -1.99053,1.13252 c -1.09478,0.62289 -1.94273,1.18031 -1.88433,1.23871 0.18148,0.18148 14.79799,3.97676 15.41699,4.00313 0.4617,0.0197 0.63972,-0.18435 0.84398,-0.96725 z M -9.1967544,148.76245 c -17.6399816,-4.77529 -18.8096156,-5.12817 -19.1822916,-5.7874 -0.352967,-0.62438 -0.352748,-0.78093 0.002,-1.4151 0.377403,-0.67471 1.416284,-0.98767 19.3145826,-5.81847 10.40365,-2.80797 19.2246964,-5.10647 19.6023234,-5.10777 0.377629,-0.001 0.883645,0.21536 1.124479,0.48148 0.392073,0.43324 0.437883,1.58964 0.437883,11.05363 0,11.78139 5.29e-4,11.77845 -1.668648,11.71243 -0.4646934,-0.0184 -9.2983314,-2.32184 -19.6303104,-5.1188 z m 199.5368444,4.66837 c -0.39229,-0.43348 -0.43788,-1.60008 -0.43788,-11.20379 0,-10.04927 0.0303,-10.74732 0.48385,-11.15781 0.26612,-0.24084 0.77214,-0.43605 1.12448,-0.43381 0.35234,0.002 9.14908,2.29419 19.5483,5.09323 18.0382,4.85513 18.92638,5.12261 19.31458,5.81676 0.36601,0.65446 0.36605,0.80074 5.3e-4,1.45521 -0.38783,0.69424 -1.27349,0.96089 -19.31458,5.81515 -10.39947,2.79815 -19.21709,5.0901 -19.59472,5.09323 -0.37763,0.003 -0.88365,-0.21205 -1.12448,-0.47817 z M 22.636647,88.76102 C 22.040054,88.285127 5.2230366,57.009671 5.2230366,56.37605 c 0,-0.808787 1.167794,-1.778662 1.903582,-1.58096 0.335479,0.09014 7.6941794,4.004 16.3526684,8.697465 15.096236,8.183139 15.74583,8.566163 15.818739,9.327319 0.06914,0.721847 -0.626864,1.494812 -7.68327,8.532813 -4.267615,4.256484 -7.940243,7.739062 -8.161398,7.739062 -0.221155,0 -0.588674,-0.148828 -0.816711,-0.330729 z M 161.56135,81.516191 c -4.20534,-4.196167 -7.71736,-7.853994 -7.80449,-8.128505 -0.0926,-0.291727 0.0456,-0.763815 0.33253,-1.136171 0.59467,-0.77166 34.28083,-20.201432 35.02402,-20.201432 0.65491,0 1.58255,0.900253 1.58255,1.535835 0,0.463195 -19.3244,34.275275 -19.93595,34.882124 -0.16757,0.166282 -0.58546,0.386754 -0.92863,0.489939 -0.5528,0.166214 -1.49589,-0.682426 -8.27003,-7.44179 z M 89.294386,55.733056 c -0.28227,-0.164412 -0.46302,-0.587591 -0.46302,-1.084095 0,-1.156243 10.03024,-38.371341 10.46408,-38.824745 0.42513,-0.444309 1.866414,-0.497398 2.279834,-0.08398 0.31883,0.318827 10.52195,37.951553 10.53275,38.848523 0.004,0.304868 -0.21106,0.751353 -0.47718,0.992187 -0.43375,0.392544 -1.5912,0.437049 -11.17864,0.429837 -6.770574,-0.0051 -10.864694,-0.107 -11.157824,-0.277731 z"
       id="path48" />
  </g>
</svg>
