<?xml version="1.0" encoding="UTF-8" standalone="no"?>
<!-- Created with Inkscape (http://www.inkscape.org/) -->

<svg
   width="211.28987mm"
   height="237.65329mm"
   viewBox="0 0 211.28987 237.65329"
   version="1.1"
   id="svg4051"
   inkscape:version="1.1.1 (50ffc5b540, 2022-01-11)"
   sodipodi:docname="stopwatch.svg"
   xmlns:inkscape="http://www.inkscape.org/namespaces/inkscape"
   xmlns:sodipodi="http://sodipodi.sourceforge.net/DTD/sodipodi-0.dtd"
   xmlns="http://www.w3.org/2000/svg"
   xmlns:svg="http://www.w3.org/2000/svg">
  <sodipodi:namedview
     id="namedview4053"
     pagecolor="#505050"
     bordercolor="#eeeeee"
     borderopacity="1"
     inkscape:pageshadow="0"
     inkscape:pageopacity="0"
     inkscape:pagecheckerboard="0"
     inkscape:document-units="mm"
     showgrid="false"
     inkscape:zoom="0.59776235"
     inkscape:cx="490.99781"
     inkscape:cy="387.27766"
     inkscape:window-width="1600"
     inkscape:window-height="838"
     inkscape:window-x="0"
     inkscape:window-y="34"
     inkscape:window-maximized="1"
     inkscape:current-layer="layer1" />
  <defs
     id="defs4048" />
  <g
     inkscape:label="Layer 1"
     inkscape:groupmode="layer"
     id="layer1"
     transform="translate(24.644938,49.777464)">
    <path
       style="fill:#000000;stroke-width:0.264583"
       d="m 74.52537,187.79409 c -0.58208,-0.0568 -2.36802,-0.22797 -3.96875,-0.38042 -21.175893,-2.01666 -41.379561,-10.58572 -57.940158,-24.5744 -9.646518,-8.14838 -18.779284,-19.42928 -24.692836,-30.50089 -8.510291,-15.93333 -12.568564,-32.10653 -12.568564,-50.088754 0,-9.73243 0.849812,-16.75984 3.119574,-25.796879 C -15.210973,31.312028 -0.176573,9.814623 21.608705,-5.223846 34.981663,-14.455254 52.24916,-20.919089 68.30688,-22.704624 l 2.9112,-0.32371 v -3.218029 -3.218027 l -1.66143,-0.133363 c -2.866249,-0.230077 -5.559191,-2.082829 -7.025949,-4.833877 -0.670798,-1.258149 -0.705328,-1.510742 -0.705328,-5.159375 0,-3.656529 0.03438,-3.906464 0.73302,-5.329107 0.855231,-1.741512 2.627707,-3.475841 4.379875,-4.285616 1.214012,-0.561062 1.476682,-0.571736 14.069392,-0.571736 12.59272,0 12.85539,0.01067 14.0694,0.571736 1.75217,0.809775 3.52464,2.544104 4.37988,4.285616 0.69498,1.415201 0.73302,1.684841 0.73302,5.196815 0,4.274782 -0.30629,5.27014 -2.28091,7.412347 -1.48756,1.613816 -3.30405,2.516654 -5.50061,2.733937 l -1.74348,0.172466 v 3.175 3.175001 l 3.57187,0.450852 c 20.21993,2.552227 38.91125,10.708394 54.44692,23.758523 1.81898,1.527969 3.4682,2.896092 3.66491,3.040277 0.2702,0.198038 1.12989,-0.50805 3.51517,-2.887115 l 3.15749,-3.149269 -0.6057,-0.817049 c -1.8202,-2.455315 -1.55301,-4.834594 0.8226,-7.325178 0.79812,-0.83674 1.8466,-1.70901 2.32996,-1.93838 1.21167,-0.574979 3.37328,-0.532934 4.57971,0.08908 0.53991,0.278366 3.31089,2.867975 6.15775,5.754688 5.20377,5.276636 5.80411,6.093182 5.80411,7.894405 0,1.221105 -0.74149,2.712709 -2.05236,4.128608 -1.77044,1.912284 -3.13451,2.495328 -5.30679,2.268281 l -1.53113,-0.160036 -3.3887,3.396237 -3.3887,3.396239 2.49992,3.274918 c 12.13609,15.898418 19.12598,33.539134 21.26916,53.678041 0.57954,5.44582 0.57823,15.40794 -0.003,20.90209 -2.22694,21.059144 -9.84589,39.613364 -23.03299,56.091664 -2.97246,3.71431 -10.42656,11.31976 -14.03753,14.32255 -16.42103,13.65531 -34.84833,21.60196 -56.09167,24.18913 -3.23886,0.39446 -16.0314,0.73296 -18.52083,0.49008 z m 11.91077,-14.14195 c 21.57118,-1.40587 41.15655,-9.76389 56.77393,-24.2282 14.00914,-12.9748 23.86871,-30.47277 27.48613,-48.78015 1.44821,-7.329274 1.72544,-10.315134 1.72012,-18.526454 -0.005,-7.8282 -0.14847,-9.56062 -1.34693,-16.27188 C 169.14016,55.041941 165.03178,44.239302 159.26476,34.806176 140.0087,3.309001 104.1538,-13.629633 67.910789,-8.351439 47.001692,-5.306373 28.049019,4.639656 13.831728,20.028297 c -22.526145,24.382061 -30.1523,58.846589 -19.962051,90.213573 6.454304,19.86724 19.104042,36.58517 36.470279,48.19924 16.486891,11.02599 36.605361,16.48131 56.096184,15.21103 z M 75.05454,96.008276 c -6.11405,-1.26368 -11.250203,-6.24983 -12.839701,-12.4647 -2.24649,-8.7837 3.300151,-17.99815 12.186701,-20.245372 2.76156,-0.698339 6.90954,-0.58945 9.26468,0.243212 4.72004,1.66877 8.12441,4.74927 10.22177,9.24935 l 0.89403,1.91823 h 25.66507 c 21.20441,0 25.81305,0.0633 26.51647,0.36429 1.90206,0.81384 3.26854,3.14818 2.9778,5.08694 -0.31142,2.07675 -1.85186,3.70001 -3.88372,4.09254 -0.63421,0.12252 -12.4809,0.22796 -26.32598,0.23429 l -25.17288,0.0115 -0.1793,0.7276 c -0.62002,2.51614 -3.99879,6.68753 -6.90192,8.52102 -3.53824,2.2346 -8.33079,3.10688 -12.42302,2.26107 z m 81.62396,-15.85175 c 0,-0.64187 -0.22557,-1.89181 -0.50127,-2.77763 -1.00312,-3.22304 -3.1567,-5.67587 -6.35958,-7.24327 l -1.73811,-0.85059 -24.49981,-0.0727 -24.4998,-0.0727 -0.88418,-1.36452 c -1.23147,-1.90049 -4.03709,-4.812573 -5.95557,-6.18157 -3.15849,-2.253856 -7.33967,-3.906673 -10.70335,-4.231037 -0.80036,-0.07718 -1.96122,-0.201673 -2.57969,-0.276653 L 77.83266,56.949529 V 26.951107 c 0,-16.49911 0.0893,-30.049897 0.19844,-30.112862 0.41196,-0.237662 8.59975,0.345323 12.26043,0.872966 27.91234,4.02322 52.27409,22.151502 64.2118,47.781865 4.34306,9.324573 6.97838,19.29036 7.72576,29.21592 0.14793,1.96453 0.26925,4.25649 0.2696,5.09323 l 6.4e-4,1.52136 h -2.91041 -2.91042 z"
       id="path4014" />
  </g>
</svg>
