<?xml version="1.0" encoding="UTF-8" standalone="no"?>
<!-- Created with Inkscape (http://www.inkscape.org/) -->

<svg
   width="73.042236mm"
   height="103.19034mm"
   viewBox="0 0 73.042236 103.19034"
   version="1.1"
   id="svg1651"
   inkscape:version="1.1.1 (eb90963e84, 2021-10-02)"
   sodipodi:docname="water_heater.svg"
   xmlns:inkscape="http://www.inkscape.org/namespaces/inkscape"
   xmlns:sodipodi="http://sodipodi.sourceforge.net/DTD/sodipodi-0.dtd"
   xmlns="http://www.w3.org/2000/svg"
   xmlns:svg="http://www.w3.org/2000/svg">
  <sodipodi:namedview
     id="namedview1653"
     pagecolor="#505050"
     bordercolor="#eeeeee"
     borderopacity="1"
     inkscape:pageshadow="0"
     inkscape:pageopacity="0"
     inkscape:pagecheckerboard="0"
     inkscape:document-units="mm"
     showgrid="false"
     inkscape:zoom="0.59776235"
     inkscape:cx="251.7723"
     inkscape:cy="149.72505"
     inkscape:window-width="1600"
     inkscape:window-height="838"
     inkscape:window-x="0"
     inkscape:window-y="34"
     inkscape:window-maximized="1"
     inkscape:current-layer="layer1" />
  <defs
     id="defs1648" />
  <g
     inkscape:label="Layer 1"
     inkscape:groupmode="layer"
     id="layer1"
     transform="translate(-38.724785,-109.07696)">
    <path
       style="fill:#000000;stroke-width:0.264583"
       d="m 50.494476,211.88951 c -0.424296,-0.31025 -0.529825,-0.77058 -0.606959,-2.64763 -0.09093,-2.2127 -0.111675,-2.27597 -0.79375,-2.42093 -5.154716,-1.09551 -9.247921,-5.33519 -10.075487,-10.43603 -0.398113,-2.45384 -0.388003,-74.3319 0.0108,-76.70236 0.608592,-3.61753 3.206872,-7.34142 6.244352,-8.94948 3.280339,-1.73664 1.811573,-1.65553 29.975168,-1.65553 22.63006,0 25.73369,0.0485 27.00562,0.42212 4.84682,1.42364 8.45063,5.39534 9.2247,10.16635 0.38161,2.35215 0.3853,74.33253 0.004,76.72403 -0.38987,2.44482 -1.56068,4.77521 -3.33226,6.63251 -1.76004,1.84523 -3.54088,2.93745 -5.82267,3.57117 l -1.62798,0.45214 -0.0918,2.23405 c -0.0756,1.84035 -0.18233,2.30022 -0.60541,2.60959 -0.41425,0.3029 -1.92891,0.37554 -7.83034,0.37554 -8.71174,0 -8.19253,0.19835 -8.19253,-3.12969 v -2.16198 h -8.73125 -8.73125 v 2.20795 c 0,3.2705 0.49901,3.08372 -8.238494,3.08372 -5.861743,0 -7.370315,-0.0728 -7.784375,-0.37554 z M 63.342344,208.026 v -1.06404 l -5.093229,0.0719 -5.093229,0.0718 -0.08212,0.99219 -0.08212,0.99219 h 5.175345 5.175348 z m 34.081076,0.0719 -0.0821,-0.99219 -5.09323,-0.0718 -5.09323,-0.0719 v 1.06404 1.06405 h 5.17535 5.17535 z m 2.9264,-4.3124 c 3.90582,-0.63377 6.87877,-3.28677 7.83069,-6.98798 0.60325,-2.3455 0.61462,-75.16453 0.0121,-77.47776 -0.69986,-2.68695 -2.57293,-4.94831 -5.14486,-6.21141 l -1.47311,-0.72346 H 75.24859 48.922552 l -1.488159,0.73082 c -1.836195,0.90174 -3.743529,2.89793 -4.681908,4.90002 l -0.709099,1.51291 v 38.49687 38.49687 l 0.819523,1.71979 c 1.46812,3.08089 4.061465,5.07531 7.19737,5.53516 2.262386,0.33176 48.249261,0.33923 50.289541,0.008 z m -40.85488,-4.71774 c -3.798335,-1.72534 -4.042773,-7.2052 -0.412414,-9.24558 1.019043,-0.57273 1.10622,-0.57584 16.146484,-0.57584 14.64908,0 15.15467,0.0167 16.16941,0.53439 1.91578,0.97736 2.98518,3.47229 2.52949,5.90134 -0.24014,1.28006 -1.98845,3.1842 -3.2785,3.57071 -0.74733,0.2239 -5.15323,0.31066 -15.5638,0.3065 -13.516302,-0.005 -14.5954,-0.0394 -15.59067,-0.49152 z m 30.79779,-3.22795 c 1.17083,-1.25674 0.56712,-3.24993 -1.07474,-3.54833 -0.47989,-0.0872 -7.10411,-0.12345 -14.72051,-0.0805 l -13.847986,0.0781 -0.505658,0.62462 c -0.691452,0.85413 -0.656392,2.25704 0.0734,2.93695 0.568132,0.52929 0.852485,0.53947 15.070944,0.53947 14.33652,0 14.49738,-0.006 15.00455,-0.55028 z M 73.20571,142.9166 c -6.09319,-1.01615 -10.654015,-7.31468 -9.656337,-13.33547 0.972207,-5.86708 5.939527,-10.19396 11.688667,-10.18164 5.7832,0.0124 10.73733,4.31315 11.70664,10.16272 1.03579,6.25077 -3.61467,12.44842 -10.0377,13.37721 -2.00433,0.28983 -1.81968,0.29097 -3.70127,-0.0228 z m 6.67309,-4.33067 c 1.40824,-0.82704 2.30052,-1.82091 3.2133,-3.57917 0.65951,-1.27039 0.75478,-1.74084 0.75011,-3.70417 -0.007,-2.83031 -0.68307,-4.48491 -2.54533,-6.22683 -1.99286,-1.86409 -3.32801,-2.37423 -6.18058,-2.36149 -1.95272,0.009 -2.58834,0.11924 -3.53203,0.61411 -1.74012,0.91252 -3.38481,2.56934 -4.20161,4.2326 -1.43225,2.91648 -0.86019,6.86531 1.37796,9.51186 0.75032,0.88722 3.15305,2.4248 3.7963,2.42935 0.19306,10e-4 -0.0323,-0.32007 -0.50083,-0.71431 -1.74248,-1.4662 -2.6377,-4.97605 -1.81865,-7.13031 l 0.28052,-0.73781 0.49922,1.11506 c 0.34362,0.76751 0.79004,1.25373 1.43227,1.55999 1.29164,0.61594 2.12587,0.20076 2.88078,-1.43371 0.51407,-1.11303 0.57971,-1.69863 0.57886,-5.16416 -0.001,-4.45608 -0.0982,-4.42881 1.9978,-0.56074 3.29451,6.07974 3.49594,9.30368 0.75336,12.05799 -1.03395,1.03838 -1.12063,1.19605 -0.53649,0.97588 0.38319,-0.14443 1.17296,-0.54229 1.75504,-0.88414 z"
       id="path1516" />
  </g>
</svg>
